<svg width="50" height="47" viewBox="0 0 50 47" fill="none" xmlns="http://www.w3.org/2000/svg">
    <g clip-path="url(#clip0_1623_255)">
        <mask id="mask0_1623_255" style="mask-type:luminance" maskUnits="userSpaceOnUse" x="-16" y="-307" width="536" height="762">
            <path d="M-15.4712 454.501H519.282V-306.676H-15.4712V454.501Z" fill="white"/>
        </mask>
        <g mask="url(#mask0_1623_255)">
            <path d="M38.3336 17.7007C38.3336 20.942 35.7392 23.5694 32.5385 23.5694C29.3377 23.5694 26.7425 20.942 26.7425 17.7007C26.7425 14.4594 29.3377 11.832 32.5385 11.832C35.7392 11.832 38.3336 14.4594 38.3336 17.7007ZM44.1709 17.7432C44.1709 24.2493 38.9624 29.5231 32.5385 29.5231C26.1136 29.5231 20.906 24.2493 20.906 17.7432C20.906 11.2371 26.1136 5.96241 32.5385 5.96241C38.9624 5.96241 44.1709 11.2371 44.1709 17.7432ZM49.949 17.6835C49.949 27.421 42.1542 35.3149 32.5385 35.3149C22.9228 35.3149 15.1271 27.421 15.1271 17.6835C15.1271 7.94517 22.9228 0.0512203 32.5385 0.0512203C42.1542 0.0512203 49.949 7.94517 49.949 17.6835ZM38.3336 35.333C38.3336 38.5743 35.7392 41.2017 32.5385 41.2017C29.3377 41.2017 26.7425 38.5743 26.7425 35.333C26.7425 32.0917 29.3377 29.4634 32.5385 29.4634C35.7392 29.4634 38.3336 32.0917 38.3336 35.333ZM44.1709 35.3746C44.1709 41.8807 38.9624 47.1554 32.5385 47.1554C26.1136 47.1554 20.906 41.8807 20.906 35.3746C20.906 28.8685 26.1136 23.5947 32.5385 23.5947C38.9624 23.5947 44.1709 28.8685 44.1709 35.3746ZM49.949 35.3149C49.949 45.0533 42.1542 52.9473 32.5385 52.9473C22.9228 52.9473 15.1271 45.0533 15.1271 35.3149C15.1271 25.5775 22.9228 17.6835 32.5385 17.6835C42.1542 17.6835 49.949 25.5775 49.949 35.3149ZM23.2579 26.3252C23.2579 29.5665 20.6635 32.1939 17.4627 32.1939C14.262 32.1939 11.6676 29.5665 11.6676 26.3252C11.6676 23.0839 14.262 20.4556 17.4627 20.4556C20.6635 20.4556 23.2579 23.0839 23.2579 26.3252ZM29.0952 26.3677C29.0952 32.8738 23.8867 38.1476 17.4627 38.1476C11.0379 38.1476 5.83029 32.8738 5.83029 26.3677C5.83029 19.8607 11.0379 14.5869 17.4627 14.5869C23.8867 14.5869 29.0952 19.8607 29.0952 26.3677ZM34.8732 26.308C34.8732 36.0455 27.0785 43.9394 17.4627 43.9394C7.84704 43.9394 0.0522461 36.0455 0.0522461 26.308C0.0522461 16.5697 7.84704 8.6757 17.4627 8.6757C27.0785 8.6757 34.8732 16.5697 34.8732 26.308Z" stroke="url(#paint0_radial_1623_255)" stroke-width="0.153333" stroke-miterlimit="10"/>
        </g>
        <path d="M27.5562 5.86901C27.4574 5.86991 27.3568 5.88348 27.2616 5.90609C27.0747 5.95039 26.9552 6.07606 26.94 6.23609C26.9283 6.35905 26.9202 6.48201 26.9193 6.60587C26.9175 7.10676 26.9184 7.60675 26.9184 8.10764C26.9193 9.25498 26.9157 10.4032 26.9202 11.5505C26.9229 12.5415 26.9337 13.5315 26.94 14.5224C26.9427 14.791 27.205 14.9546 27.4332 14.8154C27.5293 14.7566 27.6173 14.6653 27.6811 14.5694C29.0484 12.508 30.9438 11.5515 33.39 11.8281C34.9585 12.0044 36.2359 12.772 37.2052 14.0306C38.2427 15.3777 38.6209 16.9102 38.3362 18.6001C38.179 19.5313 37.8592 20.3966 37.304 21.1633C36.5611 22.1885 35.5541 22.835 34.3772 23.2319C33.8481 23.4109 33.3145 23.5583 32.745 23.5411C32.4117 23.5312 32.0748 23.5601 31.7406 23.5854C30.3222 23.6948 28.9684 24.0537 27.6766 24.6613C27.1637 24.9045 26.9076 25.2951 26.9094 25.8728C26.9139 27.8936 26.9121 29.9134 26.9139 31.9341C26.9139 31.973 26.9175 32.0173 26.9364 32.0499C27.0693 32.2885 27.3227 32.369 27.5526 32.2235C27.6865 32.1376 27.8114 32.02 27.9075 31.8907C28.2488 31.4296 28.6333 31.0101 29.0897 30.6647C30.3887 29.6811 31.8493 29.285 33.4529 29.4939C34.733 29.6593 35.8101 30.2705 36.7282 31.1747C37.4953 31.9287 37.9867 32.8464 38.2544 33.8907C38.3056 34.0932 38.4449 34.2044 38.6506 34.189C38.7485 34.1827 38.8482 34.1565 38.939 34.1212C40.5299 33.4974 41.9978 32.6529 43.3453 31.5951C43.4881 31.4839 43.5447 31.3356 43.5159 31.1593C43.5034 31.0788 43.4728 31.0002 43.4423 30.9251C42.9392 29.6774 42.2547 28.5428 41.3644 27.5401C41.0536 27.1893 40.7185 26.8584 40.3898 26.5139C41.3456 25.6441 42.1505 24.6514 42.7793 23.5167C44.0648 21.1985 44.5319 18.7185 44.1852 16.0839C43.9372 14.1987 43.2734 12.4728 42.1963 10.9168C40.7239 8.79116 38.7665 7.31201 36.3392 6.47478C35.0878 6.04351 33.796 5.85545 32.4782 5.85455C32.4081 5.85455 32.338 5.85455 32.268 5.85455C30.6968 5.85455 29.1265 5.86268 27.5562 5.86901Z" fill="url(#paint1_linear_1623_255)"/>
    </g>
    <defs>
        <radialGradient id="paint0_radial_1623_255" cx="0" cy="0" r="1" gradientUnits="userSpaceOnUse" gradientTransform="translate(25.0004 26.4997) scale(26.1915 27.763)">
            <stop stop-color="#29FADB"/>
            <stop offset="0.64571" stop-color="#141331"/>
            <stop offset="0.895" stop-color="#141331"/>
            <stop offset="1" stop-color="#141331"/>
        </radialGradient>
        <linearGradient id="paint1_linear_1623_255" x1="26.9092" y1="34.1909" x2="44.2963" y2="34.1909" gradientUnits="userSpaceOnUse">
            <stop stop-color="#29FADB" stop-opacity="0"/>
            <stop offset="1" stop-color="#29FADB"/>
        </linearGradient>
        <clipPath id="clip0_1623_255">
            <rect width="50" height="53" fill="white"/>
        </clipPath>
    </defs>
</svg>