<svg xmlns="http://www.w3.org/2000/svg" xmlns:xlink="http://www.w3.org/1999/xlink"  viewBox="0 0 980.506 1586.874">
  <defs>
    <clipPath id="clip-path">
      <path id="Tracé_2424" data-name="Tracé 2424" d="M86.715-76.349a80.589,80.589,0,0,0-19.357,2.416h0c-11.451,2.886-16.753,9.757-17.506,21.491h0c-.471,6.965-.784,13.929-.784,20.894h0q.423,217.179.973,434.263h0c0,2.667.314,5.333.5,7.969h0c.816,14.055,16.6,23.091,29.647,13.428h0a61.656,61.656,0,0,0,13.773-14.62h0c24.565-35.985,53.02-68.267,88.158-94.275h0c51.389-38.056,109.24-57.256,172.959-59.295h0c43.922-1.412,87.028,3.294,128.629,18.008h0c68.016,24.063,119.625,68.8,159.562,127.97h0c31.09,45.993,49.287,96.723,53.083,152.158h0c2.635,38.212-1.412,75.985-10.823,113.193h0c-14.777,58.448-42.322,109.585-85.9,151.688h0c-34.918,33.757-76.173,56.973-121.57,73.224h0c-30.84,11.075-62.181,20.518-95.373,20.33h0A723.583,723.583,0,0,0,258.7,922.814h0A623.988,623.988,0,0,0,90.1,976.461h0c-9.694,4.643-18.667,12.016-26.1,19.89h0c-12.047,12.769-15.624,29.334-15.624,46.589h0q-.047,121.177.031,242.355h0c.031,31.781-.031,63.593.094,95.342h0c.031,14.714,14.369,25.914,28.549,22.275h0c12.173-3.137,20.549-11.733,27.734-21.239h0c20.079-26.385,42.2-50.7,68.926-70.558h0c81.6-60.581,172.739-81.946,271.438-58.855h0c99.264,23.216,171.547,83.828,217.79,174.464h0c10.322,20.173,16.628,42.479,23.749,64.158h0c4.925,15,13.24,20.926,28.957,17.851h0a53.241,53.241,0,0,0,11.7-3.357h0c35.294-16.094,71.154-31.153,105.632-48.848h0c50.542-25.914,97.852-57.13,142.276-92.675h0c9.851-7.906,12.173-17.788,8.408-28.926h0a370.844,370.844,0,0,0-14.055-34.573h0c-29.239-64.22-66.949-122.825-115.7-174.057h0c-14.682-15.435-29.333-30.9-44.487-46.84h0c1.475-1.443,2.6-2.573,3.765-3.7h0c30.746-28.455,59.295-58.981,84.079-92.832h0c74.511-101.8,118.84-215.03,129.382-341.148h0a675.768,675.768,0,0,0-.565-116.017h0a658.558,658.558,0,0,0-20.612-116.268h0c-36.706-133.46-108.9-244.3-213.775-333.9h0C727.757,21,654.815-17.776,575.191-44.349h0A631.143,631.143,0,0,0,378.263-77.134h0q-34.636-.188-69.271-.22h0c-74.071,0-148.174.659-222.277,1" transform="translate(-48.365 77.353)" fill="none" opacity="0.14"/>
    </clipPath>
    <linearGradient id="linear-gradient" x1="0.59" y1="0.43" x2="0.972" y2="0.43" gradientUnits="objectBoundingBox">
      <stop offset="0" stop-color="#181f2b"/>
      <stop offset="0.1" stop-color="#1a353d"/>
      <stop offset="0.2" stop-color="#1c4b4f"/>
      <stop offset="0.3" stop-color="#1d6160"/>
      <stop offset="0.4" stop-color="#1f7772"/>
      <stop offset="0.5" stop-color="#208c83"/>
      <stop offset="0.6" stop-color="#22a295"/>
      <stop offset="0.7" stop-color="#24b8a6"/>
      <stop offset="0.8" stop-color="#25ceb8"/>
      <stop offset="0.9" stop-color="#27e4c9"/>
      <stop offset="1" stop-color="#28f9db"/>
    </linearGradient>
  </defs>
  <g id="reactic-lettre-r-logo" opacity="0.14" clip-path="url(#clip-path)">
    <g id="Groupe_3027" data-name="Groupe 3027" transform="translate(-1517.335 -439.851)">
      <path id="Tracé_2423" data-name="Tracé 2423" d="M-48.365-39.311H2521.851V2827.324H-48.365Z" transform="translate(48.365 39.311)" fill="url(#linear-gradient)"/>
    </g>
  </g>
</svg>