<svg width="299" height="440" viewBox="0 0 299 440" fill="none" xmlns="http://www.w3.org/2000/svg">
<path opacity="0.3" d="M272.37 37.23H49.11V193.39C59.2767 179.157 74.12 167.567 93.64 158.62C113.16 149.267 134.307 144.59 157.08 144.59C190.427 144.59 217.673 151.503 238.82 165.33C259.967 178.75 275.217 196.44 284.57 218.4C293.923 239.953 298.6 263.133 298.6 287.94C298.6 316.407 293.11 342.23 282.13 365.41C271.557 388.183 255.087 406.28 232.72 419.7C210.76 433.12 183.31 439.83 150.37 439.83C108.483 439.83 74.5267 429.053 48.5 407.5C22.4733 385.54 6.61334 356.057 0.920003 319.05H43.01C48.2967 345.89 60.4967 366.63 79.61 381.27C98.7233 395.91 122.31 403.23 150.37 403.23C185.75 403.23 212.387 392.86 230.28 372.12C248.58 350.973 257.73 323.117 257.73 288.55C257.73 254.797 248.58 228.567 230.28 209.86C211.98 190.747 185.75 181.19 151.59 181.19C128.003 181.19 107.263 186.68 89.37 197.66C71.4767 208.64 58.26 223.483 49.72 242.19H9.46V0.0199668H272.37V37.23Z" fill="#43425A"/>
</svg>
