<svg class="animate-spin duration-1000" xmlns="http://www.w3.org/2000/svg" xmlns:xlink="http://www.w3.org/1999/xlink" width="578" height="599" viewBox="0 0 578 599 ">
    <defs>
        <filter id="Ellipse_1218" x="0" y="0" width="431" height="430" filterUnits="userSpaceOnUse">
            <feOffset dy="3" input="SourceAlpha"/>
            <feGaussianBlur stdDeviation="15" result="blur"/>
            <feFlood flood-color="#00ffce"/>
            <feComposite operator="in" in2="blur"/>
            <feComposite in="SourceGraphic"/>
        </filter>
        <filter id="Ellipse_1218-2" x="1" y="169" width="431" height="430" filterUnits="userSpaceOnUse">
            <feOffset dy="3" input="SourceAlpha"/>
            <feGaussianBlur stdDeviation="15" result="blur-2"/>
            <feFlood flood-color="#00ffce"/>
            <feComposite operator="in" in2="blur-2"/>
            <feComposite in="SourceGraphic"/>
        </filter>
        <filter id="Ellipse_1218-3" x="147" y="85" width="431" height="430" filterUnits="userSpaceOnUse">
            <feOffset dy="3" input="SourceAlpha"/>
            <feGaussianBlur stdDeviation="15" result="blur-3"/>
            <feFlood flood-color="#00ffce"/>
            <feComposite operator="in" in2="blur-3"/>
            <feComposite in="SourceGraphic"/>
        </filter>
    </defs>
    <g id="reactic-approche-creation-solution-digitale-entreprise-audience-technologie" transform="translate(-671.001 -285)">
        <g id="Groupe_2847" data-name="Groupe 2847" transform="translate(1753.237 8886.109)">
            <g transform="matrix(1, 0, 0, 1, -1082.24, -8601.11)" filter="url(#Ellipse_1218)">
                <ellipse id="Ellipse_1218-4" data-name="Ellipse 1218" cx="170.5" cy="170" rx="170.5" ry="170" transform="translate(45 42)" fill="#29fadb" opacity="0.243"/>
            </g>
            <ellipse id="Ellipse_1217" data-name="Ellipse 1217" cx="114.5" cy="114" rx="114.5" ry="114" transform="translate(-981.236 -8505.109)" fill="#29fadb" opacity="0.298"/>
            <circle id="Ellipse_1216" data-name="Ellipse 1216" cx="58" cy="58" r="58" transform="translate(-925.236 -8447.109)" fill="#29fadb"/>
        </g>
        <g id="Groupe_2906" data-name="Groupe 2906" transform="translate(1754.237 9055.109)">
            <g transform="matrix(1, 0, 0, 1, -1083.24, -8770.11)" filter="url(#Ellipse_1218-2)">
                <ellipse id="Ellipse_1218-5" data-name="Ellipse 1218" cx="170.5" cy="170" rx="170.5" ry="170" transform="translate(46 211)" fill="#29fadb" opacity="0.243"/>
            </g>
            <ellipse id="Ellipse_1217-2" data-name="Ellipse 1217" cx="114.5" cy="114" rx="114.5" ry="114" transform="translate(-981.236 -8505.109)" fill="#29fadb" opacity="0.298"/>
            <circle id="Ellipse_1216-2" data-name="Ellipse 1216" cx="58" cy="58" r="58" transform="translate(-925.236 -8447.109)" fill="#29fadb"/>
        </g>
        <g id="Groupe_2907" data-name="Groupe 2907" transform="translate(1900.237 8971.109)">
            <g transform="matrix(1, 0, 0, 1, -1229.24, -8686.11)" filter="url(#Ellipse_1218-3)">
                <ellipse id="Ellipse_1218-6" data-name="Ellipse 1218" cx="170.5" cy="170" rx="170.5" ry="170" transform="translate(192 127)" fill="#29fadb" opacity="0.243"/>
            </g>
            <ellipse id="Ellipse_1217-3" data-name="Ellipse 1217" cx="114.5" cy="114" rx="114.5" ry="114" transform="translate(-981.236 -8505.109)" fill="#29fadb" opacity="0.298"/>
            <circle id="Ellipse_1216-3" data-name="Ellipse 1216" cx="58" cy="58" r="58" transform="translate(-925.236 -8447.109)" fill="#29fadb"/>
        </g>
    </g>
</svg>