<svg width="44" height="44" viewBox="0 0 44 44" fill="none" xmlns="http://www.w3.org/2000/svg">
<g clip-path="url(#clip0_93_147)">
<path d="M22 44C34.1503 44 44 34.1503 44 22C44 9.84974 34.1503 0 22 0C9.84974 0 0 9.84974 0 22C0 34.1503 9.84974 44 22 44Z" fill="#3B5998"/>
<path d="M28.358 23.1481H24.4298V37.5386H18.4816V23.1481H15.6477V18.0906H18.4784V14.8174C18.4784 12.4773 19.5898 8.81226 24.4827 8.81226L28.8909 8.831V13.7403H25.6927C25.5145 13.731 25.3365 13.7612 25.1713 13.8288C25.0061 13.8963 24.8579 13.9995 24.7373 14.131C24.6166 14.2625 24.5265 14.419 24.4733 14.5894C24.4202 14.7597 24.4053 14.9397 24.4298 15.1165V18.093H28.8779L28.358 23.1481Z" fill="white"/>
</g>
<defs>
<clipPath id="clip0_93_147">
<rect width="44" height="44" fill="white"/>
</clipPath>
</defs>
</svg>
