<svg width="564" height="368" viewBox="0 0 564 368" fill="none" xmlns="http://www.w3.org/2000/svg">
<path d="M318.262 10.09V12.078H321.468V13.926H318.262V16.082H321.888V18H315.868V8.172H321.888V10.09H318.262ZM328.202 10.104C329.117 10.104 329.845 10.4027 330.386 11C330.937 11.588 331.212 12.4 331.212 13.436V18H328.832V13.758C328.832 13.2353 328.697 12.8293 328.426 12.54C328.156 12.2507 327.792 12.106 327.334 12.106C326.877 12.106 326.513 12.2507 326.242 12.54C325.972 12.8293 325.836 13.2353 325.836 13.758V18H323.442V10.188H325.836V11.224C326.079 10.8787 326.406 10.608 326.816 10.412C327.227 10.2067 327.689 10.104 328.202 10.104ZM336.39 15.76L338.084 10.188H340.632L337.86 18H334.906L332.134 10.188H334.696L336.39 15.76ZM342.843 9.376C342.423 9.376 342.078 9.25467 341.807 9.012C341.546 8.76 341.415 8.452 341.415 8.088C341.415 7.71467 341.546 7.40667 341.807 7.164C342.078 6.912 342.423 6.786 342.843 6.786C343.254 6.786 343.59 6.912 343.851 7.164C344.122 7.40667 344.257 7.71467 344.257 8.088C344.257 8.452 344.122 8.76 343.851 9.012C343.59 9.25467 343.254 9.376 342.843 9.376ZM344.033 10.188V18H341.639V10.188H344.033ZM348.162 11.49C348.442 11.0607 348.792 10.7247 349.212 10.482C349.632 10.23 350.099 10.104 350.612 10.104V12.638H349.954C349.357 12.638 348.909 12.7687 348.61 13.03C348.312 13.282 348.162 13.73 348.162 14.374V18H345.768V10.188H348.162V11.49ZM355.313 18.112C354.547 18.112 353.857 17.9487 353.241 17.622C352.634 17.2953 352.153 16.8287 351.799 16.222C351.453 15.6153 351.281 14.906 351.281 14.094C351.281 13.2913 351.458 12.5867 351.813 11.98C352.167 11.364 352.653 10.8927 353.269 10.566C353.885 10.2393 354.575 10.076 355.341 10.076C356.106 10.076 356.797 10.2393 357.413 10.566C358.029 10.8927 358.514 11.364 358.869 11.98C359.223 12.5867 359.401 13.2913 359.401 14.094C359.401 14.8967 359.219 15.606 358.855 16.222C358.5 16.8287 358.01 17.2953 357.385 17.622C356.769 17.9487 356.078 18.112 355.313 18.112ZM355.313 16.04C355.77 16.04 356.157 15.872 356.475 15.536C356.801 15.2 356.965 14.7193 356.965 14.094C356.965 13.4687 356.806 12.988 356.489 12.652C356.181 12.316 355.798 12.148 355.341 12.148C354.874 12.148 354.487 12.316 354.179 12.652C353.871 12.9787 353.717 13.4593 353.717 14.094C353.717 14.7193 353.866 15.2 354.165 15.536C354.473 15.872 354.855 16.04 355.313 16.04ZM365.431 10.104C366.345 10.104 367.073 10.4027 367.615 11C368.165 11.588 368.441 12.4 368.441 13.436V18H366.061V13.758C366.061 13.2353 365.925 12.8293 365.655 12.54C365.384 12.2507 365.02 12.106 364.563 12.106C364.105 12.106 363.741 12.2507 363.471 12.54C363.2 12.8293 363.065 13.2353 363.065 13.758V18H360.671V10.188H363.065V11.224C363.307 10.8787 363.634 10.608 364.045 10.412C364.455 10.2067 364.917 10.104 365.431 10.104ZM374.864 10.104C375.779 10.104 376.507 10.4027 377.048 11C377.599 11.588 377.874 12.4 377.874 13.436V18H375.494V13.758C375.494 13.2353 375.359 12.8293 375.088 12.54C374.818 12.2507 374.454 12.106 373.996 12.106C373.539 12.106 373.175 12.2507 372.904 12.54C372.634 12.8293 372.498 13.2353 372.498 13.758V18H370.104V10.188H372.498V11.224C372.741 10.8787 373.068 10.608 373.478 10.412C373.889 10.2067 374.351 10.104 374.864 10.104ZM386.902 13.968C386.902 14.192 386.888 14.4253 386.86 14.668H381.442C381.479 15.1533 381.633 15.5267 381.904 15.788C382.184 16.04 382.525 16.166 382.926 16.166C383.523 16.166 383.939 15.914 384.172 15.41H386.72C386.589 15.9233 386.351 16.3853 386.006 16.796C385.67 17.2067 385.245 17.5287 384.732 17.762C384.219 17.9953 383.645 18.112 383.01 18.112C382.245 18.112 381.563 17.9487 380.966 17.622C380.369 17.2953 379.902 16.8287 379.566 16.222C379.23 15.6153 379.062 14.906 379.062 14.094C379.062 13.282 379.225 12.5727 379.552 11.966C379.888 11.3593 380.355 10.8927 380.952 10.566C381.549 10.2393 382.235 10.076 383.01 10.076C383.766 10.076 384.438 10.2347 385.026 10.552C385.614 10.8693 386.071 11.322 386.398 11.91C386.734 12.498 386.902 13.184 386.902 13.968ZM384.452 13.338C384.452 12.9273 384.312 12.6007 384.032 12.358C383.752 12.1153 383.402 11.994 382.982 11.994C382.581 11.994 382.24 12.1107 381.96 12.344C381.689 12.5773 381.521 12.9087 381.456 13.338H384.452ZM398.133 10.104C399.104 10.104 399.874 10.398 400.443 10.986C401.022 11.574 401.311 12.3907 401.311 13.436V18H398.931V13.758C398.931 13.254 398.796 12.8667 398.525 12.596C398.264 12.316 397.9 12.176 397.433 12.176C396.966 12.176 396.598 12.316 396.327 12.596C396.066 12.8667 395.935 13.254 395.935 13.758V18H393.555V13.758C393.555 13.254 393.42 12.8667 393.149 12.596C392.888 12.316 392.524 12.176 392.057 12.176C391.59 12.176 391.222 12.316 390.951 12.596C390.69 12.8667 390.559 13.254 390.559 13.758V18H388.165V10.188H390.559V11.168C390.802 10.8413 391.119 10.5847 391.511 10.398C391.903 10.202 392.346 10.104 392.841 10.104C393.429 10.104 393.952 10.23 394.409 10.482C394.876 10.734 395.24 11.0933 395.501 11.56C395.772 11.1307 396.14 10.7807 396.607 10.51C397.074 10.2393 397.582 10.104 398.133 10.104ZM410.349 13.968C410.349 14.192 410.335 14.4253 410.307 14.668H404.889C404.927 15.1533 405.081 15.5267 405.351 15.788C405.631 16.04 405.972 16.166 406.373 16.166C406.971 16.166 407.386 15.914 407.619 15.41H410.167C410.037 15.9233 409.799 16.3853 409.453 16.796C409.117 17.2067 408.693 17.5287 408.179 17.762C407.666 17.9953 407.092 18.112 406.457 18.112C405.692 18.112 405.011 17.9487 404.413 17.622C403.816 17.2953 403.349 16.8287 403.013 16.222C402.677 15.6153 402.509 14.906 402.509 14.094C402.509 13.282 402.673 12.5727 402.999 11.966C403.335 11.3593 403.802 10.8927 404.399 10.566C404.997 10.2393 405.683 10.076 406.457 10.076C407.213 10.076 407.885 10.2347 408.473 10.552C409.061 10.8693 409.519 11.322 409.845 11.91C410.181 12.498 410.349 13.184 410.349 13.968ZM407.899 13.338C407.899 12.9273 407.759 12.6007 407.479 12.358C407.199 12.1153 406.849 11.994 406.429 11.994C406.028 11.994 405.687 12.1107 405.407 12.344C405.137 12.5773 404.969 12.9087 404.903 13.338H407.899ZM416.372 10.104C417.287 10.104 418.015 10.4027 418.556 11C419.107 11.588 419.382 12.4 419.382 13.436V18H417.002V13.758C417.002 13.2353 416.867 12.8293 416.596 12.54C416.325 12.2507 415.961 12.106 415.504 12.106C415.047 12.106 414.683 12.2507 414.412 12.54C414.141 12.8293 414.006 13.2353 414.006 13.758V18H411.612V10.188H414.006V11.224C414.249 10.8787 414.575 10.608 414.986 10.412C415.397 10.2067 415.859 10.104 416.372 10.104ZM425.4 15.97V18H424.182C423.314 18 422.637 17.79 422.152 17.37C421.666 16.9407 421.424 16.2453 421.424 15.284V12.176H420.472V10.188H421.424V8.284H423.818V10.188H425.386V12.176H423.818V15.312C423.818 15.5453 423.874 15.7133 423.986 15.816C424.098 15.9187 424.284 15.97 424.546 15.97H425.4Z" fill="white"/>
<path d="M315 44.3469L315 123" stroke="white" stroke-width="2" stroke-linecap="round"/>
<path d="M330.06 48.1462V54.3262C330.06 55.0142 329.848 55.5662 329.424 55.9822C329 56.3902 328.44 56.5942 327.744 56.5942C327.04 56.5942 326.476 56.3862 326.052 55.9702C325.628 55.5462 325.416 54.9702 325.416 54.2422H326.508C326.516 54.6502 326.62 54.9822 326.82 55.2382C327.028 55.4942 327.336 55.6222 327.744 55.6222C328.152 55.6222 328.456 55.5022 328.656 55.2622C328.856 55.0142 328.956 54.7022 328.956 54.3262V48.1462H330.06ZM335.079 56.6182C334.463 56.6182 333.903 56.4782 333.399 56.1982C332.903 55.9182 332.511 55.5222 332.223 55.0102C331.943 54.4902 331.803 53.8902 331.803 53.2102C331.803 52.5382 331.947 51.9462 332.235 51.4342C332.531 50.9142 332.931 50.5182 333.435 50.2462C333.939 49.9662 334.503 49.8262 335.127 49.8262C335.751 49.8262 336.315 49.9662 336.819 50.2462C337.323 50.5182 337.719 50.9102 338.007 51.4222C338.303 51.9342 338.451 52.5302 338.451 53.2102C338.451 53.8902 338.299 54.4902 337.995 55.0102C337.699 55.5222 337.295 55.9182 336.783 56.1982C336.271 56.4782 335.703 56.6182 335.079 56.6182ZM335.079 55.6582C335.471 55.6582 335.839 55.5662 336.183 55.3822C336.527 55.1982 336.803 54.9222 337.011 54.5542C337.227 54.1862 337.335 53.7382 337.335 53.2102C337.335 52.6822 337.231 52.2342 337.023 51.8662C336.815 51.4982 336.543 51.2262 336.207 51.0502C335.871 50.8662 335.507 50.7742 335.115 50.7742C334.715 50.7742 334.347 50.8662 334.011 51.0502C333.683 51.2262 333.419 51.4982 333.219 51.8662C333.019 52.2342 332.919 52.6822 332.919 53.2102C332.919 53.7462 333.015 54.1982 333.207 54.5662C333.407 54.9342 333.671 55.2102 333.999 55.3942C334.327 55.5702 334.687 55.6582 335.079 55.6582ZM345.719 49.9342V56.5102H344.627V55.5382C344.419 55.8742 344.127 56.1382 343.751 56.3302C343.383 56.5142 342.975 56.6062 342.527 56.6062C342.015 56.6062 341.555 56.5022 341.147 56.2942C340.739 56.0782 340.415 55.7582 340.175 55.3342C339.943 54.9102 339.827 54.3942 339.827 53.7862V49.9342H340.907V53.6422C340.907 54.2902 341.071 54.7902 341.399 55.1422C341.727 55.4862 342.175 55.6582 342.743 55.6582C343.327 55.6582 343.787 55.4782 344.123 55.1182C344.459 54.7582 344.627 54.2342 344.627 53.5462V49.9342H345.719ZM348.655 51.0022C348.847 50.6262 349.119 50.3342 349.471 50.1262C349.831 49.9182 350.267 49.8142 350.779 49.8142V50.9422H350.491C349.267 50.9422 348.655 51.6062 348.655 52.9342V56.5102H347.563V49.9342H348.655V51.0022ZM355.243 49.8142C356.043 49.8142 356.691 50.0582 357.187 50.5462C357.683 51.0262 357.931 51.7222 357.931 52.6342V56.5102H356.851V52.7902C356.851 52.1342 356.687 51.6342 356.359 51.2902C356.031 50.9382 355.583 50.7622 355.015 50.7622C354.439 50.7622 353.979 50.9422 353.635 51.3022C353.299 51.6622 353.131 52.1862 353.131 52.8742V56.5102H352.039V49.9342H353.131V50.8702C353.347 50.5342 353.639 50.2742 354.007 50.0902C354.383 49.9062 354.795 49.8142 355.243 49.8142ZM365.715 52.9702C365.715 53.1782 365.703 53.3982 365.679 53.6302H360.423C360.463 54.2782 360.683 54.7862 361.083 55.1542C361.491 55.5142 361.983 55.6942 362.559 55.6942C363.031 55.6942 363.423 55.5862 363.735 55.3702C364.055 55.1462 364.279 54.8502 364.407 54.4822H365.583C365.407 55.1142 365.055 55.6302 364.527 56.0302C363.999 56.4222 363.343 56.6182 362.559 56.6182C361.935 56.6182 361.375 56.4782 360.879 56.1982C360.391 55.9182 360.007 55.5222 359.727 55.0102C359.447 54.4902 359.307 53.8902 359.307 53.2102C359.307 52.5302 359.443 51.9342 359.715 51.4222C359.987 50.9102 360.367 50.5182 360.855 50.2462C361.351 49.9662 361.919 49.8262 362.559 49.8262C363.183 49.8262 363.735 49.9622 364.215 50.2342C364.695 50.5062 365.063 50.8822 365.319 51.3622C365.583 51.8342 365.715 52.3702 365.715 52.9702ZM364.587 52.7422C364.587 52.3262 364.495 51.9702 364.311 51.6742C364.127 51.3702 363.875 51.1422 363.555 50.9902C363.243 50.8302 362.895 50.7502 362.511 50.7502C361.959 50.7502 361.487 50.9262 361.095 51.2782C360.711 51.6302 360.491 52.1182 360.435 52.7422H364.587ZM363.687 48.0742L361.131 49.4422V48.6262L363.687 47.1262V48.0742ZM373.156 52.9702C373.156 53.1782 373.144 53.3982 373.12 53.6302H367.864C367.904 54.2782 368.124 54.7862 368.524 55.1542C368.932 55.5142 369.424 55.6942 370 55.6942C370.472 55.6942 370.864 55.5862 371.176 55.3702C371.496 55.1462 371.72 54.8502 371.848 54.4822H373.024C372.848 55.1142 372.496 55.6302 371.968 56.0302C371.44 56.4222 370.784 56.6182 370 56.6182C369.376 56.6182 368.816 56.4782 368.32 56.1982C367.832 55.9182 367.448 55.5222 367.168 55.0102C366.888 54.4902 366.748 53.8902 366.748 53.2102C366.748 52.5302 366.884 51.9342 367.156 51.4222C367.428 50.9102 367.808 50.5182 368.296 50.2462C368.792 49.9662 369.36 49.8262 370 49.8262C370.624 49.8262 371.176 49.9622 371.656 50.2342C372.136 50.5062 372.504 50.8822 372.76 51.3622C373.024 51.8342 373.156 52.3702 373.156 52.9702ZM372.028 52.7422C372.028 52.3262 371.936 51.9702 371.752 51.6742C371.568 51.3702 371.316 51.1422 370.996 50.9902C370.684 50.8302 370.336 50.7502 369.952 50.7502C369.4 50.7502 368.928 50.9262 368.536 51.2782C368.152 51.6302 367.932 52.1182 367.876 52.7422H372.028ZM379.129 50.8342V54.7102C379.129 55.0302 379.197 55.2582 379.333 55.3942C379.469 55.5222 379.705 55.5862 380.041 55.5862H380.845V56.5102H379.861C379.253 56.5102 378.797 56.3702 378.493 56.0902C378.189 55.8102 378.037 55.3502 378.037 54.7102V50.8342H377.185V49.9342H378.037V48.2782H379.129V49.9342H380.845V50.8342H379.129ZM387.832 49.9342L383.872 59.6062H382.744L384.04 56.4382L381.388 49.9342H382.6L384.664 55.2622L386.704 49.9342H387.832ZM390.022 51.1462C390.238 50.7702 390.558 50.4582 390.982 50.2102C391.414 49.9542 391.914 49.8262 392.482 49.8262C393.066 49.8262 393.594 49.9662 394.066 50.2462C394.546 50.5262 394.922 50.9222 395.194 51.4342C395.466 51.9382 395.602 52.5262 395.602 53.1982C395.602 53.8622 395.466 54.4542 395.194 54.9742C394.922 55.4942 394.546 55.8982 394.066 56.1862C393.594 56.4742 393.066 56.6182 392.482 56.6182C391.922 56.6182 391.426 56.4942 390.994 56.2462C390.57 55.9902 390.246 55.6742 390.022 55.2982V59.6302H388.93V49.9342H390.022V51.1462ZM394.486 53.1982C394.486 52.7022 394.386 52.2702 394.186 51.9022C393.986 51.5342 393.714 51.2542 393.37 51.0622C393.034 50.8702 392.662 50.7742 392.254 50.7742C391.854 50.7742 391.482 50.8742 391.138 51.0742C390.802 51.2662 390.53 51.5502 390.322 51.9262C390.122 52.2942 390.022 52.7222 390.022 53.2102C390.022 53.7062 390.122 54.1422 390.322 54.5182C390.53 54.8862 390.802 55.1702 391.138 55.3702C391.482 55.5622 391.854 55.6582 392.254 55.6582C392.662 55.6582 393.034 55.5622 393.37 55.3702C393.714 55.1702 393.986 54.8862 394.186 54.5182C394.386 54.1422 394.486 53.7022 394.486 53.1982ZM403.039 52.9702C403.039 53.1782 403.027 53.3982 403.003 53.6302H397.747C397.787 54.2782 398.007 54.7862 398.407 55.1542C398.815 55.5142 399.307 55.6942 399.883 55.6942C400.355 55.6942 400.747 55.5862 401.059 55.3702C401.379 55.1462 401.603 54.8502 401.731 54.4822H402.907C402.731 55.1142 402.379 55.6302 401.851 56.0302C401.323 56.4222 400.667 56.6182 399.883 56.6182C399.259 56.6182 398.699 56.4782 398.203 56.1982C397.715 55.9182 397.331 55.5222 397.051 55.0102C396.771 54.4902 396.631 53.8902 396.631 53.2102C396.631 52.5302 396.767 51.9342 397.039 51.4222C397.311 50.9102 397.691 50.5182 398.179 50.2462C398.675 49.9662 399.243 49.8262 399.883 49.8262C400.507 49.8262 401.059 49.9622 401.539 50.2342C402.019 50.5062 402.387 50.8822 402.643 51.3622C402.907 51.8342 403.039 52.3702 403.039 52.9702ZM401.911 52.7422C401.911 52.3262 401.819 51.9702 401.635 51.6742C401.451 51.3702 401.199 51.1422 400.879 50.9902C400.567 50.8302 400.219 50.7502 399.835 50.7502C399.283 50.7502 398.811 50.9262 398.419 51.2782C398.035 51.6302 397.815 52.1182 397.759 52.7422H401.911Z" fill="white"/>
<path d="M325.44 71.5671C325.44 70.7511 325.624 70.0191 325.992 69.3711C326.36 68.7151 326.86 68.2031 327.492 67.8351C328.132 67.4671 328.84 67.2831 329.616 67.2831C330.528 67.2831 331.324 67.5031 332.004 67.9431C332.684 68.3831 333.18 69.0071 333.492 69.8151H332.184C331.952 69.3111 331.616 68.9231 331.176 68.6511C330.744 68.3791 330.224 68.2431 329.616 68.2431C329.032 68.2431 328.508 68.3791 328.044 68.6511C327.58 68.9231 327.216 69.3111 326.952 69.8151C326.688 70.3111 326.556 70.8951 326.556 71.5671C326.556 72.2311 326.688 72.8151 326.952 73.3191C327.216 73.8151 327.58 74.1991 328.044 74.4711C328.508 74.7431 329.032 74.8791 329.616 74.8791C330.224 74.8791 330.744 74.7471 331.176 74.4831C331.616 74.2111 331.952 73.8231 332.184 73.3191H333.492C333.18 74.1191 332.684 74.7391 332.004 75.1791C331.324 75.6111 330.528 75.8271 329.616 75.8271C328.84 75.8271 328.132 75.6471 327.492 75.2871C326.86 74.9191 326.36 74.4111 325.992 73.7631C325.624 73.1151 325.44 72.3831 325.44 71.5671ZM340.061 73.8951H336.413L335.741 75.7551H334.589L337.613 67.4391H338.873L341.885 75.7551H340.733L340.061 73.8951ZM339.749 73.0071L338.237 68.7831L336.725 73.0071H339.749Z" fill="white"/>
<path d="M331.516 88.9207C331.516 89.6167 331.276 90.1967 330.796 90.6607C330.324 91.1167 329.6 91.3447 328.624 91.3447H327.016V94.8367H325.924V86.4727H328.624C329.568 86.4727 330.284 86.7007 330.772 87.1567C331.268 87.6127 331.516 88.2007 331.516 88.9207ZM328.624 90.4447C329.232 90.4447 329.68 90.3127 329.968 90.0487C330.256 89.7847 330.4 89.4087 330.4 88.9207C330.4 87.8887 329.808 87.3727 328.624 87.3727H327.016V90.4447H328.624ZM336.137 88.1407C336.633 88.1407 337.081 88.2487 337.481 88.4647C337.881 88.6727 338.193 88.9887 338.417 89.4127C338.649 89.8367 338.765 90.3527 338.765 90.9607V94.8367H337.685V91.1167C337.685 90.4607 337.521 89.9607 337.193 89.6167C336.865 89.2647 336.417 89.0887 335.849 89.0887C335.273 89.0887 334.813 89.2687 334.469 89.6287C334.133 89.9887 333.965 90.5127 333.965 91.2007V94.8367H332.873V85.9567H333.965V89.1967C334.181 88.8607 334.477 88.6007 334.853 88.4167C335.237 88.2327 335.665 88.1407 336.137 88.1407ZM340.141 91.5247C340.141 90.8527 340.277 90.2647 340.549 89.7607C340.821 89.2487 341.193 88.8527 341.665 88.5727C342.145 88.2927 342.677 88.1527 343.261 88.1527C343.837 88.1527 344.337 88.2767 344.761 88.5247C345.185 88.7727 345.501 89.0847 345.709 89.4607V88.2607H346.813V94.8367H345.709V93.6127C345.493 93.9967 345.169 94.3167 344.737 94.5727C344.313 94.8207 343.817 94.9447 343.249 94.9447C342.665 94.9447 342.137 94.8007 341.665 94.5127C341.193 94.2247 340.821 93.8207 340.549 93.3007C340.277 92.7807 340.141 92.1887 340.141 91.5247ZM345.709 91.5367C345.709 91.0407 345.609 90.6087 345.409 90.2407C345.209 89.8727 344.937 89.5927 344.593 89.4007C344.257 89.2007 343.885 89.1007 343.477 89.1007C343.069 89.1007 342.697 89.1967 342.361 89.3887C342.025 89.5807 341.757 89.8607 341.557 90.2287C341.357 90.5967 341.257 91.0287 341.257 91.5247C341.257 92.0287 341.357 92.4687 341.557 92.8447C341.757 93.2127 342.025 93.4967 342.361 93.6967C342.697 93.8887 343.069 93.9847 343.477 93.9847C343.885 93.9847 344.257 93.8887 344.593 93.6967C344.937 93.4967 345.209 93.2127 345.409 92.8447C345.609 92.4687 345.709 92.0327 345.709 91.5367ZM350.986 94.9447C350.482 94.9447 350.03 94.8607 349.63 94.6927C349.23 94.5167 348.914 94.2767 348.682 93.9727C348.45 93.6607 348.322 93.3047 348.298 92.9047H349.426C349.458 93.2327 349.61 93.5007 349.882 93.7087C350.162 93.9167 350.526 94.0207 350.974 94.0207C351.39 94.0207 351.718 93.9287 351.958 93.7447C352.198 93.5607 352.318 93.3287 352.318 93.0487C352.318 92.7607 352.19 92.5487 351.934 92.4127C351.678 92.2687 351.282 92.1287 350.746 91.9927C350.258 91.8647 349.858 91.7367 349.546 91.6087C349.242 91.4727 348.978 91.2767 348.754 91.0207C348.538 90.7567 348.43 90.4127 348.43 89.9887C348.43 89.6527 348.53 89.3447 348.73 89.0647C348.93 88.7847 349.214 88.5647 349.582 88.4047C349.95 88.2367 350.37 88.1527 350.842 88.1527C351.57 88.1527 352.158 88.3367 352.606 88.7047C353.054 89.0727 353.294 89.5767 353.326 90.2167H352.234C352.21 89.8727 352.07 89.5967 351.814 89.3887C351.566 89.1807 351.23 89.0767 350.806 89.0767C350.414 89.0767 350.102 89.1607 349.87 89.3287C349.638 89.4967 349.522 89.7167 349.522 89.9887C349.522 90.2047 349.59 90.3847 349.726 90.5287C349.87 90.6647 350.046 90.7767 350.254 90.8647C350.47 90.9447 350.766 91.0367 351.142 91.1407C351.614 91.2687 351.998 91.3967 352.294 91.5247C352.59 91.6447 352.842 91.8287 353.05 92.0767C353.266 92.3247 353.378 92.6487 353.386 93.0487C353.386 93.4087 353.286 93.7327 353.086 94.0207C352.886 94.3087 352.602 94.5367 352.234 94.7047C351.874 94.8647 351.458 94.9447 350.986 94.9447ZM360.928 91.2967C360.928 91.5047 360.916 91.7247 360.892 91.9567H355.636C355.676 92.6047 355.896 93.1127 356.296 93.4807C356.704 93.8407 357.196 94.0207 357.772 94.0207C358.244 94.0207 358.636 93.9127 358.948 93.6967C359.268 93.4727 359.492 93.1767 359.62 92.8087H360.796C360.62 93.4407 360.268 93.9567 359.74 94.3567C359.212 94.7487 358.556 94.9447 357.772 94.9447C357.148 94.9447 356.588 94.8047 356.092 94.5247C355.604 94.2447 355.22 93.8487 354.94 93.3367C354.66 92.8167 354.52 92.2167 354.52 91.5367C354.52 90.8567 354.656 90.2607 354.928 89.7487C355.2 89.2367 355.58 88.8447 356.068 88.5727C356.564 88.2927 357.132 88.1527 357.772 88.1527C358.396 88.1527 358.948 88.2887 359.428 88.5607C359.908 88.8327 360.276 89.2087 360.532 89.6887C360.796 90.1607 360.928 90.6967 360.928 91.2967ZM359.8 91.0687C359.8 90.6527 359.708 90.2967 359.524 90.0007C359.34 89.6967 359.088 89.4687 358.768 89.3167C358.456 89.1567 358.108 89.0767 357.724 89.0767C357.172 89.0767 356.7 89.2527 356.308 89.6047C355.924 89.9567 355.704 90.4447 355.648 91.0687H359.8ZM364.697 94.9447C364.193 94.9447 363.741 94.8607 363.341 94.6927C362.941 94.5167 362.625 94.2767 362.393 93.9727C362.161 93.6607 362.033 93.3047 362.009 92.9047H363.137C363.169 93.2327 363.321 93.5007 363.593 93.7087C363.873 93.9167 364.237 94.0207 364.685 94.0207C365.101 94.0207 365.429 93.9287 365.669 93.7447C365.909 93.5607 366.029 93.3287 366.029 93.0487C366.029 92.7607 365.901 92.5487 365.645 92.4127C365.389 92.2687 364.993 92.1287 364.457 91.9927C363.969 91.8647 363.569 91.7367 363.257 91.6087C362.953 91.4727 362.689 91.2767 362.465 91.0207C362.249 90.7567 362.141 90.4127 362.141 89.9887C362.141 89.6527 362.241 89.3447 362.441 89.0647C362.641 88.7847 362.925 88.5647 363.293 88.4047C363.661 88.2367 364.081 88.1527 364.553 88.1527C365.281 88.1527 365.869 88.3367 366.317 88.7047C366.765 89.0727 367.005 89.5767 367.037 90.2167H365.945C365.921 89.8727 365.781 89.5967 365.525 89.3887C365.277 89.1807 364.941 89.0767 364.517 89.0767C364.125 89.0767 363.813 89.1607 363.581 89.3287C363.349 89.4967 363.233 89.7167 363.233 89.9887C363.233 90.2047 363.301 90.3847 363.437 90.5287C363.581 90.6647 363.757 90.7767 363.965 90.8647C364.181 90.9447 364.477 91.0367 364.853 91.1407C365.325 91.2687 365.709 91.3967 366.005 91.5247C366.301 91.6447 366.553 91.8287 366.761 92.0767C366.977 92.3247 367.089 92.6487 367.097 93.0487C367.097 93.4087 366.997 93.7327 366.797 94.0207C366.597 94.3087 366.313 94.5367 365.945 94.7047C365.585 94.8647 365.169 94.9447 364.697 94.9447ZM371.43 91.5247C371.43 90.8527 371.566 90.2647 371.838 89.7607C372.11 89.2487 372.482 88.8527 372.954 88.5727C373.434 88.2927 373.97 88.1527 374.562 88.1527C375.074 88.1527 375.55 88.2727 375.99 88.5127C376.43 88.7447 376.766 89.0527 376.998 89.4367V85.9567H378.102V94.8367H376.998V93.6007C376.782 93.9927 376.462 94.3167 376.038 94.5727C375.614 94.8207 375.118 94.9447 374.55 94.9447C373.966 94.9447 373.434 94.8007 372.954 94.5127C372.482 94.2247 372.11 93.8207 371.838 93.3007C371.566 92.7807 371.43 92.1887 371.43 91.5247ZM376.998 91.5367C376.998 91.0407 376.898 90.6087 376.698 90.2407C376.498 89.8727 376.226 89.5927 375.882 89.4007C375.546 89.2007 375.174 89.1007 374.766 89.1007C374.358 89.1007 373.986 89.1967 373.65 89.3887C373.314 89.5807 373.046 89.8607 372.846 90.2287C372.646 90.5967 372.546 91.0287 372.546 91.5247C372.546 92.0287 372.646 92.4687 372.846 92.8447C373.046 93.2127 373.314 93.4967 373.65 93.6967C373.986 93.8887 374.358 93.9847 374.766 93.9847C375.174 93.9847 375.546 93.8887 375.882 93.6967C376.226 93.4967 376.498 93.2127 376.698 92.8447C376.898 92.4687 376.998 92.0327 376.998 91.5367ZM380.115 86.4727H381.327L380.175 89.1967H379.407L380.115 86.4727ZM382.164 91.5247C382.164 90.8527 382.3 90.2647 382.572 89.7607C382.844 89.2487 383.216 88.8527 383.688 88.5727C384.168 88.2927 384.7 88.1527 385.284 88.1527C385.86 88.1527 386.36 88.2767 386.784 88.5247C387.208 88.7727 387.524 89.0847 387.732 89.4607V88.2607H388.836V94.8367H387.732V93.6127C387.516 93.9967 387.192 94.3167 386.76 94.5727C386.336 94.8207 385.84 94.9447 385.272 94.9447C384.688 94.9447 384.16 94.8007 383.688 94.5127C383.216 94.2247 382.844 93.8207 382.572 93.3007C382.3 92.7807 382.164 92.1887 382.164 91.5247ZM387.732 91.5367C387.732 91.0407 387.632 90.6087 387.432 90.2407C387.232 89.8727 386.96 89.5927 386.616 89.4007C386.28 89.2007 385.908 89.1007 385.5 89.1007C385.092 89.1007 384.72 89.1967 384.384 89.3887C384.048 89.5807 383.78 89.8607 383.58 90.2287C383.38 90.5967 383.28 91.0287 383.28 91.5247C383.28 92.0287 383.38 92.4687 383.58 92.8447C383.78 93.2127 384.048 93.4967 384.384 93.6967C384.72 93.8887 385.092 93.9847 385.5 93.9847C385.908 93.9847 386.28 93.8887 386.616 93.6967C386.96 93.4967 387.232 93.2127 387.432 92.8447C387.632 92.4687 387.732 92.0327 387.732 91.5367ZM390.274 91.5367C390.274 90.8567 390.41 90.2647 390.682 89.7607C390.954 89.2487 391.33 88.8527 391.81 88.5727C392.298 88.2927 392.854 88.1527 393.478 88.1527C394.286 88.1527 394.95 88.3487 395.47 88.7407C395.998 89.1327 396.346 89.6767 396.514 90.3727H395.338C395.226 89.9727 395.006 89.6567 394.678 89.4247C394.358 89.1927 393.958 89.0767 393.478 89.0767C392.854 89.0767 392.35 89.2927 391.966 89.7247C391.582 90.1487 391.39 90.7527 391.39 91.5367C391.39 92.3287 391.582 92.9407 391.966 93.3727C392.35 93.8047 392.854 94.0207 393.478 94.0207C393.958 94.0207 394.358 93.9087 394.678 93.6847C394.998 93.4607 395.218 93.1407 395.338 92.7247H396.514C396.338 93.3967 395.986 93.9367 395.458 94.3447C394.93 94.7447 394.27 94.9447 393.478 94.9447C392.854 94.9447 392.298 94.8047 391.81 94.5247C391.33 94.2447 390.954 93.8487 390.682 93.3367C390.41 92.8247 390.274 92.2247 390.274 91.5367ZM401.235 88.1407C401.731 88.1407 402.179 88.2487 402.579 88.4647C402.979 88.6727 403.291 88.9887 403.515 89.4127C403.747 89.8367 403.863 90.3527 403.863 90.9607V94.8367H402.783V91.1167C402.783 90.4607 402.619 89.9607 402.291 89.6167C401.963 89.2647 401.515 89.0887 400.947 89.0887C400.371 89.0887 399.911 89.2687 399.567 89.6287C399.231 89.9887 399.063 90.5127 399.063 91.2007V94.8367H397.971V85.9567H399.063V89.1967C399.279 88.8607 399.575 88.6007 399.951 88.4167C400.335 88.2327 400.763 88.1407 401.235 88.1407ZM405.239 91.5247C405.239 90.8527 405.375 90.2647 405.647 89.7607C405.919 89.2487 406.291 88.8527 406.763 88.5727C407.243 88.2927 407.775 88.1527 408.359 88.1527C408.935 88.1527 409.435 88.2767 409.859 88.5247C410.283 88.7727 410.599 89.0847 410.807 89.4607V88.2607H411.911V94.8367H410.807V93.6127C410.591 93.9967 410.267 94.3167 409.835 94.5727C409.411 94.8207 408.915 94.9447 408.347 94.9447C407.763 94.9447 407.235 94.8007 406.763 94.5127C406.291 94.2247 405.919 93.8207 405.647 93.3007C405.375 92.7807 405.239 92.1887 405.239 91.5247ZM410.807 91.5367C410.807 91.0407 410.707 90.6087 410.507 90.2407C410.307 89.8727 410.035 89.5927 409.691 89.4007C409.355 89.2007 408.983 89.1007 408.575 89.1007C408.167 89.1007 407.795 89.1967 407.459 89.3887C407.123 89.5807 406.855 89.8607 406.655 90.2287C406.455 90.5967 406.355 91.0287 406.355 91.5247C406.355 92.0287 406.455 92.4687 406.655 92.8447C406.855 93.2127 407.123 93.4967 407.459 93.6967C407.795 93.8887 408.167 93.9847 408.575 93.9847C408.983 93.9847 409.355 93.8887 409.691 93.6967C410.035 93.4967 410.307 93.2127 410.507 92.8447C410.707 92.4687 410.807 92.0327 410.807 91.5367ZM415.088 89.1607V93.0367C415.088 93.3567 415.156 93.5847 415.292 93.7207C415.428 93.8487 415.664 93.9127 416 93.9127H416.804V94.8367H415.82C415.212 94.8367 414.756 94.6967 414.452 94.4167C414.148 94.1367 413.996 93.6767 413.996 93.0367V89.1607H413.144V88.2607H413.996V86.6047H415.088V88.2607H416.804V89.1607H415.088Z" fill="white"/>
<path d="M330.252 114.082L328.26 110.662H326.94V114.082H325.848V105.718H328.548C329.18 105.718 329.712 105.826 330.144 106.042C330.584 106.258 330.912 106.55 331.128 106.918C331.344 107.286 331.452 107.706 331.452 108.178C331.452 108.754 331.284 109.262 330.948 109.702C330.62 110.142 330.124 110.434 329.46 110.578L331.56 114.082H330.252ZM326.94 109.786H328.548C329.14 109.786 329.584 109.642 329.88 109.354C330.176 109.058 330.324 108.666 330.324 108.178C330.324 107.682 330.176 107.298 329.88 107.026C329.592 106.754 329.148 106.618 328.548 106.618H326.94V109.786ZM339.149 110.542C339.149 110.75 339.137 110.97 339.113 111.202H333.857C333.897 111.85 334.117 112.358 334.517 112.726C334.925 113.086 335.417 113.266 335.993 113.266C336.465 113.266 336.857 113.158 337.169 112.942C337.489 112.718 337.713 112.422 337.841 112.054H339.017C338.841 112.686 338.489 113.202 337.961 113.602C337.433 113.994 336.777 114.19 335.993 114.19C335.369 114.19 334.809 114.05 334.313 113.77C333.825 113.49 333.441 113.094 333.161 112.582C332.881 112.062 332.741 111.462 332.741 110.782C332.741 110.102 332.877 109.506 333.149 108.994C333.421 108.482 333.801 108.09 334.289 107.818C334.785 107.538 335.353 107.398 335.993 107.398C336.617 107.398 337.169 107.534 337.649 107.806C338.129 108.078 338.497 108.454 338.753 108.934C339.017 109.406 339.149 109.942 339.149 110.542ZM338.021 110.314C338.021 109.898 337.929 109.542 337.745 109.246C337.561 108.942 337.309 108.714 336.989 108.562C336.677 108.402 336.329 108.322 335.945 108.322C335.393 108.322 334.921 108.498 334.529 108.85C334.145 109.202 333.925 109.69 333.869 110.314H338.021ZM340.182 110.782C340.182 110.102 340.318 109.51 340.59 109.006C340.862 108.494 341.238 108.098 341.718 107.818C342.206 107.538 342.762 107.398 343.386 107.398C344.194 107.398 344.858 107.594 345.378 107.986C345.906 108.378 346.254 108.922 346.422 109.618H345.246C345.134 109.218 344.914 108.902 344.586 108.67C344.266 108.438 343.866 108.322 343.386 108.322C342.762 108.322 342.258 108.538 341.874 108.97C341.49 109.394 341.298 109.998 341.298 110.782C341.298 111.574 341.49 112.186 341.874 112.618C342.258 113.05 342.762 113.266 343.386 113.266C343.866 113.266 344.266 113.154 344.586 112.93C344.906 112.706 345.126 112.386 345.246 111.97H346.422C346.246 112.642 345.894 113.182 345.366 113.59C344.838 113.99 344.178 114.19 343.386 114.19C342.762 114.19 342.206 114.05 341.718 113.77C341.238 113.49 340.862 113.094 340.59 112.582C340.318 112.07 340.182 111.47 340.182 110.782ZM351.143 107.386C351.639 107.386 352.087 107.494 352.487 107.71C352.887 107.918 353.199 108.234 353.423 108.658C353.655 109.082 353.771 109.598 353.771 110.206V114.082H352.691V110.362C352.691 109.706 352.527 109.206 352.199 108.862C351.871 108.51 351.423 108.334 350.855 108.334C350.279 108.334 349.819 108.514 349.475 108.874C349.139 109.234 348.971 109.758 348.971 110.446V114.082H347.879V105.202H348.971V108.442C349.187 108.106 349.483 107.846 349.859 107.662C350.243 107.478 350.671 107.386 351.143 107.386ZM361.555 110.542C361.555 110.75 361.543 110.97 361.519 111.202H356.263C356.303 111.85 356.523 112.358 356.923 112.726C357.331 113.086 357.823 113.266 358.399 113.266C358.871 113.266 359.263 113.158 359.575 112.942C359.895 112.718 360.119 112.422 360.247 112.054H361.423C361.247 112.686 360.895 113.202 360.367 113.602C359.839 113.994 359.183 114.19 358.399 114.19C357.775 114.19 357.215 114.05 356.719 113.77C356.231 113.49 355.847 113.094 355.567 112.582C355.287 112.062 355.147 111.462 355.147 110.782C355.147 110.102 355.283 109.506 355.555 108.994C355.827 108.482 356.207 108.09 356.695 107.818C357.191 107.538 357.759 107.398 358.399 107.398C359.023 107.398 359.575 107.534 360.055 107.806C360.535 108.078 360.903 108.454 361.159 108.934C361.423 109.406 361.555 109.942 361.555 110.542ZM360.427 110.314C360.427 109.898 360.335 109.542 360.151 109.246C359.967 108.942 359.715 108.714 359.395 108.562C359.083 108.402 358.735 108.322 358.351 108.322C357.799 108.322 357.327 108.498 356.935 108.85C356.551 109.202 356.331 109.69 356.275 110.314H360.427ZM364.088 108.574C364.28 108.198 364.552 107.906 364.904 107.698C365.264 107.49 365.7 107.386 366.212 107.386V108.514H365.924C364.7 108.514 364.088 109.178 364.088 110.506V114.082H362.996V107.506H364.088V108.574ZM367.065 110.782C367.065 110.102 367.201 109.51 367.473 109.006C367.745 108.494 368.121 108.098 368.601 107.818C369.089 107.538 369.645 107.398 370.269 107.398C371.077 107.398 371.741 107.594 372.261 107.986C372.789 108.378 373.137 108.922 373.305 109.618H372.129C372.017 109.218 371.797 108.902 371.469 108.67C371.149 108.438 370.749 108.322 370.269 108.322C369.645 108.322 369.141 108.538 368.757 108.97C368.373 109.394 368.181 109.998 368.181 110.782C368.181 111.574 368.373 112.186 368.757 112.618C369.141 113.05 369.645 113.266 370.269 113.266C370.749 113.266 371.149 113.154 371.469 112.93C371.789 112.706 372.009 112.386 372.129 111.97H373.305C373.129 112.642 372.777 113.182 372.249 113.59C371.721 113.99 371.061 114.19 370.269 114.19C369.645 114.19 369.089 114.05 368.601 113.77C368.121 113.49 367.745 113.094 367.473 112.582C367.201 112.07 367.065 111.47 367.065 110.782ZM378.026 107.386C378.522 107.386 378.97 107.494 379.37 107.71C379.77 107.918 380.082 108.234 380.306 108.658C380.538 109.082 380.654 109.598 380.654 110.206V114.082H379.574V110.362C379.574 109.706 379.41 109.206 379.082 108.862C378.754 108.51 378.306 108.334 377.738 108.334C377.162 108.334 376.702 108.514 376.358 108.874C376.022 109.234 375.854 109.758 375.854 110.446V114.082H374.762V105.202H375.854V108.442C376.07 108.106 376.366 107.846 376.742 107.662C377.126 107.478 377.554 107.386 378.026 107.386ZM388.438 110.542C388.438 110.75 388.426 110.97 388.402 111.202H383.146C383.186 111.85 383.406 112.358 383.806 112.726C384.214 113.086 384.706 113.266 385.282 113.266C385.754 113.266 386.146 113.158 386.458 112.942C386.778 112.718 387.002 112.422 387.13 112.054H388.306C388.13 112.686 387.778 113.202 387.25 113.602C386.722 113.994 386.066 114.19 385.282 114.19C384.658 114.19 384.098 114.05 383.602 113.77C383.114 113.49 382.73 113.094 382.45 112.582C382.17 112.062 382.03 111.462 382.03 110.782C382.03 110.102 382.166 109.506 382.438 108.994C382.71 108.482 383.09 108.09 383.578 107.818C384.074 107.538 384.642 107.398 385.282 107.398C385.906 107.398 386.458 107.534 386.938 107.806C387.418 108.078 387.786 108.454 388.042 108.934C388.306 109.406 388.438 109.942 388.438 110.542ZM387.31 110.314C387.31 109.898 387.218 109.542 387.034 109.246C386.85 108.942 386.598 108.714 386.278 108.562C385.966 108.402 385.618 108.322 385.234 108.322C384.682 108.322 384.21 108.498 383.818 108.85C383.434 109.202 383.214 109.69 383.158 110.314H387.31ZM392.207 114.19C391.703 114.19 391.251 114.106 390.851 113.938C390.451 113.762 390.135 113.522 389.903 113.218C389.671 112.906 389.543 112.55 389.519 112.15H390.647C390.679 112.478 390.831 112.746 391.103 112.954C391.383 113.162 391.747 113.266 392.195 113.266C392.611 113.266 392.939 113.174 393.179 112.99C393.419 112.806 393.539 112.574 393.539 112.294C393.539 112.006 393.411 111.794 393.155 111.658C392.899 111.514 392.503 111.374 391.967 111.238C391.479 111.11 391.079 110.982 390.767 110.854C390.463 110.718 390.199 110.522 389.975 110.266C389.759 110.002 389.651 109.658 389.651 109.234C389.651 108.898 389.751 108.59 389.951 108.31C390.151 108.03 390.435 107.81 390.803 107.65C391.171 107.482 391.591 107.398 392.063 107.398C392.791 107.398 393.379 107.582 393.827 107.95C394.275 108.318 394.515 108.822 394.547 109.462H393.455C393.431 109.118 393.291 108.842 393.035 108.634C392.787 108.426 392.451 108.322 392.027 108.322C391.635 108.322 391.323 108.406 391.091 108.574C390.859 108.742 390.743 108.962 390.743 109.234C390.743 109.45 390.811 109.63 390.947 109.774C391.091 109.91 391.267 110.022 391.475 110.11C391.691 110.19 391.987 110.282 392.363 110.386C392.835 110.514 393.219 110.642 393.515 110.77C393.811 110.89 394.063 111.074 394.271 111.322C394.487 111.57 394.599 111.894 394.607 112.294C394.607 112.654 394.507 112.978 394.307 113.266C394.107 113.554 393.823 113.782 393.455 113.95C393.095 114.11 392.679 114.19 392.207 114.19Z" fill="white"/>
<path d="M362.55 286.172C363.586 286.172 364.491 286.377 365.266 286.788C366.041 287.199 366.638 287.777 367.058 288.524C367.487 289.261 367.702 290.115 367.702 291.086C367.702 292.047 367.487 292.901 367.058 293.648C366.638 294.395 366.036 294.973 365.252 295.384C364.477 295.795 363.577 296 362.55 296H358.868V286.172H362.55ZM362.396 293.928C363.301 293.928 364.006 293.681 364.51 293.186C365.014 292.691 365.266 291.991 365.266 291.086C365.266 290.181 365.014 289.476 364.51 288.972C364.006 288.468 363.301 288.216 362.396 288.216H361.262V293.928H362.396ZM376.404 291.968C376.404 292.192 376.39 292.425 376.362 292.668H370.944C370.981 293.153 371.135 293.527 371.406 293.788C371.686 294.04 372.027 294.166 372.428 294.166C373.025 294.166 373.441 293.914 373.674 293.41H376.222C376.091 293.923 375.853 294.385 375.508 294.796C375.172 295.207 374.747 295.529 374.234 295.762C373.721 295.995 373.147 296.112 372.512 296.112C371.747 296.112 371.065 295.949 370.468 295.622C369.871 295.295 369.404 294.829 369.068 294.222C368.732 293.615 368.564 292.906 368.564 292.094C368.564 291.282 368.727 290.573 369.054 289.966C369.39 289.359 369.857 288.893 370.454 288.566C371.051 288.239 371.737 288.076 372.512 288.076C373.268 288.076 373.94 288.235 374.528 288.552C375.116 288.869 375.573 289.322 375.9 289.91C376.236 290.498 376.404 291.184 376.404 291.968ZM373.954 291.338C373.954 290.927 373.814 290.601 373.534 290.358C373.254 290.115 372.904 289.994 372.484 289.994C372.083 289.994 371.742 290.111 371.462 290.344C371.191 290.577 371.023 290.909 370.958 291.338H373.954ZM374.122 286.186L370.748 287.6V285.948L374.122 284.324V286.186ZM377.191 292.094C377.191 291.282 377.354 290.573 377.681 289.966C378.017 289.359 378.479 288.893 379.067 288.566C379.664 288.239 380.345 288.076 381.111 288.076C382.091 288.076 382.907 288.333 383.561 288.846C384.223 289.359 384.657 290.083 384.863 291.016H382.315C382.1 290.419 381.685 290.12 381.069 290.12C380.63 290.12 380.28 290.293 380.019 290.638C379.757 290.974 379.627 291.459 379.627 292.094C379.627 292.729 379.757 293.219 380.019 293.564C380.28 293.9 380.63 294.068 381.069 294.068C381.685 294.068 382.1 293.769 382.315 293.172H384.863C384.657 294.087 384.223 294.805 383.561 295.328C382.898 295.851 382.081 296.112 381.111 296.112C380.345 296.112 379.664 295.949 379.067 295.622C378.479 295.295 378.017 294.829 377.681 294.222C377.354 293.615 377.191 292.906 377.191 292.094ZM388.537 285.64V296H386.143V285.64H388.537ZM397.636 291.968C397.636 292.192 397.622 292.425 397.594 292.668H392.176C392.214 293.153 392.368 293.527 392.638 293.788C392.918 294.04 393.259 294.166 393.66 294.166C394.258 294.166 394.673 293.914 394.906 293.41H397.454C397.324 293.923 397.086 294.385 396.74 294.796C396.404 295.207 395.98 295.529 395.466 295.762C394.953 295.995 394.379 296.112 393.744 296.112C392.979 296.112 392.298 295.949 391.7 295.622C391.103 295.295 390.636 294.829 390.3 294.222C389.964 293.615 389.796 292.906 389.796 292.094C389.796 291.282 389.96 290.573 390.286 289.966C390.622 289.359 391.089 288.893 391.686 288.566C392.284 288.239 392.97 288.076 393.744 288.076C394.5 288.076 395.172 288.235 395.76 288.552C396.348 288.869 396.806 289.322 397.132 289.91C397.468 290.498 397.636 291.184 397.636 291.968ZM395.186 291.338C395.186 290.927 395.046 290.601 394.766 290.358C394.486 290.115 394.136 289.994 393.716 289.994C393.315 289.994 392.974 290.111 392.694 290.344C392.424 290.577 392.256 290.909 392.19 291.338H395.186ZM403.659 288.104C404.574 288.104 405.302 288.403 405.843 289C406.394 289.588 406.669 290.4 406.669 291.436V296H404.289V291.758C404.289 291.235 404.154 290.829 403.883 290.54C403.613 290.251 403.249 290.106 402.791 290.106C402.334 290.106 401.97 290.251 401.699 290.54C401.429 290.829 401.293 291.235 401.293 291.758V296H398.899V288.188H401.293V289.224C401.536 288.879 401.863 288.608 402.273 288.412C402.684 288.207 403.146 288.104 403.659 288.104ZM407.857 292.094C407.857 291.282 408.02 290.573 408.347 289.966C408.683 289.359 409.145 288.893 409.733 288.566C410.33 288.239 411.012 288.076 411.777 288.076C412.757 288.076 413.574 288.333 414.227 288.846C414.89 289.359 415.324 290.083 415.529 291.016H412.981C412.766 290.419 412.351 290.12 411.735 290.12C411.296 290.12 410.946 290.293 410.685 290.638C410.424 290.974 410.293 291.459 410.293 292.094C410.293 292.729 410.424 293.219 410.685 293.564C410.946 293.9 411.296 294.068 411.735 294.068C412.351 294.068 412.766 293.769 412.981 293.172H415.529C415.324 294.087 414.89 294.805 414.227 295.328C413.564 295.851 412.748 296.112 411.777 296.112C411.012 296.112 410.33 295.949 409.733 295.622C409.145 295.295 408.683 294.829 408.347 294.222C408.02 293.615 407.857 292.906 407.857 292.094ZM421.611 288.104C422.507 288.104 423.226 288.403 423.767 289C424.309 289.588 424.579 290.4 424.579 291.436V296H422.199V291.758C422.199 291.235 422.064 290.829 421.793 290.54C421.523 290.251 421.159 290.106 420.701 290.106C420.244 290.106 419.88 290.251 419.609 290.54C419.339 290.829 419.203 291.235 419.203 291.758V296H416.809V285.64H419.203V289.238C419.446 288.893 419.777 288.617 420.197 288.412C420.617 288.207 421.089 288.104 421.611 288.104ZM433.607 291.968C433.607 292.192 433.593 292.425 433.565 292.668H428.147C428.184 293.153 428.338 293.527 428.609 293.788C428.889 294.04 429.23 294.166 429.631 294.166C430.228 294.166 430.644 293.914 430.877 293.41H433.425C433.294 293.923 433.056 294.385 432.711 294.796C432.375 295.207 431.95 295.529 431.437 295.762C430.924 295.995 430.35 296.112 429.715 296.112C428.95 296.112 428.268 295.949 427.671 295.622C427.074 295.295 426.607 294.829 426.271 294.222C425.935 293.615 425.767 292.906 425.767 292.094C425.767 291.282 425.93 290.573 426.257 289.966C426.593 289.359 427.06 288.893 427.657 288.566C428.254 288.239 428.94 288.076 429.715 288.076C430.471 288.076 431.143 288.235 431.731 288.552C432.319 288.869 432.776 289.322 433.103 289.91C433.439 290.498 433.607 291.184 433.607 291.968ZM431.157 291.338C431.157 290.927 431.017 290.601 430.737 290.358C430.457 290.115 430.107 289.994 429.687 289.994C429.286 289.994 428.945 290.111 428.665 290.344C428.394 290.577 428.226 290.909 428.161 291.338H431.157ZM444.838 288.104C445.809 288.104 446.579 288.398 447.148 288.986C447.727 289.574 448.016 290.391 448.016 291.436V296H445.636V291.758C445.636 291.254 445.501 290.867 445.23 290.596C444.969 290.316 444.605 290.176 444.138 290.176C443.671 290.176 443.303 290.316 443.032 290.596C442.771 290.867 442.64 291.254 442.64 291.758V296H440.26V291.758C440.26 291.254 440.125 290.867 439.854 290.596C439.593 290.316 439.229 290.176 438.762 290.176C438.295 290.176 437.927 290.316 437.656 290.596C437.395 290.867 437.264 291.254 437.264 291.758V296H434.87V288.188H437.264V289.168C437.507 288.841 437.824 288.585 438.216 288.398C438.608 288.202 439.051 288.104 439.546 288.104C440.134 288.104 440.657 288.23 441.114 288.482C441.581 288.734 441.945 289.093 442.206 289.56C442.477 289.131 442.845 288.781 443.312 288.51C443.779 288.239 444.287 288.104 444.838 288.104ZM457.054 291.968C457.054 292.192 457.04 292.425 457.012 292.668H451.594C451.632 293.153 451.786 293.527 452.056 293.788C452.336 294.04 452.677 294.166 453.078 294.166C453.676 294.166 454.091 293.914 454.324 293.41H456.872C456.742 293.923 456.504 294.385 456.158 294.796C455.822 295.207 455.398 295.529 454.884 295.762C454.371 295.995 453.797 296.112 453.162 296.112C452.397 296.112 451.716 295.949 451.118 295.622C450.521 295.295 450.054 294.829 449.718 294.222C449.382 293.615 449.214 292.906 449.214 292.094C449.214 291.282 449.378 290.573 449.704 289.966C450.04 289.359 450.507 288.893 451.104 288.566C451.702 288.239 452.388 288.076 453.162 288.076C453.918 288.076 454.59 288.235 455.178 288.552C455.766 288.869 456.224 289.322 456.55 289.91C456.886 290.498 457.054 291.184 457.054 291.968ZM454.604 291.338C454.604 290.927 454.464 290.601 454.184 290.358C453.904 290.115 453.554 289.994 453.134 289.994C452.733 289.994 452.392 290.111 452.112 290.344C451.842 290.577 451.674 290.909 451.608 291.338H454.604ZM463.077 288.104C463.992 288.104 464.72 288.403 465.261 289C465.812 289.588 466.087 290.4 466.087 291.436V296H463.707V291.758C463.707 291.235 463.572 290.829 463.301 290.54C463.031 290.251 462.667 290.106 462.209 290.106C461.752 290.106 461.388 290.251 461.117 290.54C460.847 290.829 460.711 291.235 460.711 291.758V296H458.317V288.188H460.711V289.224C460.954 288.879 461.281 288.608 461.691 288.412C462.102 288.207 462.564 288.104 463.077 288.104ZM472.105 293.97V296H470.887C470.019 296 469.342 295.79 468.857 295.37C468.371 294.941 468.129 294.245 468.129 293.284V290.176H467.177V288.188H468.129V286.284H470.523V288.188H472.091V290.176H470.523V293.312C470.523 293.545 470.579 293.713 470.691 293.816C470.803 293.919 470.989 293.97 471.251 293.97H472.105Z" fill="white"/>
<path d="M358.71 330.053L358.71 367" stroke="white" stroke-width="2" stroke-linecap="round"/>
<path d="M373.016 336.524V339.32H376.064V340.22H373.016V343.1H376.424V344H371.924V335.624H376.424V336.524H373.016ZM385.984 337.304C386.496 337.304 386.952 337.412 387.352 337.628C387.752 337.836 388.068 338.152 388.3 338.576C388.532 339 388.648 339.516 388.648 340.124V344H387.568V340.28C387.568 339.624 387.404 339.124 387.076 338.78C386.756 338.428 386.32 338.252 385.768 338.252C385.2 338.252 384.748 338.436 384.412 338.804C384.076 339.164 383.908 339.688 383.908 340.376V344H382.828V340.28C382.828 339.624 382.664 339.124 382.336 338.78C382.016 338.428 381.58 338.252 381.028 338.252C380.46 338.252 380.008 338.436 379.672 338.804C379.336 339.164 379.168 339.688 379.168 340.376V344H378.076V337.424H379.168V338.372C379.384 338.028 379.672 337.764 380.032 337.58C380.4 337.396 380.804 337.304 381.244 337.304C381.796 337.304 382.284 337.428 382.708 337.676C383.132 337.924 383.448 338.288 383.656 338.768C383.84 338.304 384.144 337.944 384.568 337.688C384.992 337.432 385.464 337.304 385.984 337.304ZM393.308 344.108C392.692 344.108 392.132 343.968 391.628 343.688C391.132 343.408 390.74 343.012 390.452 342.5C390.172 341.98 390.032 341.38 390.032 340.7C390.032 340.028 390.176 339.436 390.464 338.924C390.76 338.404 391.16 338.008 391.664 337.736C392.168 337.456 392.732 337.316 393.356 337.316C393.98 337.316 394.544 337.456 395.048 337.736C395.552 338.008 395.948 338.4 396.236 338.912C396.532 339.424 396.68 340.02 396.68 340.7C396.68 341.38 396.528 341.98 396.224 342.5C395.928 343.012 395.524 343.408 395.012 343.688C394.5 343.968 393.932 344.108 393.308 344.108ZM393.308 343.148C393.7 343.148 394.068 343.056 394.412 342.872C394.756 342.688 395.032 342.412 395.24 342.044C395.456 341.676 395.564 341.228 395.564 340.7C395.564 340.172 395.46 339.724 395.252 339.356C395.044 338.988 394.772 338.716 394.436 338.54C394.1 338.356 393.736 338.264 393.344 338.264C392.944 338.264 392.576 338.356 392.24 338.54C391.912 338.716 391.648 338.988 391.448 339.356C391.248 339.724 391.148 340.172 391.148 340.7C391.148 341.236 391.244 341.688 391.436 342.056C391.636 342.424 391.9 342.7 392.228 342.884C392.556 343.06 392.916 343.148 393.308 343.148ZM399.447 338.324V342.2C399.447 342.52 399.515 342.748 399.651 342.884C399.787 343.012 400.023 343.076 400.359 343.076H401.163V344H400.179C399.571 344 399.115 343.86 398.811 343.58C398.507 343.3 398.355 342.84 398.355 342.2V338.324H397.503V337.424H398.355V335.768H399.447V337.424H401.163V338.324H399.447ZM403.051 336.356C402.843 336.356 402.667 336.284 402.523 336.14C402.379 335.996 402.307 335.82 402.307 335.612C402.307 335.404 402.379 335.228 402.523 335.084C402.667 334.94 402.843 334.868 403.051 334.868C403.251 334.868 403.419 334.94 403.555 335.084C403.699 335.228 403.771 335.404 403.771 335.612C403.771 335.82 403.699 335.996 403.555 336.14C403.419 336.284 403.251 336.356 403.051 336.356ZM403.579 337.424V344H402.487V337.424H403.579ZM408.308 344.108C407.692 344.108 407.132 343.968 406.628 343.688C406.132 343.408 405.74 343.012 405.452 342.5C405.172 341.98 405.032 341.38 405.032 340.7C405.032 340.028 405.176 339.436 405.464 338.924C405.76 338.404 406.16 338.008 406.664 337.736C407.168 337.456 407.732 337.316 408.356 337.316C408.98 337.316 409.544 337.456 410.048 337.736C410.552 338.008 410.948 338.4 411.236 338.912C411.532 339.424 411.68 340.02 411.68 340.7C411.68 341.38 411.528 341.98 411.224 342.5C410.928 343.012 410.524 343.408 410.012 343.688C409.5 343.968 408.932 344.108 408.308 344.108ZM408.308 343.148C408.7 343.148 409.068 343.056 409.412 342.872C409.756 342.688 410.032 342.412 410.24 342.044C410.456 341.676 410.564 341.228 410.564 340.7C410.564 340.172 410.46 339.724 410.252 339.356C410.044 338.988 409.772 338.716 409.436 338.54C409.1 338.356 408.736 338.264 408.344 338.264C407.944 338.264 407.576 338.356 407.24 338.54C406.912 338.716 406.648 338.988 406.448 339.356C406.248 339.724 406.148 340.172 406.148 340.7C406.148 341.236 406.244 341.688 406.436 342.056C406.636 342.424 406.9 342.7 407.228 342.884C407.556 343.06 407.916 343.148 408.308 343.148ZM416.319 337.304C417.119 337.304 417.767 337.548 418.263 338.036C418.759 338.516 419.007 339.212 419.007 340.124V344H417.927V340.28C417.927 339.624 417.763 339.124 417.435 338.78C417.107 338.428 416.659 338.252 416.091 338.252C415.515 338.252 415.055 338.432 414.711 338.792C414.375 339.152 414.207 339.676 414.207 340.364V344H413.115V337.424H414.207V338.36C414.423 338.024 414.715 337.764 415.083 337.58C415.459 337.396 415.871 337.304 416.319 337.304ZM423.995 337.304C424.795 337.304 425.443 337.548 425.939 338.036C426.435 338.516 426.683 339.212 426.683 340.124V344H425.603V340.28C425.603 339.624 425.439 339.124 425.111 338.78C424.783 338.428 424.335 338.252 423.767 338.252C423.191 338.252 422.731 338.432 422.387 338.792C422.051 339.152 421.883 339.676 421.883 340.364V344H420.791V337.424H421.883V338.36C422.099 338.024 422.391 337.764 422.759 337.58C423.135 337.396 423.547 337.304 423.995 337.304ZM434.467 340.46C434.467 340.668 434.455 340.888 434.431 341.12H429.175C429.215 341.768 429.435 342.276 429.835 342.644C430.243 343.004 430.735 343.184 431.311 343.184C431.783 343.184 432.175 343.076 432.487 342.86C432.807 342.636 433.031 342.34 433.159 341.972H434.335C434.159 342.604 433.807 343.12 433.279 343.52C432.751 343.912 432.095 344.108 431.311 344.108C430.687 344.108 430.127 343.968 429.631 343.688C429.143 343.408 428.759 343.012 428.479 342.5C428.199 341.98 428.059 341.38 428.059 340.7C428.059 340.02 428.195 339.424 428.467 338.912C428.739 338.4 429.119 338.008 429.607 337.736C430.103 337.456 430.671 337.316 431.311 337.316C431.935 337.316 432.487 337.452 432.967 337.724C433.447 337.996 433.815 338.372 434.071 338.852C434.335 339.324 434.467 339.86 434.467 340.46ZM433.339 340.232C433.339 339.816 433.247 339.46 433.063 339.164C432.879 338.86 432.627 338.632 432.307 338.48C431.995 338.32 431.647 338.24 431.263 338.24C430.711 338.24 430.239 338.416 429.847 338.768C429.463 339.12 429.243 339.608 429.187 340.232H433.339ZM437 335.12V344H435.908V335.12H437ZM441.19 344.108C440.686 344.108 440.234 344.024 439.834 343.856C439.434 343.68 439.118 343.44 438.886 343.136C438.654 342.824 438.526 342.468 438.502 342.068H439.63C439.662 342.396 439.814 342.664 440.086 342.872C440.366 343.08 440.73 343.184 441.178 343.184C441.594 343.184 441.922 343.092 442.162 342.908C442.402 342.724 442.522 342.492 442.522 342.212C442.522 341.924 442.394 341.712 442.138 341.576C441.882 341.432 441.486 341.292 440.95 341.156C440.462 341.028 440.062 340.9 439.75 340.772C439.446 340.636 439.182 340.44 438.958 340.184C438.742 339.92 438.634 339.576 438.634 339.152C438.634 338.816 438.734 338.508 438.934 338.228C439.134 337.948 439.418 337.728 439.786 337.568C440.154 337.4 440.574 337.316 441.046 337.316C441.774 337.316 442.362 337.5 442.81 337.868C443.258 338.236 443.498 338.74 443.53 339.38H442.438C442.414 339.036 442.274 338.76 442.018 338.552C441.77 338.344 441.434 338.24 441.01 338.24C440.618 338.24 440.306 338.324 440.074 338.492C439.842 338.66 439.726 338.88 439.726 339.152C439.726 339.368 439.794 339.548 439.93 339.692C440.074 339.828 440.25 339.94 440.458 340.028C440.674 340.108 440.97 340.2 441.346 340.304C441.818 340.432 442.202 340.56 442.498 340.688C442.794 340.808 443.046 340.992 443.254 341.24C443.47 341.488 443.582 341.812 443.59 342.212C443.59 342.572 443.49 342.896 443.29 343.184C443.09 343.472 442.806 343.7 442.438 343.868C442.078 344.028 441.662 344.108 441.19 344.108Z" fill="white"/>
<path d="M373.016 361.112H375.944V362H371.924V353.636H373.016V361.112ZM379.972 362.108C379.356 362.108 378.796 361.968 378.292 361.688C377.796 361.408 377.404 361.012 377.116 360.5C376.836 359.98 376.696 359.38 376.696 358.7C376.696 358.028 376.84 357.436 377.128 356.924C377.424 356.404 377.824 356.008 378.328 355.736C378.832 355.456 379.396 355.316 380.02 355.316C380.644 355.316 381.208 355.456 381.712 355.736C382.216 356.008 382.612 356.4 382.9 356.912C383.196 357.424 383.344 358.02 383.344 358.7C383.344 359.38 383.192 359.98 382.888 360.5C382.592 361.012 382.188 361.408 381.676 361.688C381.164 361.968 380.596 362.108 379.972 362.108ZM379.972 361.148C380.364 361.148 380.732 361.056 381.076 360.872C381.42 360.688 381.696 360.412 381.904 360.044C382.12 359.676 382.228 359.228 382.228 358.7C382.228 358.172 382.124 357.724 381.916 357.356C381.708 356.988 381.436 356.716 381.1 356.54C380.764 356.356 380.4 356.264 380.008 356.264C379.608 356.264 379.24 356.356 378.904 356.54C378.576 356.716 378.312 356.988 378.112 357.356C377.912 357.724 377.812 358.172 377.812 358.7C377.812 359.236 377.908 359.688 378.1 360.056C378.3 360.424 378.564 360.7 378.892 360.884C379.22 361.06 379.58 361.148 379.972 361.148ZM387.491 355.316C388.059 355.316 388.555 355.44 388.979 355.688C389.411 355.936 389.731 356.248 389.939 356.624V355.424H391.043V362.144C391.043 362.744 390.915 363.276 390.659 363.74C390.403 364.212 390.035 364.58 389.555 364.844C389.083 365.108 388.531 365.24 387.899 365.24C387.035 365.24 386.315 365.036 385.739 364.628C385.163 364.22 384.823 363.664 384.719 362.96H385.799C385.919 363.36 386.167 363.68 386.543 363.92C386.919 364.168 387.371 364.292 387.899 364.292C388.499 364.292 388.987 364.104 389.363 363.728C389.747 363.352 389.939 362.824 389.939 362.144V360.764C389.723 361.148 389.403 361.468 388.979 361.724C388.555 361.98 388.059 362.108 387.491 362.108C386.907 362.108 386.375 361.964 385.895 361.676C385.423 361.388 385.051 360.984 384.779 360.464C384.507 359.944 384.371 359.352 384.371 358.688C384.371 358.016 384.507 357.428 384.779 356.924C385.051 356.412 385.423 356.016 385.895 355.736C386.375 355.456 386.907 355.316 387.491 355.316ZM389.939 358.7C389.939 358.204 389.839 357.772 389.639 357.404C389.439 357.036 389.167 356.756 388.823 356.564C388.487 356.364 388.115 356.264 387.707 356.264C387.299 356.264 386.927 356.36 386.591 356.552C386.255 356.744 385.987 357.024 385.787 357.392C385.587 357.76 385.487 358.192 385.487 358.688C385.487 359.192 385.587 359.632 385.787 360.008C385.987 360.376 386.255 360.66 386.591 360.86C386.927 361.052 387.299 361.148 387.707 361.148C388.115 361.148 388.487 361.052 388.823 360.86C389.167 360.66 389.439 360.376 389.639 360.008C389.839 359.632 389.939 359.196 389.939 358.7ZM393.453 354.356C393.245 354.356 393.069 354.284 392.925 354.14C392.781 353.996 392.709 353.82 392.709 353.612C392.709 353.404 392.781 353.228 392.925 353.084C393.069 352.94 393.245 352.868 393.453 352.868C393.653 352.868 393.821 352.94 393.957 353.084C394.101 353.228 394.173 353.404 394.173 353.612C394.173 353.82 394.101 353.996 393.957 354.14C393.821 354.284 393.653 354.356 393.453 354.356ZM393.981 355.424V362H392.889V355.424H393.981ZM395.434 358.688C395.434 358.016 395.57 357.428 395.842 356.924C396.114 356.412 396.486 356.016 396.958 355.736C397.438 355.456 397.974 355.316 398.566 355.316C399.134 355.316 399.63 355.444 400.054 355.7C400.486 355.948 400.802 356.256 401.002 356.624V355.424H402.106V365.12H401.002V360.788C400.794 361.156 400.474 361.468 400.042 361.724C399.61 361.98 399.106 362.108 398.53 362.108C397.954 362.108 397.43 361.964 396.958 361.676C396.486 361.388 396.114 360.984 395.842 360.464C395.57 359.944 395.434 359.352 395.434 358.688ZM401.002 358.7C401.002 358.204 400.902 357.772 400.702 357.404C400.502 357.036 400.23 356.756 399.886 356.564C399.55 356.364 399.178 356.264 398.77 356.264C398.362 356.264 397.99 356.36 397.654 356.552C397.318 356.744 397.05 357.024 396.85 357.392C396.65 357.76 396.55 358.192 396.55 358.688C396.55 359.192 396.65 359.632 396.85 360.008C397.05 360.376 397.318 360.66 397.654 360.86C397.99 361.052 398.362 361.148 398.77 361.148C399.178 361.148 399.55 361.052 399.886 360.86C400.23 360.66 400.502 360.376 400.702 360.008C400.902 359.632 401.002 359.196 401.002 358.7ZM409.783 355.424V362H408.691V361.028C408.483 361.364 408.191 361.628 407.815 361.82C407.447 362.004 407.039 362.096 406.591 362.096C406.079 362.096 405.619 361.992 405.211 361.784C404.803 361.568 404.479 361.248 404.239 360.824C404.007 360.4 403.891 359.884 403.891 359.276V355.424H404.971V359.132C404.971 359.78 405.135 360.28 405.463 360.632C405.791 360.976 406.239 361.148 406.807 361.148C407.391 361.148 407.851 360.968 408.187 360.608C408.523 360.248 408.691 359.724 408.691 359.036V355.424H409.783ZM417.627 358.46C417.627 358.668 417.615 358.888 417.591 359.12H412.335C412.375 359.768 412.595 360.276 412.995 360.644C413.403 361.004 413.895 361.184 414.471 361.184C414.943 361.184 415.335 361.076 415.647 360.86C415.967 360.636 416.191 360.34 416.319 359.972H417.495C417.319 360.604 416.967 361.12 416.439 361.52C415.911 361.912 415.255 362.108 414.471 362.108C413.847 362.108 413.287 361.968 412.791 361.688C412.303 361.408 411.919 361.012 411.639 360.5C411.359 359.98 411.219 359.38 411.219 358.7C411.219 358.02 411.355 357.424 411.627 356.912C411.899 356.4 412.279 356.008 412.767 355.736C413.263 355.456 413.831 355.316 414.471 355.316C415.095 355.316 415.647 355.452 416.127 355.724C416.607 355.996 416.975 356.372 417.231 356.852C417.495 357.324 417.627 357.86 417.627 358.46ZM416.499 358.232C416.499 357.816 416.407 357.46 416.223 357.164C416.039 356.86 415.787 356.632 415.467 356.48C415.155 356.32 414.807 356.24 414.423 356.24C413.871 356.24 413.399 356.416 413.007 356.768C412.623 357.12 412.403 357.608 412.347 358.232H416.499ZM421.397 362.108C420.893 362.108 420.441 362.024 420.041 361.856C419.641 361.68 419.325 361.44 419.093 361.136C418.861 360.824 418.733 360.468 418.709 360.068H419.837C419.869 360.396 420.021 360.664 420.293 360.872C420.573 361.08 420.937 361.184 421.385 361.184C421.801 361.184 422.129 361.092 422.369 360.908C422.609 360.724 422.729 360.492 422.729 360.212C422.729 359.924 422.601 359.712 422.345 359.576C422.089 359.432 421.693 359.292 421.157 359.156C420.669 359.028 420.269 358.9 419.957 358.772C419.653 358.636 419.389 358.44 419.165 358.184C418.949 357.92 418.841 357.576 418.841 357.152C418.841 356.816 418.941 356.508 419.141 356.228C419.341 355.948 419.625 355.728 419.993 355.568C420.361 355.4 420.781 355.316 421.253 355.316C421.981 355.316 422.569 355.5 423.017 355.868C423.465 356.236 423.705 356.74 423.737 357.38H422.645C422.621 357.036 422.481 356.76 422.225 356.552C421.977 356.344 421.641 356.24 421.217 356.24C420.825 356.24 420.513 356.324 420.281 356.492C420.049 356.66 419.933 356.88 419.933 357.152C419.933 357.368 420.001 357.548 420.137 357.692C420.281 357.828 420.457 357.94 420.665 358.028C420.881 358.108 421.177 358.2 421.553 358.304C422.025 358.432 422.409 358.56 422.705 358.688C423.001 358.808 423.253 358.992 423.461 359.24C423.677 359.488 423.789 359.812 423.797 360.212C423.797 360.572 423.697 360.896 423.497 361.184C423.297 361.472 423.013 361.7 422.645 361.868C422.285 362.028 421.869 362.108 421.397 362.108Z" fill="white"/>
<g clip-path="url(#clip0_61_222)">
<g opacity="0.199">
<path d="M197.509 235.02C217.274 235.02 233.297 218.493 233.297 198.107C233.297 177.721 217.274 161.194 197.509 161.194C177.744 161.194 161.721 177.721 161.721 198.107C161.721 218.493 177.744 235.02 197.509 235.02Z" stroke="#29FADB" stroke-width="3"/>
<path d="M198.522 271.932C238.239 271.932 270.435 238.724 270.435 197.759C270.435 156.794 238.239 123.585 198.522 123.585C158.805 123.585 126.608 156.794 126.608 197.759C126.608 238.724 158.805 271.932 198.522 271.932Z" stroke="#29FADB" stroke-width="3"/>
<path d="M197.847 308.845C256.956 308.845 304.873 259.422 304.873 198.455C304.873 137.489 256.956 88.0655 197.847 88.0655C138.738 88.0655 90.8204 137.489 90.8204 198.455C90.8204 259.422 138.738 308.845 197.847 308.845Z" stroke="#29FADB" stroke-width="3"/>
</g>
<g opacity="0.199">
<path d="M107.702 179.999C127.467 179.999 143.49 163.473 143.49 143.086C143.49 122.7 127.467 106.174 107.702 106.174C87.9364 106.174 71.9136 122.7 71.9136 143.086C71.9136 163.473 87.9364 179.999 107.702 179.999Z" stroke="#29FADB" stroke-width="3"/>
<path d="M108.714 216.912C148.431 216.912 180.628 183.703 180.628 142.738C180.628 101.773 148.431 68.5645 108.714 68.5645C68.9976 68.5645 36.8008 101.773 36.8008 142.738C36.8008 183.703 68.9976 216.912 108.714 216.912Z" stroke="#29FADB" stroke-width="3"/>
<path d="M108.039 253.824C167.148 253.824 215.065 204.401 215.065 143.435C215.065 82.4679 167.148 33.0447 108.039 33.0447C48.9302 33.0447 1.01288 82.4679 1.01288 143.435C1.01288 204.401 48.9302 253.824 108.039 253.824Z" stroke="#29FADB" stroke-width="3"/>
</g>
<g opacity="0.199">
<path d="M107.702 292.13C127.467 292.13 143.49 275.604 143.49 255.217C143.49 234.831 127.467 218.305 107.702 218.305C87.9364 218.305 71.9136 234.831 71.9136 255.217C71.9136 275.604 87.9364 292.13 107.702 292.13Z" stroke="#29FADB" stroke-width="3"/>
<path d="M108.714 329.043C148.431 329.043 180.628 295.834 180.628 254.869C180.628 213.904 148.431 180.695 108.714 180.695C68.9976 180.695 36.8008 213.904 36.8008 254.869C36.8008 295.834 68.9976 329.043 108.714 329.043Z" stroke="#29FADB" stroke-width="3"/>
<path d="M108.039 365.955C167.148 365.955 215.065 316.532 215.065 255.565C215.065 194.599 167.148 145.176 108.039 145.176C48.9302 145.176 1.01288 194.599 1.01288 255.565C1.01288 316.532 48.9302 365.955 108.039 365.955Z" stroke="#29FADB" stroke-width="3"/>
</g>
<path opacity="0.243" d="M103.877 254.703C133.288 307.494 199.026 325.223 250.707 294.302C302.388 263.381 320.441 195.52 291.03 142.729C261.619 89.9389 195.88 72.2097 144.199 103.13C92.5184 134.051 74.4652 201.912 103.877 254.703Z" fill="#29FADB"/>
<path opacity="0.311" d="M135.649 235.697C155.472 271.277 199.736 283.252 234.515 262.443C269.294 241.635 281.419 195.923 261.596 160.343C241.773 124.763 197.51 112.788 162.731 133.596C127.951 154.405 115.827 200.116 135.649 235.697Z" fill="#29FADB"/>
<path d="M164.916 217.781C175.057 235.984 197.771 242.07 215.648 231.375C233.524 220.679 239.795 197.252 229.653 179.048C219.512 160.845 196.798 154.759 178.921 165.454C161.044 176.15 154.774 199.577 164.916 217.781Z" fill="#29FADB"/>
<g filter="url(#filter0_d_61_222)">
<path d="M291.618 138.633C306.215 164.698 310.062 195.795 302.311 225.083C294.56 254.371 275.846 279.45 250.287 294.804" stroke="#29FADB" stroke-width="10.0344" stroke-linecap="round"/>
</g>
<g filter="url(#filter1_d_61_222)">
<path d="M143.073 243.14C131.15 230.892 124.496 214.195 124.575 196.721C124.654 179.247 131.46 162.429 143.496 149.965" stroke="#29FADB" stroke-width="10.0755" stroke-linecap="round"/>
</g>
<path d="M204.923 143.228C204.286 140.903 201.87 139.588 199.527 140.291C197.183 140.994 195.8 143.449 196.437 145.775C197.074 148.1 199.491 149.415 201.834 148.712C204.177 148.009 205.561 145.554 204.923 143.228Z" fill="white"/>
<path d="M196.382 145.469L314.71 110.472Z" fill="#29FADB"/>
<path d="M196.382 145.469L314.71 110.472" stroke="white" stroke-dasharray="2 2"/>
<path d="M202.143 290.992C202.143 288.492 200.178 286.465 197.754 286.465C195.33 286.465 193.365 288.492 193.365 290.992C193.365 293.493 195.33 295.52 197.754 295.52C200.178 295.52 202.143 293.493 202.143 290.992Z" fill="white"/>
<path d="M193.363 290.692H351.573Z" fill="#29FADB"/>
<path d="M193.363 290.692H351.573" stroke="white" stroke-dasharray="2 2"/>
<path d="M202.451 200.379C202.451 198.223 200.486 196.475 198.062 196.475C195.638 196.475 193.673 198.223 193.673 200.379C193.673 202.535 195.638 204.283 198.062 204.283C200.486 204.283 202.451 202.535 202.451 200.379Z" fill="white"/>
<path d="M193.672 200.119L381.001 200.119Z" fill="white"/>
<path d="M193.672 200.119L381.001 200.119" stroke="white" stroke-dasharray="2 2"/>
</g>
<path d="M394.358 152.336C394.358 152.905 394.227 153.428 393.966 153.904C393.705 154.371 393.303 154.749 392.762 155.038C392.221 155.327 391.549 155.472 390.746 155.472H389.262V159H386.868V149.172H390.746C391.53 149.172 392.193 149.307 392.734 149.578C393.275 149.849 393.681 150.222 393.952 150.698C394.223 151.174 394.358 151.72 394.358 152.336ZM390.564 153.568C391.021 153.568 391.362 153.461 391.586 153.246C391.81 153.031 391.922 152.728 391.922 152.336C391.922 151.944 391.81 151.641 391.586 151.426C391.362 151.211 391.021 151.104 390.564 151.104H389.262V153.568H390.564ZM398.782 159.112C398.101 159.112 397.494 158.995 396.962 158.762C396.43 158.529 396.01 158.211 395.702 157.81C395.394 157.399 395.222 156.942 395.184 156.438H397.55C397.578 156.709 397.704 156.928 397.928 157.096C398.152 157.264 398.428 157.348 398.754 157.348C399.053 157.348 399.282 157.292 399.44 157.18C399.608 157.059 399.692 156.905 399.692 156.718C399.692 156.494 399.576 156.331 399.342 156.228C399.109 156.116 398.731 155.995 398.208 155.864C397.648 155.733 397.182 155.598 396.808 155.458C396.435 155.309 396.113 155.08 395.842 154.772C395.572 154.455 395.436 154.03 395.436 153.498C395.436 153.05 395.558 152.644 395.8 152.28C396.052 151.907 396.416 151.613 396.892 151.398C397.378 151.183 397.952 151.076 398.614 151.076C399.594 151.076 400.364 151.319 400.924 151.804C401.494 152.289 401.82 152.933 401.904 153.736H399.692C399.655 153.465 399.534 153.251 399.328 153.092C399.132 152.933 398.871 152.854 398.544 152.854C398.264 152.854 398.05 152.91 397.9 153.022C397.751 153.125 397.676 153.269 397.676 153.456C397.676 153.68 397.793 153.848 398.026 153.96C398.269 154.072 398.642 154.184 399.146 154.296C399.725 154.445 400.196 154.595 400.56 154.744C400.924 154.884 401.242 155.117 401.512 155.444C401.792 155.761 401.937 156.191 401.946 156.732C401.946 157.189 401.816 157.6 401.554 157.964C401.302 158.319 400.934 158.599 400.448 158.804C399.972 159.009 399.417 159.112 398.782 159.112ZM411.391 151.188L406.491 162.71H403.915L405.707 158.734L402.529 151.188H405.203L407.009 156.074L408.801 151.188H411.391ZM411.781 155.094C411.781 154.282 411.944 153.573 412.271 152.966C412.607 152.359 413.069 151.893 413.657 151.566C414.254 151.239 414.935 151.076 415.701 151.076C416.681 151.076 417.497 151.333 418.151 151.846C418.813 152.359 419.247 153.083 419.453 154.016H416.905C416.69 153.419 416.275 153.12 415.659 153.12C415.22 153.12 414.87 153.293 414.609 153.638C414.347 153.974 414.217 154.459 414.217 155.094C414.217 155.729 414.347 156.219 414.609 156.564C414.87 156.9 415.22 157.068 415.659 157.068C416.275 157.068 416.69 156.769 416.905 156.172H419.453C419.247 157.087 418.813 157.805 418.151 158.328C417.488 158.851 416.671 159.112 415.701 159.112C414.935 159.112 414.254 158.949 413.657 158.622C413.069 158.295 412.607 157.829 412.271 157.222C411.944 156.615 411.781 155.906 411.781 155.094ZM425.535 151.104C426.431 151.104 427.15 151.403 427.691 152C428.233 152.588 428.503 153.4 428.503 154.436V159H426.123V154.758C426.123 154.235 425.988 153.829 425.717 153.54C425.447 153.251 425.083 153.106 424.625 153.106C424.168 153.106 423.804 153.251 423.533 153.54C423.263 153.829 423.127 154.235 423.127 154.758V159H420.733V148.64H423.127V152.238C423.37 151.893 423.701 151.617 424.121 151.412C424.541 151.207 425.013 151.104 425.535 151.104ZM433.723 159.112C432.957 159.112 432.267 158.949 431.651 158.622C431.044 158.295 430.563 157.829 430.209 157.222C429.863 156.615 429.691 155.906 429.691 155.094C429.691 154.291 429.868 153.587 430.223 152.98C430.577 152.364 431.063 151.893 431.679 151.566C432.295 151.239 432.985 151.076 433.751 151.076C434.516 151.076 435.207 151.239 435.823 151.566C436.439 151.893 436.924 152.364 437.279 152.98C437.633 153.587 437.811 154.291 437.811 155.094C437.811 155.897 437.629 156.606 437.265 157.222C436.91 157.829 436.42 158.295 435.795 158.622C435.179 158.949 434.488 159.112 433.723 159.112ZM433.723 157.04C434.18 157.04 434.567 156.872 434.885 156.536C435.211 156.2 435.375 155.719 435.375 155.094C435.375 154.469 435.216 153.988 434.899 153.652C434.591 153.316 434.208 153.148 433.751 153.148C433.284 153.148 432.897 153.316 432.589 153.652C432.281 153.979 432.127 154.459 432.127 155.094C432.127 155.719 432.276 156.2 432.575 156.536C432.883 156.872 433.265 157.04 433.723 157.04ZM441.475 148.64V159H439.081V148.64H441.475ZM446.766 159.112C446 159.112 445.31 158.949 444.694 158.622C444.087 158.295 443.606 157.829 443.252 157.222C442.906 156.615 442.734 155.906 442.734 155.094C442.734 154.291 442.911 153.587 443.266 152.98C443.62 152.364 444.106 151.893 444.722 151.566C445.338 151.239 446.028 151.076 446.794 151.076C447.559 151.076 448.25 151.239 448.866 151.566C449.482 151.893 449.967 152.364 450.322 152.98C450.676 153.587 450.854 154.291 450.854 155.094C450.854 155.897 450.672 156.606 450.308 157.222C449.953 157.829 449.463 158.295 448.838 158.622C448.222 158.949 447.531 159.112 446.766 159.112ZM446.766 157.04C447.223 157.04 447.61 156.872 447.928 156.536C448.254 156.2 448.418 155.719 448.418 155.094C448.418 154.469 448.259 153.988 447.942 153.652C447.634 153.316 447.251 153.148 446.794 153.148C446.327 153.148 445.94 153.316 445.632 153.652C445.324 153.979 445.17 154.459 445.17 155.094C445.17 155.719 445.319 156.2 445.618 156.536C445.926 156.872 446.308 157.04 446.766 157.04ZM455.092 151.076C455.643 151.076 456.123 151.188 456.534 151.412C456.954 151.636 457.276 151.93 457.5 152.294V151.188H459.894V158.986C459.894 159.705 459.749 160.353 459.46 160.932C459.18 161.52 458.746 161.987 458.158 162.332C457.579 162.677 456.856 162.85 455.988 162.85C454.831 162.85 453.893 162.575 453.174 162.024C452.455 161.483 452.045 160.745 451.942 159.812H454.308C454.383 160.111 454.56 160.344 454.84 160.512C455.12 160.689 455.465 160.778 455.876 160.778C456.371 160.778 456.763 160.633 457.052 160.344C457.351 160.064 457.5 159.611 457.5 158.986V157.88C457.267 158.244 456.945 158.543 456.534 158.776C456.123 159 455.643 159.112 455.092 159.112C454.448 159.112 453.865 158.949 453.342 158.622C452.819 158.286 452.404 157.815 452.096 157.208C451.797 156.592 451.648 155.883 451.648 155.08C451.648 154.277 451.797 153.573 452.096 152.966C452.404 152.359 452.819 151.893 453.342 151.566C453.865 151.239 454.448 151.076 455.092 151.076ZM457.5 155.094C457.5 154.497 457.332 154.025 456.996 153.68C456.669 153.335 456.268 153.162 455.792 153.162C455.316 153.162 454.91 153.335 454.574 153.68C454.247 154.016 454.084 154.483 454.084 155.08C454.084 155.677 454.247 156.153 454.574 156.508C454.91 156.853 455.316 157.026 455.792 157.026C456.268 157.026 456.669 156.853 456.996 156.508C457.332 156.163 457.5 155.691 457.5 155.094ZM462.83 150.376C462.41 150.376 462.064 150.255 461.794 150.012C461.532 149.76 461.402 149.452 461.402 149.088C461.402 148.715 461.532 148.407 461.794 148.164C462.064 147.912 462.41 147.786 462.83 147.786C463.24 147.786 463.576 147.912 463.838 148.164C464.108 148.407 464.244 148.715 464.244 149.088C464.244 149.452 464.108 149.76 463.838 150.012C463.576 150.255 463.24 150.376 462.83 150.376ZM464.02 151.188V159H461.626V151.188H464.02ZM473.119 154.968C473.119 155.192 473.105 155.425 473.077 155.668H467.659C467.696 156.153 467.85 156.527 468.121 156.788C468.401 157.04 468.741 157.166 469.143 157.166C469.74 157.166 470.155 156.914 470.389 156.41H472.937C472.806 156.923 472.568 157.385 472.223 157.796C471.887 158.207 471.462 158.529 470.949 158.762C470.435 158.995 469.861 159.112 469.227 159.112C468.461 159.112 467.78 158.949 467.183 158.622C466.585 158.295 466.119 157.829 465.783 157.222C465.447 156.615 465.279 155.906 465.279 155.094C465.279 154.282 465.442 153.573 465.769 152.966C466.105 152.359 466.571 151.893 467.169 151.566C467.766 151.239 468.452 151.076 469.227 151.076C469.983 151.076 470.655 151.235 471.243 151.552C471.831 151.869 472.288 152.322 472.615 152.91C472.951 153.498 473.119 154.184 473.119 154.968ZM470.669 154.338C470.669 153.927 470.529 153.601 470.249 153.358C469.969 153.115 469.619 152.994 469.199 152.994C468.797 152.994 468.457 153.111 468.177 153.344C467.906 153.577 467.738 153.909 467.673 154.338H470.669Z" fill="white"/>
<path d="M386.367 184.067L386.367 270.811" stroke="white" stroke-width="2" stroke-linecap="round"/>
<path d="M404.112 204.496C404.416 204.544 404.692 204.668 404.94 204.868C405.196 205.068 405.396 205.316 405.54 205.612C405.692 205.908 405.768 206.224 405.768 206.56C405.768 206.984 405.66 207.368 405.444 207.712C405.228 208.048 404.912 208.316 404.496 208.516C404.088 208.708 403.604 208.804 403.044 208.804H399.924V200.44H402.924C403.492 200.44 403.976 200.536 404.376 200.728C404.776 200.912 405.076 201.164 405.276 201.484C405.476 201.804 405.576 202.164 405.576 202.564C405.576 203.06 405.44 203.472 405.168 203.8C404.904 204.12 404.552 204.352 404.112 204.496ZM401.016 204.052H402.852C403.364 204.052 403.76 203.932 404.04 203.692C404.32 203.452 404.46 203.12 404.46 202.696C404.46 202.272 404.32 201.94 404.04 201.7C403.76 201.46 403.356 201.34 402.828 201.34H401.016V204.052ZM402.948 207.904C403.492 207.904 403.916 207.776 404.22 207.52C404.524 207.264 404.676 206.908 404.676 206.452C404.676 205.988 404.516 205.624 404.196 205.36C403.876 205.088 403.448 204.952 402.912 204.952H401.016V207.904H402.948ZM413.283 205.264C413.283 205.472 413.271 205.692 413.247 205.924H407.991C408.031 206.572 408.251 207.08 408.651 207.448C409.059 207.808 409.551 207.988 410.127 207.988C410.599 207.988 410.991 207.88 411.303 207.664C411.623 207.44 411.847 207.144 411.975 206.776H413.151C412.975 207.408 412.623 207.924 412.095 208.324C411.567 208.716 410.911 208.912 410.127 208.912C409.503 208.912 408.943 208.772 408.447 208.492C407.959 208.212 407.575 207.816 407.295 207.304C407.015 206.784 406.875 206.184 406.875 205.504C406.875 204.824 407.011 204.228 407.283 203.716C407.555 203.204 407.935 202.812 408.423 202.54C408.919 202.26 409.487 202.12 410.127 202.12C410.751 202.12 411.303 202.256 411.783 202.528C412.263 202.8 412.631 203.176 412.887 203.656C413.151 204.128 413.283 204.664 413.283 205.264ZM412.155 205.036C412.155 204.62 412.063 204.264 411.879 203.968C411.695 203.664 411.443 203.436 411.123 203.284C410.811 203.124 410.463 203.044 410.079 203.044C409.527 203.044 409.055 203.22 408.663 203.572C408.279 203.924 408.059 204.412 408.003 205.036H412.155ZM417.053 208.912C416.549 208.912 416.097 208.828 415.697 208.66C415.297 208.484 414.981 208.244 414.749 207.94C414.517 207.628 414.389 207.272 414.365 206.872H415.493C415.525 207.2 415.677 207.468 415.949 207.676C416.229 207.884 416.593 207.988 417.041 207.988C417.457 207.988 417.785 207.896 418.025 207.712C418.265 207.528 418.385 207.296 418.385 207.016C418.385 206.728 418.257 206.516 418.001 206.38C417.745 206.236 417.349 206.096 416.813 205.96C416.325 205.832 415.925 205.704 415.613 205.576C415.309 205.44 415.045 205.244 414.821 204.988C414.605 204.724 414.497 204.38 414.497 203.956C414.497 203.62 414.597 203.312 414.797 203.032C414.997 202.752 415.281 202.532 415.649 202.372C416.017 202.204 416.437 202.12 416.909 202.12C417.637 202.12 418.225 202.304 418.673 202.672C419.121 203.04 419.361 203.544 419.393 204.184H418.301C418.277 203.84 418.137 203.564 417.881 203.356C417.633 203.148 417.297 203.044 416.873 203.044C416.481 203.044 416.169 203.128 415.937 203.296C415.705 203.464 415.589 203.684 415.589 203.956C415.589 204.172 415.657 204.352 415.793 204.496C415.937 204.632 416.113 204.744 416.321 204.832C416.537 204.912 416.833 205.004 417.209 205.108C417.681 205.236 418.065 205.364 418.361 205.492C418.657 205.612 418.909 205.796 419.117 206.044C419.333 206.292 419.445 206.616 419.453 207.016C419.453 207.376 419.353 207.7 419.153 207.988C418.953 208.276 418.669 208.504 418.301 208.672C417.941 208.832 417.525 208.912 417.053 208.912ZM423.862 208.912C423.246 208.912 422.686 208.772 422.182 208.492C421.686 208.212 421.294 207.816 421.006 207.304C420.726 206.784 420.586 206.184 420.586 205.504C420.586 204.832 420.73 204.24 421.018 203.728C421.314 203.208 421.714 202.812 422.218 202.54C422.722 202.26 423.286 202.12 423.91 202.12C424.534 202.12 425.098 202.26 425.602 202.54C426.106 202.812 426.502 203.204 426.79 203.716C427.086 204.228 427.234 204.824 427.234 205.504C427.234 206.184 427.082 206.784 426.778 207.304C426.482 207.816 426.078 208.212 425.566 208.492C425.054 208.772 424.486 208.912 423.862 208.912ZM423.862 207.952C424.254 207.952 424.622 207.86 424.966 207.676C425.31 207.492 425.586 207.216 425.794 206.848C426.01 206.48 426.118 206.032 426.118 205.504C426.118 204.976 426.014 204.528 425.806 204.16C425.598 203.792 425.326 203.52 424.99 203.344C424.654 203.16 424.29 203.068 423.898 203.068C423.498 203.068 423.13 203.16 422.794 203.344C422.466 203.52 422.202 203.792 422.002 204.16C421.802 204.528 421.702 204.976 421.702 205.504C421.702 206.04 421.798 206.492 421.99 206.86C422.19 207.228 422.454 207.504 422.782 207.688C423.11 207.864 423.47 207.952 423.862 207.952ZM429.234 201.16C429.026 201.16 428.85 201.088 428.706 200.944C428.562 200.8 428.49 200.624 428.49 200.416C428.49 200.208 428.562 200.032 428.706 199.888C428.85 199.744 429.026 199.672 429.234 199.672C429.434 199.672 429.602 199.744 429.738 199.888C429.882 200.032 429.954 200.208 429.954 200.416C429.954 200.624 429.882 200.8 429.738 200.944C429.602 201.088 429.434 201.16 429.234 201.16ZM429.762 202.228V208.804H428.67V202.228H429.762ZM434.827 202.108C435.627 202.108 436.275 202.352 436.771 202.84C437.267 203.32 437.515 204.016 437.515 204.928V208.804H436.435V205.084C436.435 204.428 436.271 203.928 435.943 203.584C435.615 203.232 435.167 203.056 434.599 203.056C434.023 203.056 433.563 203.236 433.219 203.596C432.883 203.956 432.715 204.48 432.715 205.168V208.804H431.623V202.228H432.715V203.164C432.931 202.828 433.223 202.568 433.591 202.384C433.967 202.2 434.379 202.108 434.827 202.108ZM441.627 208.912C441.123 208.912 440.671 208.828 440.271 208.66C439.871 208.484 439.555 208.244 439.323 207.94C439.091 207.628 438.963 207.272 438.939 206.872H440.067C440.099 207.2 440.251 207.468 440.523 207.676C440.803 207.884 441.167 207.988 441.615 207.988C442.031 207.988 442.359 207.896 442.599 207.712C442.839 207.528 442.959 207.296 442.959 207.016C442.959 206.728 442.831 206.516 442.575 206.38C442.319 206.236 441.923 206.096 441.387 205.96C440.899 205.832 440.499 205.704 440.187 205.576C439.883 205.44 439.619 205.244 439.395 204.988C439.179 204.724 439.071 204.38 439.071 203.956C439.071 203.62 439.171 203.312 439.371 203.032C439.571 202.752 439.855 202.532 440.223 202.372C440.591 202.204 441.011 202.12 441.483 202.12C442.211 202.12 442.799 202.304 443.247 202.672C443.695 203.04 443.935 203.544 443.967 204.184H442.875C442.851 203.84 442.711 203.564 442.455 203.356C442.207 203.148 441.871 203.044 441.447 203.044C441.055 203.044 440.743 203.128 440.511 203.296C440.279 203.464 440.163 203.684 440.163 203.956C440.163 204.172 440.231 204.352 440.367 204.496C440.511 204.632 440.687 204.744 440.895 204.832C441.111 204.912 441.407 205.004 441.783 205.108C442.255 205.236 442.639 205.364 442.935 205.492C443.231 205.612 443.483 205.796 443.691 206.044C443.907 206.292 444.019 206.616 444.027 207.016C444.027 207.376 443.927 207.7 443.727 207.988C443.527 208.276 443.243 208.504 442.875 208.672C442.515 208.832 442.099 208.912 441.627 208.912Z" fill="white"/>
<path d="M406.516 224.37C406.516 225.066 406.276 225.646 405.796 226.11C405.324 226.566 404.6 226.794 403.624 226.794H402.016V230.286H400.924V221.922H403.624C404.568 221.922 405.284 222.15 405.772 222.606C406.268 223.062 406.516 223.65 406.516 224.37ZM403.624 225.894C404.232 225.894 404.68 225.762 404.968 225.498C405.256 225.234 405.4 224.858 405.4 224.37C405.4 223.338 404.808 222.822 403.624 222.822H402.016V225.894H403.624ZM413.873 226.746C413.873 226.954 413.861 227.174 413.837 227.406H408.581C408.621 228.054 408.841 228.562 409.241 228.93C409.649 229.29 410.141 229.47 410.717 229.47C411.189 229.47 411.581 229.362 411.893 229.146C412.213 228.922 412.437 228.626 412.565 228.258H413.741C413.565 228.89 413.213 229.406 412.685 229.806C412.157 230.198 411.501 230.394 410.717 230.394C410.093 230.394 409.533 230.254 409.037 229.974C408.549 229.694 408.165 229.298 407.885 228.786C407.605 228.266 407.465 227.666 407.465 226.986C407.465 226.306 407.601 225.71 407.873 225.198C408.145 224.686 408.525 224.294 409.013 224.022C409.509 223.742 410.077 223.602 410.717 223.602C411.341 223.602 411.893 223.738 412.373 224.01C412.853 224.282 413.221 224.658 413.477 225.138C413.741 225.61 413.873 226.146 413.873 226.746ZM412.745 226.518C412.745 226.102 412.653 225.746 412.469 225.45C412.285 225.146 412.033 224.918 411.713 224.766C411.401 224.606 411.053 224.526 410.669 224.526C410.117 224.526 409.645 224.702 409.253 225.054C408.869 225.406 408.649 225.894 408.593 226.518H412.745ZM421.147 223.71V230.286H420.055V229.314C419.847 229.65 419.555 229.914 419.179 230.106C418.811 230.29 418.403 230.382 417.955 230.382C417.443 230.382 416.983 230.278 416.575 230.07C416.167 229.854 415.843 229.534 415.603 229.11C415.371 228.686 415.255 228.17 415.255 227.562V223.71H416.335V227.418C416.335 228.066 416.499 228.566 416.827 228.918C417.155 229.262 417.603 229.434 418.171 229.434C418.755 229.434 419.215 229.254 419.551 228.894C419.887 228.534 420.055 228.01 420.055 227.322V223.71H421.147ZM424.082 224.778C424.274 224.402 424.546 224.11 424.898 223.902C425.258 223.694 425.694 223.59 426.206 223.59V224.718H425.918C424.694 224.718 424.082 225.382 424.082 226.71V230.286H422.99V223.71H424.082V224.778ZM429.795 230.394C429.291 230.394 428.839 230.31 428.439 230.142C428.039 229.966 427.723 229.726 427.491 229.422C427.259 229.11 427.131 228.754 427.107 228.354H428.235C428.267 228.682 428.419 228.95 428.691 229.158C428.971 229.366 429.335 229.47 429.783 229.47C430.199 229.47 430.527 229.378 430.767 229.194C431.007 229.01 431.127 228.778 431.127 228.498C431.127 228.21 430.999 227.998 430.743 227.862C430.487 227.718 430.091 227.578 429.555 227.442C429.067 227.314 428.667 227.186 428.355 227.058C428.051 226.922 427.787 226.726 427.563 226.47C427.347 226.206 427.239 225.862 427.239 225.438C427.239 225.102 427.339 224.794 427.539 224.514C427.739 224.234 428.023 224.014 428.391 223.854C428.759 223.686 429.179 223.602 429.651 223.602C430.379 223.602 430.967 223.786 431.415 224.154C431.863 224.522 432.103 225.026 432.135 225.666H431.043C431.019 225.322 430.879 225.046 430.623 224.838C430.375 224.63 430.039 224.526 429.615 224.526C429.223 224.526 428.911 224.61 428.679 224.778C428.447 224.946 428.331 225.166 428.331 225.438C428.331 225.654 428.399 225.834 428.535 225.978C428.679 226.114 428.855 226.226 429.063 226.314C429.279 226.394 429.575 226.486 429.951 226.59C430.423 226.718 430.807 226.846 431.103 226.974C431.399 227.094 431.651 227.278 431.859 227.526C432.075 227.774 432.187 228.098 432.195 228.498C432.195 228.858 432.095 229.182 431.895 229.47C431.695 229.758 431.411 229.986 431.043 230.154C430.683 230.314 430.267 230.394 429.795 230.394Z" fill="white"/>
<path d="M402.528 240.471C403.44 240.471 404.228 240.643 404.892 240.987C405.564 241.323 406.076 241.807 406.428 242.439C406.788 243.071 406.968 243.815 406.968 244.671C406.968 245.527 406.788 246.271 406.428 246.903C406.076 247.527 405.564 248.007 404.892 248.343C404.228 248.671 403.44 248.835 402.528 248.835H399.924V240.471H402.528ZM402.528 247.935C403.608 247.935 404.432 247.651 405 247.083C405.568 246.507 405.852 245.703 405.852 244.671C405.852 243.631 405.564 242.819 404.988 242.235C404.42 241.651 403.6 241.359 402.528 241.359H401.016V247.935H402.528ZM414.408 245.295C414.408 245.503 414.396 245.723 414.372 245.955H409.116C409.156 246.603 409.376 247.111 409.776 247.479C410.184 247.839 410.676 248.019 411.252 248.019C411.724 248.019 412.116 247.911 412.428 247.695C412.748 247.471 412.972 247.175 413.1 246.807H414.276C414.1 247.439 413.748 247.955 413.22 248.355C412.692 248.747 412.036 248.943 411.252 248.943C410.628 248.943 410.068 248.803 409.572 248.523C409.084 248.243 408.7 247.847 408.42 247.335C408.14 246.815 408 246.215 408 245.535C408 244.855 408.136 244.259 408.408 243.747C408.68 243.235 409.06 242.843 409.548 242.571C410.044 242.291 410.612 242.151 411.252 242.151C411.876 242.151 412.428 242.287 412.908 242.559C413.388 242.831 413.756 243.207 414.012 243.687C414.276 244.159 414.408 244.695 414.408 245.295ZM413.28 245.067C413.28 244.651 413.188 244.295 413.004 243.999C412.82 243.695 412.568 243.467 412.248 243.315C411.936 243.155 411.588 243.075 411.204 243.075C410.652 243.075 410.18 243.251 409.788 243.603C409.404 243.955 409.184 244.443 409.128 245.067H413.28ZM412.38 240.399L409.824 241.767V240.951L412.38 239.451V240.399ZM418.178 248.943C417.674 248.943 417.222 248.859 416.822 248.691C416.422 248.515 416.106 248.275 415.874 247.971C415.642 247.659 415.514 247.303 415.49 246.903H416.618C416.65 247.231 416.802 247.499 417.074 247.707C417.354 247.915 417.718 248.019 418.166 248.019C418.582 248.019 418.91 247.927 419.15 247.743C419.39 247.559 419.51 247.327 419.51 247.047C419.51 246.759 419.382 246.547 419.126 246.411C418.87 246.267 418.474 246.127 417.938 245.991C417.45 245.863 417.05 245.735 416.738 245.607C416.434 245.471 416.17 245.275 415.946 245.019C415.73 244.755 415.622 244.411 415.622 243.987C415.622 243.651 415.722 243.343 415.922 243.063C416.122 242.783 416.406 242.563 416.774 242.403C417.142 242.235 417.562 242.151 418.034 242.151C418.762 242.151 419.35 242.335 419.798 242.703C420.246 243.071 420.486 243.575 420.518 244.215H419.426C419.402 243.871 419.262 243.595 419.006 243.387C418.758 243.179 418.422 243.075 417.998 243.075C417.606 243.075 417.294 243.159 417.062 243.327C416.83 243.495 416.714 243.715 416.714 243.987C416.714 244.203 416.782 244.383 416.918 244.527C417.062 244.663 417.238 244.775 417.446 244.863C417.662 244.943 417.958 245.035 418.334 245.139C418.806 245.267 419.19 245.395 419.486 245.523C419.782 245.643 420.034 245.827 420.242 246.075C420.458 246.323 420.57 246.647 420.578 247.047C420.578 247.407 420.478 247.731 420.278 248.019C420.078 248.307 419.794 248.535 419.426 248.703C419.066 248.863 418.65 248.943 418.178 248.943ZM422.683 241.191C422.475 241.191 422.299 241.119 422.155 240.975C422.011 240.831 421.939 240.655 421.939 240.447C421.939 240.239 422.011 240.063 422.155 239.919C422.299 239.775 422.475 239.703 422.683 239.703C422.883 239.703 423.051 239.775 423.187 239.919C423.331 240.063 423.403 240.239 423.403 240.447C423.403 240.655 423.331 240.831 423.187 240.975C423.051 241.119 422.883 241.191 422.683 241.191ZM423.211 242.259V248.835H422.119V242.259H423.211ZM426.164 243.327C426.356 242.951 426.628 242.659 426.98 242.451C427.34 242.243 427.776 242.139 428.288 242.139V243.267H428C426.776 243.267 426.164 243.931 426.164 245.259V248.835H425.072V242.259H426.164V243.327ZM431.877 248.943C431.373 248.943 430.921 248.859 430.521 248.691C430.121 248.515 429.805 248.275 429.573 247.971C429.341 247.659 429.213 247.303 429.189 246.903H430.317C430.349 247.231 430.501 247.499 430.773 247.707C431.053 247.915 431.417 248.019 431.865 248.019C432.281 248.019 432.609 247.927 432.849 247.743C433.089 247.559 433.209 247.327 433.209 247.047C433.209 246.759 433.081 246.547 432.825 246.411C432.569 246.267 432.173 246.127 431.637 245.991C431.149 245.863 430.749 245.735 430.437 245.607C430.133 245.471 429.869 245.275 429.645 245.019C429.429 244.755 429.321 244.411 429.321 243.987C429.321 243.651 429.421 243.343 429.621 243.063C429.821 242.783 430.105 242.563 430.473 242.403C430.841 242.235 431.261 242.151 431.733 242.151C432.461 242.151 433.049 242.335 433.497 242.703C433.945 243.071 434.185 243.575 434.217 244.215H433.125C433.101 243.871 432.961 243.595 432.705 243.387C432.457 243.179 432.121 243.075 431.697 243.075C431.305 243.075 430.993 243.159 430.761 243.327C430.529 243.495 430.413 243.715 430.413 243.987C430.413 244.203 430.481 244.383 430.617 244.527C430.761 244.663 430.937 244.775 431.145 244.863C431.361 244.943 431.657 245.035 432.033 245.139C432.505 245.267 432.889 245.395 433.185 245.523C433.481 245.643 433.733 245.827 433.941 246.075C434.157 246.323 434.269 246.647 434.277 247.047C434.277 247.407 434.177 247.731 433.977 248.019C433.777 248.307 433.493 248.535 433.125 248.703C432.765 248.863 432.349 248.943 431.877 248.943Z" fill="white"/>
<path d="M402.576 267.49C402.024 267.49 401.528 267.394 401.088 267.202C400.656 267.002 400.316 266.73 400.068 266.386C399.82 266.034 399.692 265.63 399.684 265.174H400.848C400.888 265.566 401.048 265.898 401.328 266.17C401.616 266.434 402.032 266.566 402.576 266.566C403.096 266.566 403.504 266.438 403.8 266.182C404.104 265.918 404.256 265.582 404.256 265.174C404.256 264.854 404.168 264.594 403.992 264.394C403.816 264.194 403.596 264.042 403.332 263.938C403.068 263.834 402.712 263.722 402.264 263.602C401.712 263.458 401.268 263.314 400.932 263.17C400.604 263.026 400.32 262.802 400.08 262.498C399.848 262.186 399.732 261.77 399.732 261.25C399.732 260.794 399.848 260.39 400.08 260.038C400.312 259.686 400.636 259.414 401.052 259.222C401.476 259.03 401.96 258.934 402.504 258.934C403.288 258.934 403.928 259.13 404.424 259.522C404.928 259.914 405.212 260.434 405.276 261.082H404.076C404.036 260.762 403.868 260.482 403.572 260.242C403.276 259.994 402.884 259.87 402.396 259.87C401.94 259.87 401.568 259.99 401.28 260.23C400.992 260.462 400.848 260.79 400.848 261.214C400.848 261.518 400.932 261.766 401.1 261.958C401.276 262.15 401.488 262.298 401.736 262.402C401.992 262.498 402.348 262.61 402.804 262.738C403.356 262.89 403.8 263.042 404.136 263.194C404.472 263.338 404.76 263.566 405 263.878C405.24 264.182 405.36 264.598 405.36 265.126C405.36 265.534 405.252 265.918 405.036 266.278C404.82 266.638 404.5 266.93 404.076 267.154C403.652 267.378 403.152 267.49 402.576 267.49ZM412.967 263.866C412.967 264.074 412.955 264.294 412.931 264.526H407.675C407.715 265.174 407.935 265.682 408.335 266.05C408.743 266.41 409.235 266.59 409.811 266.59C410.283 266.59 410.675 266.482 410.987 266.266C411.307 266.042 411.531 265.746 411.659 265.378H412.835C412.659 266.01 412.307 266.526 411.779 266.926C411.251 267.318 410.595 267.514 409.811 267.514C409.187 267.514 408.627 267.374 408.131 267.094C407.643 266.814 407.259 266.418 406.979 265.906C406.699 265.386 406.559 264.786 406.559 264.106C406.559 263.426 406.695 262.83 406.967 262.318C407.239 261.806 407.619 261.414 408.107 261.142C408.603 260.862 409.171 260.722 409.811 260.722C410.435 260.722 410.987 260.858 411.467 261.13C411.947 261.402 412.315 261.778 412.571 262.258C412.835 262.73 412.967 263.266 412.967 263.866ZM411.839 263.638C411.839 263.222 411.747 262.866 411.563 262.57C411.379 262.266 411.127 262.038 410.807 261.886C410.495 261.726 410.147 261.646 409.763 261.646C409.211 261.646 408.739 261.822 408.347 262.174C407.963 262.526 407.743 263.014 407.687 263.638H411.839ZM417.612 260.71C418.412 260.71 419.06 260.954 419.556 261.442C420.052 261.922 420.3 262.618 420.3 263.53V267.406H419.22V263.686C419.22 263.03 419.056 262.53 418.728 262.186C418.4 261.834 417.952 261.658 417.384 261.658C416.808 261.658 416.348 261.838 416.004 262.198C415.668 262.558 415.5 263.082 415.5 263.77V267.406H414.408V260.83H415.5V261.766C415.716 261.43 416.008 261.17 416.376 260.986C416.752 260.802 417.164 260.71 417.612 260.71ZM423.416 261.73V265.606C423.416 265.926 423.484 266.154 423.62 266.29C423.756 266.418 423.992 266.482 424.328 266.482H425.132V267.406H424.148C423.54 267.406 423.084 267.266 422.78 266.986C422.476 266.706 422.324 266.246 422.324 265.606V261.73H421.472V260.83H422.324V259.174H423.416V260.83H425.132V261.73H423.416ZM427.019 259.762C426.811 259.762 426.635 259.69 426.491 259.546C426.347 259.402 426.275 259.226 426.275 259.018C426.275 258.81 426.347 258.634 426.491 258.49C426.635 258.346 426.811 258.274 427.019 258.274C427.219 258.274 427.387 258.346 427.523 258.49C427.667 258.634 427.739 258.81 427.739 259.018C427.739 259.226 427.667 259.402 427.523 259.546C427.387 259.69 427.219 259.762 427.019 259.762ZM427.547 260.83V267.406H426.455V260.83H427.547ZM437.316 260.71C437.828 260.71 438.284 260.818 438.684 261.034C439.084 261.242 439.4 261.558 439.632 261.982C439.864 262.406 439.98 262.922 439.98 263.53V267.406H438.9V263.686C438.9 263.03 438.736 262.53 438.408 262.186C438.088 261.834 437.652 261.658 437.1 261.658C436.532 261.658 436.08 261.842 435.744 262.21C435.408 262.57 435.24 263.094 435.24 263.782V267.406H434.16V263.686C434.16 263.03 433.996 262.53 433.668 262.186C433.348 261.834 432.912 261.658 432.36 261.658C431.792 261.658 431.34 261.842 431.004 262.21C430.668 262.57 430.5 263.094 430.5 263.782V267.406H429.408V260.83H430.5V261.778C430.716 261.434 431.004 261.17 431.364 260.986C431.732 260.802 432.136 260.71 432.576 260.71C433.128 260.71 433.616 260.834 434.04 261.082C434.464 261.33 434.78 261.694 434.988 262.174C435.172 261.71 435.476 261.35 435.9 261.094C436.324 260.838 436.796 260.71 437.316 260.71ZM447.772 263.866C447.772 264.074 447.76 264.294 447.736 264.526H442.48C442.52 265.174 442.74 265.682 443.14 266.05C443.548 266.41 444.04 266.59 444.616 266.59C445.088 266.59 445.48 266.482 445.792 266.266C446.112 266.042 446.336 265.746 446.464 265.378H447.64C447.464 266.01 447.112 266.526 446.584 266.926C446.056 267.318 445.4 267.514 444.616 267.514C443.992 267.514 443.432 267.374 442.936 267.094C442.448 266.814 442.064 266.418 441.784 265.906C441.504 265.386 441.364 264.786 441.364 264.106C441.364 263.426 441.5 262.83 441.772 262.318C442.044 261.806 442.424 261.414 442.912 261.142C443.408 260.862 443.976 260.722 444.616 260.722C445.24 260.722 445.792 260.858 446.272 261.13C446.752 261.402 447.12 261.778 447.376 262.258C447.64 262.73 447.772 263.266 447.772 263.866ZM446.644 263.638C446.644 263.222 446.552 262.866 446.368 262.57C446.184 262.266 445.932 262.038 445.612 261.886C445.3 261.726 444.952 261.646 444.568 261.646C444.016 261.646 443.544 261.822 443.152 262.174C442.768 262.526 442.548 263.014 442.492 263.638H446.644ZM452.417 260.71C453.217 260.71 453.865 260.954 454.361 261.442C454.857 261.922 455.105 262.618 455.105 263.53V267.406H454.025V263.686C454.025 263.03 453.861 262.53 453.533 262.186C453.205 261.834 452.757 261.658 452.189 261.658C451.613 261.658 451.153 261.838 450.809 262.198C450.473 262.558 450.305 263.082 450.305 263.77V267.406H449.213V260.83H450.305V261.766C450.521 261.43 450.813 261.17 451.181 260.986C451.557 260.802 451.969 260.71 452.417 260.71ZM458.221 261.73V265.606C458.221 265.926 458.289 266.154 458.425 266.29C458.561 266.418 458.797 266.482 459.133 266.482H459.937V267.406H458.953C458.345 267.406 457.889 267.266 457.585 266.986C457.281 266.706 457.129 266.246 457.129 265.606V261.73H456.277V260.83H457.129V259.174H458.221V260.83H459.937V261.73H458.221ZM463.588 267.514C463.084 267.514 462.632 267.43 462.232 267.262C461.832 267.086 461.516 266.846 461.284 266.542C461.052 266.23 460.924 265.874 460.9 265.474H462.028C462.06 265.802 462.212 266.07 462.484 266.278C462.764 266.486 463.128 266.59 463.576 266.59C463.992 266.59 464.32 266.498 464.56 266.314C464.8 266.13 464.92 265.898 464.92 265.618C464.92 265.33 464.792 265.118 464.536 264.982C464.28 264.838 463.884 264.698 463.348 264.562C462.86 264.434 462.46 264.306 462.148 264.178C461.844 264.042 461.58 263.846 461.356 263.59C461.14 263.326 461.032 262.982 461.032 262.558C461.032 262.222 461.132 261.914 461.332 261.634C461.532 261.354 461.816 261.134 462.184 260.974C462.552 260.806 462.972 260.722 463.444 260.722C464.172 260.722 464.76 260.906 465.208 261.274C465.656 261.642 465.896 262.146 465.928 262.786H464.836C464.812 262.442 464.672 262.166 464.416 261.958C464.168 261.75 463.832 261.646 463.408 261.646C463.016 261.646 462.704 261.73 462.472 261.898C462.24 262.066 462.124 262.286 462.124 262.558C462.124 262.774 462.192 262.954 462.328 263.098C462.472 263.234 462.648 263.346 462.856 263.434C463.072 263.514 463.368 263.606 463.744 263.71C464.216 263.838 464.6 263.966 464.896 264.094C465.192 264.214 465.444 264.398 465.652 264.646C465.868 264.894 465.98 265.218 465.988 265.618C465.988 265.978 465.888 266.302 465.688 266.59C465.488 266.878 465.204 267.106 464.836 267.274C464.476 267.434 464.06 267.514 463.588 267.514Z" fill="white"/>
<defs>
<filter id="filter0_d_61_222" x="225.267" y="113.48" width="105.982" height="206.476" filterUnits="userSpaceOnUse" color-interpolation-filters="sRGB">
<feFlood flood-opacity="0" result="BackgroundImageFix"/>
<feColorMatrix in="SourceAlpha" type="matrix" values="0 0 0 0 0 0 0 0 0 0 0 0 0 0 0 0 0 0 127 0" result="hardAlpha"/>
<feOffset/>
<feGaussianBlur stdDeviation="10.0344"/>
<feColorMatrix type="matrix" values="0 0 0 0 0.160784 0 0 0 0 0.980392 0 0 0 0 0.858824 0 0 0 0.612 0"/>
<feBlend mode="normal" in2="BackgroundImageFix" result="effect1_dropShadow_61_222"/>
<feBlend mode="normal" in="SourceGraphic" in2="effect1_dropShadow_61_222" result="shape"/>
</filter>
<filter id="filter1_d_61_222" x="99.5459" y="124.78" width="68.9781" height="143.544" filterUnits="userSpaceOnUse" color-interpolation-filters="sRGB">
<feFlood flood-opacity="0" result="BackgroundImageFix"/>
<feColorMatrix in="SourceAlpha" type="matrix" values="0 0 0 0 0 0 0 0 0 0 0 0 0 0 0 0 0 0 127 0" result="hardAlpha"/>
<feOffset/>
<feGaussianBlur stdDeviation="10.0344"/>
<feColorMatrix type="matrix" values="0 0 0 0 0.160784 0 0 0 0 0.980392 0 0 0 0 0.858824 0 0 0 0.612 0"/>
<feBlend mode="normal" in2="BackgroundImageFix" result="effect1_dropShadow_61_222"/>
<feBlend mode="normal" in="SourceGraphic" in2="effect1_dropShadow_61_222" result="shape"/>
</filter>
<clipPath id="clip0_61_222">
<rect width="381" height="335" fill="white" transform="translate(0 32)"/>
</clipPath>
</defs>
</svg>
