<svg viewBox="0 0 488 427" fill="none" xmlns="http://www.w3.org/2000/svg">
<g opacity="0.461">
<path d="M119.584 226.819C108.75 226.807 98.3643 222.498 90.704 214.838C83.0437 207.178 78.7349 196.792 78.7228 185.959C78.7351 175.125 83.044 164.739 90.7042 157.079C98.3645 149.419 108.75 145.11 119.584 145.098C130.417 145.11 140.803 149.419 148.463 157.079C156.123 164.739 160.432 175.125 160.444 185.959C160.432 196.792 156.123 207.178 148.463 214.838C140.803 222.498 130.417 226.807 119.584 226.819ZM119.584 147.347C109.347 147.358 99.5324 151.43 92.2938 158.669C85.0552 165.907 80.9835 175.722 80.972 185.959C80.9835 196.195 85.0552 206.01 92.2938 213.248C99.5324 220.487 109.347 224.559 119.584 224.57C129.82 224.558 139.635 220.487 146.873 213.248C154.112 206.01 158.184 196.195 158.195 185.959C158.184 175.722 154.112 165.908 146.873 158.669C139.635 151.43 129.82 147.359 119.584 147.347Z" fill="url(#paint0_linear_58_224)"/>
<path d="M120.708 266.556C99.2405 266.531 78.659 257.993 63.4791 242.813C48.2991 227.633 39.7604 207.051 39.7362 185.584C39.7606 164.116 48.2994 143.535 63.4793 128.355C78.6592 113.175 99.2406 104.636 120.708 104.612C142.176 104.636 162.757 113.175 177.937 128.355C193.117 143.535 201.656 164.116 201.68 185.584C201.656 207.051 193.117 227.633 177.937 242.813C162.757 257.993 142.176 266.531 120.708 266.556ZM120.708 106.861C99.8368 106.885 79.8271 115.186 65.0689 129.944C50.3106 144.703 42.009 164.712 41.9854 185.584C42.009 206.455 50.3106 226.465 65.0689 241.223C79.8271 255.981 99.8368 264.283 120.708 264.306C141.579 264.283 161.589 255.981 176.347 241.223C191.106 226.465 199.407 206.455 199.431 185.584C199.407 164.712 191.106 144.703 176.347 129.944C161.589 115.186 141.579 106.885 120.708 106.861Z" fill="url(#paint1_linear_58_224)"/>
<path d="M119.958 306.292C53.8126 306.292 0 252.479 0 186.333C0 120.187 53.8126 66.3749 119.958 66.3749C186.104 66.3749 239.917 120.188 239.917 186.333C239.917 252.478 186.104 306.292 119.958 306.292ZM119.958 68.6241C55.0534 68.6241 2.24922 121.428 2.24922 186.333C2.24922 251.238 55.0534 304.043 119.958 304.043C184.863 304.043 237.668 251.239 237.668 186.333C237.668 121.428 184.863 68.6241 119.958 68.6241Z" fill="url(#paint2_linear_58_224)"/>
<path d="M119.584 347.528C108.75 347.516 98.3643 343.207 90.704 335.546C83.0437 327.886 78.7349 317.5 78.7228 306.667C78.7351 295.834 83.044 285.448 90.7042 277.788C98.3645 270.127 108.75 265.818 119.584 265.806C130.417 265.818 140.803 270.127 148.463 277.788C156.123 285.448 160.432 295.834 160.444 306.667C160.432 317.5 156.123 327.886 148.463 335.546C140.803 343.207 130.417 347.515 119.584 347.528ZM119.584 268.055C109.347 268.067 99.5324 272.138 92.2938 279.377C85.0552 286.616 80.9835 296.43 80.972 306.667C80.9835 316.904 85.0552 326.718 92.2938 333.957C99.5324 341.195 109.347 345.267 119.584 345.279C129.82 345.267 139.635 341.195 146.873 333.956C154.112 326.718 158.184 316.904 158.195 306.667C158.184 296.43 154.112 286.616 146.873 279.377C139.635 272.139 129.82 268.067 119.584 268.055Z" fill="url(#paint3_linear_58_224)"/>
<path d="M120.708 387.264C99.2405 387.24 78.659 378.701 63.4791 363.521C48.2991 348.341 39.7604 327.76 39.7362 306.292C39.7606 284.824 48.2994 264.243 63.4793 249.063C78.6592 233.883 99.2406 225.344 120.708 225.32C142.176 225.344 162.757 233.883 177.937 249.063C193.117 264.243 201.656 284.824 201.68 306.292C201.656 327.76 193.117 348.341 177.937 363.521C162.757 378.701 142.176 387.24 120.708 387.264ZM120.708 227.569C99.8368 227.593 79.8271 235.894 65.0689 250.653C50.3106 265.411 42.009 285.421 41.9854 306.292C42.009 327.163 50.3106 347.173 65.0689 361.931C79.8271 376.69 99.8368 384.991 120.708 385.015C141.579 384.991 161.589 376.69 176.347 361.931C191.106 347.173 199.407 327.163 199.431 306.292C199.407 285.421 191.106 265.411 176.347 250.653C161.589 235.894 141.579 227.593 120.708 227.569Z" fill="url(#paint4_linear_58_224)"/>
<path d="M119.958 427C53.8126 427 0 373.188 0 307.042C0 240.896 53.8126 187.083 119.958 187.083C186.104 187.083 239.917 240.897 239.917 307.042C239.917 373.187 186.104 427 119.958 427ZM119.958 189.332C55.0534 189.332 2.24922 242.137 2.24922 307.042C2.24922 371.947 55.0534 424.751 119.958 424.751C184.863 424.751 237.668 371.947 237.668 307.042C237.668 242.136 184.863 189.332 119.958 189.332Z" fill="url(#paint5_linear_58_224)"/>
<path d="M223.048 286.049C212.215 286.037 201.829 281.728 194.169 274.068C186.509 266.408 182.2 256.021 182.188 245.188C182.2 234.355 186.509 223.969 194.169 216.309C201.829 208.649 212.215 204.34 223.048 204.327C233.882 204.34 244.268 208.649 251.928 216.309C259.588 223.969 263.897 234.355 263.909 245.188C263.897 256.021 259.588 266.407 251.928 274.068C244.268 281.728 233.882 286.037 223.048 286.049ZM223.048 206.577C212.812 206.588 202.997 210.66 195.759 217.898C188.52 225.137 184.448 234.951 184.437 245.188C184.448 255.425 188.52 265.239 195.759 272.478C202.997 279.717 212.812 283.788 223.048 283.8C233.285 283.788 243.1 279.716 250.338 272.478C257.577 265.239 261.648 255.425 261.66 245.188C261.648 234.951 257.577 225.137 250.338 217.899C243.1 210.66 233.285 206.588 223.048 206.577Z" fill="url(#paint6_linear_58_224)"/>
<path d="M224.173 325.785C202.705 325.761 182.124 317.222 166.944 302.042C151.764 286.862 143.225 266.281 143.201 244.813C143.225 223.346 151.764 202.764 166.944 187.584C182.124 172.404 202.705 163.866 224.173 163.841C245.64 163.866 266.222 172.405 281.402 187.584C296.582 202.764 305.12 223.346 305.145 244.813C305.121 266.281 296.582 286.862 281.402 302.042C266.222 317.222 245.64 325.761 224.173 325.785ZM224.173 166.091C203.301 166.114 183.292 174.416 168.533 189.174C153.775 203.932 145.474 223.942 145.45 244.813C145.474 265.685 153.775 285.694 168.533 300.453C183.292 315.211 203.301 323.512 224.173 323.536C245.044 323.512 265.054 315.211 279.812 300.453C294.57 285.694 302.872 265.685 302.896 244.813C302.872 223.942 294.57 203.932 279.812 189.174C265.054 174.416 245.044 166.114 224.173 166.091Z" fill="url(#paint7_linear_58_224)"/>
<path d="M223.423 365.522C157.277 365.522 103.465 311.709 103.465 245.563C103.465 179.417 157.277 125.605 223.423 125.605C289.569 125.605 343.382 179.418 343.382 245.563C343.382 311.708 289.568 365.522 223.423 365.522ZM223.423 127.854C158.518 127.854 105.714 180.658 105.714 245.563C105.714 310.468 158.518 363.272 223.423 363.272C288.329 363.272 341.133 310.469 341.133 245.563C341.133 180.657 288.328 127.854 223.423 127.854Z" fill="url(#paint8_linear_58_224)"/>
</g>
<path opacity="0.243" d="M119.584 306.292C185.628 306.292 239.167 252.92 239.167 187.083C239.167 121.246 185.628 67.8743 119.584 67.8743C53.5394 67.8743 0 121.246 0 187.083C0 252.92 53.5394 306.292 119.584 306.292Z" fill="#29FADB"/>
<path opacity="0.311" d="M119.584 265.806C164.096 265.806 200.181 229.889 200.181 185.584C200.181 141.278 164.096 105.361 119.584 105.361C75.071 105.361 38.9865 141.278 38.9865 185.584C38.9865 229.889 75.071 265.806 119.584 265.806Z" fill="#29FADB"/>
<path d="M119.209 145.847C127.364 145.847 135.337 148.266 142.118 152.797C148.899 157.328 154.185 163.768 157.306 171.303C160.427 178.838 161.243 187.129 159.652 195.128C158.061 203.127 154.134 210.474 148.367 216.241C142.6 222.008 135.252 225.935 127.253 227.527C119.254 229.118 110.963 228.301 103.429 225.18C95.8937 222.059 89.4535 216.774 84.9225 209.992C80.3915 203.211 77.973 195.239 77.973 187.083C77.973 176.147 82.3175 165.658 90.0507 157.925C97.7839 150.192 108.272 145.847 119.209 145.847Z" fill="#29FADB"/>
<g filter="url(#filter0_d_58_224)">
<path d="M115.088 66C147.599 66 178.778 78.9149 201.767 101.904C224.756 124.892 237.671 156.072 237.671 188.583" stroke="#29FADB" stroke-width="10" stroke-linecap="round"/>
</g>
<g filter="url(#filter1_d_58_224)">
<path d="M130.073 263.628C111.963 268.482 92.6675 265.944 76.43 256.571C60.1924 247.198 48.3433 231.758 43.4892 213.649" stroke="#29FADB" stroke-width="10.0424" stroke-linecap="round"/>
</g>
<path d="M127.003 124.536C126.261 121.949 123.562 120.453 120.975 121.194C118.388 121.936 116.892 124.635 117.634 127.222C118.376 129.809 121.074 131.305 123.661 130.564C126.249 129.822 127.745 127.123 127.003 124.536Z" fill="white"/>
<path d="M117.543 126.911L286.403 78.4918Z" fill="#29FADB"/>
<path d="M117.543 126.911L286.403 78.4918" stroke="white" stroke-dasharray="2 2"/>
<path d="M123.983 288.948C123.983 286.256 121.801 284.074 119.11 284.074C116.418 284.074 114.236 286.256 114.236 288.948C114.236 291.639 116.418 293.821 119.11 293.821C121.801 293.821 123.983 291.639 123.983 288.948Z" fill="white"/>
<path d="M114.235 288.624H289.899Z" fill="#29FADB"/>
<path d="M114.235 288.624H289.899" stroke="white" stroke-dasharray="2 2"/>
<path d="M124.322 186.983C124.322 184.292 122.14 182.11 119.448 182.11C116.757 182.11 114.575 184.292 114.575 186.983C114.575 189.675 116.757 191.857 119.448 191.857C122.14 191.857 124.322 189.675 124.322 186.983Z" fill="white"/>
<path d="M114.573 186.659L380.919 186.659Z" fill="white"/>
<path d="M114.573 186.659L380.919 186.659" stroke="white" stroke-dasharray="2 2"/>
<path d="M286.818 10.96C287.387 11.0813 287.845 11.366 288.19 11.814C288.535 12.2527 288.708 12.7567 288.708 13.326C288.708 14.1473 288.419 14.8007 287.84 15.286C287.271 15.762 286.473 16 285.446 16H280.868V6.172H285.292C286.291 6.172 287.07 6.40067 287.63 6.858C288.199 7.31533 288.484 7.936 288.484 8.72C288.484 9.29867 288.33 9.77933 288.022 10.162C287.723 10.5447 287.322 10.8107 286.818 10.96ZM283.262 10.148H284.83C285.222 10.148 285.521 10.064 285.726 9.896C285.941 9.71867 286.048 9.462 286.048 9.126C286.048 8.79 285.941 8.53333 285.726 8.356C285.521 8.17867 285.222 8.09 284.83 8.09H283.262V10.148ZM285.026 14.068C285.427 14.068 285.735 13.9793 285.95 13.802C286.174 13.6153 286.286 13.3493 286.286 13.004C286.286 12.6587 286.169 12.388 285.936 12.192C285.712 11.996 285.399 11.898 284.998 11.898H283.262V14.068H285.026ZM297.811 8.188V16H295.417V14.936C295.174 15.2813 294.843 15.5613 294.423 15.776C294.012 15.9813 293.555 16.084 293.051 16.084C292.453 16.084 291.926 15.9533 291.469 15.692C291.011 15.4213 290.657 15.034 290.405 14.53C290.153 14.026 290.027 13.4333 290.027 12.752V8.188H292.407V12.43C292.407 12.9527 292.542 13.3587 292.813 13.648C293.083 13.9373 293.447 14.082 293.905 14.082C294.371 14.082 294.74 13.9373 295.011 13.648C295.281 13.3587 295.417 12.9527 295.417 12.43V8.188H297.811ZM302.708 16.112C302.027 16.112 301.42 15.9953 300.888 15.762C300.356 15.5287 299.936 15.2113 299.628 14.81C299.32 14.3993 299.147 13.942 299.11 13.438H301.476C301.504 13.7087 301.63 13.928 301.854 14.096C302.078 14.264 302.353 14.348 302.68 14.348C302.979 14.348 303.207 14.292 303.366 14.18C303.534 14.0587 303.618 13.9047 303.618 13.718C303.618 13.494 303.501 13.3307 303.268 13.228C303.035 13.116 302.657 12.9947 302.134 12.864C301.574 12.7333 301.107 12.598 300.734 12.458C300.361 12.3087 300.039 12.08 299.768 11.772C299.497 11.4547 299.362 11.03 299.362 10.498C299.362 10.05 299.483 9.644 299.726 9.28C299.978 8.90667 300.342 8.61267 300.818 8.398C301.303 8.18333 301.877 8.076 302.54 8.076C303.52 8.076 304.29 8.31867 304.85 8.804C305.419 9.28933 305.746 9.93333 305.83 10.736H303.618C303.581 10.4653 303.459 10.2507 303.254 10.092C303.058 9.93333 302.797 9.854 302.47 9.854C302.19 9.854 301.975 9.91 301.826 10.022C301.677 10.1247 301.602 10.2693 301.602 10.456C301.602 10.68 301.719 10.848 301.952 10.96C302.195 11.072 302.568 11.184 303.072 11.296C303.651 11.4453 304.122 11.5947 304.486 11.744C304.85 11.884 305.167 12.1173 305.438 12.444C305.718 12.7613 305.863 13.1907 305.872 13.732C305.872 14.1893 305.741 14.6 305.48 14.964C305.228 15.3187 304.859 15.5987 304.374 15.804C303.898 16.0093 303.343 16.112 302.708 16.112ZM308.541 7.376C308.121 7.376 307.775 7.25467 307.505 7.012C307.243 6.76 307.113 6.452 307.113 6.088C307.113 5.71467 307.243 5.40667 307.505 5.164C307.775 4.912 308.121 4.786 308.541 4.786C308.951 4.786 309.287 4.912 309.549 5.164C309.819 5.40667 309.955 5.71467 309.955 6.088C309.955 6.452 309.819 6.76 309.549 7.012C309.287 7.25467 308.951 7.376 308.541 7.376ZM309.731 8.188V16H307.337V8.188H309.731ZM314.644 16.112C313.962 16.112 313.356 15.9953 312.824 15.762C312.292 15.5287 311.872 15.2113 311.564 14.81C311.256 14.3993 311.083 13.942 311.046 13.438H313.412C313.44 13.7087 313.566 13.928 313.79 14.096C314.014 14.264 314.289 14.348 314.616 14.348C314.914 14.348 315.143 14.292 315.302 14.18C315.47 14.0587 315.554 13.9047 315.554 13.718C315.554 13.494 315.437 13.3307 315.204 13.228C314.97 13.116 314.592 12.9947 314.07 12.864C313.51 12.7333 313.043 12.598 312.67 12.458C312.296 12.3087 311.974 12.08 311.704 11.772C311.433 11.4547 311.298 11.03 311.298 10.498C311.298 10.05 311.419 9.644 311.662 9.28C311.914 8.90667 312.278 8.61267 312.754 8.398C313.239 8.18333 313.813 8.076 314.476 8.076C315.456 8.076 316.226 8.31867 316.786 8.804C317.355 9.28933 317.682 9.93333 317.766 10.736H315.554C315.516 10.4653 315.395 10.2507 315.19 10.092C314.994 9.93333 314.732 9.854 314.406 9.854C314.126 9.854 313.911 9.91 313.762 10.022C313.612 10.1247 313.538 10.2693 313.538 10.456C313.538 10.68 313.654 10.848 313.888 10.96C314.13 11.072 314.504 11.184 315.008 11.296C315.586 11.4453 316.058 11.5947 316.422 11.744C316.786 11.884 317.103 12.1173 317.374 12.444C317.654 12.7613 317.798 13.1907 317.808 13.732C317.808 14.1893 317.677 14.6 317.416 14.964C317.164 15.3187 316.795 15.5987 316.31 15.804C315.834 16.0093 315.278 16.112 314.644 16.112ZM324.032 8.104C324.947 8.104 325.675 8.40267 326.216 9C326.767 9.588 327.042 10.4 327.042 11.436V16H324.662V11.758C324.662 11.2353 324.527 10.8293 324.256 10.54C323.986 10.2507 323.622 10.106 323.164 10.106C322.707 10.106 322.343 10.2507 322.072 10.54C321.802 10.8293 321.666 11.2353 321.666 11.758V16H319.272V8.188H321.666V9.224C321.909 8.87867 322.236 8.608 322.646 8.412C323.057 8.20667 323.519 8.104 324.032 8.104ZM336.07 11.968C336.07 12.192 336.056 12.4253 336.028 12.668H330.61C330.647 13.1533 330.801 13.5267 331.072 13.788C331.352 14.04 331.693 14.166 332.094 14.166C332.691 14.166 333.107 13.914 333.34 13.41H335.888C335.757 13.9233 335.519 14.3853 335.174 14.796C334.838 15.2067 334.413 15.5287 333.9 15.762C333.387 15.9953 332.813 16.112 332.178 16.112C331.413 16.112 330.731 15.9487 330.134 15.622C329.537 15.2953 329.07 14.8287 328.734 14.222C328.398 13.6153 328.23 12.906 328.23 12.094C328.23 11.282 328.393 10.5727 328.72 9.966C329.056 9.35933 329.523 8.89267 330.12 8.566C330.717 8.23933 331.403 8.076 332.178 8.076C332.934 8.076 333.606 8.23467 334.194 8.552C334.782 8.86933 335.239 9.322 335.566 9.91C335.902 10.498 336.07 11.184 336.07 11.968ZM333.62 11.338C333.62 10.9273 333.48 10.6007 333.2 10.358C332.92 10.1153 332.57 9.994 332.15 9.994C331.749 9.994 331.408 10.1107 331.128 10.344C330.857 10.5773 330.689 10.9087 330.624 11.338H333.62ZM340.511 16.112C339.83 16.112 339.223 15.9953 338.691 15.762C338.159 15.5287 337.739 15.2113 337.431 14.81C337.123 14.3993 336.95 13.942 336.913 13.438H339.279C339.307 13.7087 339.433 13.928 339.657 14.096C339.881 14.264 340.156 14.348 340.483 14.348C340.782 14.348 341.01 14.292 341.169 14.18C341.337 14.0587 341.421 13.9047 341.421 13.718C341.421 13.494 341.304 13.3307 341.071 13.228C340.838 13.116 340.46 12.9947 339.937 12.864C339.377 12.7333 338.91 12.598 338.537 12.458C338.164 12.3087 337.842 12.08 337.571 11.772C337.3 11.4547 337.165 11.03 337.165 10.498C337.165 10.05 337.286 9.644 337.529 9.28C337.781 8.90667 338.145 8.61267 338.621 8.398C339.106 8.18333 339.68 8.076 340.343 8.076C341.323 8.076 342.093 8.31867 342.653 8.804C343.222 9.28933 343.549 9.93333 343.633 10.736H341.421C341.384 10.4653 341.262 10.2507 341.057 10.092C340.861 9.93333 340.6 9.854 340.273 9.854C339.993 9.854 339.778 9.91 339.629 10.022C339.48 10.1247 339.405 10.2693 339.405 10.456C339.405 10.68 339.522 10.848 339.755 10.96C339.998 11.072 340.371 11.184 340.875 11.296C341.454 11.4453 341.925 11.5947 342.289 11.744C342.653 11.884 342.97 12.1173 343.241 12.444C343.521 12.7613 343.666 13.1907 343.675 13.732C343.675 14.1893 343.544 14.6 343.283 14.964C343.031 15.3187 342.662 15.5987 342.177 15.804C341.701 16.0093 341.146 16.112 340.511 16.112ZM348.317 16.112C347.636 16.112 347.029 15.9953 346.497 15.762C345.965 15.5287 345.545 15.2113 345.237 14.81C344.929 14.3993 344.757 13.942 344.719 13.438H347.085C347.113 13.7087 347.239 13.928 347.463 14.096C347.687 14.264 347.963 14.348 348.289 14.348C348.588 14.348 348.817 14.292 348.975 14.18C349.143 14.0587 349.227 13.9047 349.227 13.718C349.227 13.494 349.111 13.3307 348.877 13.228C348.644 13.116 348.266 12.9947 347.743 12.864C347.183 12.7333 346.717 12.598 346.343 12.458C345.97 12.3087 345.648 12.08 345.377 11.772C345.107 11.4547 344.971 11.03 344.971 10.498C344.971 10.05 345.093 9.644 345.335 9.28C345.587 8.90667 345.951 8.61267 346.427 8.398C346.913 8.18333 347.487 8.076 348.149 8.076C349.129 8.076 349.899 8.31867 350.459 8.804C351.029 9.28933 351.355 9.93333 351.439 10.736H349.227C349.19 10.4653 349.069 10.2507 348.863 10.092C348.667 9.93333 348.406 9.854 348.079 9.854C347.799 9.854 347.585 9.91 347.435 10.022C347.286 10.1247 347.211 10.2693 347.211 10.456C347.211 10.68 347.328 10.848 347.561 10.96C347.804 11.072 348.177 11.184 348.681 11.296C349.26 11.4453 349.731 11.5947 350.095 11.744C350.459 11.884 350.777 12.1173 351.047 12.444C351.327 12.7613 351.472 13.1907 351.481 13.732C351.481 14.1893 351.351 14.6 351.089 14.964C350.837 15.3187 350.469 15.5987 349.983 15.804C349.507 16.0093 348.952 16.112 348.317 16.112ZM365.881 8.104C366.852 8.104 367.622 8.398 368.191 8.986C368.77 9.574 369.059 10.3907 369.059 11.436V16H366.679V11.758C366.679 11.254 366.544 10.8667 366.273 10.596C366.012 10.316 365.648 10.176 365.181 10.176C364.714 10.176 364.346 10.316 364.075 10.596C363.814 10.8667 363.683 11.254 363.683 11.758V16H361.303V11.758C361.303 11.254 361.168 10.8667 360.897 10.596C360.636 10.316 360.272 10.176 359.805 10.176C359.338 10.176 358.97 10.316 358.699 10.596C358.438 10.8667 358.307 11.254 358.307 11.758V16H355.913V8.188H358.307V9.168C358.55 8.84133 358.867 8.58467 359.259 8.398C359.651 8.202 360.094 8.104 360.589 8.104C361.177 8.104 361.7 8.23 362.157 8.482C362.624 8.734 362.988 9.09333 363.249 9.56C363.52 9.13067 363.888 8.78067 364.355 8.51C364.822 8.23933 365.33 8.104 365.881 8.104ZM374.289 16.112C373.524 16.112 372.833 15.9487 372.217 15.622C371.611 15.2953 371.13 14.8287 370.775 14.222C370.43 13.6153 370.257 12.906 370.257 12.094C370.257 11.2913 370.435 10.5867 370.789 9.98C371.144 9.364 371.629 8.89267 372.245 8.566C372.861 8.23933 373.552 8.076 374.317 8.076C375.083 8.076 375.773 8.23933 376.389 8.566C377.005 8.89267 377.491 9.364 377.845 9.98C378.2 10.5867 378.377 11.2913 378.377 12.094C378.377 12.8967 378.195 13.606 377.831 14.222C377.477 14.8287 376.987 15.2953 376.361 15.622C375.745 15.9487 375.055 16.112 374.289 16.112ZM374.289 14.04C374.747 14.04 375.134 13.872 375.451 13.536C375.778 13.2 375.941 12.7193 375.941 12.094C375.941 11.4687 375.783 10.988 375.465 10.652C375.157 10.316 374.775 10.148 374.317 10.148C373.851 10.148 373.463 10.316 373.155 10.652C372.847 10.9787 372.693 11.4593 372.693 12.094C372.693 12.7193 372.843 13.2 373.141 13.536C373.449 13.872 373.832 14.04 374.289 14.04ZM379.171 12.08C379.171 11.2773 379.321 10.5727 379.619 9.966C379.927 9.35933 380.343 8.89267 380.865 8.566C381.388 8.23933 381.971 8.076 382.615 8.076C383.129 8.076 383.595 8.18333 384.015 8.398C384.445 8.61267 384.781 8.902 385.023 9.266V5.64H387.417V16H385.023V14.88C384.799 15.2533 384.477 15.552 384.057 15.776C383.647 16 383.166 16.112 382.615 16.112C381.971 16.112 381.388 15.9487 380.865 15.622C380.343 15.286 379.927 14.8147 379.619 14.208C379.321 13.592 379.171 12.8827 379.171 12.08ZM385.023 12.094C385.023 11.4967 384.855 11.0253 384.519 10.68C384.193 10.3347 383.791 10.162 383.315 10.162C382.839 10.162 382.433 10.3347 382.097 10.68C381.771 11.016 381.607 11.4827 381.607 12.08C381.607 12.6773 381.771 13.1533 382.097 13.508C382.433 13.8533 382.839 14.026 383.315 14.026C383.791 14.026 384.193 13.8533 384.519 13.508C384.855 13.1627 385.023 12.6913 385.023 12.094ZM396.513 11.968C396.513 12.192 396.499 12.4253 396.471 12.668H391.053C391.091 13.1533 391.245 13.5267 391.515 13.788C391.795 14.04 392.136 14.166 392.537 14.166C393.135 14.166 393.55 13.914 393.783 13.41H396.331C396.201 13.9233 395.963 14.3853 395.617 14.796C395.281 15.2067 394.857 15.5287 394.343 15.762C393.83 15.9953 393.256 16.112 392.621 16.112C391.856 16.112 391.175 15.9487 390.577 15.622C389.98 15.2953 389.513 14.8287 389.177 14.222C388.841 13.6153 388.673 12.906 388.673 12.094C388.673 11.282 388.837 10.5727 389.163 9.966C389.499 9.35933 389.966 8.89267 390.563 8.566C391.161 8.23933 391.847 8.076 392.621 8.076C393.377 8.076 394.049 8.23467 394.637 8.552C395.225 8.86933 395.683 9.322 396.009 9.91C396.345 10.498 396.513 11.184 396.513 11.968ZM394.063 11.338C394.063 10.9273 393.923 10.6007 393.643 10.358C393.363 10.1153 393.013 9.994 392.593 9.994C392.192 9.994 391.851 10.1107 391.571 10.344C391.301 10.5773 391.133 10.9087 391.067 11.338H394.063ZM400.17 5.64V16H397.776V5.64H400.17Z" fill="white"/>
<path d="M280 53L280 147" stroke="white" stroke-width="2" stroke-linecap="round"/>
<path d="M299.408 49.696V58H298.316V51.808L295.556 58H294.788L292.016 51.796V58H290.924V49.696H292.1L295.172 56.56L298.244 49.696H299.408ZM300.852 54.688C300.852 54.016 300.988 53.428 301.26 52.924C301.532 52.412 301.904 52.016 302.376 51.736C302.856 51.456 303.388 51.316 303.972 51.316C304.548 51.316 305.048 51.44 305.472 51.688C305.896 51.936 306.212 52.248 306.42 52.624V51.424H307.524V58H306.42V56.776C306.204 57.16 305.88 57.48 305.448 57.736C305.024 57.984 304.528 58.108 303.96 58.108C303.376 58.108 302.848 57.964 302.376 57.676C301.904 57.388 301.532 56.984 301.26 56.464C300.988 55.944 300.852 55.352 300.852 54.688ZM306.42 54.7C306.42 54.204 306.32 53.772 306.12 53.404C305.92 53.036 305.648 52.756 305.304 52.564C304.968 52.364 304.596 52.264 304.188 52.264C303.78 52.264 303.408 52.36 303.072 52.552C302.736 52.744 302.468 53.024 302.268 53.392C302.068 53.76 301.968 54.192 301.968 54.688C301.968 55.192 302.068 55.632 302.268 56.008C302.468 56.376 302.736 56.66 303.072 56.86C303.408 57.052 303.78 57.148 304.188 57.148C304.596 57.148 304.968 57.052 305.304 56.86C305.648 56.66 305.92 56.376 306.12 56.008C306.32 55.632 306.42 55.196 306.42 54.7ZM310.461 52.492C310.653 52.116 310.925 51.824 311.277 51.616C311.637 51.408 312.073 51.304 312.585 51.304V52.432H312.297C311.073 52.432 310.461 53.096 310.461 54.424V58H309.369V51.424H310.461V52.492ZM313.438 54.7C313.438 54.02 313.574 53.428 313.846 52.924C314.118 52.412 314.494 52.016 314.974 51.736C315.462 51.456 316.018 51.316 316.642 51.316C317.45 51.316 318.114 51.512 318.634 51.904C319.162 52.296 319.51 52.84 319.678 53.536H318.502C318.39 53.136 318.17 52.82 317.842 52.588C317.522 52.356 317.122 52.24 316.642 52.24C316.018 52.24 315.514 52.456 315.13 52.888C314.746 53.312 314.554 53.916 314.554 54.7C314.554 55.492 314.746 56.104 315.13 56.536C315.514 56.968 316.018 57.184 316.642 57.184C317.122 57.184 317.522 57.072 317.842 56.848C318.162 56.624 318.382 56.304 318.502 55.888H319.678C319.502 56.56 319.15 57.1 318.622 57.508C318.094 57.908 317.434 58.108 316.642 58.108C316.018 58.108 315.462 57.968 314.974 57.688C314.494 57.408 314.118 57.012 313.846 56.5C313.574 55.988 313.438 55.388 313.438 54.7ZM324.399 51.304C324.895 51.304 325.343 51.412 325.743 51.628C326.143 51.836 326.455 52.152 326.679 52.576C326.911 53 327.027 53.516 327.027 54.124V58H325.947V54.28C325.947 53.624 325.783 53.124 325.455 52.78C325.127 52.428 324.679 52.252 324.111 52.252C323.535 52.252 323.075 52.432 322.731 52.792C322.395 53.152 322.227 53.676 322.227 54.364V58H321.135V49.12H322.227V52.36C322.443 52.024 322.739 51.764 323.115 51.58C323.499 51.396 323.927 51.304 324.399 51.304ZM334.811 54.46C334.811 54.668 334.799 54.888 334.775 55.12H329.519C329.559 55.768 329.779 56.276 330.179 56.644C330.587 57.004 331.079 57.184 331.655 57.184C332.127 57.184 332.519 57.076 332.831 56.86C333.151 56.636 333.375 56.34 333.503 55.972H334.679C334.503 56.604 334.151 57.12 333.623 57.52C333.095 57.912 332.439 58.108 331.655 58.108C331.031 58.108 330.471 57.968 329.975 57.688C329.487 57.408 329.103 57.012 328.823 56.5C328.543 55.98 328.403 55.38 328.403 54.7C328.403 54.02 328.539 53.424 328.811 52.912C329.083 52.4 329.463 52.008 329.951 51.736C330.447 51.456 331.015 51.316 331.655 51.316C332.279 51.316 332.831 51.452 333.311 51.724C333.791 51.996 334.159 52.372 334.415 52.852C334.679 53.324 334.811 53.86 334.811 54.46ZM333.683 54.232C333.683 53.816 333.591 53.46 333.407 53.164C333.223 52.86 332.971 52.632 332.651 52.48C332.339 52.32 331.991 52.24 331.607 52.24C331.055 52.24 330.583 52.416 330.191 52.768C329.807 53.12 329.587 53.608 329.531 54.232H333.683ZM332.783 49.564L330.227 50.932V50.116L332.783 48.616V49.564Z" fill="white"/>
<path d="M290.516 77.812C290.516 76.996 290.7 76.264 291.068 75.616C291.436 74.96 291.936 74.448 292.568 74.08C293.208 73.712 293.916 73.528 294.692 73.528C295.604 73.528 296.4 73.748 297.08 74.188C297.76 74.628 298.256 75.252 298.568 76.06H297.26C297.028 75.556 296.692 75.168 296.252 74.896C295.82 74.624 295.3 74.488 294.692 74.488C294.108 74.488 293.584 74.624 293.12 74.896C292.656 75.168 292.292 75.556 292.028 76.06C291.764 76.556 291.632 77.14 291.632 77.812C291.632 78.476 291.764 79.06 292.028 79.564C292.292 80.06 292.656 80.444 293.12 80.716C293.584 80.988 294.108 81.124 294.692 81.124C295.3 81.124 295.82 80.992 296.252 80.728C296.692 80.456 297.028 80.068 297.26 79.564H298.568C298.256 80.364 297.76 80.984 297.08 81.424C296.4 81.856 295.604 82.072 294.692 82.072C293.916 82.072 293.208 81.892 292.568 81.532C291.936 81.164 291.436 80.656 291.068 80.008C290.7 79.36 290.516 78.628 290.516 77.812ZM305.138 80.14H301.49L300.818 82H299.666L302.69 73.684H303.95L306.962 82H305.81L305.138 80.14ZM304.826 79.252L303.314 75.028L301.802 79.252H304.826Z" fill="white"/>
<path d="M294.716 111.084C293.94 111.084 293.232 110.904 292.592 110.544C291.952 110.176 291.444 109.668 291.068 109.02C290.7 108.364 290.516 107.628 290.516 106.812C290.516 105.996 290.7 105.264 291.068 104.616C291.444 103.96 291.952 103.452 292.592 103.092C293.232 102.724 293.94 102.54 294.716 102.54C295.5 102.54 296.212 102.724 296.852 103.092C297.492 103.452 297.996 103.956 298.364 104.604C298.732 105.252 298.916 105.988 298.916 106.812C298.916 107.636 298.732 108.372 298.364 109.02C297.996 109.668 297.492 110.176 296.852 110.544C296.212 110.904 295.5 111.084 294.716 111.084ZM294.716 110.136C295.3 110.136 295.824 110 296.288 109.728C296.76 109.456 297.128 109.068 297.392 108.564C297.664 108.06 297.8 107.476 297.8 106.812C297.8 106.14 297.664 105.556 297.392 105.06C297.128 104.556 296.764 104.168 296.3 103.896C295.836 103.624 295.308 103.488 294.716 103.488C294.124 103.488 293.596 103.624 293.132 103.896C292.668 104.168 292.3 104.556 292.028 105.06C291.764 105.556 291.632 106.14 291.632 106.812C291.632 107.476 291.764 108.06 292.028 108.564C292.3 109.068 292.668 109.456 293.132 109.728C293.604 110 294.132 110.136 294.716 110.136ZM303.034 105.324H301.654V111H300.562V105.324H299.71V104.424H300.562V103.956C300.562 103.22 300.75 102.684 301.126 102.348C301.51 102.004 302.122 101.832 302.962 101.832V102.744C302.482 102.744 302.142 102.84 301.942 103.032C301.75 103.216 301.654 103.524 301.654 103.956V104.424H303.034V105.324ZM306.983 105.324H305.603V111H304.511V105.324H303.659V104.424H304.511V103.956C304.511 103.22 304.699 102.684 305.075 102.348C305.459 102.004 306.071 101.832 306.911 101.832V102.744C306.431 102.744 306.091 102.84 305.891 103.032C305.699 103.216 305.603 103.524 305.603 103.956V104.424H306.983V105.324ZM309.348 105.492C309.54 105.116 309.812 104.824 310.164 104.616C310.524 104.408 310.96 104.304 311.472 104.304V105.432H311.184C309.96 105.432 309.348 106.096 309.348 107.424V111H308.256V104.424H309.348V105.492ZM318.733 107.46C318.733 107.668 318.721 107.888 318.697 108.12H313.441C313.481 108.768 313.701 109.276 314.101 109.644C314.509 110.004 315.001 110.184 315.577 110.184C316.049 110.184 316.441 110.076 316.753 109.86C317.073 109.636 317.297 109.34 317.425 108.972H318.601C318.425 109.604 318.073 110.12 317.545 110.52C317.017 110.912 316.361 111.108 315.577 111.108C314.953 111.108 314.393 110.968 313.897 110.688C313.409 110.408 313.025 110.012 312.745 109.5C312.465 108.98 312.325 108.38 312.325 107.7C312.325 107.02 312.461 106.424 312.733 105.912C313.005 105.4 313.385 105.008 313.873 104.736C314.369 104.456 314.937 104.316 315.577 104.316C316.201 104.316 316.753 104.452 317.233 104.724C317.713 104.996 318.081 105.372 318.337 105.852C318.601 106.324 318.733 106.86 318.733 107.46ZM317.605 107.232C317.605 106.816 317.513 106.46 317.329 106.164C317.145 105.86 316.893 105.632 316.573 105.48C316.261 105.32 315.913 105.24 315.529 105.24C314.977 105.24 314.505 105.416 314.113 105.768C313.729 106.12 313.509 106.608 313.453 107.232H317.605ZM322.502 111.108C321.998 111.108 321.546 111.024 321.146 110.856C320.746 110.68 320.43 110.44 320.198 110.136C319.966 109.824 319.838 109.468 319.814 109.068H320.942C320.974 109.396 321.126 109.664 321.398 109.872C321.678 110.08 322.042 110.184 322.49 110.184C322.906 110.184 323.234 110.092 323.474 109.908C323.714 109.724 323.834 109.492 323.834 109.212C323.834 108.924 323.706 108.712 323.45 108.576C323.194 108.432 322.798 108.292 322.262 108.156C321.774 108.028 321.374 107.9 321.062 107.772C320.758 107.636 320.494 107.44 320.27 107.184C320.054 106.92 319.946 106.576 319.946 106.152C319.946 105.816 320.046 105.508 320.246 105.228C320.446 104.948 320.73 104.728 321.098 104.568C321.466 104.4 321.886 104.316 322.358 104.316C323.086 104.316 323.674 104.5 324.122 104.868C324.57 105.236 324.81 105.74 324.842 106.38H323.75C323.726 106.036 323.586 105.76 323.33 105.552C323.082 105.344 322.746 105.24 322.322 105.24C321.93 105.24 321.618 105.324 321.386 105.492C321.154 105.66 321.038 105.88 321.038 106.152C321.038 106.368 321.106 106.548 321.242 106.692C321.386 106.828 321.562 106.94 321.77 107.028C321.986 107.108 322.282 107.2 322.658 107.304C323.13 107.432 323.514 107.56 323.81 107.688C324.106 107.808 324.358 107.992 324.566 108.24C324.782 108.488 324.894 108.812 324.902 109.212C324.902 109.572 324.802 109.896 324.602 110.184C324.402 110.472 324.118 110.7 323.75 110.868C323.39 111.028 322.974 111.108 322.502 111.108Z" fill="white"/>
<path d="M293.576 143.084C293.024 143.084 292.528 142.988 292.088 142.796C291.656 142.596 291.316 142.324 291.068 141.98C290.82 141.628 290.692 141.224 290.684 140.768H291.848C291.888 141.16 292.048 141.492 292.328 141.764C292.616 142.028 293.032 142.16 293.576 142.16C294.096 142.16 294.504 142.032 294.8 141.776C295.104 141.512 295.256 141.176 295.256 140.768C295.256 140.448 295.168 140.188 294.992 139.988C294.816 139.788 294.596 139.636 294.332 139.532C294.068 139.428 293.712 139.316 293.264 139.196C292.712 139.052 292.268 138.908 291.932 138.764C291.604 138.62 291.32 138.396 291.08 138.092C290.848 137.78 290.732 137.364 290.732 136.844C290.732 136.388 290.848 135.984 291.08 135.632C291.312 135.28 291.636 135.008 292.052 134.816C292.476 134.624 292.96 134.528 293.504 134.528C294.288 134.528 294.928 134.724 295.424 135.116C295.928 135.508 296.212 136.028 296.276 136.676H295.076C295.036 136.356 294.868 136.076 294.572 135.836C294.276 135.588 293.884 135.464 293.396 135.464C292.94 135.464 292.568 135.584 292.28 135.824C291.992 136.056 291.848 136.384 291.848 136.808C291.848 137.112 291.932 137.36 292.1 137.552C292.276 137.744 292.488 137.892 292.736 137.996C292.992 138.092 293.348 138.204 293.804 138.332C294.356 138.484 294.8 138.636 295.136 138.788C295.472 138.932 295.76 139.16 296 139.472C296.24 139.776 296.36 140.192 296.36 140.72C296.36 141.128 296.252 141.512 296.036 141.872C295.82 142.232 295.5 142.524 295.076 142.748C294.652 142.972 294.152 143.084 293.576 143.084ZM303.967 139.46C303.967 139.668 303.955 139.888 303.931 140.12H298.675C298.715 140.768 298.935 141.276 299.335 141.644C299.743 142.004 300.235 142.184 300.811 142.184C301.283 142.184 301.675 142.076 301.987 141.86C302.307 141.636 302.531 141.34 302.659 140.972H303.835C303.659 141.604 303.307 142.12 302.779 142.52C302.251 142.912 301.595 143.108 300.811 143.108C300.187 143.108 299.627 142.968 299.131 142.688C298.643 142.408 298.259 142.012 297.979 141.5C297.699 140.98 297.559 140.38 297.559 139.7C297.559 139.02 297.695 138.424 297.967 137.912C298.239 137.4 298.619 137.008 299.107 136.736C299.603 136.456 300.171 136.316 300.811 136.316C301.435 136.316 301.987 136.452 302.467 136.724C302.947 136.996 303.315 137.372 303.571 137.852C303.835 138.324 303.967 138.86 303.967 139.46ZM302.839 139.232C302.839 138.816 302.747 138.46 302.563 138.164C302.379 137.86 302.127 137.632 301.807 137.48C301.495 137.32 301.147 137.24 300.763 137.24C300.211 137.24 299.739 137.416 299.347 137.768C298.963 138.12 298.743 138.608 298.687 139.232H302.839ZM306.5 137.492C306.692 137.116 306.964 136.824 307.316 136.616C307.676 136.408 308.112 136.304 308.624 136.304V137.432H308.336C307.112 137.432 306.5 138.096 306.5 139.424V143H305.408V136.424H306.5V137.492ZM312.333 141.992L314.373 136.424H315.537L312.957 143H311.685L309.105 136.424H310.281L312.333 141.992ZM317.176 135.356C316.968 135.356 316.792 135.284 316.648 135.14C316.504 134.996 316.432 134.82 316.432 134.612C316.432 134.404 316.504 134.228 316.648 134.084C316.792 133.94 316.968 133.868 317.176 133.868C317.376 133.868 317.544 133.94 317.68 134.084C317.824 134.228 317.896 134.404 317.896 134.612C317.896 134.82 317.824 134.996 317.68 135.14C317.544 135.284 317.376 135.356 317.176 135.356ZM317.704 136.424V143H316.612V136.424H317.704ZM319.157 139.7C319.157 139.02 319.293 138.428 319.565 137.924C319.837 137.412 320.213 137.016 320.693 136.736C321.181 136.456 321.737 136.316 322.361 136.316C323.169 136.316 323.833 136.512 324.353 136.904C324.881 137.296 325.229 137.84 325.397 138.536H324.221C324.109 138.136 323.889 137.82 323.561 137.588C323.241 137.356 322.841 137.24 322.361 137.24C321.737 137.24 321.233 137.456 320.849 137.888C320.465 138.312 320.273 138.916 320.273 139.7C320.273 140.492 320.465 141.104 320.849 141.536C321.233 141.968 321.737 142.184 322.361 142.184C322.841 142.184 323.241 142.072 323.561 141.848C323.881 141.624 324.101 141.304 324.221 140.888H325.397C325.221 141.56 324.869 142.1 324.341 142.508C323.813 142.908 323.153 143.108 322.361 143.108C321.737 143.108 321.181 142.968 320.693 142.688C320.213 142.408 319.837 142.012 319.565 141.5C319.293 140.988 319.157 140.388 319.157 139.7ZM332.854 139.46C332.854 139.668 332.842 139.888 332.818 140.12H327.562C327.602 140.768 327.822 141.276 328.222 141.644C328.63 142.004 329.122 142.184 329.698 142.184C330.17 142.184 330.562 142.076 330.874 141.86C331.194 141.636 331.418 141.34 331.546 140.972H332.722C332.546 141.604 332.194 142.12 331.666 142.52C331.138 142.912 330.482 143.108 329.698 143.108C329.074 143.108 328.514 142.968 328.018 142.688C327.53 142.408 327.146 142.012 326.866 141.5C326.586 140.98 326.446 140.38 326.446 139.7C326.446 139.02 326.582 138.424 326.854 137.912C327.126 137.4 327.506 137.008 327.994 136.736C328.49 136.456 329.058 136.316 329.698 136.316C330.322 136.316 330.874 136.452 331.354 136.724C331.834 136.996 332.202 137.372 332.458 137.852C332.722 138.324 332.854 138.86 332.854 139.46ZM331.726 139.232C331.726 138.816 331.634 138.46 331.45 138.164C331.266 137.86 331.014 137.632 330.694 137.48C330.382 137.32 330.034 137.24 329.65 137.24C329.098 137.24 328.626 137.416 328.234 137.768C327.85 138.12 327.63 138.608 327.574 139.232H331.726ZM336.623 143.108C336.119 143.108 335.667 143.024 335.267 142.856C334.867 142.68 334.551 142.44 334.319 142.136C334.087 141.824 333.959 141.468 333.935 141.068H335.063C335.095 141.396 335.247 141.664 335.519 141.872C335.799 142.08 336.163 142.184 336.611 142.184C337.027 142.184 337.355 142.092 337.595 141.908C337.835 141.724 337.955 141.492 337.955 141.212C337.955 140.924 337.827 140.712 337.571 140.576C337.315 140.432 336.919 140.292 336.383 140.156C335.895 140.028 335.495 139.9 335.183 139.772C334.879 139.636 334.615 139.44 334.391 139.184C334.175 138.92 334.067 138.576 334.067 138.152C334.067 137.816 334.167 137.508 334.367 137.228C334.567 136.948 334.851 136.728 335.219 136.568C335.587 136.4 336.007 136.316 336.479 136.316C337.207 136.316 337.795 136.5 338.243 136.868C338.691 137.236 338.931 137.74 338.963 138.38H337.871C337.847 138.036 337.707 137.76 337.451 137.552C337.203 137.344 336.867 137.24 336.443 137.24C336.051 137.24 335.739 137.324 335.507 137.492C335.275 137.66 335.159 137.88 335.159 138.152C335.159 138.368 335.227 138.548 335.363 138.692C335.507 138.828 335.683 138.94 335.891 139.028C336.107 139.108 336.403 139.2 336.779 139.304C337.251 139.432 337.635 139.56 337.931 139.688C338.227 139.808 338.479 139.992 338.687 140.24C338.903 140.488 339.015 140.812 339.023 141.212C339.023 141.572 338.923 141.896 338.723 142.184C338.523 142.472 338.239 142.7 337.871 142.868C337.511 143.028 337.095 143.108 336.623 143.108Z" fill="white"/>
<path d="M376.926 138.228V148H374.966V138.228H376.926ZM378.358 144.094C378.358 143.31 378.512 142.615 378.82 142.008C379.138 141.401 379.567 140.935 380.108 140.608C380.65 140.281 381.252 140.118 381.914 140.118C382.418 140.118 382.899 140.23 383.356 140.454C383.814 140.669 384.178 140.958 384.448 141.322V137.64H386.436V148H384.448V146.852C384.206 147.235 383.865 147.543 383.426 147.776C382.988 148.009 382.479 148.126 381.9 148.126C381.247 148.126 380.65 147.958 380.108 147.622C379.567 147.286 379.138 146.815 378.82 146.208C378.512 145.592 378.358 144.887 378.358 144.094ZM384.462 144.122C384.462 143.646 384.369 143.24 384.182 142.904C383.996 142.559 383.744 142.297 383.426 142.12C383.109 141.933 382.768 141.84 382.404 141.84C382.04 141.84 381.704 141.929 381.396 142.106C381.088 142.283 380.836 142.545 380.64 142.89C380.454 143.226 380.36 143.627 380.36 144.094C380.36 144.561 380.454 144.971 380.64 145.326C380.836 145.671 381.088 145.937 381.396 146.124C381.714 146.311 382.05 146.404 382.404 146.404C382.768 146.404 383.109 146.315 383.426 146.138C383.744 145.951 383.996 145.69 384.182 145.354C384.369 145.009 384.462 144.598 384.462 144.122ZM395.561 143.954C395.561 144.234 395.542 144.486 395.505 144.71H389.835C389.881 145.27 390.077 145.709 390.423 146.026C390.768 146.343 391.193 146.502 391.697 146.502C392.425 146.502 392.943 146.189 393.251 145.564H395.365C395.141 146.311 394.711 146.927 394.077 147.412C393.442 147.888 392.663 148.126 391.739 148.126C390.992 148.126 390.32 147.963 389.723 147.636C389.135 147.3 388.673 146.829 388.337 146.222C388.01 145.615 387.847 144.915 387.847 144.122C387.847 143.319 388.01 142.615 388.337 142.008C388.663 141.401 389.121 140.935 389.709 140.608C390.297 140.281 390.973 140.118 391.739 140.118C392.476 140.118 393.134 140.277 393.713 140.594C394.301 140.911 394.753 141.364 395.071 141.952C395.397 142.531 395.561 143.198 395.561 143.954ZM393.531 143.394C393.521 142.89 393.339 142.489 392.985 142.19C392.63 141.882 392.196 141.728 391.683 141.728C391.197 141.728 390.787 141.877 390.451 142.176C390.124 142.465 389.923 142.871 389.849 143.394H393.531ZM401.289 140.132C402.213 140.132 402.96 140.426 403.529 141.014C404.099 141.593 404.383 142.405 404.383 143.45V148H402.423V143.716C402.423 143.1 402.269 142.629 401.961 142.302C401.653 141.966 401.233 141.798 400.701 141.798C400.16 141.798 399.731 141.966 399.413 142.302C399.105 142.629 398.951 143.1 398.951 143.716V148H396.991V140.244H398.951V141.21C399.213 140.874 399.544 140.613 399.945 140.426C400.356 140.23 400.804 140.132 401.289 140.132ZM408.529 141.854V145.606C408.529 145.867 408.59 146.059 408.711 146.18C408.842 146.292 409.057 146.348 409.355 146.348H410.265V148H409.033C407.381 148 406.555 147.197 406.555 145.592V141.854H405.631V140.244H406.555V138.326H408.529V140.244H410.265V141.854H408.529ZM412.669 139.32C412.324 139.32 412.034 139.213 411.801 138.998C411.577 138.774 411.465 138.499 411.465 138.172C411.465 137.845 411.577 137.575 411.801 137.36C412.034 137.136 412.324 137.024 412.669 137.024C413.014 137.024 413.299 137.136 413.523 137.36C413.756 137.575 413.873 137.845 413.873 138.172C413.873 138.499 413.756 138.774 413.523 138.998C413.299 139.213 413.014 139.32 412.669 139.32ZM413.635 140.244V148H411.675V140.244H413.635ZM417.853 141.854V145.606C417.853 145.867 417.914 146.059 418.035 146.18C418.166 146.292 418.381 146.348 418.679 146.348H419.589V148H418.357C416.705 148 415.879 147.197 415.879 145.592V141.854H414.955V140.244H415.879V138.326H417.853V140.244H419.589V141.854H417.853ZM428.209 143.954C428.209 144.234 428.191 144.486 428.153 144.71H422.483C422.53 145.27 422.726 145.709 423.071 146.026C423.417 146.343 423.841 146.502 424.345 146.502C425.073 146.502 425.591 146.189 425.899 145.564H428.013C427.789 146.311 427.36 146.927 426.725 147.412C426.091 147.888 425.311 148.126 424.387 148.126C423.641 148.126 422.969 147.963 422.371 147.636C421.783 147.3 421.321 146.829 420.985 146.222C420.659 145.615 420.495 144.915 420.495 144.122C420.495 143.319 420.659 142.615 420.985 142.008C421.312 141.401 421.769 140.935 422.357 140.608C422.945 140.281 423.622 140.118 424.387 140.118C425.125 140.118 425.783 140.277 426.361 140.594C426.949 140.911 427.402 141.364 427.719 141.952C428.046 142.531 428.209 143.198 428.209 143.954ZM426.179 143.394C426.17 142.89 425.988 142.489 425.633 142.19C425.279 141.882 424.845 141.728 424.331 141.728C423.846 141.728 423.435 141.877 423.099 142.176C422.773 142.465 422.572 142.871 422.497 143.394H426.179ZM425.885 138.2L422.665 139.67V138.27L425.885 136.604V138.2Z" fill="white"/>
<path d="M374 179.038L374 267.784" stroke="white" stroke-width="2" stroke-linecap="round"/>
<path d="M394.836 169.636L391.68 178H390.42L387.264 169.636H388.428L391.056 176.848L393.684 169.636H394.836ZM396.597 170.356C396.389 170.356 396.213 170.284 396.069 170.14C395.925 169.996 395.853 169.82 395.853 169.612C395.853 169.404 395.925 169.228 396.069 169.084C396.213 168.94 396.389 168.868 396.597 168.868C396.797 168.868 396.965 168.94 397.101 169.084C397.245 169.228 397.317 169.404 397.317 169.612C397.317 169.82 397.245 169.996 397.101 170.14C396.965 170.284 396.797 170.356 396.597 170.356ZM397.125 171.424V178H396.033V171.424H397.125ZM401.315 178.108C400.811 178.108 400.359 178.024 399.959 177.856C399.559 177.68 399.243 177.44 399.011 177.136C398.779 176.824 398.651 176.468 398.627 176.068H399.755C399.787 176.396 399.939 176.664 400.211 176.872C400.491 177.08 400.855 177.184 401.303 177.184C401.719 177.184 402.047 177.092 402.287 176.908C402.527 176.724 402.647 176.492 402.647 176.212C402.647 175.924 402.519 175.712 402.263 175.576C402.007 175.432 401.611 175.292 401.075 175.156C400.587 175.028 400.187 174.9 399.875 174.772C399.571 174.636 399.307 174.44 399.083 174.184C398.867 173.92 398.759 173.576 398.759 173.152C398.759 172.816 398.859 172.508 399.059 172.228C399.259 171.948 399.543 171.728 399.911 171.568C400.279 171.4 400.699 171.316 401.171 171.316C401.899 171.316 402.487 171.5 402.935 171.868C403.383 172.236 403.623 172.74 403.655 173.38H402.563C402.539 173.036 402.399 172.76 402.143 172.552C401.895 172.344 401.559 172.24 401.135 172.24C400.743 172.24 400.431 172.324 400.199 172.492C399.967 172.66 399.851 172.88 399.851 173.152C399.851 173.368 399.919 173.548 400.055 173.692C400.199 173.828 400.375 173.94 400.583 174.028C400.799 174.108 401.095 174.2 401.471 174.304C401.943 174.432 402.327 174.56 402.623 174.688C402.919 174.808 403.171 174.992 403.379 175.24C403.595 175.488 403.707 175.812 403.715 176.212C403.715 176.572 403.615 176.896 403.415 177.184C403.215 177.472 402.931 177.7 402.563 177.868C402.203 178.028 401.787 178.108 401.315 178.108ZM405.82 170.356C405.612 170.356 405.436 170.284 405.292 170.14C405.148 169.996 405.076 169.82 405.076 169.612C405.076 169.404 405.148 169.228 405.292 169.084C405.436 168.94 405.612 168.868 405.82 168.868C406.02 168.868 406.188 168.94 406.324 169.084C406.468 169.228 406.54 169.404 406.54 169.612C406.54 169.82 406.468 169.996 406.324 170.14C406.188 170.284 406.02 170.356 405.82 170.356ZM406.348 171.424V178H405.256V171.424H406.348ZM411.077 178.108C410.461 178.108 409.901 177.968 409.397 177.688C408.901 177.408 408.509 177.012 408.221 176.5C407.941 175.98 407.801 175.38 407.801 174.7C407.801 174.028 407.945 173.436 408.233 172.924C408.529 172.404 408.929 172.008 409.433 171.736C409.937 171.456 410.501 171.316 411.125 171.316C411.749 171.316 412.313 171.456 412.817 171.736C413.321 172.008 413.717 172.4 414.005 172.912C414.301 173.424 414.449 174.02 414.449 174.7C414.449 175.38 414.297 175.98 413.993 176.5C413.697 177.012 413.293 177.408 412.781 177.688C412.269 177.968 411.701 178.108 411.077 178.108ZM411.077 177.148C411.469 177.148 411.837 177.056 412.181 176.872C412.525 176.688 412.801 176.412 413.009 176.044C413.225 175.676 413.333 175.228 413.333 174.7C413.333 174.172 413.229 173.724 413.021 173.356C412.813 172.988 412.541 172.716 412.205 172.54C411.869 172.356 411.505 172.264 411.113 172.264C410.713 172.264 410.345 172.356 410.009 172.54C409.681 172.716 409.417 172.988 409.217 173.356C409.017 173.724 408.917 174.172 408.917 174.7C408.917 175.236 409.013 175.688 409.205 176.056C409.405 176.424 409.669 176.7 409.997 176.884C410.325 177.06 410.685 177.148 411.077 177.148ZM419.089 171.304C419.889 171.304 420.537 171.548 421.033 172.036C421.529 172.516 421.777 173.212 421.777 174.124V178H420.697V174.28C420.697 173.624 420.533 173.124 420.205 172.78C419.877 172.428 419.429 172.252 418.861 172.252C418.285 172.252 417.825 172.432 417.481 172.792C417.145 173.152 416.977 173.676 416.977 174.364V178H415.885V171.424H416.977V172.36C417.193 172.024 417.485 171.764 417.853 171.58C418.229 171.396 418.641 171.304 419.089 171.304Z" fill="white"/>
<path d="M396.408 195.696V204H395.316V197.808L392.556 204H391.788L389.016 197.796V204H387.924V195.696H389.1L392.172 202.56L395.244 195.696H396.408ZM398.824 196.356C398.616 196.356 398.44 196.284 398.296 196.14C398.152 195.996 398.08 195.82 398.08 195.612C398.08 195.404 398.152 195.228 398.296 195.084C398.44 194.94 398.616 194.868 398.824 194.868C399.024 194.868 399.192 194.94 399.328 195.084C399.472 195.228 399.544 195.404 399.544 195.612C399.544 195.82 399.472 195.996 399.328 196.14C399.192 196.284 399.024 196.356 398.824 196.356ZM399.352 197.424V204H398.26V197.424H399.352ZM403.541 204.108C403.037 204.108 402.585 204.024 402.185 203.856C401.785 203.68 401.469 203.44 401.237 203.136C401.005 202.824 400.877 202.468 400.853 202.068H401.981C402.013 202.396 402.165 202.664 402.437 202.872C402.717 203.08 403.081 203.184 403.529 203.184C403.945 203.184 404.273 203.092 404.513 202.908C404.753 202.724 404.873 202.492 404.873 202.212C404.873 201.924 404.745 201.712 404.489 201.576C404.233 201.432 403.837 201.292 403.301 201.156C402.813 201.028 402.413 200.9 402.101 200.772C401.797 200.636 401.533 200.44 401.309 200.184C401.093 199.92 400.985 199.576 400.985 199.152C400.985 198.816 401.085 198.508 401.285 198.228C401.485 197.948 401.769 197.728 402.137 197.568C402.505 197.4 402.925 197.316 403.397 197.316C404.125 197.316 404.713 197.5 405.161 197.868C405.609 198.236 405.849 198.74 405.881 199.38H404.789C404.765 199.036 404.625 198.76 404.369 198.552C404.121 198.344 403.785 198.24 403.361 198.24C402.969 198.24 402.657 198.324 402.425 198.492C402.193 198.66 402.077 198.88 402.077 199.152C402.077 199.368 402.145 199.548 402.281 199.692C402.425 199.828 402.601 199.94 402.809 200.028C403.025 200.108 403.321 200.2 403.697 200.304C404.169 200.432 404.553 200.56 404.849 200.688C405.145 200.808 405.397 200.992 405.605 201.24C405.821 201.488 405.933 201.812 405.941 202.212C405.941 202.572 405.841 202.896 405.641 203.184C405.441 203.472 405.157 203.7 404.789 203.868C404.429 204.028 404.013 204.108 403.541 204.108ZM409.811 204.108C409.307 204.108 408.855 204.024 408.455 203.856C408.055 203.68 407.739 203.44 407.507 203.136C407.275 202.824 407.147 202.468 407.123 202.068H408.251C408.283 202.396 408.435 202.664 408.707 202.872C408.987 203.08 409.351 203.184 409.799 203.184C410.215 203.184 410.543 203.092 410.783 202.908C411.023 202.724 411.143 202.492 411.143 202.212C411.143 201.924 411.015 201.712 410.759 201.576C410.503 201.432 410.107 201.292 409.571 201.156C409.083 201.028 408.683 200.9 408.371 200.772C408.067 200.636 407.803 200.44 407.579 200.184C407.363 199.92 407.255 199.576 407.255 199.152C407.255 198.816 407.355 198.508 407.555 198.228C407.755 197.948 408.039 197.728 408.407 197.568C408.775 197.4 409.195 197.316 409.667 197.316C410.395 197.316 410.983 197.5 411.431 197.868C411.879 198.236 412.119 198.74 412.151 199.38H411.059C411.035 199.036 410.895 198.76 410.639 198.552C410.391 198.344 410.055 198.24 409.631 198.24C409.239 198.24 408.927 198.324 408.695 198.492C408.463 198.66 408.347 198.88 408.347 199.152C408.347 199.368 408.415 199.548 408.551 199.692C408.695 199.828 408.871 199.94 409.079 200.028C409.295 200.108 409.591 200.2 409.967 200.304C410.439 200.432 410.823 200.56 411.119 200.688C411.415 200.808 411.667 200.992 411.875 201.24C412.091 201.488 412.203 201.812 412.211 202.212C412.211 202.572 412.111 202.896 411.911 203.184C411.711 203.472 411.427 203.7 411.059 203.868C410.699 204.028 410.283 204.108 409.811 204.108ZM414.316 196.356C414.108 196.356 413.932 196.284 413.788 196.14C413.644 195.996 413.572 195.82 413.572 195.612C413.572 195.404 413.644 195.228 413.788 195.084C413.932 194.94 414.108 194.868 414.316 194.868C414.516 194.868 414.684 194.94 414.82 195.084C414.964 195.228 415.036 195.404 415.036 195.612C415.036 195.82 414.964 195.996 414.82 196.14C414.684 196.284 414.516 196.356 414.316 196.356ZM414.844 197.424V204H413.752V197.424H414.844ZM419.573 204.108C418.957 204.108 418.397 203.968 417.893 203.688C417.397 203.408 417.005 203.012 416.717 202.5C416.437 201.98 416.297 201.38 416.297 200.7C416.297 200.028 416.441 199.436 416.729 198.924C417.025 198.404 417.425 198.008 417.929 197.736C418.433 197.456 418.997 197.316 419.621 197.316C420.245 197.316 420.809 197.456 421.313 197.736C421.817 198.008 422.213 198.4 422.501 198.912C422.797 199.424 422.945 200.02 422.945 200.7C422.945 201.38 422.793 201.98 422.489 202.5C422.193 203.012 421.789 203.408 421.277 203.688C420.765 203.968 420.197 204.108 419.573 204.108ZM419.573 203.148C419.965 203.148 420.333 203.056 420.677 202.872C421.021 202.688 421.297 202.412 421.505 202.044C421.721 201.676 421.829 201.228 421.829 200.7C421.829 200.172 421.725 199.724 421.517 199.356C421.309 198.988 421.037 198.716 420.701 198.54C420.365 198.356 420.001 198.264 419.609 198.264C419.209 198.264 418.841 198.356 418.505 198.54C418.177 198.716 417.913 198.988 417.713 199.356C417.513 199.724 417.413 200.172 417.413 200.7C417.413 201.236 417.509 201.688 417.701 202.056C417.901 202.424 418.165 202.7 418.493 202.884C418.821 203.06 419.181 203.148 419.573 203.148ZM427.585 197.304C428.385 197.304 429.033 197.548 429.529 198.036C430.025 198.516 430.273 199.212 430.273 200.124V204H429.193V200.28C429.193 199.624 429.029 199.124 428.701 198.78C428.373 198.428 427.925 198.252 427.357 198.252C426.781 198.252 426.321 198.432 425.977 198.792C425.641 199.152 425.473 199.676 425.473 200.364V204H424.381V197.424H425.473V198.36C425.689 198.024 425.981 197.764 426.349 197.58C426.725 197.396 427.137 197.304 427.585 197.304Z" fill="white"/>
<path d="M396.408 227.696V236H395.316V229.808L392.556 236H391.788L389.016 229.796V236H387.924V227.696H389.1L392.172 234.56L395.244 227.696H396.408ZM397.852 232.688C397.852 232.016 397.988 231.428 398.26 230.924C398.532 230.412 398.904 230.016 399.376 229.736C399.856 229.456 400.388 229.316 400.972 229.316C401.548 229.316 402.048 229.44 402.472 229.688C402.896 229.936 403.212 230.248 403.42 230.624V229.424H404.524V236H403.42V234.776C403.204 235.16 402.88 235.48 402.448 235.736C402.024 235.984 401.528 236.108 400.96 236.108C400.376 236.108 399.848 235.964 399.376 235.676C398.904 235.388 398.532 234.984 398.26 234.464C397.988 233.944 397.852 233.352 397.852 232.688ZM403.42 232.7C403.42 232.204 403.32 231.772 403.12 231.404C402.92 231.036 402.648 230.756 402.304 230.564C401.968 230.364 401.596 230.264 401.188 230.264C400.78 230.264 400.408 230.36 400.072 230.552C399.736 230.744 399.468 231.024 399.268 231.392C399.068 231.76 398.968 232.192 398.968 232.688C398.968 233.192 399.068 233.632 399.268 234.008C399.468 234.376 399.736 234.66 400.072 234.86C400.408 235.052 400.78 235.148 401.188 235.148C401.596 235.148 401.968 235.052 402.304 234.86C402.648 234.66 402.92 234.376 403.12 234.008C403.32 233.632 403.42 233.196 403.42 232.7ZM407.461 230.492C407.653 230.116 407.925 229.824 408.277 229.616C408.637 229.408 409.073 229.304 409.585 229.304V230.432H409.297C408.073 230.432 407.461 231.096 407.461 232.424V236H406.369V229.424H407.461V230.492ZM410.438 232.688C410.438 232.016 410.574 231.428 410.846 230.924C411.118 230.412 411.49 230.016 411.962 229.736C412.442 229.456 412.978 229.316 413.57 229.316C414.138 229.316 414.634 229.444 415.058 229.7C415.49 229.948 415.806 230.256 416.006 230.624V229.424H417.11V239.12H416.006V234.788C415.798 235.156 415.478 235.468 415.046 235.724C414.614 235.98 414.11 236.108 413.534 236.108C412.958 236.108 412.434 235.964 411.962 235.676C411.49 235.388 411.118 234.984 410.846 234.464C410.574 233.944 410.438 233.352 410.438 232.688ZM416.006 232.7C416.006 232.204 415.906 231.772 415.706 231.404C415.506 231.036 415.234 230.756 414.89 230.564C414.554 230.364 414.182 230.264 413.774 230.264C413.366 230.264 412.994 230.36 412.658 230.552C412.322 230.744 412.054 231.024 411.854 231.392C411.654 231.76 411.554 232.192 411.554 232.688C411.554 233.192 411.654 233.632 411.854 234.008C412.054 234.376 412.322 234.66 412.658 234.86C412.994 235.052 413.366 235.148 413.774 235.148C414.182 235.148 414.554 235.052 414.89 234.86C415.234 234.66 415.506 234.376 415.706 234.008C415.906 233.632 416.006 233.196 416.006 232.7ZM424.787 229.424V236H423.695V235.028C423.487 235.364 423.195 235.628 422.819 235.82C422.451 236.004 422.043 236.096 421.595 236.096C421.083 236.096 420.623 235.992 420.215 235.784C419.807 235.568 419.483 235.248 419.243 234.824C419.011 234.4 418.895 233.884 418.895 233.276V229.424H419.975V233.132C419.975 233.78 420.139 234.28 420.467 234.632C420.795 234.976 421.243 235.148 421.811 235.148C422.395 235.148 422.855 234.968 423.191 234.608C423.527 234.248 423.695 233.724 423.695 233.036V229.424H424.787ZM432.631 232.46C432.631 232.668 432.619 232.888 432.595 233.12H427.339C427.379 233.768 427.599 234.276 427.999 234.644C428.407 235.004 428.899 235.184 429.475 235.184C429.947 235.184 430.339 235.076 430.651 234.86C430.971 234.636 431.195 234.34 431.323 233.972H432.499C432.323 234.604 431.971 235.12 431.443 235.52C430.915 235.912 430.259 236.108 429.475 236.108C428.851 236.108 428.291 235.968 427.795 235.688C427.307 235.408 426.923 235.012 426.643 234.5C426.363 233.98 426.223 233.38 426.223 232.7C426.223 232.02 426.359 231.424 426.631 230.912C426.903 230.4 427.283 230.008 427.771 229.736C428.267 229.456 428.835 229.316 429.475 229.316C430.099 229.316 430.651 229.452 431.131 229.724C431.611 229.996 431.979 230.372 432.235 230.852C432.499 231.324 432.631 231.86 432.631 232.46ZM431.503 232.232C431.503 231.816 431.411 231.46 431.227 231.164C431.043 230.86 430.791 230.632 430.471 230.48C430.159 230.32 429.811 230.24 429.427 230.24C428.875 230.24 428.403 230.416 428.011 230.768C427.627 231.12 427.407 231.608 427.351 232.232H431.503Z" fill="white"/>
<path d="M390.528 254.636C391.44 254.636 392.228 254.808 392.892 255.152C393.564 255.488 394.076 255.972 394.428 256.604C394.788 257.236 394.968 257.98 394.968 258.836C394.968 259.692 394.788 260.436 394.428 261.068C394.076 261.692 393.564 262.172 392.892 262.508C392.228 262.836 391.44 263 390.528 263H387.924V254.636H390.528ZM390.528 262.1C391.608 262.1 392.432 261.816 393 261.248C393.568 260.672 393.852 259.868 393.852 258.836C393.852 257.796 393.564 256.984 392.988 256.4C392.42 255.816 391.6 255.524 390.528 255.524H389.016V262.1H390.528ZM396.972 255.356C396.764 255.356 396.588 255.284 396.444 255.14C396.3 254.996 396.228 254.82 396.228 254.612C396.228 254.404 396.3 254.228 396.444 254.084C396.588 253.94 396.764 253.868 396.972 253.868C397.172 253.868 397.34 253.94 397.476 254.084C397.62 254.228 397.692 254.404 397.692 254.612C397.692 254.82 397.62 254.996 397.476 255.14C397.34 255.284 397.172 255.356 396.972 255.356ZM397.5 256.424V263H396.408V256.424H397.5ZM401.69 263.108C401.186 263.108 400.734 263.024 400.334 262.856C399.934 262.68 399.618 262.44 399.386 262.136C399.154 261.824 399.026 261.468 399.002 261.068H400.13C400.162 261.396 400.314 261.664 400.586 261.872C400.866 262.08 401.23 262.184 401.678 262.184C402.094 262.184 402.422 262.092 402.662 261.908C402.902 261.724 403.022 261.492 403.022 261.212C403.022 260.924 402.894 260.712 402.638 260.576C402.382 260.432 401.986 260.292 401.45 260.156C400.962 260.028 400.562 259.9 400.25 259.772C399.946 259.636 399.682 259.44 399.458 259.184C399.242 258.92 399.134 258.576 399.134 258.152C399.134 257.816 399.234 257.508 399.434 257.228C399.634 256.948 399.918 256.728 400.286 256.568C400.654 256.4 401.074 256.316 401.546 256.316C402.274 256.316 402.862 256.5 403.31 256.868C403.758 257.236 403.998 257.74 404.03 258.38H402.938C402.914 258.036 402.774 257.76 402.518 257.552C402.27 257.344 401.934 257.24 401.51 257.24C401.118 257.24 400.806 257.324 400.574 257.492C400.342 257.66 400.226 257.88 400.226 258.152C400.226 258.368 400.294 258.548 400.43 258.692C400.574 258.828 400.75 258.94 400.958 259.028C401.174 259.108 401.47 259.2 401.846 259.304C402.318 259.432 402.702 259.56 402.998 259.688C403.294 259.808 403.546 259.992 403.754 260.24C403.97 260.488 404.082 260.812 404.09 261.212C404.09 261.572 403.99 261.896 403.79 262.184C403.59 262.472 403.306 262.7 402.938 262.868C402.578 263.028 402.162 263.108 401.69 263.108ZM405.223 259.7C405.223 259.02 405.359 258.428 405.631 257.924C405.903 257.412 406.279 257.016 406.759 256.736C407.247 256.456 407.803 256.316 408.427 256.316C409.235 256.316 409.899 256.512 410.419 256.904C410.947 257.296 411.295 257.84 411.463 258.536H410.287C410.175 258.136 409.955 257.82 409.627 257.588C409.307 257.356 408.907 257.24 408.427 257.24C407.803 257.24 407.299 257.456 406.915 257.888C406.531 258.312 406.339 258.916 406.339 259.7C406.339 260.492 406.531 261.104 406.915 261.536C407.299 261.968 407.803 262.184 408.427 262.184C408.907 262.184 409.307 262.072 409.627 261.848C409.947 261.624 410.167 261.304 410.287 260.888H411.463C411.287 261.56 410.935 262.1 410.407 262.508C409.879 262.908 409.219 263.108 408.427 263.108C407.803 263.108 407.247 262.968 406.759 262.688C406.279 262.408 405.903 262.012 405.631 261.5C405.359 260.988 405.223 260.388 405.223 259.7ZM415.788 263.108C415.172 263.108 414.612 262.968 414.108 262.688C413.612 262.408 413.22 262.012 412.932 261.5C412.652 260.98 412.512 260.38 412.512 259.7C412.512 259.028 412.656 258.436 412.944 257.924C413.24 257.404 413.64 257.008 414.144 256.736C414.648 256.456 415.212 256.316 415.836 256.316C416.46 256.316 417.024 256.456 417.528 256.736C418.032 257.008 418.428 257.4 418.716 257.912C419.012 258.424 419.16 259.02 419.16 259.7C419.16 260.38 419.008 260.98 418.704 261.5C418.408 262.012 418.004 262.408 417.492 262.688C416.98 262.968 416.412 263.108 415.788 263.108ZM415.788 262.148C416.18 262.148 416.548 262.056 416.892 261.872C417.236 261.688 417.512 261.412 417.72 261.044C417.936 260.676 418.044 260.228 418.044 259.7C418.044 259.172 417.94 258.724 417.732 258.356C417.524 257.988 417.252 257.716 416.916 257.54C416.58 257.356 416.216 257.264 415.824 257.264C415.424 257.264 415.056 257.356 414.72 257.54C414.392 257.716 414.128 257.988 413.928 258.356C413.728 258.724 413.628 259.172 413.628 259.7C413.628 260.236 413.724 260.688 413.916 261.056C414.116 261.424 414.38 261.7 414.708 261.884C415.036 262.06 415.396 262.148 415.788 262.148ZM426.428 256.424V263H425.336V262.028C425.128 262.364 424.836 262.628 424.46 262.82C424.092 263.004 423.684 263.096 423.236 263.096C422.724 263.096 422.264 262.992 421.856 262.784C421.448 262.568 421.124 262.248 420.884 261.824C420.652 261.4 420.536 260.884 420.536 260.276V256.424H421.616V260.132C421.616 260.78 421.78 261.28 422.108 261.632C422.436 261.976 422.884 262.148 423.452 262.148C424.036 262.148 424.496 261.968 424.832 261.608C425.168 261.248 425.336 260.724 425.336 260.036V256.424H426.428ZM429.364 257.492C429.556 257.116 429.828 256.824 430.18 256.616C430.54 256.408 430.976 256.304 431.488 256.304V257.432H431.2C429.976 257.432 429.364 258.096 429.364 259.424V263H428.272V256.424H429.364V257.492ZM435.076 263.108C434.572 263.108 434.12 263.024 433.72 262.856C433.32 262.68 433.004 262.44 432.772 262.136C432.54 261.824 432.412 261.468 432.388 261.068H433.516C433.548 261.396 433.7 261.664 433.972 261.872C434.252 262.08 434.616 262.184 435.064 262.184C435.48 262.184 435.808 262.092 436.048 261.908C436.288 261.724 436.408 261.492 436.408 261.212C436.408 260.924 436.28 260.712 436.024 260.576C435.768 260.432 435.372 260.292 434.836 260.156C434.348 260.028 433.948 259.9 433.636 259.772C433.332 259.636 433.068 259.44 432.844 259.184C432.628 258.92 432.52 258.576 432.52 258.152C432.52 257.816 432.62 257.508 432.82 257.228C433.02 256.948 433.304 256.728 433.672 256.568C434.04 256.4 434.46 256.316 434.932 256.316C435.66 256.316 436.248 256.5 436.696 256.868C437.144 257.236 437.384 257.74 437.416 258.38H436.324C436.3 258.036 436.16 257.76 435.904 257.552C435.656 257.344 435.32 257.24 434.896 257.24C434.504 257.24 434.192 257.324 433.96 257.492C433.728 257.66 433.612 257.88 433.612 258.152C433.612 258.368 433.68 258.548 433.816 258.692C433.96 258.828 434.136 258.94 434.344 259.028C434.56 259.108 434.856 259.2 435.232 259.304C435.704 259.432 436.088 259.56 436.384 259.688C436.68 259.808 436.932 259.992 437.14 260.24C437.356 260.488 437.468 260.812 437.476 261.212C437.476 261.572 437.376 261.896 437.176 262.184C436.976 262.472 436.692 262.7 436.324 262.868C435.964 263.028 435.548 263.108 435.076 263.108Z" fill="white"/>
<path d="M308.262 287.172V297H305.868V287.172H308.262ZM314.757 289.104C315.672 289.104 316.4 289.403 316.941 290C317.492 290.588 317.767 291.4 317.767 292.436V297H315.387V292.758C315.387 292.235 315.252 291.829 314.981 291.54C314.71 291.251 314.346 291.106 313.889 291.106C313.432 291.106 313.068 291.251 312.797 291.54C312.526 291.829 312.391 292.235 312.391 292.758V297H309.997V289.188H312.391V290.224C312.634 289.879 312.96 289.608 313.371 289.412C313.782 289.207 314.244 289.104 314.757 289.104ZM323.785 294.97V297H322.567C321.699 297 321.022 296.79 320.537 296.37C320.051 295.941 319.809 295.245 319.809 294.284V291.176H318.857V289.188H319.809V287.284H322.203V289.188H323.771V291.176H322.203V294.312C322.203 294.545 322.259 294.713 322.371 294.816C322.483 294.919 322.669 294.97 322.931 294.97H323.785ZM332.482 292.968C332.482 293.192 332.468 293.425 332.44 293.668H327.022C327.059 294.153 327.213 294.527 327.484 294.788C327.764 295.04 328.105 295.166 328.506 295.166C329.103 295.166 329.519 294.914 329.752 294.41H332.3C332.169 294.923 331.931 295.385 331.586 295.796C331.25 296.207 330.825 296.529 330.312 296.762C329.799 296.995 329.225 297.112 328.59 297.112C327.825 297.112 327.143 296.949 326.546 296.622C325.949 296.295 325.482 295.829 325.146 295.222C324.81 294.615 324.642 293.906 324.642 293.094C324.642 292.282 324.805 291.573 325.132 290.966C325.468 290.359 325.935 289.893 326.532 289.566C327.129 289.239 327.815 289.076 328.59 289.076C329.346 289.076 330.018 289.235 330.606 289.552C331.194 289.869 331.651 290.322 331.978 290.91C332.314 291.498 332.482 292.184 332.482 292.968ZM330.032 292.338C330.032 291.927 329.892 291.601 329.612 291.358C329.332 291.115 328.982 290.994 328.562 290.994C328.161 290.994 327.82 291.111 327.54 291.344C327.269 291.577 327.101 291.909 327.036 292.338H330.032ZM330.2 287.186L326.826 288.6V286.948L330.2 285.324V287.186ZM336.139 290.49C336.419 290.061 336.769 289.725 337.189 289.482C337.609 289.23 338.076 289.104 338.589 289.104V291.638H337.931C337.334 291.638 336.886 291.769 336.587 292.03C336.288 292.282 336.139 292.73 336.139 293.374V297H333.745V289.188H336.139V290.49ZM339.257 293.08C339.257 292.277 339.407 291.573 339.705 290.966C340.013 290.359 340.429 289.893 340.951 289.566C341.474 289.239 342.057 289.076 342.701 289.076C343.252 289.076 343.733 289.188 344.143 289.412C344.563 289.636 344.885 289.93 345.109 290.294V289.188H347.503V297H345.109V295.894C344.876 296.258 344.549 296.552 344.129 296.776C343.719 297 343.238 297.112 342.687 297.112C342.053 297.112 341.474 296.949 340.951 296.622C340.429 296.286 340.013 295.815 339.705 295.208C339.407 294.592 339.257 293.883 339.257 293.08ZM345.109 293.094C345.109 292.497 344.941 292.025 344.605 291.68C344.279 291.335 343.877 291.162 343.401 291.162C342.925 291.162 342.519 291.335 342.183 291.68C341.857 292.016 341.693 292.483 341.693 293.08C341.693 293.677 341.857 294.153 342.183 294.508C342.519 294.853 342.925 295.026 343.401 295.026C343.877 295.026 344.279 294.853 344.605 294.508C344.941 294.163 345.109 293.691 345.109 293.094ZM348.759 293.094C348.759 292.282 348.923 291.573 349.249 290.966C349.585 290.359 350.047 289.893 350.635 289.566C351.233 289.239 351.914 289.076 352.679 289.076C353.659 289.076 354.476 289.333 355.129 289.846C355.792 290.359 356.226 291.083 356.431 292.016H353.883C353.669 291.419 353.253 291.12 352.637 291.12C352.199 291.12 351.849 291.293 351.587 291.638C351.326 291.974 351.195 292.459 351.195 293.094C351.195 293.729 351.326 294.219 351.587 294.564C351.849 294.9 352.199 295.068 352.637 295.068C353.253 295.068 353.669 294.769 353.883 294.172H356.431C356.226 295.087 355.792 295.805 355.129 296.328C354.467 296.851 353.65 297.112 352.679 297.112C351.914 297.112 351.233 296.949 350.635 296.622C350.047 296.295 349.585 295.829 349.249 295.222C348.923 294.615 348.759 293.906 348.759 293.094ZM362.066 294.97V297H360.848C359.98 297 359.303 296.79 358.818 296.37C358.332 295.941 358.09 295.245 358.09 294.284V291.176H357.138V289.188H358.09V287.284H360.484V289.188H362.052V291.176H360.484V294.312C360.484 294.545 360.54 294.713 360.652 294.816C360.764 294.919 360.95 294.97 361.212 294.97H362.066ZM364.603 288.376C364.183 288.376 363.838 288.255 363.567 288.012C363.306 287.76 363.175 287.452 363.175 287.088C363.175 286.715 363.306 286.407 363.567 286.164C363.838 285.912 364.183 285.786 364.603 285.786C365.014 285.786 365.35 285.912 365.611 286.164C365.882 286.407 366.017 286.715 366.017 287.088C366.017 287.452 365.882 287.76 365.611 288.012C365.35 288.255 365.014 288.376 364.603 288.376ZM365.793 289.188V297H363.399V289.188H365.793ZM371.084 297.112C370.319 297.112 369.628 296.949 369.012 296.622C368.405 296.295 367.925 295.829 367.57 295.222C367.225 294.615 367.052 293.906 367.052 293.094C367.052 292.291 367.229 291.587 367.584 290.98C367.939 290.364 368.424 289.893 369.04 289.566C369.656 289.239 370.347 289.076 371.112 289.076C371.877 289.076 372.568 289.239 373.184 289.566C373.8 289.893 374.285 290.364 374.64 290.98C374.995 291.587 375.172 292.291 375.172 293.094C375.172 293.897 374.99 294.606 374.626 295.222C374.271 295.829 373.781 296.295 373.156 296.622C372.54 296.949 371.849 297.112 371.084 297.112ZM371.084 295.04C371.541 295.04 371.929 294.872 372.246 294.536C372.573 294.2 372.736 293.719 372.736 293.094C372.736 292.469 372.577 291.988 372.26 291.652C371.952 291.316 371.569 291.148 371.112 291.148C370.645 291.148 370.258 291.316 369.95 291.652C369.642 291.979 369.488 292.459 369.488 293.094C369.488 293.719 369.637 294.2 369.936 294.536C370.244 294.872 370.627 295.04 371.084 295.04ZM381.202 289.104C382.117 289.104 382.845 289.403 383.386 290C383.937 290.588 384.212 291.4 384.212 292.436V297H381.832V292.758C381.832 292.235 381.697 291.829 381.426 291.54C381.156 291.251 380.792 291.106 380.334 291.106C379.877 291.106 379.513 291.251 379.242 291.54C378.972 291.829 378.836 292.235 378.836 292.758V297H376.442V289.188H378.836V290.224C379.079 289.879 379.406 289.608 379.816 289.412C380.227 289.207 380.689 289.104 381.202 289.104ZM389.054 297.112C388.372 297.112 387.766 296.995 387.234 296.762C386.702 296.529 386.282 296.211 385.974 295.81C385.666 295.399 385.493 294.942 385.456 294.438H387.822C387.85 294.709 387.976 294.928 388.2 295.096C388.424 295.264 388.699 295.348 389.026 295.348C389.324 295.348 389.553 295.292 389.712 295.18C389.88 295.059 389.964 294.905 389.964 294.718C389.964 294.494 389.847 294.331 389.614 294.228C389.38 294.116 389.002 293.995 388.48 293.864C387.92 293.733 387.453 293.598 387.08 293.458C386.706 293.309 386.384 293.08 386.114 292.772C385.843 292.455 385.708 292.03 385.708 291.498C385.708 291.05 385.829 290.644 386.072 290.28C386.324 289.907 386.688 289.613 387.164 289.398C387.649 289.183 388.223 289.076 388.886 289.076C389.866 289.076 390.636 289.319 391.196 289.804C391.765 290.289 392.092 290.933 392.176 291.736H389.964C389.926 291.465 389.805 291.251 389.6 291.092C389.404 290.933 389.142 290.854 388.816 290.854C388.536 290.854 388.321 290.91 388.172 291.022C388.022 291.125 387.948 291.269 387.948 291.456C387.948 291.68 388.064 291.848 388.298 291.96C388.54 292.072 388.914 292.184 389.418 292.296C389.996 292.445 390.468 292.595 390.832 292.744C391.196 292.884 391.513 293.117 391.784 293.444C392.064 293.761 392.208 294.191 392.218 294.732C392.218 295.189 392.087 295.6 391.826 295.964C391.574 296.319 391.205 296.599 390.72 296.804C390.244 297.009 389.688 297.112 389.054 297.112Z" fill="white"/>
<path d="M305 332.038L305 420.784" stroke="white" stroke-width="2" stroke-linecap="round"/>
<path d="M324.516 324.084C324.516 324.78 324.276 325.36 323.796 325.824C323.324 326.28 322.6 326.508 321.624 326.508H320.016V330H318.924V321.636H321.624C322.568 321.636 323.284 321.864 323.772 322.32C324.268 322.776 324.516 323.364 324.516 324.084ZM321.624 325.608C322.232 325.608 322.68 325.476 322.968 325.212C323.256 324.948 323.4 324.572 323.4 324.084C323.4 323.052 322.808 322.536 321.624 322.536H320.016V325.608H321.624ZM326.965 324.492C327.157 324.116 327.429 323.824 327.781 323.616C328.141 323.408 328.577 323.304 329.089 323.304V324.432H328.801C327.577 324.432 326.965 325.096 326.965 326.424V330H325.873V323.424H326.965V324.492ZM333.218 330.108C332.602 330.108 332.042 329.968 331.538 329.688C331.042 329.408 330.65 329.012 330.362 328.5C330.082 327.98 329.942 327.38 329.942 326.7C329.942 326.028 330.086 325.436 330.374 324.924C330.67 324.404 331.07 324.008 331.574 323.736C332.078 323.456 332.642 323.316 333.266 323.316C333.89 323.316 334.454 323.456 334.958 323.736C335.462 324.008 335.858 324.4 336.146 324.912C336.442 325.424 336.59 326.02 336.59 326.7C336.59 327.38 336.438 327.98 336.134 328.5C335.838 329.012 335.434 329.408 334.922 329.688C334.41 329.968 333.842 330.108 333.218 330.108ZM333.218 329.148C333.61 329.148 333.978 329.056 334.322 328.872C334.666 328.688 334.942 328.412 335.15 328.044C335.366 327.676 335.474 327.228 335.474 326.7C335.474 326.172 335.37 325.724 335.162 325.356C334.954 324.988 334.682 324.716 334.346 324.54C334.01 324.356 333.646 324.264 333.254 324.264C332.854 324.264 332.486 324.356 332.15 324.54C331.822 324.716 331.558 324.988 331.358 325.356C331.158 325.724 331.058 326.172 331.058 326.7C331.058 327.236 331.154 327.688 331.346 328.056C331.546 328.424 331.81 328.7 332.138 328.884C332.466 329.06 332.826 329.148 333.218 329.148ZM337.618 326.7C337.618 326.02 337.754 325.428 338.026 324.924C338.298 324.412 338.674 324.016 339.154 323.736C339.642 323.456 340.198 323.316 340.822 323.316C341.63 323.316 342.294 323.512 342.814 323.904C343.342 324.296 343.69 324.84 343.858 325.536H342.682C342.57 325.136 342.35 324.82 342.022 324.588C341.702 324.356 341.302 324.24 340.822 324.24C340.198 324.24 339.694 324.456 339.31 324.888C338.926 325.312 338.734 325.916 338.734 326.7C338.734 327.492 338.926 328.104 339.31 328.536C339.694 328.968 340.198 329.184 340.822 329.184C341.302 329.184 341.702 329.072 342.022 328.848C342.342 328.624 342.562 328.304 342.682 327.888H343.858C343.682 328.56 343.33 329.1 342.802 329.508C342.274 329.908 341.614 330.108 340.822 330.108C340.198 330.108 339.642 329.968 339.154 329.688C338.674 329.408 338.298 329.012 338.026 328.5C337.754 327.988 337.618 327.388 337.618 326.7ZM351.315 326.46C351.315 326.668 351.303 326.888 351.279 327.12H346.023C346.063 327.768 346.283 328.276 346.683 328.644C347.091 329.004 347.583 329.184 348.159 329.184C348.631 329.184 349.023 329.076 349.335 328.86C349.655 328.636 349.879 328.34 350.007 327.972H351.183C351.007 328.604 350.655 329.12 350.127 329.52C349.599 329.912 348.943 330.108 348.159 330.108C347.535 330.108 346.975 329.968 346.479 329.688C345.991 329.408 345.607 329.012 345.327 328.5C345.047 327.98 344.907 327.38 344.907 326.7C344.907 326.02 345.043 325.424 345.315 324.912C345.587 324.4 345.967 324.008 346.455 323.736C346.951 323.456 347.519 323.316 348.159 323.316C348.783 323.316 349.335 323.452 349.815 323.724C350.295 323.996 350.663 324.372 350.919 324.852C351.183 325.324 351.315 325.86 351.315 326.46ZM350.187 326.232C350.187 325.816 350.095 325.46 349.911 325.164C349.727 324.86 349.475 324.632 349.155 324.48C348.843 324.32 348.495 324.24 348.111 324.24C347.559 324.24 347.087 324.416 346.695 324.768C346.311 325.12 346.091 325.608 346.035 326.232H350.187ZM355.084 330.108C354.58 330.108 354.128 330.024 353.728 329.856C353.328 329.68 353.012 329.44 352.78 329.136C352.548 328.824 352.42 328.468 352.396 328.068H353.524C353.556 328.396 353.708 328.664 353.98 328.872C354.26 329.08 354.624 329.184 355.072 329.184C355.488 329.184 355.816 329.092 356.056 328.908C356.296 328.724 356.416 328.492 356.416 328.212C356.416 327.924 356.288 327.712 356.032 327.576C355.776 327.432 355.38 327.292 354.844 327.156C354.356 327.028 353.956 326.9 353.644 326.772C353.34 326.636 353.076 326.44 352.852 326.184C352.636 325.92 352.528 325.576 352.528 325.152C352.528 324.816 352.628 324.508 352.828 324.228C353.028 323.948 353.312 323.728 353.68 323.568C354.048 323.4 354.468 323.316 354.94 323.316C355.668 323.316 356.256 323.5 356.704 323.868C357.152 324.236 357.392 324.74 357.424 325.38H356.332C356.308 325.036 356.168 324.76 355.912 324.552C355.664 324.344 355.328 324.24 354.904 324.24C354.512 324.24 354.2 324.324 353.968 324.492C353.736 324.66 353.62 324.88 353.62 325.152C353.62 325.368 353.688 325.548 353.824 325.692C353.968 325.828 354.144 325.94 354.352 326.028C354.568 326.108 354.864 326.2 355.24 326.304C355.712 326.432 356.096 326.56 356.392 326.688C356.688 326.808 356.94 326.992 357.148 327.24C357.364 327.488 357.476 327.812 357.484 328.212C357.484 328.572 357.384 328.896 357.184 329.184C356.984 329.472 356.7 329.7 356.332 329.868C355.972 330.028 355.556 330.108 355.084 330.108ZM361.354 330.108C360.85 330.108 360.398 330.024 359.998 329.856C359.598 329.68 359.282 329.44 359.05 329.136C358.818 328.824 358.69 328.468 358.666 328.068H359.794C359.826 328.396 359.978 328.664 360.25 328.872C360.53 329.08 360.894 329.184 361.342 329.184C361.758 329.184 362.086 329.092 362.326 328.908C362.566 328.724 362.686 328.492 362.686 328.212C362.686 327.924 362.558 327.712 362.302 327.576C362.046 327.432 361.65 327.292 361.114 327.156C360.626 327.028 360.226 326.9 359.914 326.772C359.61 326.636 359.346 326.44 359.122 326.184C358.906 325.92 358.798 325.576 358.798 325.152C358.798 324.816 358.898 324.508 359.098 324.228C359.298 323.948 359.582 323.728 359.95 323.568C360.318 323.4 360.738 323.316 361.21 323.316C361.938 323.316 362.526 323.5 362.974 323.868C363.422 324.236 363.662 324.74 363.694 325.38H362.602C362.578 325.036 362.438 324.76 362.182 324.552C361.934 324.344 361.598 324.24 361.174 324.24C360.782 324.24 360.47 324.324 360.238 324.492C360.006 324.66 359.89 324.88 359.89 325.152C359.89 325.368 359.958 325.548 360.094 325.692C360.238 325.828 360.414 325.94 360.622 326.028C360.838 326.108 361.134 326.2 361.51 326.304C361.982 326.432 362.366 326.56 362.662 326.688C362.958 326.808 363.21 326.992 363.418 327.24C363.634 327.488 363.746 327.812 363.754 328.212C363.754 328.572 363.654 328.896 363.454 329.184C363.254 329.472 362.97 329.7 362.602 329.868C362.242 330.028 361.826 330.108 361.354 330.108ZM371.127 323.424V330H370.035V329.028C369.827 329.364 369.535 329.628 369.159 329.82C368.791 330.004 368.383 330.096 367.935 330.096C367.423 330.096 366.963 329.992 366.555 329.784C366.147 329.568 365.823 329.248 365.583 328.824C365.351 328.4 365.235 327.884 365.235 327.276V323.424H366.315V327.132C366.315 327.78 366.479 328.28 366.807 328.632C367.135 328.976 367.583 329.148 368.151 329.148C368.735 329.148 369.195 328.968 369.531 328.608C369.867 328.248 370.035 327.724 370.035 327.036V323.424H371.127ZM375.299 330.108C374.795 330.108 374.343 330.024 373.943 329.856C373.543 329.68 373.227 329.44 372.995 329.136C372.763 328.824 372.635 328.468 372.611 328.068H373.739C373.771 328.396 373.923 328.664 374.195 328.872C374.475 329.08 374.839 329.184 375.287 329.184C375.703 329.184 376.031 329.092 376.271 328.908C376.511 328.724 376.631 328.492 376.631 328.212C376.631 327.924 376.503 327.712 376.247 327.576C375.991 327.432 375.595 327.292 375.059 327.156C374.571 327.028 374.171 326.9 373.859 326.772C373.555 326.636 373.291 326.44 373.067 326.184C372.851 325.92 372.743 325.576 372.743 325.152C372.743 324.816 372.843 324.508 373.043 324.228C373.243 323.948 373.527 323.728 373.895 323.568C374.263 323.4 374.683 323.316 375.155 323.316C375.883 323.316 376.471 323.5 376.919 323.868C377.367 324.236 377.607 324.74 377.639 325.38H376.547C376.523 325.036 376.383 324.76 376.127 324.552C375.879 324.344 375.543 324.24 375.119 324.24C374.727 324.24 374.415 324.324 374.183 324.492C373.951 324.66 373.835 324.88 373.835 325.152C373.835 325.368 373.903 325.548 374.039 325.692C374.183 325.828 374.359 325.94 374.567 326.028C374.783 326.108 375.079 326.2 375.455 326.304C375.927 326.432 376.311 326.56 376.607 326.688C376.903 326.808 377.155 326.992 377.363 327.24C377.579 327.488 377.691 327.812 377.699 328.212C377.699 328.572 377.599 328.896 377.399 329.184C377.199 329.472 376.915 329.7 376.547 329.868C376.187 330.028 375.771 330.108 375.299 330.108Z" fill="white"/>
<path d="M326.516 353.084C326.516 353.78 326.276 354.36 325.796 354.824C325.324 355.28 324.6 355.508 323.624 355.508H322.016V359H320.924V350.636H323.624C324.568 350.636 325.284 350.864 325.772 351.32C326.268 351.776 326.516 352.364 326.516 353.084ZM323.624 354.608C324.232 354.608 324.68 354.476 324.968 354.212C325.256 353.948 325.4 353.572 325.4 353.084C325.4 352.052 324.808 351.536 323.624 351.536H322.016V354.608H323.624ZM333.873 355.46C333.873 355.668 333.861 355.888 333.837 356.12H328.581C328.621 356.768 328.841 357.276 329.241 357.644C329.649 358.004 330.141 358.184 330.717 358.184C331.189 358.184 331.581 358.076 331.893 357.86C332.213 357.636 332.437 357.34 332.565 356.972H333.741C333.565 357.604 333.213 358.12 332.685 358.52C332.157 358.912 331.501 359.108 330.717 359.108C330.093 359.108 329.533 358.968 329.037 358.688C328.549 358.408 328.165 358.012 327.885 357.5C327.605 356.98 327.465 356.38 327.465 355.7C327.465 355.02 327.601 354.424 327.873 353.912C328.145 353.4 328.525 353.008 329.013 352.736C329.509 352.456 330.077 352.316 330.717 352.316C331.341 352.316 331.893 352.452 332.373 352.724C332.853 352.996 333.221 353.372 333.477 353.852C333.741 354.324 333.873 354.86 333.873 355.46ZM332.745 355.232C332.745 354.816 332.653 354.46 332.469 354.164C332.285 353.86 332.033 353.632 331.713 353.48C331.401 353.32 331.053 353.24 330.669 353.24C330.117 353.24 329.645 353.416 329.253 353.768C328.869 354.12 328.649 354.608 328.593 355.232H332.745ZM336.407 353.492C336.599 353.116 336.871 352.824 337.223 352.616C337.583 352.408 338.019 352.304 338.531 352.304V353.432H338.243C337.019 353.432 336.407 354.096 336.407 355.424V359H335.315V352.424H336.407V353.492ZM342.119 359.108C341.615 359.108 341.163 359.024 340.763 358.856C340.363 358.68 340.047 358.44 339.815 358.136C339.583 357.824 339.455 357.468 339.431 357.068H340.559C340.591 357.396 340.743 357.664 341.015 357.872C341.295 358.08 341.659 358.184 342.107 358.184C342.523 358.184 342.851 358.092 343.091 357.908C343.331 357.724 343.451 357.492 343.451 357.212C343.451 356.924 343.323 356.712 343.067 356.576C342.811 356.432 342.415 356.292 341.879 356.156C341.391 356.028 340.991 355.9 340.679 355.772C340.375 355.636 340.111 355.44 339.887 355.184C339.671 354.92 339.563 354.576 339.563 354.152C339.563 353.816 339.663 353.508 339.863 353.228C340.063 352.948 340.347 352.728 340.715 352.568C341.083 352.4 341.503 352.316 341.975 352.316C342.703 352.316 343.291 352.5 343.739 352.868C344.187 353.236 344.427 353.74 344.459 354.38H343.367C343.343 354.036 343.203 353.76 342.947 353.552C342.699 353.344 342.363 353.24 341.939 353.24C341.547 353.24 341.235 353.324 341.003 353.492C340.771 353.66 340.655 353.88 340.655 354.152C340.655 354.368 340.723 354.548 340.859 354.692C341.003 354.828 341.179 354.94 341.387 355.028C341.603 355.108 341.899 355.2 342.275 355.304C342.747 355.432 343.131 355.56 343.427 355.688C343.723 355.808 343.975 355.992 344.183 356.24C344.399 356.488 344.511 356.812 344.519 357.212C344.519 357.572 344.419 357.896 344.219 358.184C344.019 358.472 343.735 358.7 343.367 358.868C343.007 359.028 342.591 359.108 342.119 359.108ZM348.929 359.108C348.313 359.108 347.753 358.968 347.249 358.688C346.753 358.408 346.361 358.012 346.073 357.5C345.793 356.98 345.653 356.38 345.653 355.7C345.653 355.028 345.797 354.436 346.085 353.924C346.381 353.404 346.781 353.008 347.285 352.736C347.789 352.456 348.353 352.316 348.977 352.316C349.601 352.316 350.165 352.456 350.669 352.736C351.173 353.008 351.569 353.4 351.857 353.912C352.153 354.424 352.301 355.02 352.301 355.7C352.301 356.38 352.149 356.98 351.845 357.5C351.549 358.012 351.145 358.408 350.633 358.688C350.121 358.968 349.553 359.108 348.929 359.108ZM348.929 358.148C349.321 358.148 349.689 358.056 350.033 357.872C350.377 357.688 350.653 357.412 350.861 357.044C351.077 356.676 351.185 356.228 351.185 355.7C351.185 355.172 351.081 354.724 350.873 354.356C350.665 353.988 350.393 353.716 350.057 353.54C349.721 353.356 349.357 353.264 348.965 353.264C348.565 353.264 348.197 353.356 347.861 353.54C347.533 353.716 347.269 353.988 347.069 354.356C346.869 354.724 346.769 355.172 346.769 355.7C346.769 356.236 346.865 356.688 347.057 357.056C347.257 357.424 347.521 357.7 347.849 357.884C348.177 358.06 348.537 358.148 348.929 358.148ZM356.941 352.304C357.741 352.304 358.389 352.548 358.885 353.036C359.381 353.516 359.629 354.212 359.629 355.124V359H358.549V355.28C358.549 354.624 358.385 354.124 358.057 353.78C357.729 353.428 357.281 353.252 356.713 353.252C356.137 353.252 355.677 353.432 355.333 353.792C354.997 354.152 354.829 354.676 354.829 355.364V359H353.737V352.424H354.829V353.36C355.045 353.024 355.337 352.764 355.705 352.58C356.081 352.396 356.493 352.304 356.941 352.304ZM364.616 352.304C365.416 352.304 366.064 352.548 366.56 353.036C367.056 353.516 367.304 354.212 367.304 355.124V359H366.224V355.28C366.224 354.624 366.06 354.124 365.732 353.78C365.404 353.428 364.956 353.252 364.388 353.252C363.812 353.252 363.352 353.432 363.008 353.792C362.672 354.152 362.504 354.676 362.504 355.364V359H361.412V352.424H362.504V353.36C362.72 353.024 363.012 352.764 363.38 352.58C363.756 352.396 364.168 352.304 364.616 352.304ZM375.088 355.46C375.088 355.668 375.076 355.888 375.052 356.12H369.796C369.836 356.768 370.056 357.276 370.456 357.644C370.864 358.004 371.356 358.184 371.932 358.184C372.404 358.184 372.796 358.076 373.108 357.86C373.428 357.636 373.652 357.34 373.78 356.972H374.956C374.78 357.604 374.428 358.12 373.9 358.52C373.372 358.912 372.716 359.108 371.932 359.108C371.308 359.108 370.748 358.968 370.252 358.688C369.764 358.408 369.38 358.012 369.1 357.5C368.82 356.98 368.68 356.38 368.68 355.7C368.68 355.02 368.816 354.424 369.088 353.912C369.36 353.4 369.74 353.008 370.228 352.736C370.724 352.456 371.292 352.316 371.932 352.316C372.556 352.316 373.108 352.452 373.588 352.724C374.068 352.996 374.436 353.372 374.692 353.852C374.956 354.324 375.088 354.86 375.088 355.46ZM373.96 355.232C373.96 354.816 373.868 354.46 373.684 354.164C373.5 353.86 373.248 353.632 372.928 353.48C372.616 353.32 372.268 353.24 371.884 353.24C371.332 353.24 370.86 353.416 370.468 353.768C370.084 354.12 369.864 354.608 369.808 355.232H373.96ZM378.857 359.108C378.353 359.108 377.901 359.024 377.501 358.856C377.101 358.68 376.785 358.44 376.553 358.136C376.321 357.824 376.193 357.468 376.169 357.068H377.297C377.329 357.396 377.481 357.664 377.753 357.872C378.033 358.08 378.397 358.184 378.845 358.184C379.261 358.184 379.589 358.092 379.829 357.908C380.069 357.724 380.189 357.492 380.189 357.212C380.189 356.924 380.061 356.712 379.805 356.576C379.549 356.432 379.153 356.292 378.617 356.156C378.129 356.028 377.729 355.9 377.417 355.772C377.113 355.636 376.849 355.44 376.625 355.184C376.409 354.92 376.301 354.576 376.301 354.152C376.301 353.816 376.401 353.508 376.601 353.228C376.801 352.948 377.085 352.728 377.453 352.568C377.821 352.4 378.241 352.316 378.713 352.316C379.441 352.316 380.029 352.5 380.477 352.868C380.925 353.236 381.165 353.74 381.197 354.38H380.105C380.081 354.036 379.941 353.76 379.685 353.552C379.437 353.344 379.101 353.24 378.677 353.24C378.285 353.24 377.973 353.324 377.741 353.492C377.509 353.66 377.393 353.88 377.393 354.152C377.393 354.368 377.461 354.548 377.597 354.692C377.741 354.828 377.917 354.94 378.125 355.028C378.341 355.108 378.637 355.2 379.013 355.304C379.485 355.432 379.869 355.56 380.165 355.688C380.461 355.808 380.713 355.992 380.921 356.24C381.137 356.488 381.249 356.812 381.257 357.212C381.257 357.572 381.157 357.896 380.957 358.184C380.757 358.472 380.473 358.7 380.105 358.868C379.745 359.028 379.329 359.108 378.857 359.108Z" fill="white"/>
<path d="M318.516 381.812C318.516 380.996 318.7 380.264 319.068 379.616C319.436 378.96 319.936 378.448 320.568 378.08C321.208 377.712 321.916 377.528 322.692 377.528C323.604 377.528 324.4 377.748 325.08 378.188C325.76 378.628 326.256 379.252 326.568 380.06H325.26C325.028 379.556 324.692 379.168 324.252 378.896C323.82 378.624 323.3 378.488 322.692 378.488C322.108 378.488 321.584 378.624 321.12 378.896C320.656 379.168 320.292 379.556 320.028 380.06C319.764 380.556 319.632 381.14 319.632 381.812C319.632 382.476 319.764 383.06 320.028 383.564C320.292 384.06 320.656 384.444 321.12 384.716C321.584 384.988 322.108 385.124 322.692 385.124C323.3 385.124 323.82 384.992 324.252 384.728C324.692 384.456 325.028 384.068 325.26 383.564H326.568C326.256 384.364 325.76 384.984 325.08 385.424C324.4 385.856 323.604 386.072 322.692 386.072C321.916 386.072 321.208 385.892 320.568 385.532C319.936 385.164 319.436 384.656 319.068 384.008C318.7 383.36 318.516 382.628 318.516 381.812ZM327.786 382.688C327.786 382.016 327.922 381.428 328.194 380.924C328.466 380.412 328.838 380.016 329.31 379.736C329.79 379.456 330.322 379.316 330.906 379.316C331.482 379.316 331.982 379.44 332.406 379.688C332.83 379.936 333.146 380.248 333.354 380.624V379.424H334.458V386H333.354V384.776C333.138 385.16 332.814 385.48 332.382 385.736C331.958 385.984 331.462 386.108 330.894 386.108C330.31 386.108 329.782 385.964 329.31 385.676C328.838 385.388 328.466 384.984 328.194 384.464C327.922 383.944 327.786 383.352 327.786 382.688ZM333.354 382.7C333.354 382.204 333.254 381.772 333.054 381.404C332.854 381.036 332.582 380.756 332.238 380.564C331.902 380.364 331.53 380.264 331.122 380.264C330.714 380.264 330.342 380.36 330.006 380.552C329.67 380.744 329.402 381.024 329.202 381.392C329.002 381.76 328.902 382.192 328.902 382.688C328.902 383.192 329.002 383.632 329.202 384.008C329.402 384.376 329.67 384.66 330.006 384.86C330.342 385.052 330.714 385.148 331.122 385.148C331.53 385.148 331.902 385.052 332.238 384.86C332.582 384.66 332.854 384.376 333.054 384.008C333.254 383.632 333.354 383.196 333.354 382.7ZM339.507 379.304C340.307 379.304 340.955 379.548 341.451 380.036C341.947 380.516 342.195 381.212 342.195 382.124V386H341.115V382.28C341.115 381.624 340.951 381.124 340.623 380.78C340.295 380.428 339.847 380.252 339.279 380.252C338.703 380.252 338.243 380.432 337.899 380.792C337.563 381.152 337.395 381.676 337.395 382.364V386H336.303V379.424H337.395V380.36C337.611 380.024 337.903 379.764 338.271 379.58C338.647 379.396 339.059 379.304 339.507 379.304ZM343.571 382.688C343.571 382.016 343.707 381.428 343.979 380.924C344.251 380.412 344.623 380.016 345.095 379.736C345.575 379.456 346.107 379.316 346.691 379.316C347.267 379.316 347.767 379.44 348.191 379.688C348.615 379.936 348.931 380.248 349.139 380.624V379.424H350.243V386H349.139V384.776C348.923 385.16 348.599 385.48 348.167 385.736C347.743 385.984 347.247 386.108 346.679 386.108C346.095 386.108 345.567 385.964 345.095 385.676C344.623 385.388 344.251 384.984 343.979 384.464C343.707 383.944 343.571 383.352 343.571 382.688ZM349.139 382.7C349.139 382.204 349.039 381.772 348.839 381.404C348.639 381.036 348.367 380.756 348.023 380.564C347.687 380.364 347.315 380.264 346.907 380.264C346.499 380.264 346.127 380.36 345.791 380.552C345.455 380.744 345.187 381.024 344.987 381.392C344.787 381.76 344.687 382.192 344.687 382.688C344.687 383.192 344.787 383.632 344.987 384.008C345.187 384.376 345.455 384.66 345.791 384.86C346.127 385.052 346.499 385.148 346.907 385.148C347.315 385.148 347.687 385.052 348.023 384.86C348.367 384.66 348.639 384.376 348.839 384.008C349.039 383.632 349.139 383.196 349.139 382.7ZM357.92 379.424V386H356.828V385.028C356.62 385.364 356.328 385.628 355.952 385.82C355.584 386.004 355.176 386.096 354.728 386.096C354.216 386.096 353.756 385.992 353.348 385.784C352.94 385.568 352.616 385.248 352.376 384.824C352.144 384.4 352.028 383.884 352.028 383.276V379.424H353.108V383.132C353.108 383.78 353.272 384.28 353.6 384.632C353.928 384.976 354.376 385.148 354.944 385.148C355.528 385.148 355.988 384.968 356.324 384.608C356.66 384.248 356.828 383.724 356.828 383.036V379.424H357.92ZM363.196 386L361.636 383.552L360.136 386H358.996L361.12 382.736L358.996 379.424H360.232L361.792 381.86L363.28 379.424H364.42L362.308 382.676L364.432 386H363.196Z" fill="white"/>
<path d="M324.716 414.084C323.94 414.084 323.232 413.904 322.592 413.544C321.952 413.176 321.444 412.668 321.068 412.02C320.7 411.364 320.516 410.628 320.516 409.812C320.516 408.996 320.7 408.264 321.068 407.616C321.444 406.96 321.952 406.452 322.592 406.092C323.232 405.724 323.94 405.54 324.716 405.54C325.5 405.54 326.212 405.724 326.852 406.092C327.492 406.452 327.996 406.956 328.364 407.604C328.732 408.252 328.916 408.988 328.916 409.812C328.916 410.636 328.732 411.372 328.364 412.02C327.996 412.668 327.492 413.176 326.852 413.544C326.212 413.904 325.5 414.084 324.716 414.084ZM324.716 413.136C325.3 413.136 325.824 413 326.288 412.728C326.76 412.456 327.128 412.068 327.392 411.564C327.664 411.06 327.8 410.476 327.8 409.812C327.8 409.14 327.664 408.556 327.392 408.06C327.128 407.556 326.764 407.168 326.3 406.896C325.836 406.624 325.308 406.488 324.716 406.488C324.124 406.488 323.596 406.624 323.132 406.896C322.668 407.168 322.3 407.556 322.028 408.06C321.764 408.556 321.632 409.14 321.632 409.812C321.632 410.476 321.764 411.06 322.028 411.564C322.3 412.068 322.668 412.456 323.132 412.728C323.604 413 324.132 413.136 324.716 413.136ZM336.19 407.424V414H335.098V413.028C334.89 413.364 334.598 413.628 334.222 413.82C333.854 414.004 333.446 414.096 332.998 414.096C332.486 414.096 332.026 413.992 331.618 413.784C331.21 413.568 330.886 413.248 330.646 412.824C330.414 412.4 330.298 411.884 330.298 411.276V407.424H331.378V411.132C331.378 411.78 331.542 412.28 331.87 412.632C332.198 412.976 332.646 413.148 333.214 413.148C333.798 413.148 334.258 412.968 334.594 412.608C334.93 412.248 335.098 411.724 335.098 411.036V407.424H336.19ZM339.365 408.324V412.2C339.365 412.52 339.433 412.748 339.569 412.884C339.705 413.012 339.941 413.076 340.277 413.076H341.081V414H340.097C339.489 414 339.033 413.86 338.729 413.58C338.425 413.3 338.273 412.84 338.273 412.2V408.324H337.421V407.424H338.273V405.768H339.365V407.424H341.081V408.324H339.365ZM342.968 406.356C342.76 406.356 342.584 406.284 342.44 406.14C342.296 405.996 342.224 405.82 342.224 405.612C342.224 405.404 342.296 405.228 342.44 405.084C342.584 404.94 342.76 404.868 342.968 404.868C343.168 404.868 343.336 404.94 343.472 405.084C343.616 405.228 343.688 405.404 343.688 405.612C343.688 405.82 343.616 405.996 343.472 406.14C343.336 406.284 343.168 406.356 342.968 406.356ZM343.496 407.424V414H342.404V407.424H343.496ZM346.45 405.12V414H345.358V405.12H346.45ZM350.639 414.108C350.135 414.108 349.683 414.024 349.283 413.856C348.883 413.68 348.567 413.44 348.335 413.136C348.103 412.824 347.975 412.468 347.951 412.068H349.079C349.111 412.396 349.263 412.664 349.535 412.872C349.815 413.08 350.179 413.184 350.627 413.184C351.043 413.184 351.371 413.092 351.611 412.908C351.851 412.724 351.971 412.492 351.971 412.212C351.971 411.924 351.843 411.712 351.587 411.576C351.331 411.432 350.935 411.292 350.399 411.156C349.911 411.028 349.511 410.9 349.199 410.772C348.895 410.636 348.631 410.44 348.407 410.184C348.191 409.92 348.083 409.576 348.083 409.152C348.083 408.816 348.183 408.508 348.383 408.228C348.583 407.948 348.867 407.728 349.235 407.568C349.603 407.4 350.023 407.316 350.495 407.316C351.223 407.316 351.811 407.5 352.259 407.868C352.707 408.236 352.947 408.74 352.979 409.38H351.887C351.863 409.036 351.723 408.76 351.467 408.552C351.219 408.344 350.883 408.24 350.459 408.24C350.067 408.24 349.755 408.324 349.523 408.492C349.291 408.66 349.175 408.88 349.175 409.152C349.175 409.368 349.243 409.548 349.379 409.692C349.523 409.828 349.699 409.94 349.907 410.028C350.123 410.108 350.419 410.2 350.795 410.304C351.267 410.432 351.651 410.56 351.947 410.688C352.243 410.808 352.495 410.992 352.703 411.24C352.919 411.488 353.031 411.812 353.039 412.212C353.039 412.572 352.939 412.896 352.739 413.184C352.539 413.472 352.255 413.7 351.887 413.868C351.527 414.028 351.111 414.108 350.639 414.108Z" fill="white"/>
<defs>
<filter id="filter0_d_58_224" x="90.0881" y="41" width="172.583" height="172.583" filterUnits="userSpaceOnUse" color-interpolation-filters="sRGB">
<feFlood flood-opacity="0" result="BackgroundImageFix"/>
<feColorMatrix in="SourceAlpha" type="matrix" values="0 0 0 0 0 0 0 0 0 0 0 0 0 0 0 0 0 0 127 0" result="hardAlpha"/>
<feOffset/>
<feGaussianBlur stdDeviation="10"/>
<feColorMatrix type="matrix" values="0 0 0 0 0.160784 0 0 0 0 0.980392 0 0 0 0 0.858824 0 0 0 0.612 0"/>
<feBlend mode="normal" in2="BackgroundImageFix" result="effect1_dropShadow_58_224"/>
<feBlend mode="normal" in="SourceGraphic" in2="effect1_dropShadow_58_224" result="shape"/>
</filter>
<filter id="filter1_d_58_224" x="18.4668" y="188.627" width="136.628" height="102.433" filterUnits="userSpaceOnUse" color-interpolation-filters="sRGB">
<feFlood flood-opacity="0" result="BackgroundImageFix"/>
<feColorMatrix in="SourceAlpha" type="matrix" values="0 0 0 0 0 0 0 0 0 0 0 0 0 0 0 0 0 0 127 0" result="hardAlpha"/>
<feOffset/>
<feGaussianBlur stdDeviation="10"/>
<feColorMatrix type="matrix" values="0 0 0 0 0.160784 0 0 0 0 0.980392 0 0 0 0 0.858824 0 0 0 0.612 0"/>
<feBlend mode="normal" in2="BackgroundImageFix" result="effect1_dropShadow_58_224"/>
<feBlend mode="normal" in="SourceGraphic" in2="effect1_dropShadow_58_224" result="shape"/>
</filter>
<linearGradient id="paint0_linear_58_224" x1="67.9355" y1="52.4253" x2="190.028" y2="279.448" gradientUnits="userSpaceOnUse">
<stop stop-color="#141331"/>
<stop offset="0.31" stop-color="#151F3A"/>
<stop offset="0.562" stop-color="#24B6A9"/>
<stop offset="0.635" stop-color="#1F8887"/>
<stop offset="1" stop-color="#141331"/>
</linearGradient>
<linearGradient id="paint1_linear_58_224" x1="18.3596" y1="-79.0326" x2="260.304" y2="370.848" gradientUnits="userSpaceOnUse">
<stop stop-color="#141331"/>
<stop offset="0.31" stop-color="#151F3A"/>
<stop offset="0.562" stop-color="#24B6A9"/>
<stop offset="0.635" stop-color="#1F8887"/>
<stop offset="1" stop-color="#141331"/>
</linearGradient>
<linearGradient id="paint2_linear_58_224" x1="-31.669" y1="-205.691" x2="326.767" y2="460.798" gradientUnits="userSpaceOnUse">
<stop stop-color="#141331"/>
<stop offset="0.31" stop-color="#151F3A"/>
<stop offset="0.562" stop-color="#24B6A9"/>
<stop offset="0.635" stop-color="#1F8887"/>
<stop offset="1" stop-color="#141331"/>
</linearGradient>
<linearGradient id="paint3_linear_58_224" x1="66.628" y1="360.031" x2="204.002" y2="246.765" gradientUnits="userSpaceOnUse">
<stop stop-color="#141331"/>
<stop offset="0.33" stop-color="#1A4D5B"/>
<stop offset="0.488" stop-color="#24B6A9"/>
<stop offset="0.65" stop-color="#1F8887"/>
<stop offset="1" stop-color="#141331"/>
</linearGradient>
<linearGradient id="paint4_linear_58_224" x1="15.7685" y1="412.041" x2="287.996" y2="187.587" gradientUnits="userSpaceOnUse">
<stop stop-color="#141331"/>
<stop offset="0.33" stop-color="#1A4D5B"/>
<stop offset="0.488" stop-color="#24B6A9"/>
<stop offset="0.65" stop-color="#1F8887"/>
<stop offset="1" stop-color="#141331"/>
</linearGradient>
<linearGradient id="paint5_linear_58_224" x1="-35.5077" y1="463.707" x2="367.793" y2="131.183" gradientUnits="userSpaceOnUse">
<stop stop-color="#141331"/>
<stop offset="0.33" stop-color="#1A4D5B"/>
<stop offset="0.488" stop-color="#24B6A9"/>
<stop offset="0.65" stop-color="#1F8887"/>
<stop offset="1" stop-color="#141331"/>
</linearGradient>
<linearGradient id="paint6_linear_58_224" x1="175.65" y1="286.049" x2="276.903" y2="286.049" gradientUnits="userSpaceOnUse">
<stop stop-color="#141331"/>
<stop offset="0.57" stop-color="#24B6A9"/>
<stop offset="0.65" stop-color="#1F8887"/>
<stop offset="1" stop-color="#141331"/>
</linearGradient>
<linearGradient id="paint7_linear_58_224" x1="130.245" y1="325.785" x2="330.894" y2="325.785" gradientUnits="userSpaceOnUse">
<stop stop-color="#141331"/>
<stop offset="0.57" stop-color="#24B6A9"/>
<stop offset="0.65" stop-color="#1F8887"/>
<stop offset="1" stop-color="#141331"/>
</linearGradient>
<linearGradient id="paint8_linear_58_224" x1="84.2715" y1="365.522" x2="381.529" y2="365.522" gradientUnits="userSpaceOnUse">
<stop stop-color="#141331"/>
<stop offset="0.57" stop-color="#24B6A9"/>
<stop offset="0.65" stop-color="#1F8887"/>
<stop offset="1" stop-color="#141331"/>
</linearGradient>
</defs>
</svg>
