<svg viewBox="0 0 607 430" fill="none" xmlns="http://www.w3.org/2000/svg">
<g opacity="0.461">
<path d="M140.35 153.938C129.964 153.926 120.006 149.792 112.662 142.442C105.317 135.093 101.186 125.128 101.175 114.734C101.186 104.34 105.318 94.3753 112.662 87.0257C120.006 79.6762 129.964 75.542 140.35 75.5302C150.737 75.542 160.695 79.6762 168.039 87.0257C175.383 94.3753 179.515 104.34 179.526 114.734C179.515 125.128 175.383 135.093 168.039 142.442C160.695 149.792 150.737 153.926 140.35 153.938ZM140.35 77.6882C130.536 77.6992 121.126 81.6058 114.186 88.5508C107.246 95.4958 103.342 104.912 103.331 114.734C103.342 124.556 107.246 133.972 114.186 140.917C121.126 147.862 130.536 151.769 140.35 151.78C150.165 151.768 159.575 147.862 166.515 140.917C173.455 133.972 177.359 124.556 177.37 114.734C177.359 104.912 173.455 95.496 166.515 88.551C159.575 81.606 150.165 77.6994 140.35 77.6882Z" fill="url(#paint0_linear_69_308)"/>
<path d="M141.429 192.062C120.846 192.039 101.114 183.847 86.5595 169.282C72.0055 154.718 63.8189 134.971 63.7957 114.374C63.8191 93.7772 72.0058 74.0305 86.5597 59.4662C101.114 44.9019 120.846 36.7095 141.429 36.6861C162.011 36.7095 181.744 44.9019 196.298 59.4662C210.852 74.0305 219.038 93.7772 219.062 114.374C219.039 134.971 210.852 154.718 196.298 169.282C181.744 183.847 162.011 192.039 141.429 192.062ZM141.429 38.8441C121.418 38.8668 102.233 46.8316 88.0838 60.9914C73.9341 75.1511 65.9748 94.3493 65.9522 114.374C65.9748 134.399 73.9341 153.597 88.0838 167.757C102.233 181.917 121.418 189.882 141.429 189.904C161.439 189.882 180.624 181.917 194.774 167.757C208.923 153.597 216.883 134.399 216.905 114.374C216.883 94.3493 208.923 75.1511 194.774 60.9914C180.624 46.8316 161.439 38.8668 141.429 38.8441Z" fill="url(#paint1_linear_69_308)"/>
<path d="M140.71 230.187C77.2916 230.187 25.698 178.557 25.698 115.094C25.698 51.6302 77.2916 0 140.71 0C204.128 0 255.722 51.6309 255.722 115.094C255.722 178.556 204.127 230.187 140.71 230.187ZM140.71 2.158C78.4813 2.158 27.8545 52.8207 27.8545 115.094C27.8545 177.366 78.4813 228.029 140.71 228.029C202.939 228.029 253.565 177.367 253.565 115.094C253.565 52.82 202.939 2.158 140.71 2.158Z" fill="url(#paint2_linear_69_308)"/>
<path d="M140.35 269.751C129.964 269.739 120.006 265.605 112.662 258.255C105.317 250.906 101.186 240.941 101.175 230.547C101.186 220.153 105.318 210.188 112.662 202.839C120.006 195.489 129.964 191.355 140.35 191.343C150.737 191.355 160.695 195.489 168.039 202.839C175.383 210.188 179.515 220.153 179.526 230.547C179.515 240.941 175.383 250.905 168.039 258.255C160.695 265.605 150.737 269.739 140.35 269.751ZM140.35 193.501C130.536 193.512 121.126 197.419 114.186 204.364C107.246 211.309 103.342 220.725 103.331 230.547C103.342 240.369 107.246 249.785 114.186 256.73C121.126 263.675 130.536 267.581 140.35 267.592C150.165 267.581 159.575 263.675 166.515 256.73C173.455 249.785 177.359 240.368 177.37 230.547C177.359 220.725 173.455 211.309 166.515 204.364C159.575 197.419 150.165 193.512 140.35 193.501Z" fill="url(#paint3_linear_69_308)"/>
<path d="M141.429 307.875C120.846 307.852 101.114 299.66 86.5595 285.095C72.0055 270.531 63.8189 250.784 63.7957 230.187C63.8191 209.59 72.0058 189.843 86.5597 175.279C101.114 160.715 120.846 152.522 141.429 152.499C162.011 152.522 181.744 160.715 196.298 175.279C210.852 189.843 219.038 209.59 219.062 230.187C219.039 250.784 210.852 270.531 196.298 285.095C181.744 299.66 162.011 307.852 141.429 307.875ZM141.429 154.657C121.418 154.68 102.233 162.645 88.0838 176.804C73.9341 190.964 65.9748 210.162 65.9522 230.187C65.9748 250.212 73.9341 269.41 88.0838 283.57C102.233 297.73 121.418 305.695 141.429 305.717C161.439 305.695 180.624 297.73 194.774 283.57C208.923 269.41 216.883 250.212 216.905 230.187C216.883 210.162 208.923 190.964 194.774 176.804C180.624 162.645 161.439 154.68 141.429 154.657Z" fill="url(#paint4_linear_69_308)"/>
<path d="M140.71 346C77.2916 346 25.698 294.37 25.698 230.906C25.698 167.443 77.2916 115.813 140.71 115.813C204.128 115.813 255.722 167.444 255.722 230.906C255.722 294.369 204.127 346 140.71 346ZM140.71 117.971C78.4813 117.971 27.8545 168.634 27.8545 230.906C27.8545 293.179 78.4813 343.842 140.71 343.842C202.939 343.842 253.565 293.18 253.565 230.906C253.565 168.633 202.939 117.971 140.71 117.971Z" fill="url(#paint5_linear_69_308)"/>
<path d="M239.548 210.765C229.162 210.753 219.204 206.619 211.859 199.27C204.515 191.92 200.384 181.955 200.372 171.561C200.384 161.167 204.515 151.203 211.86 143.853C219.204 136.504 229.162 132.369 239.548 132.358C249.935 132.369 259.892 136.504 267.237 143.853C274.581 151.203 278.712 161.167 278.724 171.561C278.712 181.955 274.581 191.92 267.237 199.27C259.892 206.619 249.935 210.753 239.548 210.765ZM239.548 134.516C229.733 134.527 220.324 138.433 213.384 145.378C206.444 152.323 202.54 161.74 202.529 171.561C202.54 181.383 206.444 190.799 213.384 197.744C220.324 204.689 229.733 208.596 239.548 208.607C249.363 208.596 258.772 204.689 265.713 197.744C272.653 190.799 276.556 181.383 276.568 171.561C276.556 161.74 272.653 152.323 265.713 145.378C258.772 138.433 249.363 134.527 239.548 134.516Z" fill="url(#paint6_linear_69_308)"/>
<path d="M240.626 248.89C220.044 248.867 200.311 240.674 185.757 226.11C171.203 211.546 163.017 191.799 162.993 171.202C163.017 150.605 171.203 130.858 185.757 116.294C200.311 101.729 220.044 93.5368 240.626 93.5135C261.209 93.537 280.941 101.729 295.495 116.294C310.049 130.858 318.236 150.605 318.259 171.202C318.236 191.799 310.05 211.546 295.496 226.11C280.942 240.674 261.209 248.867 240.626 248.89ZM240.626 95.6716C220.616 95.6942 201.431 103.659 187.281 117.819C173.132 131.979 165.173 151.177 165.15 171.202C165.173 191.227 173.132 210.425 187.281 224.585C201.431 238.744 220.616 246.709 240.626 246.732C260.637 246.709 279.822 238.744 293.971 224.585C308.121 210.425 316.08 191.227 316.103 171.202C316.08 151.177 308.121 131.979 293.971 117.819C279.822 103.659 260.637 95.6942 240.626 95.6716Z" fill="url(#paint7_linear_69_308)"/>
<path d="M239.908 287.015C176.489 287.015 124.896 235.384 124.896 171.921C124.896 108.458 176.489 56.8275 239.908 56.8275C303.326 56.8275 354.92 108.458 354.92 171.921C354.92 235.384 303.325 287.015 239.908 287.015ZM239.908 58.9855C177.678 58.9855 127.052 109.648 127.052 171.921C127.052 234.194 177.678 284.857 239.908 284.857C302.137 284.857 352.763 234.194 352.763 171.921C352.763 109.647 302.136 58.9855 239.908 58.9855Z" fill="url(#paint8_linear_69_308)"/>
</g>
<path opacity="0.243" d="M255.542 230.007C255.542 166.641 204.371 115.273 141.249 115.273C78.1267 115.273 26.9559 166.641 26.9559 230.007C26.9559 293.373 78.1267 344.741 141.249 344.741C204.371 344.741 255.542 293.373 255.542 230.007Z" fill="#29FADB"/>
<path opacity="0.311" d="M216.726 230.007C216.726 187.3 182.29 152.679 139.811 152.679C97.3328 152.679 62.8972 187.3 62.8972 230.007C62.8972 272.715 97.3328 307.336 139.811 307.336C182.29 307.336 216.726 272.715 216.726 230.007Z" fill="#29FADB"/>
<path d="M180.784 230.367C180.784 208.517 163.084 190.804 141.249 190.804C119.414 190.804 101.714 208.517 101.714 230.367C101.714 252.217 119.414 269.93 141.249 269.93C163.084 269.93 180.784 252.217 180.784 230.367Z" fill="#29FADB"/>
<g filter="url(#filter0_d_69_308)">
<path d="M25.1589 234.32C25.1589 203.128 37.5412 173.213 59.582 151.157C81.6227 129.1 111.516 116.709 142.687 116.709" stroke="#29FADB" stroke-width="10" stroke-linecap="round"/>
</g>
<g filter="url(#filter1_d_69_308)">
<path d="M214.604 219.825C219.236 237.127 216.811 255.562 207.861 271.074C198.911 286.587 184.17 297.906 166.881 302.542" stroke="#29FADB" stroke-width="10" stroke-linecap="round"/>
</g>
<path d="M148.902 171.615C148.192 169.133 145.604 167.698 143.123 168.41C140.642 169.122 139.208 171.711 139.919 174.193C140.629 176.675 143.217 178.11 145.698 177.398C148.179 176.686 149.613 174.097 148.902 171.615Z" fill="white"/>
<path d="M139.832 173.895L301.728 127.439Z" fill="#29FADB"/>
<path d="M139.832 173.895L301.728 127.439" stroke="white" stroke-dasharray="2 2"/>
<path d="M146.002 324.324C146.002 321.742 143.91 319.649 141.33 319.649C138.749 319.649 136.657 321.742 136.657 324.324C136.657 326.907 138.749 329 141.33 329C143.91 329 146.002 326.907 146.002 324.324Z" fill="white"/>
<path d="M136.656 324.014H294.389Z" fill="#29FADB"/>
<path d="M136.656 324.014H294.389" stroke="white" stroke-dasharray="2 2"/>
<path d="M146.33 231.53C146.33 228.948 144.239 226.855 141.658 226.855C139.078 226.855 136.986 228.948 136.986 231.53C136.986 234.113 139.078 236.206 141.658 236.206C144.239 236.206 146.33 234.113 146.33 231.53Z" fill="white"/>
<path d="M136.984 231.219L380 231.219Z" fill="white"/>
<path d="M136.984 231.219L380 231.219" stroke="white" stroke-dasharray="2 2"/>
<path d="M318.938 26.172V28.09H316.334V36H313.94V28.09H311.336V26.172H318.938ZM327.503 31.968C327.503 32.192 327.489 32.4253 327.461 32.668H322.043C322.081 33.1533 322.235 33.5267 322.505 33.788C322.785 34.04 323.126 34.166 323.527 34.166C324.125 34.166 324.54 33.914 324.773 33.41H327.321C327.191 33.9233 326.953 34.3853 326.607 34.796C326.271 35.2067 325.847 35.5287 325.333 35.762C324.82 35.9953 324.246 36.112 323.611 36.112C322.846 36.112 322.165 35.9487 321.567 35.622C320.97 35.2953 320.503 34.8287 320.167 34.222C319.831 33.6153 319.663 32.906 319.663 32.094C319.663 31.282 319.827 30.5727 320.153 29.966C320.489 29.3593 320.956 28.8927 321.553 28.566C322.151 28.2393 322.837 28.076 323.611 28.076C324.367 28.076 325.039 28.2347 325.627 28.552C326.215 28.8693 326.673 29.322 326.999 29.91C327.335 30.498 327.503 31.184 327.503 31.968ZM325.053 31.338C325.053 30.9273 324.913 30.6007 324.633 30.358C324.353 30.1153 324.003 29.994 323.583 29.994C323.182 29.994 322.841 30.1107 322.561 30.344C322.291 30.5773 322.123 30.9087 322.057 31.338H325.053ZM328.29 32.094C328.29 31.282 328.454 30.5727 328.78 29.966C329.116 29.3593 329.578 28.8927 330.166 28.566C330.764 28.2393 331.445 28.076 332.21 28.076C333.19 28.076 334.007 28.3327 334.66 28.846C335.323 29.3593 335.757 30.0827 335.962 31.016H333.414C333.2 30.4187 332.784 30.12 332.168 30.12C331.73 30.12 331.38 30.2927 331.118 30.638C330.857 30.974 330.726 31.4593 330.726 32.094C330.726 32.7287 330.857 33.2187 331.118 33.564C331.38 33.9 331.73 34.068 332.168 34.068C332.784 34.068 333.2 33.7693 333.414 33.172H335.962C335.757 34.0867 335.323 34.8053 334.66 35.328C333.998 35.8507 333.181 36.112 332.21 36.112C331.445 36.112 330.764 35.9487 330.166 35.622C329.578 35.2953 329.116 34.8287 328.78 34.222C328.454 33.6153 328.29 32.906 328.29 32.094ZM342.045 28.104C342.941 28.104 343.66 28.4027 344.201 29C344.742 29.588 345.013 30.4 345.013 31.436V36H342.633V31.758C342.633 31.2353 342.498 30.8293 342.227 30.54C341.956 30.2507 341.592 30.106 341.135 30.106C340.678 30.106 340.314 30.2507 340.043 30.54C339.772 30.8293 339.637 31.2353 339.637 31.758V36H337.243V25.64H339.637V29.238C339.88 28.8927 340.211 28.6173 340.631 28.412C341.051 28.2067 341.522 28.104 342.045 28.104ZM351.437 28.104C352.351 28.104 353.079 28.4027 353.621 29C354.171 29.588 354.447 30.4 354.447 31.436V36H352.067V31.758C352.067 31.2353 351.931 30.8293 351.661 30.54C351.39 30.2507 351.026 30.106 350.569 30.106C350.111 30.106 349.747 30.2507 349.477 30.54C349.206 30.8293 349.071 31.2353 349.071 31.758V36H346.677V28.188H349.071V29.224C349.313 28.8787 349.64 28.608 350.051 28.412C350.461 28.2067 350.923 28.104 351.437 28.104ZM359.666 36.112C358.901 36.112 358.21 35.9487 357.594 35.622C356.988 35.2953 356.507 34.8287 356.152 34.222C355.807 33.6153 355.634 32.906 355.634 32.094C355.634 31.2913 355.812 30.5867 356.166 29.98C356.521 29.364 357.006 28.8927 357.622 28.566C358.238 28.2393 358.929 28.076 359.694 28.076C360.46 28.076 361.15 28.2393 361.766 28.566C362.382 28.8927 362.868 29.364 363.222 29.98C363.577 30.5867 363.754 31.2913 363.754 32.094C363.754 32.8967 363.572 33.606 363.208 34.222C362.854 34.8287 362.364 35.2953 361.738 35.622C361.122 35.9487 360.432 36.112 359.666 36.112ZM359.666 34.04C360.124 34.04 360.511 33.872 360.828 33.536C361.155 33.2 361.318 32.7193 361.318 32.094C361.318 31.4687 361.16 30.988 360.842 30.652C360.534 30.316 360.152 30.148 359.694 30.148C359.228 30.148 358.84 30.316 358.532 30.652C358.224 30.9787 358.07 31.4593 358.07 32.094C358.07 32.7193 358.22 33.2 358.518 33.536C358.826 33.872 359.209 34.04 359.666 34.04ZM367.418 25.64V36H365.024V25.64H367.418ZM372.709 36.112C371.944 36.112 371.253 35.9487 370.637 35.622C370.03 35.2953 369.55 34.8287 369.195 34.222C368.85 33.6153 368.677 32.906 368.677 32.094C368.677 31.2913 368.854 30.5867 369.209 29.98C369.564 29.364 370.049 28.8927 370.665 28.566C371.281 28.2393 371.972 28.076 372.737 28.076C373.502 28.076 374.193 28.2393 374.809 28.566C375.425 28.8927 375.91 29.364 376.265 29.98C376.62 30.5867 376.797 31.2913 376.797 32.094C376.797 32.8967 376.615 33.606 376.251 34.222C375.896 34.8287 375.406 35.2953 374.781 35.622C374.165 35.9487 373.474 36.112 372.709 36.112ZM372.709 34.04C373.166 34.04 373.554 33.872 373.871 33.536C374.198 33.2 374.361 32.7193 374.361 32.094C374.361 31.4687 374.202 30.988 373.885 30.652C373.577 30.316 373.194 30.148 372.737 30.148C372.27 30.148 371.883 30.316 371.575 30.652C371.267 30.9787 371.113 31.4593 371.113 32.094C371.113 32.7193 371.262 33.2 371.561 33.536C371.869 33.872 372.252 34.04 372.709 34.04ZM381.035 28.076C381.586 28.076 382.067 28.188 382.477 28.412C382.897 28.636 383.219 28.93 383.443 29.294V28.188H385.837V35.986C385.837 36.7047 385.693 37.3533 385.403 37.932C385.123 38.52 384.689 38.9867 384.101 39.332C383.523 39.6773 382.799 39.85 381.931 39.85C380.774 39.85 379.836 39.5747 379.117 39.024C378.399 38.4827 377.988 37.7453 377.885 36.812H380.251C380.326 37.1107 380.503 37.344 380.783 37.512C381.063 37.6893 381.409 37.778 381.819 37.778C382.314 37.778 382.706 37.6333 382.995 37.344C383.294 37.064 383.443 36.6113 383.443 35.986V34.88C383.21 35.244 382.888 35.5427 382.477 35.776C382.067 36 381.586 36.112 381.035 36.112C380.391 36.112 379.808 35.9487 379.285 35.622C378.763 35.286 378.347 34.8147 378.039 34.208C377.741 33.592 377.591 32.8827 377.591 32.08C377.591 31.2773 377.741 30.5727 378.039 29.966C378.347 29.3593 378.763 28.8927 379.285 28.566C379.808 28.2393 380.391 28.076 381.035 28.076ZM383.443 32.094C383.443 31.4967 383.275 31.0253 382.939 30.68C382.613 30.3347 382.211 30.162 381.735 30.162C381.259 30.162 380.853 30.3347 380.517 30.68C380.191 31.016 380.027 31.4827 380.027 32.08C380.027 32.6773 380.191 33.1533 380.517 33.508C380.853 33.8533 381.259 34.026 381.735 34.026C382.211 34.026 382.613 33.8533 382.939 33.508C383.275 33.1627 383.443 32.6913 383.443 32.094ZM388.773 27.376C388.353 27.376 388.008 27.2547 387.737 27.012C387.476 26.76 387.345 26.452 387.345 26.088C387.345 25.7147 387.476 25.4067 387.737 25.164C388.008 24.912 388.353 24.786 388.773 24.786C389.184 24.786 389.52 24.912 389.781 25.164C390.052 25.4067 390.187 25.7147 390.187 26.088C390.187 26.452 390.052 26.76 389.781 27.012C389.52 27.2547 389.184 27.376 388.773 27.376ZM389.963 28.188V36H387.569V28.188H389.963ZM399.062 31.968C399.062 32.192 399.048 32.4253 399.02 32.668H393.602C393.639 33.1533 393.793 33.5267 394.064 33.788C394.344 34.04 394.685 34.166 395.086 34.166C395.683 34.166 396.099 33.914 396.332 33.41H398.88C398.749 33.9233 398.511 34.3853 398.166 34.796C397.83 35.2067 397.405 35.5287 396.892 35.762C396.379 35.9953 395.805 36.112 395.17 36.112C394.405 36.112 393.723 35.9487 393.126 35.622C392.529 35.2953 392.062 34.8287 391.726 34.222C391.39 33.6153 391.222 32.906 391.222 32.094C391.222 31.282 391.385 30.5727 391.712 29.966C392.048 29.3593 392.515 28.8927 393.112 28.566C393.709 28.2393 394.395 28.076 395.17 28.076C395.926 28.076 396.598 28.2347 397.186 28.552C397.774 28.8693 398.231 29.322 398.558 29.91C398.894 30.498 399.062 31.184 399.062 31.968ZM396.612 31.338C396.612 30.9273 396.472 30.6007 396.192 30.358C395.912 30.1153 395.562 29.994 395.142 29.994C394.741 29.994 394.4 30.1107 394.12 30.344C393.849 30.5773 393.681 30.9087 393.616 31.338H396.612Z" fill="white"/>
<path d="M311 73L311 167" stroke="white" stroke-width="2" stroke-linecap="round"/>
<path d="M321.516 73.812C321.516 72.996 321.7 72.264 322.068 71.616C322.436 70.96 322.936 70.448 323.568 70.08C324.208 69.712 324.916 69.528 325.692 69.528C326.604 69.528 327.4 69.748 328.08 70.188C328.76 70.628 329.256 71.252 329.568 72.06H328.26C328.028 71.556 327.692 71.168 327.252 70.896C326.82 70.624 326.3 70.488 325.692 70.488C325.108 70.488 324.584 70.624 324.12 70.896C323.656 71.168 323.292 71.556 323.028 72.06C322.764 72.556 322.632 73.14 322.632 73.812C322.632 74.476 322.764 75.06 323.028 75.564C323.292 76.06 323.656 76.444 324.12 76.716C324.584 76.988 325.108 77.124 325.692 77.124C326.3 77.124 326.82 76.992 327.252 76.728C327.692 76.456 328.028 76.068 328.26 75.564H329.568C329.256 76.364 328.76 76.984 328.08 77.424C327.4 77.856 326.604 78.072 325.692 78.072C324.916 78.072 324.208 77.892 323.568 77.532C322.936 77.164 322.436 76.656 322.068 76.008C321.7 75.36 321.516 74.628 321.516 73.812ZM339.678 69.696V78H338.586V71.808L335.826 78H335.058L332.286 71.796V78H331.194V69.696H332.37L335.442 76.56L338.514 69.696H339.678ZM344.181 78.084C343.629 78.084 343.133 77.988 342.693 77.796C342.261 77.596 341.921 77.324 341.673 76.98C341.425 76.628 341.297 76.224 341.289 75.768H342.453C342.493 76.16 342.653 76.492 342.933 76.764C343.221 77.028 343.637 77.16 344.181 77.16C344.701 77.16 345.109 77.032 345.405 76.776C345.709 76.512 345.861 76.176 345.861 75.768C345.861 75.448 345.773 75.188 345.597 74.988C345.421 74.788 345.201 74.636 344.937 74.532C344.673 74.428 344.317 74.316 343.869 74.196C343.317 74.052 342.873 73.908 342.537 73.764C342.209 73.62 341.925 73.396 341.685 73.092C341.453 72.78 341.337 72.364 341.337 71.844C341.337 71.388 341.453 70.984 341.685 70.632C341.917 70.28 342.241 70.008 342.657 69.816C343.081 69.624 343.565 69.528 344.109 69.528C344.893 69.528 345.533 69.724 346.029 70.116C346.533 70.508 346.817 71.028 346.881 71.676H345.681C345.641 71.356 345.473 71.076 345.177 70.836C344.881 70.588 344.489 70.464 344.001 70.464C343.545 70.464 343.173 70.584 342.885 70.824C342.597 71.056 342.453 71.384 342.453 71.808C342.453 72.112 342.537 72.36 342.705 72.552C342.881 72.744 343.093 72.892 343.341 72.996C343.597 73.092 343.953 73.204 344.409 73.332C344.961 73.484 345.405 73.636 345.741 73.788C346.077 73.932 346.365 74.16 346.605 74.472C346.845 74.776 346.965 75.192 346.965 75.72C346.965 76.128 346.857 76.512 346.641 76.872C346.425 77.232 346.105 77.524 345.681 77.748C345.257 77.972 344.757 78.084 344.181 78.084Z" fill="white"/>
<path d="M326.652 93.636V94.524H323.016V97.344H325.968V98.232H323.016V102H321.924V93.636H326.652ZM329.063 96.492C329.255 96.116 329.527 95.824 329.879 95.616C330.239 95.408 330.675 95.304 331.187 95.304V96.432H330.899C329.675 96.432 329.063 97.096 329.063 98.424V102H327.971V95.424H329.063V96.492ZM332.039 98.688C332.039 98.016 332.175 97.428 332.447 96.924C332.719 96.412 333.091 96.016 333.563 95.736C334.043 95.456 334.575 95.316 335.159 95.316C335.735 95.316 336.235 95.44 336.659 95.688C337.083 95.936 337.399 96.248 337.607 96.624V95.424H338.711V102H337.607V100.776C337.391 101.16 337.067 101.48 336.635 101.736C336.211 101.984 335.715 102.108 335.147 102.108C334.563 102.108 334.035 101.964 333.563 101.676C333.091 101.388 332.719 100.984 332.447 100.464C332.175 99.944 332.039 99.352 332.039 98.688ZM337.607 98.7C337.607 98.204 337.507 97.772 337.307 97.404C337.107 97.036 336.835 96.756 336.491 96.564C336.155 96.364 335.783 96.264 335.375 96.264C334.967 96.264 334.595 96.36 334.259 96.552C333.923 96.744 333.655 97.024 333.455 97.392C333.255 97.76 333.155 98.192 333.155 98.688C333.155 99.192 333.255 99.632 333.455 100.008C333.655 100.376 333.923 100.66 334.259 100.86C334.595 101.052 334.967 101.148 335.375 101.148C335.783 101.148 336.155 101.052 336.491 100.86C336.835 100.66 337.107 100.376 337.307 100.008C337.507 99.632 337.607 99.196 337.607 98.7ZM348.465 95.304C348.977 95.304 349.433 95.412 349.833 95.628C350.233 95.836 350.549 96.152 350.781 96.576C351.013 97 351.129 97.516 351.129 98.124V102H350.049V98.28C350.049 97.624 349.885 97.124 349.557 96.78C349.237 96.428 348.801 96.252 348.249 96.252C347.681 96.252 347.229 96.436 346.893 96.804C346.557 97.164 346.389 97.688 346.389 98.376V102H345.309V98.28C345.309 97.624 345.145 97.124 344.817 96.78C344.497 96.428 344.061 96.252 343.509 96.252C342.941 96.252 342.489 96.436 342.153 96.804C341.817 97.164 341.649 97.688 341.649 98.376V102H340.557V95.424H341.649V96.372C341.865 96.028 342.153 95.764 342.513 95.58C342.881 95.396 343.285 95.304 343.725 95.304C344.277 95.304 344.765 95.428 345.189 95.676C345.613 95.924 345.929 96.288 346.137 96.768C346.321 96.304 346.625 95.944 347.049 95.688C347.473 95.432 347.945 95.304 348.465 95.304ZM358.92 98.46C358.92 98.668 358.908 98.888 358.884 99.12H353.628C353.668 99.768 353.888 100.276 354.288 100.644C354.696 101.004 355.188 101.184 355.764 101.184C356.236 101.184 356.628 101.076 356.94 100.86C357.26 100.636 357.484 100.34 357.612 99.972H358.788C358.612 100.604 358.26 101.12 357.732 101.52C357.204 101.912 356.548 102.108 355.764 102.108C355.14 102.108 354.58 101.968 354.084 101.688C353.596 101.408 353.212 101.012 352.932 100.5C352.652 99.98 352.512 99.38 352.512 98.7C352.512 98.02 352.648 97.424 352.92 96.912C353.192 96.4 353.572 96.008 354.06 95.736C354.556 95.456 355.124 95.316 355.764 95.316C356.388 95.316 356.94 95.452 357.42 95.724C357.9 95.996 358.268 96.372 358.524 96.852C358.788 97.324 358.92 97.86 358.92 98.46ZM357.792 98.232C357.792 97.816 357.7 97.46 357.516 97.164C357.332 96.86 357.08 96.632 356.76 96.48C356.448 96.32 356.1 96.24 355.716 96.24C355.164 96.24 354.692 96.416 354.3 96.768C353.916 97.12 353.696 97.608 353.64 98.232H357.792ZM369.122 95.424L367.07 102H365.942L364.358 96.78L362.774 102H361.646L359.582 95.424H360.698L362.21 100.944L363.842 95.424H364.958L366.554 100.956L368.042 95.424H369.122ZM373.073 102.108C372.457 102.108 371.897 101.968 371.393 101.688C370.897 101.408 370.505 101.012 370.217 100.5C369.937 99.98 369.797 99.38 369.797 98.7C369.797 98.028 369.941 97.436 370.229 96.924C370.525 96.404 370.925 96.008 371.429 95.736C371.933 95.456 372.497 95.316 373.121 95.316C373.745 95.316 374.309 95.456 374.813 95.736C375.317 96.008 375.713 96.4 376.001 96.912C376.297 97.424 376.445 98.02 376.445 98.7C376.445 99.38 376.293 99.98 375.989 100.5C375.693 101.012 375.289 101.408 374.777 101.688C374.265 101.968 373.697 102.108 373.073 102.108ZM373.073 101.148C373.465 101.148 373.833 101.056 374.177 100.872C374.521 100.688 374.797 100.412 375.005 100.044C375.221 99.676 375.329 99.228 375.329 98.7C375.329 98.172 375.225 97.724 375.017 97.356C374.809 96.988 374.537 96.716 374.201 96.54C373.865 96.356 373.501 96.264 373.109 96.264C372.709 96.264 372.341 96.356 372.005 96.54C371.677 96.716 371.413 96.988 371.213 97.356C371.013 97.724 370.913 98.172 370.913 98.7C370.913 99.236 371.009 99.688 371.201 100.056C371.401 100.424 371.665 100.7 371.993 100.884C372.321 101.06 372.681 101.148 373.073 101.148ZM378.973 96.492C379.165 96.116 379.437 95.824 379.789 95.616C380.149 95.408 380.585 95.304 381.097 95.304V96.432H380.809C379.585 96.432 378.973 97.096 378.973 98.424V102H377.881V95.424H378.973V96.492ZM386.03 102L383.45 99.096V102H382.358V93.12H383.45V98.34L385.982 95.424H387.506L384.41 98.7L387.518 102H386.03Z" fill="white"/>
<path d="M328.5 131H327.408L323.016 124.34V131H321.924V122.624H323.016L327.408 129.272V122.624H328.5V131ZM333.23 131.108C332.614 131.108 332.054 130.968 331.55 130.688C331.054 130.408 330.662 130.012 330.374 129.5C330.094 128.98 329.954 128.38 329.954 127.7C329.954 127.028 330.098 126.436 330.386 125.924C330.682 125.404 331.082 125.008 331.586 124.736C332.09 124.456 332.654 124.316 333.278 124.316C333.902 124.316 334.466 124.456 334.97 124.736C335.474 125.008 335.87 125.4 336.158 125.912C336.454 126.424 336.602 127.02 336.602 127.7C336.602 128.38 336.45 128.98 336.146 129.5C335.85 130.012 335.446 130.408 334.934 130.688C334.422 130.968 333.854 131.108 333.23 131.108ZM333.23 130.148C333.622 130.148 333.99 130.056 334.334 129.872C334.678 129.688 334.954 129.412 335.162 129.044C335.378 128.676 335.486 128.228 335.486 127.7C335.486 127.172 335.382 126.724 335.174 126.356C334.966 125.988 334.694 125.716 334.358 125.54C334.022 125.356 333.658 125.264 333.266 125.264C332.866 125.264 332.498 125.356 332.162 125.54C331.834 125.716 331.57 125.988 331.37 126.356C331.17 126.724 331.07 127.172 331.07 127.7C331.07 128.236 331.166 128.688 331.358 129.056C331.558 129.424 331.822 129.7 332.15 129.884C332.478 130.06 332.838 130.148 333.23 130.148ZM340.829 127.7C340.829 127.02 340.965 126.428 341.237 125.924C341.509 125.412 341.885 125.016 342.365 124.736C342.853 124.456 343.409 124.316 344.033 124.316C344.841 124.316 345.505 124.512 346.025 124.904C346.553 125.296 346.901 125.84 347.069 126.536H345.893C345.781 126.136 345.561 125.82 345.233 125.588C344.913 125.356 344.513 125.24 344.033 125.24C343.409 125.24 342.905 125.456 342.521 125.888C342.137 126.312 341.945 126.916 341.945 127.7C341.945 128.492 342.137 129.104 342.521 129.536C342.905 129.968 343.409 130.184 344.033 130.184C344.513 130.184 344.913 130.072 345.233 129.848C345.553 129.624 345.773 129.304 345.893 128.888H347.069C346.893 129.56 346.541 130.1 346.013 130.508C345.485 130.908 344.825 131.108 344.033 131.108C343.409 131.108 342.853 130.968 342.365 130.688C341.885 130.408 341.509 130.012 341.237 129.5C340.965 128.988 340.829 128.388 340.829 127.7ZM351.394 131.108C350.778 131.108 350.218 130.968 349.714 130.688C349.218 130.408 348.826 130.012 348.538 129.5C348.258 128.98 348.118 128.38 348.118 127.7C348.118 127.028 348.262 126.436 348.55 125.924C348.846 125.404 349.246 125.008 349.75 124.736C350.254 124.456 350.818 124.316 351.442 124.316C352.066 124.316 352.63 124.456 353.134 124.736C353.638 125.008 354.034 125.4 354.322 125.912C354.618 126.424 354.766 127.02 354.766 127.7C354.766 128.38 354.614 128.98 354.31 129.5C354.014 130.012 353.61 130.408 353.098 130.688C352.586 130.968 352.018 131.108 351.394 131.108ZM351.394 130.148C351.786 130.148 352.154 130.056 352.498 129.872C352.842 129.688 353.118 129.412 353.326 129.044C353.542 128.676 353.65 128.228 353.65 127.7C353.65 127.172 353.546 126.724 353.338 126.356C353.13 125.988 352.858 125.716 352.522 125.54C352.186 125.356 351.822 125.264 351.43 125.264C351.03 125.264 350.662 125.356 350.326 125.54C349.998 125.716 349.734 125.988 349.534 126.356C349.334 126.724 349.234 127.172 349.234 127.7C349.234 128.236 349.33 128.688 349.522 129.056C349.722 129.424 349.986 129.7 350.314 129.884C350.642 130.06 351.002 130.148 351.394 130.148ZM355.793 127.688C355.793 127.016 355.929 126.428 356.201 125.924C356.473 125.412 356.845 125.016 357.317 124.736C357.797 124.456 358.333 124.316 358.925 124.316C359.437 124.316 359.913 124.436 360.353 124.676C360.793 124.908 361.129 125.216 361.361 125.6V122.12H362.465V131H361.361V129.764C361.145 130.156 360.825 130.48 360.401 130.736C359.977 130.984 359.481 131.108 358.913 131.108C358.329 131.108 357.797 130.964 357.317 130.676C356.845 130.388 356.473 129.984 356.201 129.464C355.929 128.944 355.793 128.352 355.793 127.688ZM361.361 127.7C361.361 127.204 361.261 126.772 361.061 126.404C360.861 126.036 360.589 125.756 360.245 125.564C359.909 125.364 359.537 125.264 359.129 125.264C358.721 125.264 358.349 125.36 358.013 125.552C357.677 125.744 357.409 126.024 357.209 126.392C357.009 126.76 356.909 127.192 356.909 127.688C356.909 128.192 357.009 128.632 357.209 129.008C357.409 129.376 357.677 129.66 358.013 129.86C358.349 130.052 358.721 130.148 359.129 130.148C359.537 130.148 359.909 130.052 360.245 129.86C360.589 129.66 360.861 129.376 361.061 129.008C361.261 128.632 361.361 128.196 361.361 127.7ZM370.311 127.46C370.311 127.668 370.299 127.888 370.275 128.12H365.019C365.059 128.768 365.279 129.276 365.679 129.644C366.087 130.004 366.579 130.184 367.155 130.184C367.627 130.184 368.019 130.076 368.331 129.86C368.651 129.636 368.875 129.34 369.003 128.972H370.179C370.003 129.604 369.651 130.12 369.123 130.52C368.595 130.912 367.939 131.108 367.155 131.108C366.531 131.108 365.971 130.968 365.475 130.688C364.987 130.408 364.603 130.012 364.323 129.5C364.043 128.98 363.903 128.38 363.903 127.7C363.903 127.02 364.039 126.424 364.311 125.912C364.583 125.4 364.963 125.008 365.451 124.736C365.947 124.456 366.515 124.316 367.155 124.316C367.779 124.316 368.331 124.452 368.811 124.724C369.291 124.996 369.659 125.372 369.915 125.852C370.179 126.324 370.311 126.86 370.311 127.46ZM369.183 127.232C369.183 126.816 369.091 126.46 368.907 126.164C368.723 125.86 368.471 125.632 368.151 125.48C367.839 125.32 367.491 125.24 367.107 125.24C366.555 125.24 366.083 125.416 365.691 125.768C365.307 126.12 365.087 126.608 365.031 127.232H369.183Z" fill="white"/>
<path d="M326.652 154.636V155.524H323.016V158.344H325.968V159.232H323.016V163H321.924V154.636H326.652ZM329.063 157.492C329.255 157.116 329.527 156.824 329.879 156.616C330.239 156.408 330.675 156.304 331.187 156.304V157.432H330.899C329.675 157.432 329.063 158.096 329.063 159.424V163H327.971V156.424H329.063V157.492ZM335.315 163.108C334.699 163.108 334.139 162.968 333.635 162.688C333.139 162.408 332.747 162.012 332.459 161.5C332.179 160.98 332.039 160.38 332.039 159.7C332.039 159.028 332.183 158.436 332.471 157.924C332.767 157.404 333.167 157.008 333.671 156.736C334.175 156.456 334.739 156.316 335.363 156.316C335.987 156.316 336.551 156.456 337.055 156.736C337.559 157.008 337.955 157.4 338.243 157.912C338.539 158.424 338.687 159.02 338.687 159.7C338.687 160.38 338.535 160.98 338.231 161.5C337.935 162.012 337.531 162.408 337.019 162.688C336.507 162.968 335.939 163.108 335.315 163.108ZM335.315 162.148C335.707 162.148 336.075 162.056 336.419 161.872C336.763 161.688 337.039 161.412 337.247 161.044C337.463 160.676 337.571 160.228 337.571 159.7C337.571 159.172 337.467 158.724 337.259 158.356C337.051 157.988 336.779 157.716 336.443 157.54C336.107 157.356 335.743 157.264 335.351 157.264C334.951 157.264 334.583 157.356 334.247 157.54C333.919 157.716 333.655 157.988 333.455 158.356C333.255 158.724 333.155 159.172 333.155 159.7C333.155 160.236 333.251 160.688 333.443 161.056C333.643 161.424 333.907 161.7 334.235 161.884C334.563 162.06 334.923 162.148 335.315 162.148ZM348.031 156.304C348.543 156.304 348.999 156.412 349.399 156.628C349.799 156.836 350.115 157.152 350.347 157.576C350.579 158 350.695 158.516 350.695 159.124V163H349.615V159.28C349.615 158.624 349.451 158.124 349.123 157.78C348.803 157.428 348.367 157.252 347.815 157.252C347.247 157.252 346.795 157.436 346.459 157.804C346.123 158.164 345.955 158.688 345.955 159.376V163H344.875V159.28C344.875 158.624 344.711 158.124 344.383 157.78C344.063 157.428 343.627 157.252 343.075 157.252C342.507 157.252 342.055 157.436 341.719 157.804C341.383 158.164 341.215 158.688 341.215 159.376V163H340.123V156.424H341.215V157.372C341.431 157.028 341.719 156.764 342.079 156.58C342.447 156.396 342.851 156.304 343.291 156.304C343.843 156.304 344.331 156.428 344.755 156.676C345.179 156.924 345.495 157.288 345.703 157.768C345.887 157.304 346.191 156.944 346.615 156.688C347.039 156.432 347.511 156.304 348.031 156.304ZM358.014 163.108C357.51 163.108 357.058 163.024 356.658 162.856C356.258 162.68 355.942 162.44 355.71 162.136C355.478 161.824 355.35 161.468 355.326 161.068H356.454C356.486 161.396 356.638 161.664 356.91 161.872C357.19 162.08 357.554 162.184 358.002 162.184C358.418 162.184 358.746 162.092 358.986 161.908C359.226 161.724 359.346 161.492 359.346 161.212C359.346 160.924 359.218 160.712 358.962 160.576C358.706 160.432 358.31 160.292 357.774 160.156C357.286 160.028 356.886 159.9 356.574 159.772C356.27 159.636 356.006 159.44 355.782 159.184C355.566 158.92 355.458 158.576 355.458 158.152C355.458 157.816 355.558 157.508 355.758 157.228C355.958 156.948 356.242 156.728 356.61 156.568C356.978 156.4 357.398 156.316 357.87 156.316C358.598 156.316 359.186 156.5 359.634 156.868C360.082 157.236 360.322 157.74 360.354 158.38H359.262C359.238 158.036 359.098 157.76 358.842 157.552C358.594 157.344 358.258 157.24 357.834 157.24C357.442 157.24 357.13 157.324 356.898 157.492C356.666 157.66 356.55 157.88 356.55 158.152C356.55 158.368 356.618 158.548 356.754 158.692C356.898 158.828 357.074 158.94 357.282 159.028C357.498 159.108 357.794 159.2 358.17 159.304C358.642 159.432 359.026 159.56 359.322 159.688C359.618 159.808 359.87 159.992 360.078 160.24C360.294 160.488 360.406 160.812 360.414 161.212C360.414 161.572 360.314 161.896 360.114 162.184C359.914 162.472 359.63 162.7 359.262 162.868C358.902 163.028 358.486 163.108 358.014 163.108ZM361.547 159.7C361.547 159.02 361.683 158.428 361.955 157.924C362.227 157.412 362.603 157.016 363.083 156.736C363.571 156.456 364.127 156.316 364.751 156.316C365.559 156.316 366.223 156.512 366.743 156.904C367.271 157.296 367.619 157.84 367.787 158.536H366.611C366.499 158.136 366.279 157.82 365.951 157.588C365.631 157.356 365.231 157.24 364.751 157.24C364.127 157.24 363.623 157.456 363.239 157.888C362.855 158.312 362.663 158.916 362.663 159.7C362.663 160.492 362.855 161.104 363.239 161.536C363.623 161.968 364.127 162.184 364.751 162.184C365.231 162.184 365.631 162.072 365.951 161.848C366.271 161.624 366.491 161.304 366.611 160.888H367.787C367.611 161.56 367.259 162.1 366.731 162.508C366.203 162.908 365.543 163.108 364.751 163.108C364.127 163.108 363.571 162.968 363.083 162.688C362.603 162.408 362.227 162.012 361.955 161.5C361.683 160.988 361.547 160.388 361.547 159.7ZM370.336 157.492C370.528 157.116 370.8 156.824 371.152 156.616C371.512 156.408 371.948 156.304 372.46 156.304V157.432H372.172C370.948 157.432 370.336 158.096 370.336 159.424V163H369.244V156.424H370.336V157.492ZM373.313 159.688C373.313 159.016 373.449 158.428 373.721 157.924C373.993 157.412 374.365 157.016 374.837 156.736C375.317 156.456 375.849 156.316 376.433 156.316C377.009 156.316 377.509 156.44 377.933 156.688C378.357 156.936 378.673 157.248 378.881 157.624V156.424H379.985V163H378.881V161.776C378.665 162.16 378.341 162.48 377.909 162.736C377.485 162.984 376.989 163.108 376.421 163.108C375.837 163.108 375.309 162.964 374.837 162.676C374.365 162.388 373.993 161.984 373.721 161.464C373.449 160.944 373.313 160.352 373.313 159.688ZM378.881 159.7C378.881 159.204 378.781 158.772 378.581 158.404C378.381 158.036 378.109 157.756 377.765 157.564C377.429 157.364 377.057 157.264 376.649 157.264C376.241 157.264 375.869 157.36 375.533 157.552C375.197 157.744 374.929 158.024 374.729 158.392C374.529 158.76 374.429 159.192 374.429 159.688C374.429 160.192 374.529 160.632 374.729 161.008C374.929 161.376 375.197 161.66 375.533 161.86C375.869 162.052 376.241 162.148 376.649 162.148C377.057 162.148 377.429 162.052 377.765 161.86C378.109 161.66 378.381 161.376 378.581 161.008C378.781 160.632 378.881 160.196 378.881 159.7ZM383.162 157.324V161.2C383.162 161.52 383.23 161.748 383.366 161.884C383.502 162.012 383.738 162.076 384.074 162.076H384.878V163H383.894C383.286 163 382.83 162.86 382.526 162.58C382.222 162.3 382.07 161.84 382.07 161.2V157.324H381.218V156.424H382.07V154.768H383.162V156.424H384.878V157.324H383.162ZM385.793 159.7C385.793 159.02 385.929 158.428 386.201 157.924C386.473 157.412 386.849 157.016 387.329 156.736C387.817 156.456 388.373 156.316 388.997 156.316C389.805 156.316 390.469 156.512 390.989 156.904C391.517 157.296 391.865 157.84 392.033 158.536H390.857C390.745 158.136 390.525 157.82 390.197 157.588C389.877 157.356 389.477 157.24 388.997 157.24C388.373 157.24 387.869 157.456 387.485 157.888C387.101 158.312 386.909 158.916 386.909 159.7C386.909 160.492 387.101 161.104 387.485 161.536C387.869 161.968 388.373 162.184 388.997 162.184C389.477 162.184 389.877 162.072 390.197 161.848C390.517 161.624 390.737 161.304 390.857 160.888H392.033C391.857 161.56 391.505 162.1 390.977 162.508C390.449 162.908 389.789 163.108 388.997 163.108C388.373 163.108 387.817 162.968 387.329 162.688C386.849 162.408 386.473 162.012 386.201 161.5C385.929 160.988 385.793 160.388 385.793 159.7ZM396.754 156.304C397.25 156.304 397.698 156.412 398.098 156.628C398.498 156.836 398.81 157.152 399.034 157.576C399.266 158 399.382 158.516 399.382 159.124V163H398.302V159.28C398.302 158.624 398.138 158.124 397.81 157.78C397.482 157.428 397.034 157.252 396.466 157.252C395.89 157.252 395.43 157.432 395.086 157.792C394.75 158.152 394.582 158.676 394.582 159.364V163H393.49V154.12H394.582V157.36C394.798 157.024 395.094 156.764 395.47 156.58C395.854 156.396 396.282 156.304 396.754 156.304Z" fill="white"/>
<path d="M306.424 298.098C305.705 298.098 305.061 297.981 304.492 297.748C303.923 297.515 303.465 297.169 303.12 296.712C302.784 296.255 302.607 295.704 302.588 295.06H305.136C305.173 295.424 305.299 295.704 305.514 295.9C305.729 296.087 306.009 296.18 306.354 296.18C306.709 296.18 306.989 296.101 307.194 295.942C307.399 295.774 307.502 295.545 307.502 295.256C307.502 295.013 307.418 294.813 307.25 294.654C307.091 294.495 306.891 294.365 306.648 294.262C306.415 294.159 306.079 294.043 305.64 293.912C305.005 293.716 304.487 293.52 304.086 293.324C303.685 293.128 303.339 292.839 303.05 292.456C302.761 292.073 302.616 291.574 302.616 290.958C302.616 290.043 302.947 289.329 303.61 288.816C304.273 288.293 305.136 288.032 306.2 288.032C307.283 288.032 308.155 288.293 308.818 288.816C309.481 289.329 309.835 290.048 309.882 290.972H307.292C307.273 290.655 307.157 290.407 306.942 290.23C306.727 290.043 306.452 289.95 306.116 289.95C305.827 289.95 305.593 290.029 305.416 290.188C305.239 290.337 305.15 290.557 305.15 290.846C305.15 291.163 305.299 291.411 305.598 291.588C305.897 291.765 306.363 291.957 306.998 292.162C307.633 292.377 308.146 292.582 308.538 292.778C308.939 292.974 309.285 293.259 309.574 293.632C309.863 294.005 310.008 294.486 310.008 295.074C310.008 295.634 309.863 296.143 309.574 296.6C309.294 297.057 308.883 297.421 308.342 297.692C307.801 297.963 307.161 298.098 306.424 298.098ZM319.195 290.188V298H316.801V296.936C316.559 297.281 316.227 297.561 315.807 297.776C315.397 297.981 314.939 298.084 314.435 298.084C313.838 298.084 313.311 297.953 312.853 297.692C312.396 297.421 312.041 297.034 311.789 296.53C311.537 296.026 311.411 295.433 311.411 294.752V290.188H313.791V294.43C313.791 294.953 313.927 295.359 314.197 295.648C314.468 295.937 314.832 296.082 315.289 296.082C315.756 296.082 316.125 295.937 316.395 295.648C316.666 295.359 316.801 294.953 316.801 294.43V290.188H319.195ZM323.309 291.294C323.542 290.93 323.864 290.636 324.275 290.412C324.686 290.188 325.166 290.076 325.717 290.076C326.361 290.076 326.944 290.239 327.467 290.566C327.99 290.893 328.4 291.359 328.699 291.966C329.007 292.573 329.161 293.277 329.161 294.08C329.161 294.883 329.007 295.592 328.699 296.208C328.4 296.815 327.99 297.286 327.467 297.622C326.944 297.949 326.361 298.112 325.717 298.112C325.176 298.112 324.695 298 324.275 297.776C323.864 297.552 323.542 297.263 323.309 296.908V301.724H320.915V290.188H323.309V291.294ZM326.725 294.08C326.725 293.483 326.557 293.016 326.221 292.68C325.894 292.335 325.488 292.162 325.003 292.162C324.527 292.162 324.121 292.335 323.785 292.68C323.458 293.025 323.295 293.497 323.295 294.094C323.295 294.691 323.458 295.163 323.785 295.508C324.121 295.853 324.527 296.026 325.003 296.026C325.479 296.026 325.885 295.853 326.221 295.508C326.557 295.153 326.725 294.677 326.725 294.08ZM332.811 291.294C333.044 290.93 333.366 290.636 333.777 290.412C334.187 290.188 334.668 290.076 335.219 290.076C335.863 290.076 336.446 290.239 336.969 290.566C337.491 290.893 337.902 291.359 338.201 291.966C338.509 292.573 338.663 293.277 338.663 294.08C338.663 294.883 338.509 295.592 338.201 296.208C337.902 296.815 337.491 297.286 336.969 297.622C336.446 297.949 335.863 298.112 335.219 298.112C334.677 298.112 334.197 298 333.777 297.776C333.366 297.552 333.044 297.263 332.811 296.908V301.724H330.417V290.188H332.811V291.294ZM336.227 294.08C336.227 293.483 336.059 293.016 335.723 292.68C335.396 292.335 334.99 292.162 334.505 292.162C334.029 292.162 333.623 292.335 333.287 292.68C332.96 293.025 332.797 293.497 332.797 294.094C332.797 294.691 332.96 295.163 333.287 295.508C333.623 295.853 334.029 296.026 334.505 296.026C334.981 296.026 335.387 295.853 335.723 295.508C336.059 295.153 336.227 294.677 336.227 294.08ZM343.475 298.112C342.709 298.112 342.019 297.949 341.403 297.622C340.796 297.295 340.315 296.829 339.961 296.222C339.615 295.615 339.443 294.906 339.443 294.094C339.443 293.291 339.62 292.587 339.975 291.98C340.329 291.364 340.815 290.893 341.431 290.566C342.047 290.239 342.737 290.076 343.503 290.076C344.268 290.076 344.959 290.239 345.575 290.566C346.191 290.893 346.676 291.364 347.031 291.98C347.385 292.587 347.563 293.291 347.563 294.094C347.563 294.897 347.381 295.606 347.017 296.222C346.662 296.829 346.172 297.295 345.547 297.622C344.931 297.949 344.24 298.112 343.475 298.112ZM343.475 296.04C343.932 296.04 344.319 295.872 344.637 295.536C344.963 295.2 345.127 294.719 345.127 294.094C345.127 293.469 344.968 292.988 344.651 292.652C344.343 292.316 343.96 292.148 343.503 292.148C343.036 292.148 342.649 292.316 342.341 292.652C342.033 292.979 341.879 293.459 341.879 294.094C341.879 294.719 342.028 295.2 342.327 295.536C342.635 295.872 343.017 296.04 343.475 296.04ZM351.227 291.49C351.507 291.061 351.857 290.725 352.277 290.482C352.697 290.23 353.164 290.104 353.677 290.104V292.638H353.019C352.422 292.638 351.974 292.769 351.675 293.03C351.376 293.282 351.227 293.73 351.227 294.374V298H348.833V290.188H351.227V291.49ZM359.175 295.97V298H357.957C357.089 298 356.412 297.79 355.927 297.37C355.442 296.941 355.199 296.245 355.199 295.284V292.176H354.247V290.188H355.199V288.284H357.593V290.188H359.161V292.176H357.593V295.312C357.593 295.545 357.649 295.713 357.761 295.816C357.873 295.919 358.06 295.97 358.321 295.97H359.175Z" fill="white"/>
<path d="M302 335L302 429" stroke="white" stroke-width="2" stroke-linecap="round"/>
<path d="M323.436 331.636L321.012 340H319.788L317.844 333.268L315.828 340L314.616 340.012L312.276 331.636H313.44L315.264 338.728L317.28 331.636H318.504L320.424 338.704L322.26 331.636H323.436ZM330.631 336.46C330.631 336.668 330.619 336.888 330.595 337.12H325.339C325.379 337.768 325.599 338.276 325.999 338.644C326.407 339.004 326.899 339.184 327.475 339.184C327.947 339.184 328.339 339.076 328.651 338.86C328.971 338.636 329.195 338.34 329.323 337.972H330.499C330.323 338.604 329.971 339.12 329.443 339.52C328.915 339.912 328.259 340.108 327.475 340.108C326.851 340.108 326.291 339.968 325.795 339.688C325.307 339.408 324.923 339.012 324.643 338.5C324.363 337.98 324.223 337.38 324.223 336.7C324.223 336.02 324.359 335.424 324.631 334.912C324.903 334.4 325.283 334.008 325.771 333.736C326.267 333.456 326.835 333.316 327.475 333.316C328.099 333.316 328.651 333.452 329.131 333.724C329.611 333.996 329.979 334.372 330.235 334.852C330.499 335.324 330.631 335.86 330.631 336.46ZM329.503 336.232C329.503 335.816 329.411 335.46 329.227 335.164C329.043 334.86 328.791 334.632 328.471 334.48C328.159 334.32 327.811 334.24 327.427 334.24C326.875 334.24 326.403 334.416 326.011 334.768C325.627 335.12 325.407 335.608 325.351 336.232H329.503ZM333.164 334.648C333.388 334.256 333.716 333.936 334.148 333.688C334.58 333.44 335.072 333.316 335.624 333.316C336.216 333.316 336.748 333.456 337.22 333.736C337.692 334.016 338.064 334.412 338.336 334.924C338.608 335.428 338.744 336.016 338.744 336.688C338.744 337.352 338.608 337.944 338.336 338.464C338.064 338.984 337.688 339.388 337.208 339.676C336.736 339.964 336.208 340.108 335.624 340.108C335.056 340.108 334.556 339.984 334.124 339.736C333.7 339.488 333.38 339.172 333.164 338.788V340H332.072V331.12H333.164V334.648ZM337.628 336.688C337.628 336.192 337.528 335.76 337.328 335.392C337.128 335.024 336.856 334.744 336.512 334.552C336.176 334.36 335.804 334.264 335.396 334.264C334.996 334.264 334.624 334.364 334.28 334.564C333.944 334.756 333.672 335.04 333.464 335.416C333.264 335.784 333.164 336.212 333.164 336.7C333.164 337.196 333.264 337.632 333.464 338.008C333.672 338.376 333.944 338.66 334.28 338.86C334.624 339.052 334.996 339.148 335.396 339.148C335.804 339.148 336.176 339.052 336.512 338.86C336.856 338.66 337.128 338.376 337.328 338.008C337.528 337.632 337.628 337.192 337.628 336.688Z" fill="white"/>
<path d="M317.868 362.14H314.22L313.548 364H312.396L315.42 355.684H316.68L319.692 364H318.54L317.868 362.14ZM317.556 361.252L316.044 357.028L314.532 361.252H317.556ZM322.102 358.636C322.318 358.26 322.638 357.948 323.062 357.7C323.494 357.444 323.994 357.316 324.562 357.316C325.146 357.316 325.674 357.456 326.146 357.736C326.626 358.016 327.002 358.412 327.274 358.924C327.546 359.428 327.682 360.016 327.682 360.688C327.682 361.352 327.546 361.944 327.274 362.464C327.002 362.984 326.626 363.388 326.146 363.676C325.674 363.964 325.146 364.108 324.562 364.108C324.002 364.108 323.506 363.984 323.074 363.736C322.65 363.48 322.326 363.164 322.102 362.788V367.12H321.01V357.424H322.102V358.636ZM326.566 360.688C326.566 360.192 326.466 359.76 326.266 359.392C326.066 359.024 325.794 358.744 325.45 358.552C325.114 358.36 324.742 358.264 324.334 358.264C323.934 358.264 323.562 358.364 323.218 358.564C322.882 358.756 322.61 359.04 322.402 359.416C322.202 359.784 322.102 360.212 322.102 360.7C322.102 361.196 322.202 361.632 322.402 362.008C322.61 362.376 322.882 362.66 323.218 362.86C323.562 363.052 323.934 363.148 324.334 363.148C324.742 363.148 325.114 363.052 325.45 362.86C325.794 362.66 326.066 362.376 326.266 362.008C326.466 361.632 326.566 361.192 326.566 360.688ZM330.211 358.636C330.427 358.26 330.747 357.948 331.171 357.7C331.603 357.444 332.103 357.316 332.671 357.316C333.255 357.316 333.783 357.456 334.255 357.736C334.735 358.016 335.111 358.412 335.383 358.924C335.655 359.428 335.791 360.016 335.791 360.688C335.791 361.352 335.655 361.944 335.383 362.464C335.111 362.984 334.735 363.388 334.255 363.676C333.783 363.964 333.255 364.108 332.671 364.108C332.111 364.108 331.615 363.984 331.183 363.736C330.759 363.48 330.435 363.164 330.211 362.788V367.12H329.119V357.424H330.211V358.636ZM334.675 360.688C334.675 360.192 334.575 359.76 334.375 359.392C334.175 359.024 333.903 358.744 333.559 358.552C333.223 358.36 332.851 358.264 332.443 358.264C332.043 358.264 331.671 358.364 331.327 358.564C330.991 358.756 330.719 359.04 330.511 359.416C330.311 359.784 330.211 360.212 330.211 360.7C330.211 361.196 330.311 361.632 330.511 362.008C330.719 362.376 330.991 362.66 331.327 362.86C331.671 363.052 332.043 363.148 332.443 363.148C332.851 363.148 333.223 363.052 333.559 362.86C333.903 362.66 334.175 362.376 334.375 362.008C334.575 361.632 334.675 361.192 334.675 360.688ZM338.321 355.12V364H337.229V355.12H338.321ZM340.746 356.356C340.538 356.356 340.362 356.284 340.218 356.14C340.074 355.996 340.002 355.82 340.002 355.612C340.002 355.404 340.074 355.228 340.218 355.084C340.362 354.94 340.538 354.868 340.746 354.868C340.946 354.868 341.114 354.94 341.25 355.084C341.394 355.228 341.466 355.404 341.466 355.612C341.466 355.82 341.394 355.996 341.25 356.14C341.114 356.284 340.946 356.356 340.746 356.356ZM341.274 357.424V364H340.182V357.424H341.274ZM342.727 360.7C342.727 360.02 342.863 359.428 343.135 358.924C343.407 358.412 343.783 358.016 344.263 357.736C344.751 357.456 345.307 357.316 345.931 357.316C346.739 357.316 347.403 357.512 347.923 357.904C348.451 358.296 348.799 358.84 348.967 359.536H347.791C347.679 359.136 347.459 358.82 347.131 358.588C346.811 358.356 346.411 358.24 345.931 358.24C345.307 358.24 344.803 358.456 344.419 358.888C344.035 359.312 343.843 359.916 343.843 360.7C343.843 361.492 344.035 362.104 344.419 362.536C344.803 362.968 345.307 363.184 345.931 363.184C346.411 363.184 346.811 363.072 347.131 362.848C347.451 362.624 347.671 362.304 347.791 361.888H348.967C348.791 362.56 348.439 363.1 347.911 363.508C347.383 363.908 346.723 364.108 345.931 364.108C345.307 364.108 344.751 363.968 344.263 363.688C343.783 363.408 343.407 363.012 343.135 362.5C342.863 361.988 342.727 361.388 342.727 360.7ZM350.016 360.688C350.016 360.016 350.152 359.428 350.424 358.924C350.696 358.412 351.068 358.016 351.54 357.736C352.02 357.456 352.552 357.316 353.136 357.316C353.712 357.316 354.212 357.44 354.636 357.688C355.06 357.936 355.376 358.248 355.584 358.624V357.424H356.688V364H355.584V362.776C355.368 363.16 355.044 363.48 354.612 363.736C354.188 363.984 353.692 364.108 353.124 364.108C352.54 364.108 352.012 363.964 351.54 363.676C351.068 363.388 350.696 362.984 350.424 362.464C350.152 361.944 350.016 361.352 350.016 360.688ZM355.584 360.7C355.584 360.204 355.484 359.772 355.284 359.404C355.084 359.036 354.812 358.756 354.468 358.564C354.132 358.364 353.76 358.264 353.352 358.264C352.944 358.264 352.572 358.36 352.236 358.552C351.9 358.744 351.632 359.024 351.432 359.392C351.232 359.76 351.132 360.192 351.132 360.688C351.132 361.192 351.232 361.632 351.432 362.008C351.632 362.376 351.9 362.66 352.236 362.86C352.572 363.052 352.944 363.148 353.352 363.148C353.76 363.148 354.132 363.052 354.468 362.86C354.812 362.66 355.084 362.376 355.284 362.008C355.484 361.632 355.584 361.196 355.584 360.7ZM359.865 358.324V362.2C359.865 362.52 359.933 362.748 360.069 362.884C360.205 363.012 360.441 363.076 360.777 363.076H361.581V364H360.597C359.989 364 359.533 363.86 359.229 363.58C358.925 363.3 358.773 362.84 358.773 362.2V358.324H357.921V357.424H358.773V355.768H359.865V357.424H361.581V358.324H359.865ZM363.468 356.356C363.26 356.356 363.084 356.284 362.94 356.14C362.796 355.996 362.724 355.82 362.724 355.612C362.724 355.404 362.796 355.228 362.94 355.084C363.084 354.94 363.26 354.868 363.468 354.868C363.668 354.868 363.836 354.94 363.972 355.084C364.116 355.228 364.188 355.404 364.188 355.612C364.188 355.82 364.116 355.996 363.972 356.14C363.836 356.284 363.668 356.356 363.468 356.356ZM363.996 357.424V364H362.904V357.424H363.996ZM368.726 364.108C368.11 364.108 367.55 363.968 367.046 363.688C366.55 363.408 366.158 363.012 365.87 362.5C365.59 361.98 365.45 361.38 365.45 360.7C365.45 360.028 365.594 359.436 365.882 358.924C366.178 358.404 366.578 358.008 367.082 357.736C367.586 357.456 368.15 357.316 368.774 357.316C369.398 357.316 369.962 357.456 370.466 357.736C370.97 358.008 371.366 358.4 371.654 358.912C371.95 359.424 372.098 360.02 372.098 360.7C372.098 361.38 371.946 361.98 371.642 362.5C371.346 363.012 370.942 363.408 370.43 363.688C369.918 363.968 369.35 364.108 368.726 364.108ZM368.726 363.148C369.118 363.148 369.486 363.056 369.83 362.872C370.174 362.688 370.45 362.412 370.658 362.044C370.874 361.676 370.982 361.228 370.982 360.7C370.982 360.172 370.878 359.724 370.67 359.356C370.462 358.988 370.19 358.716 369.854 358.54C369.518 358.356 369.154 358.264 368.762 358.264C368.362 358.264 367.994 358.356 367.658 358.54C367.33 358.716 367.066 358.988 366.866 359.356C366.666 359.724 366.566 360.172 366.566 360.7C366.566 361.236 366.662 361.688 366.854 362.056C367.054 362.424 367.318 362.7 367.646 362.884C367.974 363.06 368.334 363.148 368.726 363.148ZM376.737 357.304C377.537 357.304 378.185 357.548 378.681 358.036C379.177 358.516 379.425 359.212 379.425 360.124V364H378.345V360.28C378.345 359.624 378.181 359.124 377.853 358.78C377.525 358.428 377.077 358.252 376.509 358.252C375.933 358.252 375.473 358.432 375.129 358.792C374.793 359.152 374.625 359.676 374.625 360.364V364H373.533V357.424H374.625V358.36C374.841 358.024 375.133 357.764 375.501 357.58C375.877 357.396 376.289 357.304 376.737 357.304ZM392.316 357.304C392.828 357.304 393.284 357.412 393.684 357.628C394.084 357.836 394.4 358.152 394.632 358.576C394.864 359 394.98 359.516 394.98 360.124V364H393.9V360.28C393.9 359.624 393.736 359.124 393.408 358.78C393.088 358.428 392.652 358.252 392.1 358.252C391.532 358.252 391.08 358.436 390.744 358.804C390.408 359.164 390.24 359.688 390.24 360.376V364H389.16V360.28C389.16 359.624 388.996 359.124 388.668 358.78C388.348 358.428 387.912 358.252 387.36 358.252C386.792 358.252 386.34 358.436 386.004 358.804C385.668 359.164 385.5 359.688 385.5 360.376V364H384.408V357.424H385.5V358.372C385.716 358.028 386.004 357.764 386.364 357.58C386.732 357.396 387.136 357.304 387.576 357.304C388.128 357.304 388.616 357.428 389.04 357.676C389.464 357.924 389.78 358.288 389.988 358.768C390.172 358.304 390.476 357.944 390.9 357.688C391.324 357.432 391.796 357.304 392.316 357.304ZM399.64 364.108C399.024 364.108 398.464 363.968 397.96 363.688C397.464 363.408 397.072 363.012 396.784 362.5C396.504 361.98 396.364 361.38 396.364 360.7C396.364 360.028 396.508 359.436 396.796 358.924C397.092 358.404 397.492 358.008 397.996 357.736C398.5 357.456 399.064 357.316 399.688 357.316C400.312 357.316 400.876 357.456 401.38 357.736C401.884 358.008 402.28 358.4 402.568 358.912C402.864 359.424 403.012 360.02 403.012 360.7C403.012 361.38 402.86 361.98 402.556 362.5C402.26 363.012 401.856 363.408 401.344 363.688C400.832 363.968 400.264 364.108 399.64 364.108ZM399.64 363.148C400.032 363.148 400.4 363.056 400.744 362.872C401.088 362.688 401.364 362.412 401.572 362.044C401.788 361.676 401.896 361.228 401.896 360.7C401.896 360.172 401.792 359.724 401.584 359.356C401.376 358.988 401.104 358.716 400.768 358.54C400.432 358.356 400.068 358.264 399.676 358.264C399.276 358.264 398.908 358.356 398.572 358.54C398.244 358.716 397.98 358.988 397.78 359.356C397.58 359.724 397.48 360.172 397.48 360.7C397.48 361.236 397.576 361.688 397.768 362.056C397.968 362.424 398.232 362.7 398.56 362.884C398.888 363.06 399.248 363.148 399.64 363.148ZM405.539 358.648C405.763 358.256 406.091 357.936 406.523 357.688C406.955 357.44 407.447 357.316 407.999 357.316C408.591 357.316 409.123 357.456 409.595 357.736C410.067 358.016 410.439 358.412 410.711 358.924C410.983 359.428 411.119 360.016 411.119 360.688C411.119 361.352 410.983 361.944 410.711 362.464C410.439 362.984 410.063 363.388 409.583 363.676C409.111 363.964 408.583 364.108 407.999 364.108C407.431 364.108 406.931 363.984 406.499 363.736C406.075 363.488 405.755 363.172 405.539 362.788V364H404.447V355.12H405.539V358.648ZM410.003 360.688C410.003 360.192 409.903 359.76 409.703 359.392C409.503 359.024 409.231 358.744 408.887 358.552C408.551 358.36 408.179 358.264 407.771 358.264C407.371 358.264 406.999 358.364 406.655 358.564C406.319 358.756 406.047 359.04 405.839 359.416C405.639 359.784 405.539 360.212 405.539 360.7C405.539 361.196 405.639 361.632 405.839 362.008C406.047 362.376 406.319 362.66 406.655 362.86C406.999 363.052 407.371 363.148 407.771 363.148C408.179 363.148 408.551 363.052 408.887 362.86C409.231 362.66 409.503 362.376 409.703 362.008C409.903 361.632 410.003 361.192 410.003 360.688ZM413.121 356.356C412.913 356.356 412.737 356.284 412.593 356.14C412.449 355.996 412.377 355.82 412.377 355.612C412.377 355.404 412.449 355.228 412.593 355.084C412.737 354.94 412.913 354.868 413.121 354.868C413.321 354.868 413.489 354.94 413.625 355.084C413.769 355.228 413.841 355.404 413.841 355.612C413.841 355.82 413.769 355.996 413.625 356.14C413.489 356.284 413.321 356.356 413.121 356.356ZM413.649 357.424V364H412.557V357.424H413.649ZM416.602 355.12V364H415.51V355.12H416.602ZM424.463 360.46C424.463 360.668 424.451 360.888 424.427 361.12H419.171C419.211 361.768 419.431 362.276 419.831 362.644C420.239 363.004 420.731 363.184 421.307 363.184C421.779 363.184 422.171 363.076 422.483 362.86C422.803 362.636 423.027 362.34 423.155 361.972H424.331C424.155 362.604 423.803 363.12 423.275 363.52C422.747 363.912 422.091 364.108 421.307 364.108C420.683 364.108 420.123 363.968 419.627 363.688C419.139 363.408 418.755 363.012 418.475 362.5C418.195 361.98 418.055 361.38 418.055 360.7C418.055 360.02 418.191 359.424 418.463 358.912C418.735 358.4 419.115 358.008 419.603 357.736C420.099 357.456 420.667 357.316 421.307 357.316C421.931 357.316 422.483 357.452 422.963 357.724C423.443 357.996 423.811 358.372 424.067 358.852C424.331 359.324 424.463 359.86 424.463 360.46ZM423.335 360.232C423.335 359.816 423.243 359.46 423.059 359.164C422.875 358.86 422.623 358.632 422.303 358.48C421.991 358.32 421.643 358.24 421.259 358.24C420.707 358.24 420.235 358.416 419.843 358.768C419.459 359.12 419.239 359.608 419.183 360.232H423.335Z" fill="white"/>
<path d="M314.016 392.112H316.944V393H312.924V384.636H314.016V392.112ZM320.972 393.108C320.356 393.108 319.796 392.968 319.292 392.688C318.796 392.408 318.404 392.012 318.116 391.5C317.836 390.98 317.696 390.38 317.696 389.7C317.696 389.028 317.84 388.436 318.128 387.924C318.424 387.404 318.824 387.008 319.328 386.736C319.832 386.456 320.396 386.316 321.02 386.316C321.644 386.316 322.208 386.456 322.712 386.736C323.216 387.008 323.612 387.4 323.9 387.912C324.196 388.424 324.344 389.02 324.344 389.7C324.344 390.38 324.192 390.98 323.888 391.5C323.592 392.012 323.188 392.408 322.676 392.688C322.164 392.968 321.596 393.108 320.972 393.108ZM320.972 392.148C321.364 392.148 321.732 392.056 322.076 391.872C322.42 391.688 322.696 391.412 322.904 391.044C323.12 390.676 323.228 390.228 323.228 389.7C323.228 389.172 323.124 388.724 322.916 388.356C322.708 387.988 322.436 387.716 322.1 387.54C321.764 387.356 321.4 387.264 321.008 387.264C320.608 387.264 320.24 387.356 319.904 387.54C319.576 387.716 319.312 387.988 319.112 388.356C318.912 388.724 318.812 389.172 318.812 389.7C318.812 390.236 318.908 390.688 319.1 391.056C319.3 391.424 319.564 391.7 319.892 391.884C320.22 392.06 320.58 392.148 320.972 392.148ZM328.491 386.316C329.059 386.316 329.555 386.44 329.979 386.688C330.411 386.936 330.731 387.248 330.939 387.624V386.424H332.043V393.144C332.043 393.744 331.915 394.276 331.659 394.74C331.403 395.212 331.035 395.58 330.555 395.844C330.083 396.108 329.531 396.24 328.899 396.24C328.035 396.24 327.315 396.036 326.739 395.628C326.163 395.22 325.823 394.664 325.719 393.96H326.799C326.919 394.36 327.167 394.68 327.543 394.92C327.919 395.168 328.371 395.292 328.899 395.292C329.499 395.292 329.987 395.104 330.363 394.728C330.747 394.352 330.939 393.824 330.939 393.144V391.764C330.723 392.148 330.403 392.468 329.979 392.724C329.555 392.98 329.059 393.108 328.491 393.108C327.907 393.108 327.375 392.964 326.895 392.676C326.423 392.388 326.051 391.984 325.779 391.464C325.507 390.944 325.371 390.352 325.371 389.688C325.371 389.016 325.507 388.428 325.779 387.924C326.051 387.412 326.423 387.016 326.895 386.736C327.375 386.456 327.907 386.316 328.491 386.316ZM330.939 389.7C330.939 389.204 330.839 388.772 330.639 388.404C330.439 388.036 330.167 387.756 329.823 387.564C329.487 387.364 329.115 387.264 328.707 387.264C328.299 387.264 327.927 387.36 327.591 387.552C327.255 387.744 326.987 388.024 326.787 388.392C326.587 388.76 326.487 389.192 326.487 389.688C326.487 390.192 326.587 390.632 326.787 391.008C326.987 391.376 327.255 391.66 327.591 391.86C327.927 392.052 328.299 392.148 328.707 392.148C329.115 392.148 329.487 392.052 329.823 391.86C330.167 391.66 330.439 391.376 330.639 391.008C330.839 390.632 330.939 390.196 330.939 389.7ZM334.453 385.356C334.245 385.356 334.069 385.284 333.925 385.14C333.781 384.996 333.709 384.82 333.709 384.612C333.709 384.404 333.781 384.228 333.925 384.084C334.069 383.94 334.245 383.868 334.453 383.868C334.653 383.868 334.821 383.94 334.957 384.084C335.101 384.228 335.173 384.404 335.173 384.612C335.173 384.82 335.101 384.996 334.957 385.14C334.821 385.284 334.653 385.356 334.453 385.356ZM334.981 386.424V393H333.889V386.424H334.981ZM336.434 389.7C336.434 389.02 336.57 388.428 336.842 387.924C337.114 387.412 337.49 387.016 337.97 386.736C338.458 386.456 339.014 386.316 339.638 386.316C340.446 386.316 341.11 386.512 341.63 386.904C342.158 387.296 342.506 387.84 342.674 388.536H341.498C341.386 388.136 341.166 387.82 340.838 387.588C340.518 387.356 340.118 387.24 339.638 387.24C339.014 387.24 338.51 387.456 338.126 387.888C337.742 388.312 337.55 388.916 337.55 389.7C337.55 390.492 337.742 391.104 338.126 391.536C338.51 391.968 339.014 392.184 339.638 392.184C340.118 392.184 340.518 392.072 340.838 391.848C341.158 391.624 341.378 391.304 341.498 390.888H342.674C342.498 391.56 342.146 392.1 341.618 392.508C341.09 392.908 340.43 393.108 339.638 393.108C339.014 393.108 338.458 392.968 337.97 392.688C337.49 392.408 337.114 392.012 336.842 391.5C336.57 390.988 336.434 390.388 336.434 389.7ZM344.695 385.356C344.487 385.356 344.311 385.284 344.167 385.14C344.023 384.996 343.951 384.82 343.951 384.612C343.951 384.404 344.023 384.228 344.167 384.084C344.311 383.94 344.487 383.868 344.695 383.868C344.895 383.868 345.063 383.94 345.199 384.084C345.343 384.228 345.415 384.404 345.415 384.612C345.415 384.82 345.343 384.996 345.199 385.14C345.063 385.284 344.895 385.356 344.695 385.356ZM345.223 386.424V393H344.131V386.424H345.223ZM353.084 389.46C353.084 389.668 353.072 389.888 353.048 390.12H347.792C347.832 390.768 348.052 391.276 348.452 391.644C348.86 392.004 349.352 392.184 349.928 392.184C350.4 392.184 350.792 392.076 351.104 391.86C351.424 391.636 351.648 391.34 351.776 390.972H352.952C352.776 391.604 352.424 392.12 351.896 392.52C351.368 392.912 350.712 393.108 349.928 393.108C349.304 393.108 348.744 392.968 348.248 392.688C347.76 392.408 347.376 392.012 347.096 391.5C346.816 390.98 346.676 390.38 346.676 389.7C346.676 389.02 346.812 388.424 347.084 387.912C347.356 387.4 347.736 387.008 348.224 386.736C348.72 386.456 349.288 386.316 349.928 386.316C350.552 386.316 351.104 386.452 351.584 386.724C352.064 386.996 352.432 387.372 352.688 387.852C352.952 388.324 353.084 388.86 353.084 389.46ZM351.956 389.232C351.956 388.816 351.864 388.46 351.68 388.164C351.496 387.86 351.244 387.632 350.924 387.48C350.612 387.32 350.264 387.24 349.88 387.24C349.328 387.24 348.856 387.416 348.464 387.768C348.08 388.12 347.86 388.608 347.804 389.232H351.956ZM355.618 384.12V393H354.526V384.12H355.618Z" fill="white"/>
<path d="M316.716 425.084C315.94 425.084 315.232 424.904 314.592 424.544C313.952 424.176 313.444 423.668 313.068 423.02C312.7 422.364 312.516 421.628 312.516 420.812C312.516 419.996 312.7 419.264 313.068 418.616C313.444 417.96 313.952 417.452 314.592 417.092C315.232 416.724 315.94 416.54 316.716 416.54C317.5 416.54 318.212 416.724 318.852 417.092C319.492 417.452 319.996 417.956 320.364 418.604C320.732 419.252 320.916 419.988 320.916 420.812C320.916 421.636 320.732 422.372 320.364 423.02C319.996 423.668 319.492 424.176 318.852 424.544C318.212 424.904 317.5 425.084 316.716 425.084ZM316.716 424.136C317.3 424.136 317.824 424 318.288 423.728C318.76 423.456 319.128 423.068 319.392 422.564C319.664 422.06 319.8 421.476 319.8 420.812C319.8 420.14 319.664 419.556 319.392 419.06C319.128 418.556 318.764 418.168 318.3 417.896C317.836 417.624 317.308 417.488 316.716 417.488C316.124 417.488 315.596 417.624 315.132 417.896C314.668 418.168 314.3 418.556 314.028 419.06C313.764 419.556 313.632 420.14 313.632 420.812C313.632 421.476 313.764 422.06 314.028 422.564C314.3 423.068 314.668 423.456 315.132 423.728C315.604 424 316.132 424.136 316.716 424.136ZM328.19 418.424V425H327.098V424.028C326.89 424.364 326.598 424.628 326.222 424.82C325.854 425.004 325.446 425.096 324.998 425.096C324.486 425.096 324.026 424.992 323.618 424.784C323.21 424.568 322.886 424.248 322.646 423.824C322.414 423.4 322.298 422.884 322.298 422.276V418.424H323.378V422.132C323.378 422.78 323.542 423.28 323.87 423.632C324.198 423.976 324.646 424.148 325.214 424.148C325.798 424.148 326.258 423.968 326.594 423.608C326.93 423.248 327.098 422.724 327.098 422.036V418.424H328.19ZM331.365 419.324V423.2C331.365 423.52 331.433 423.748 331.569 423.884C331.705 424.012 331.941 424.076 332.277 424.076H333.081V425H332.097C331.489 425 331.033 424.86 330.729 424.58C330.425 424.3 330.273 423.84 330.273 423.2V419.324H329.421V418.424H330.273V416.768H331.365V418.424H333.081V419.324H331.365ZM334.968 417.356C334.76 417.356 334.584 417.284 334.44 417.14C334.296 416.996 334.224 416.82 334.224 416.612C334.224 416.404 334.296 416.228 334.44 416.084C334.584 415.94 334.76 415.868 334.968 415.868C335.168 415.868 335.336 415.94 335.472 416.084C335.616 416.228 335.688 416.404 335.688 416.612C335.688 416.82 335.616 416.996 335.472 417.14C335.336 417.284 335.168 417.356 334.968 417.356ZM335.496 418.424V425H334.404V418.424H335.496ZM338.45 416.12V425H337.358V416.12H338.45ZM342.639 425.108C342.135 425.108 341.683 425.024 341.283 424.856C340.883 424.68 340.567 424.44 340.335 424.136C340.103 423.824 339.975 423.468 339.951 423.068H341.079C341.111 423.396 341.263 423.664 341.535 423.872C341.815 424.08 342.179 424.184 342.627 424.184C343.043 424.184 343.371 424.092 343.611 423.908C343.851 423.724 343.971 423.492 343.971 423.212C343.971 422.924 343.843 422.712 343.587 422.576C343.331 422.432 342.935 422.292 342.399 422.156C341.911 422.028 341.511 421.9 341.199 421.772C340.895 421.636 340.631 421.44 340.407 421.184C340.191 420.92 340.083 420.576 340.083 420.152C340.083 419.816 340.183 419.508 340.383 419.228C340.583 418.948 340.867 418.728 341.235 418.568C341.603 418.4 342.023 418.316 342.495 418.316C343.223 418.316 343.811 418.5 344.259 418.868C344.707 419.236 344.947 419.74 344.979 420.38H343.887C343.863 420.036 343.723 419.76 343.467 419.552C343.219 419.344 342.883 419.24 342.459 419.24C342.067 419.24 341.755 419.324 341.523 419.492C341.291 419.66 341.175 419.88 341.175 420.152C341.175 420.368 341.243 420.548 341.379 420.692C341.523 420.828 341.699 420.94 341.907 421.028C342.123 421.108 342.419 421.2 342.795 421.304C343.267 421.432 343.651 421.56 343.947 421.688C344.243 421.808 344.495 421.992 344.703 422.24C344.919 422.488 345.031 422.812 345.039 423.212C345.039 423.572 344.939 423.896 344.739 424.184C344.539 424.472 344.255 424.7 343.887 424.868C343.527 425.028 343.111 425.108 342.639 425.108Z" fill="white"/>
<path d="M405.986 189.264H402.318L401.73 191H399.224L402.78 181.172H405.552L409.108 191H406.574L405.986 189.264ZM405.37 187.416L404.152 183.818L402.948 187.416H405.37ZM420.158 183.104C421.129 183.104 421.899 183.398 422.468 183.986C423.047 184.574 423.336 185.391 423.336 186.436V191H420.956V186.758C420.956 186.254 420.821 185.867 420.55 185.596C420.289 185.316 419.925 185.176 419.458 185.176C418.992 185.176 418.623 185.316 418.352 185.596C418.091 185.867 417.96 186.254 417.96 186.758V191H415.58V186.758C415.58 186.254 415.445 185.867 415.174 185.596C414.913 185.316 414.549 185.176 414.082 185.176C413.616 185.176 413.247 185.316 412.976 185.596C412.715 185.867 412.584 186.254 412.584 186.758V191H410.19V183.188H412.584V184.168C412.827 183.841 413.144 183.585 413.536 183.398C413.928 183.202 414.372 183.104 414.866 183.104C415.454 183.104 415.977 183.23 416.434 183.482C416.901 183.734 417.265 184.093 417.526 184.56C417.797 184.131 418.166 183.781 418.632 183.51C419.099 183.239 419.608 183.104 420.158 183.104ZM427.405 184.294C427.629 183.93 427.951 183.636 428.371 183.412C428.791 183.188 429.271 183.076 429.813 183.076C430.457 183.076 431.04 183.239 431.563 183.566C432.085 183.893 432.496 184.359 432.795 184.966C433.103 185.573 433.257 186.277 433.257 187.08C433.257 187.883 433.103 188.592 432.795 189.208C432.496 189.815 432.085 190.286 431.563 190.622C431.04 190.949 430.457 191.112 429.813 191.112C429.262 191.112 428.781 191.005 428.371 190.79C427.96 190.566 427.638 190.272 427.405 189.908V191H425.011V180.64H427.405V184.294ZM430.821 187.08C430.821 186.483 430.653 186.016 430.317 185.68C429.99 185.335 429.584 185.162 429.099 185.162C428.623 185.162 428.217 185.335 427.881 185.68C427.554 186.025 427.391 186.497 427.391 187.094C427.391 187.691 427.554 188.163 427.881 188.508C428.217 188.853 428.623 189.026 429.099 189.026C429.575 189.026 429.981 188.853 430.317 188.508C430.653 188.153 430.821 187.677 430.821 187.08ZM435.717 182.376C435.297 182.376 434.951 182.255 434.681 182.012C434.419 181.76 434.289 181.452 434.289 181.088C434.289 180.715 434.419 180.407 434.681 180.164C434.951 179.912 435.297 179.786 435.717 179.786C436.127 179.786 436.463 179.912 436.725 180.164C436.995 180.407 437.131 180.715 437.131 181.088C437.131 181.452 436.995 181.76 436.725 182.012C436.463 182.255 436.127 182.376 435.717 182.376ZM436.907 183.188V191H434.513V183.188H436.907ZM442.995 188.97V191H441.777C440.909 191 440.233 190.79 439.747 190.37C439.262 189.941 439.019 189.245 439.019 188.284V185.176H438.067V183.188H439.019V181.284H441.413V183.188H442.981V185.176H441.413V188.312C441.413 188.545 441.469 188.713 441.581 188.816C441.693 188.919 441.88 188.97 442.141 188.97H442.995ZM445.533 182.376C445.113 182.376 444.768 182.255 444.497 182.012C444.236 181.76 444.105 181.452 444.105 181.088C444.105 180.715 444.236 180.407 444.497 180.164C444.768 179.912 445.113 179.786 445.533 179.786C445.944 179.786 446.28 179.912 446.541 180.164C446.812 180.407 446.947 180.715 446.947 181.088C446.947 181.452 446.812 181.76 446.541 182.012C446.28 182.255 445.944 182.376 445.533 182.376ZM446.723 183.188V191H444.329V183.188H446.723ZM452.014 191.112C451.249 191.112 450.558 190.949 449.942 190.622C449.335 190.295 448.855 189.829 448.5 189.222C448.155 188.615 447.982 187.906 447.982 187.094C447.982 186.291 448.159 185.587 448.514 184.98C448.869 184.364 449.354 183.893 449.97 183.566C450.586 183.239 451.277 183.076 452.042 183.076C452.807 183.076 453.498 183.239 454.114 183.566C454.73 183.893 455.215 184.364 455.57 184.98C455.925 185.587 456.102 186.291 456.102 187.094C456.102 187.897 455.92 188.606 455.556 189.222C455.201 189.829 454.711 190.295 454.086 190.622C453.47 190.949 452.779 191.112 452.014 191.112ZM452.014 189.04C452.471 189.04 452.859 188.872 453.176 188.536C453.503 188.2 453.666 187.719 453.666 187.094C453.666 186.469 453.507 185.988 453.19 185.652C452.882 185.316 452.499 185.148 452.042 185.148C451.575 185.148 451.188 185.316 450.88 185.652C450.572 185.979 450.418 186.459 450.418 187.094C450.418 187.719 450.567 188.2 450.866 188.536C451.174 188.872 451.557 189.04 452.014 189.04ZM462.132 183.104C463.047 183.104 463.775 183.403 464.316 184C464.867 184.588 465.142 185.4 465.142 186.436V191H462.762V186.758C462.762 186.235 462.627 185.829 462.356 185.54C462.085 185.251 461.721 185.106 461.264 185.106C460.807 185.106 460.443 185.251 460.172 185.54C459.901 185.829 459.766 186.235 459.766 186.758V191H457.372V183.188H459.766V184.224C460.009 183.879 460.335 183.608 460.746 183.412C461.157 183.207 461.619 183.104 462.132 183.104ZM469.984 191.112C469.302 191.112 468.696 190.995 468.164 190.762C467.632 190.529 467.212 190.211 466.904 189.81C466.596 189.399 466.423 188.942 466.386 188.438H468.752C468.78 188.709 468.906 188.928 469.13 189.096C469.354 189.264 469.629 189.348 469.956 189.348C470.254 189.348 470.483 189.292 470.642 189.18C470.81 189.059 470.894 188.905 470.894 188.718C470.894 188.494 470.777 188.331 470.544 188.228C470.31 188.116 469.932 187.995 469.41 187.864C468.85 187.733 468.383 187.598 468.01 187.458C467.636 187.309 467.314 187.08 467.044 186.772C466.773 186.455 466.638 186.03 466.638 185.498C466.638 185.05 466.759 184.644 467.002 184.28C467.254 183.907 467.618 183.613 468.094 183.398C468.579 183.183 469.153 183.076 469.816 183.076C470.796 183.076 471.566 183.319 472.126 183.804C472.695 184.289 473.022 184.933 473.106 185.736H470.894C470.856 185.465 470.735 185.251 470.53 185.092C470.334 184.933 470.072 184.854 469.746 184.854C469.466 184.854 469.251 184.91 469.102 185.022C468.952 185.125 468.878 185.269 468.878 185.456C468.878 185.68 468.994 185.848 469.228 185.96C469.47 186.072 469.844 186.184 470.348 186.296C470.926 186.445 471.398 186.595 471.762 186.744C472.126 186.884 472.443 187.117 472.714 187.444C472.994 187.761 473.138 188.191 473.148 188.732C473.148 189.189 473.017 189.6 472.756 189.964C472.504 190.319 472.135 190.599 471.65 190.804C471.174 191.009 470.618 191.112 469.984 191.112Z" fill="white"/>
<path d="M399 228L399 288" stroke="white" stroke-width="2" stroke-linecap="round"/>
<path d="M413.716 233.084C412.94 233.084 412.232 232.904 411.592 232.544C410.952 232.176 410.444 231.668 410.068 231.02C409.7 230.364 409.516 229.628 409.516 228.812C409.516 227.996 409.7 227.264 410.068 226.616C410.444 225.96 410.952 225.452 411.592 225.092C412.232 224.724 412.94 224.54 413.716 224.54C414.5 224.54 415.212 224.724 415.852 225.092C416.492 225.452 416.996 225.956 417.364 226.604C417.732 227.252 417.916 227.988 417.916 228.812C417.916 229.636 417.732 230.372 417.364 231.02C416.996 231.668 416.492 232.176 415.852 232.544C415.212 232.904 414.5 233.084 413.716 233.084ZM413.716 232.136C414.3 232.136 414.824 232 415.288 231.728C415.76 231.456 416.128 231.068 416.392 230.564C416.664 230.06 416.8 229.476 416.8 228.812C416.8 228.14 416.664 227.556 416.392 227.06C416.128 226.556 415.764 226.168 415.3 225.896C414.836 225.624 414.308 225.488 413.716 225.488C413.124 225.488 412.596 225.624 412.132 225.896C411.668 226.168 411.3 226.556 411.028 227.06C410.764 227.556 410.632 228.14 410.632 228.812C410.632 229.476 410.764 230.06 411.028 230.564C411.3 231.068 411.668 231.456 412.132 231.728C412.604 232 413.132 232.136 413.716 232.136ZM420.45 227.648C420.674 227.256 421.002 226.936 421.434 226.688C421.866 226.44 422.358 226.316 422.91 226.316C423.502 226.316 424.034 226.456 424.506 226.736C424.978 227.016 425.35 227.412 425.622 227.924C425.894 228.428 426.03 229.016 426.03 229.688C426.03 230.352 425.894 230.944 425.622 231.464C425.35 231.984 424.974 232.388 424.494 232.676C424.022 232.964 423.494 233.108 422.91 233.108C422.342 233.108 421.842 232.984 421.41 232.736C420.986 232.488 420.666 232.172 420.45 231.788V233H419.358V224.12H420.45V227.648ZM424.914 229.688C424.914 229.192 424.814 228.76 424.614 228.392C424.414 228.024 424.142 227.744 423.798 227.552C423.462 227.36 423.09 227.264 422.682 227.264C422.282 227.264 421.91 227.364 421.566 227.564C421.23 227.756 420.958 228.04 420.75 228.416C420.55 228.784 420.45 229.212 420.45 229.7C420.45 230.196 420.55 230.632 420.75 231.008C420.958 231.376 421.23 231.66 421.566 231.86C421.91 232.052 422.282 232.148 422.682 232.148C423.09 232.148 423.462 232.052 423.798 231.86C424.142 231.66 424.414 231.376 424.614 231.008C424.814 230.632 424.914 230.192 424.914 229.688ZM428.055 225.356C427.847 225.356 427.671 225.284 427.527 225.14C427.391 224.996 427.323 224.82 427.323 224.612C427.323 224.404 427.391 224.228 427.527 224.084C427.671 223.94 427.847 223.868 428.055 223.868C428.263 223.868 428.435 223.94 428.571 224.084C428.715 224.228 428.787 224.404 428.787 224.612C428.787 224.82 428.715 224.996 428.571 225.14C428.435 225.284 428.263 225.356 428.055 225.356ZM428.595 234.428C428.595 235.012 428.447 235.44 428.151 235.712C427.855 235.984 427.423 236.12 426.855 236.12H426.219V235.196H426.675C426.979 235.196 427.191 235.136 427.311 235.016C427.439 234.896 427.503 234.692 427.503 234.404V226.424H428.595V234.428ZM436.444 229.46C436.444 229.668 436.432 229.888 436.408 230.12H431.152C431.192 230.768 431.412 231.276 431.812 231.644C432.22 232.004 432.712 232.184 433.288 232.184C433.76 232.184 434.152 232.076 434.464 231.86C434.784 231.636 435.008 231.34 435.136 230.972H436.312C436.136 231.604 435.784 232.12 435.256 232.52C434.728 232.912 434.072 233.108 433.288 233.108C432.664 233.108 432.104 232.968 431.608 232.688C431.12 232.408 430.736 232.012 430.456 231.5C430.176 230.98 430.036 230.38 430.036 229.7C430.036 229.02 430.172 228.424 430.444 227.912C430.716 227.4 431.096 227.008 431.584 226.736C432.08 226.456 432.648 226.316 433.288 226.316C433.912 226.316 434.464 226.452 434.944 226.724C435.424 226.996 435.792 227.372 436.048 227.852C436.312 228.324 436.444 228.86 436.444 229.46ZM435.316 229.232C435.316 228.816 435.224 228.46 435.04 228.164C434.856 227.86 434.604 227.632 434.284 227.48C433.972 227.32 433.624 227.24 433.24 227.24C432.688 227.24 432.216 227.416 431.824 227.768C431.44 228.12 431.22 228.608 431.164 229.232H435.316ZM437.477 229.7C437.477 229.02 437.613 228.428 437.885 227.924C438.157 227.412 438.533 227.016 439.013 226.736C439.501 226.456 440.057 226.316 440.681 226.316C441.489 226.316 442.153 226.512 442.673 226.904C443.201 227.296 443.549 227.84 443.717 228.536H442.541C442.429 228.136 442.209 227.82 441.881 227.588C441.561 227.356 441.161 227.24 440.681 227.24C440.057 227.24 439.553 227.456 439.169 227.888C438.785 228.312 438.593 228.916 438.593 229.7C438.593 230.492 438.785 231.104 439.169 231.536C439.553 231.968 440.057 232.184 440.681 232.184C441.161 232.184 441.561 232.072 441.881 231.848C442.201 231.624 442.421 231.304 442.541 230.888H443.717C443.541 231.56 443.189 232.1 442.661 232.508C442.133 232.908 441.473 233.108 440.681 233.108C440.057 233.108 439.501 232.968 439.013 232.688C438.533 232.408 438.157 232.012 437.885 231.5C437.613 230.988 437.477 230.388 437.477 229.7ZM446.506 227.324V231.2C446.506 231.52 446.574 231.748 446.71 231.884C446.846 232.012 447.082 232.076 447.418 232.076H448.222V233H447.238C446.63 233 446.174 232.86 445.87 232.58C445.566 232.3 445.414 231.84 445.414 231.2V227.324H444.562V226.424H445.414V224.768H446.506V226.424H448.222V227.324H446.506ZM450.109 225.356C449.901 225.356 449.725 225.284 449.581 225.14C449.437 224.996 449.365 224.82 449.365 224.612C449.365 224.404 449.437 224.228 449.581 224.084C449.725 223.94 449.901 223.868 450.109 223.868C450.309 223.868 450.477 223.94 450.613 224.084C450.757 224.228 450.829 224.404 450.829 224.612C450.829 224.82 450.757 224.996 450.613 225.14C450.477 225.284 450.309 225.356 450.109 225.356ZM450.637 226.424V233H449.545V226.424H450.637ZM455.174 227.324H453.794V233H452.702V227.324H451.85V226.424H452.702V225.956C452.702 225.22 452.89 224.684 453.266 224.348C453.65 224.004 454.262 223.832 455.102 223.832V224.744C454.622 224.744 454.282 224.84 454.082 225.032C453.89 225.216 453.794 225.524 453.794 225.956V226.424H455.174V227.324ZM458.775 233.108C458.271 233.108 457.819 233.024 457.419 232.856C457.019 232.68 456.703 232.44 456.471 232.136C456.239 231.824 456.111 231.468 456.087 231.068H457.215C457.247 231.396 457.399 231.664 457.671 231.872C457.951 232.08 458.315 232.184 458.763 232.184C459.179 232.184 459.507 232.092 459.747 231.908C459.987 231.724 460.107 231.492 460.107 231.212C460.107 230.924 459.979 230.712 459.723 230.576C459.467 230.432 459.071 230.292 458.535 230.156C458.047 230.028 457.647 229.9 457.335 229.772C457.031 229.636 456.767 229.44 456.543 229.184C456.327 228.92 456.219 228.576 456.219 228.152C456.219 227.816 456.319 227.508 456.519 227.228C456.719 226.948 457.003 226.728 457.371 226.568C457.739 226.4 458.159 226.316 458.631 226.316C459.359 226.316 459.947 226.5 460.395 226.868C460.843 227.236 461.083 227.74 461.115 228.38H460.023C459.999 228.036 459.859 227.76 459.603 227.552C459.355 227.344 459.019 227.24 458.595 227.24C458.203 227.24 457.891 227.324 457.659 227.492C457.427 227.66 457.311 227.88 457.311 228.152C457.311 228.368 457.379 228.548 457.515 228.692C457.659 228.828 457.835 228.94 458.043 229.028C458.259 229.108 458.555 229.2 458.931 229.304C459.403 229.432 459.787 229.56 460.083 229.688C460.379 229.808 460.631 229.992 460.839 230.24C461.055 230.488 461.167 230.812 461.175 231.212C461.175 231.572 461.075 231.896 460.875 232.184C460.675 232.472 460.391 232.7 460.023 232.868C459.663 233.028 459.247 233.108 458.775 233.108Z" fill="white"/>
<path d="M411.016 249.524V252.32H414.064V253.22H411.016V256.1H414.424V257H409.924V248.624H414.424V249.524H411.016ZM418.524 255.992L420.564 250.424H421.728L419.148 257H417.876L415.296 250.424H416.472L418.524 255.992ZM425.671 257.108C425.055 257.108 424.495 256.968 423.991 256.688C423.495 256.408 423.103 256.012 422.815 255.5C422.535 254.98 422.395 254.38 422.395 253.7C422.395 253.028 422.539 252.436 422.827 251.924C423.123 251.404 423.523 251.008 424.027 250.736C424.531 250.456 425.095 250.316 425.719 250.316C426.343 250.316 426.907 250.456 427.411 250.736C427.915 251.008 428.311 251.4 428.599 251.912C428.895 252.424 429.043 253.02 429.043 253.7C429.043 254.38 428.891 254.98 428.587 255.5C428.291 256.012 427.887 256.408 427.375 256.688C426.863 256.968 426.295 257.108 425.671 257.108ZM425.671 256.148C426.063 256.148 426.431 256.056 426.775 255.872C427.119 255.688 427.395 255.412 427.603 255.044C427.819 254.676 427.927 254.228 427.927 253.7C427.927 253.172 427.823 252.724 427.615 252.356C427.407 251.988 427.135 251.716 426.799 251.54C426.463 251.356 426.099 251.264 425.707 251.264C425.307 251.264 424.939 251.356 424.603 251.54C424.275 251.716 424.011 251.988 423.811 252.356C423.611 252.724 423.511 253.172 423.511 253.7C423.511 254.236 423.607 254.688 423.799 255.056C423.999 255.424 424.263 255.7 424.591 255.884C424.919 256.06 425.279 256.148 425.671 256.148ZM431.571 248.12V257H430.479V248.12H431.571ZM439.264 250.424V257H438.172V256.028C437.964 256.364 437.672 256.628 437.296 256.82C436.928 257.004 436.52 257.096 436.072 257.096C435.56 257.096 435.1 256.992 434.692 256.784C434.284 256.568 433.96 256.248 433.72 255.824C433.488 255.4 433.372 254.884 433.372 254.276V250.424H434.452V254.132C434.452 254.78 434.616 255.28 434.944 255.632C435.272 255.976 435.72 256.148 436.288 256.148C436.872 256.148 437.332 255.968 437.668 255.608C438.004 255.248 438.172 254.724 438.172 254.036V250.424H439.264ZM442.44 251.324V255.2C442.44 255.52 442.508 255.748 442.644 255.884C442.78 256.012 443.016 256.076 443.352 256.076H444.156V257H443.172C442.564 257 442.108 256.86 441.804 256.58C441.5 256.3 441.348 255.84 441.348 255.2V251.324H440.496V250.424H441.348V248.768H442.44V250.424H444.156V251.324H442.44ZM446.043 249.356C445.835 249.356 445.659 249.284 445.515 249.14C445.371 248.996 445.299 248.82 445.299 248.612C445.299 248.404 445.371 248.228 445.515 248.084C445.659 247.94 445.835 247.868 446.043 247.868C446.243 247.868 446.411 247.94 446.547 248.084C446.691 248.228 446.763 248.404 446.763 248.612C446.763 248.82 446.691 248.996 446.547 249.14C446.411 249.284 446.243 249.356 446.043 249.356ZM446.571 250.424V257H445.479V250.424H446.571ZM451.3 257.108C450.684 257.108 450.124 256.968 449.62 256.688C449.124 256.408 448.732 256.012 448.444 255.5C448.164 254.98 448.024 254.38 448.024 253.7C448.024 253.028 448.168 252.436 448.456 251.924C448.752 251.404 449.152 251.008 449.656 250.736C450.16 250.456 450.724 250.316 451.348 250.316C451.972 250.316 452.536 250.456 453.04 250.736C453.544 251.008 453.94 251.4 454.228 251.912C454.524 252.424 454.672 253.02 454.672 253.7C454.672 254.38 454.52 254.98 454.216 255.5C453.92 256.012 453.516 256.408 453.004 256.688C452.492 256.968 451.924 257.108 451.3 257.108ZM451.3 256.148C451.692 256.148 452.06 256.056 452.404 255.872C452.748 255.688 453.024 255.412 453.232 255.044C453.448 254.676 453.556 254.228 453.556 253.7C453.556 253.172 453.452 252.724 453.244 252.356C453.036 251.988 452.764 251.716 452.428 251.54C452.092 251.356 451.728 251.264 451.336 251.264C450.936 251.264 450.568 251.356 450.232 251.54C449.904 251.716 449.64 251.988 449.44 252.356C449.24 252.724 449.14 253.172 449.14 253.7C449.14 254.236 449.236 254.688 449.428 255.056C449.628 255.424 449.892 255.7 450.22 255.884C450.548 256.06 450.908 256.148 451.3 256.148ZM459.312 250.304C460.112 250.304 460.76 250.548 461.256 251.036C461.752 251.516 462 252.212 462 253.124V257H460.92V253.28C460.92 252.624 460.756 252.124 460.428 251.78C460.1 251.428 459.652 251.252 459.084 251.252C458.508 251.252 458.048 251.432 457.704 251.792C457.368 252.152 457.2 252.676 457.2 253.364V257H456.108V250.424H457.2V251.36C457.416 251.024 457.708 250.764 458.076 250.58C458.452 250.396 458.864 250.304 459.312 250.304ZM466.111 257.108C465.607 257.108 465.155 257.024 464.755 256.856C464.355 256.68 464.039 256.44 463.807 256.136C463.575 255.824 463.447 255.468 463.423 255.068H464.551C464.583 255.396 464.735 255.664 465.007 255.872C465.287 256.08 465.651 256.184 466.099 256.184C466.515 256.184 466.843 256.092 467.083 255.908C467.323 255.724 467.443 255.492 467.443 255.212C467.443 254.924 467.315 254.712 467.059 254.576C466.803 254.432 466.407 254.292 465.871 254.156C465.383 254.028 464.983 253.9 464.671 253.772C464.367 253.636 464.103 253.44 463.879 253.184C463.663 252.92 463.555 252.576 463.555 252.152C463.555 251.816 463.655 251.508 463.855 251.228C464.055 250.948 464.339 250.728 464.707 250.568C465.075 250.4 465.495 250.316 465.967 250.316C466.695 250.316 467.283 250.5 467.731 250.868C468.179 251.236 468.419 251.74 468.451 252.38H467.359C467.335 252.036 467.195 251.76 466.939 251.552C466.691 251.344 466.355 251.24 465.931 251.24C465.539 251.24 465.227 251.324 464.995 251.492C464.763 251.66 464.647 251.88 464.647 252.152C464.647 252.368 464.715 252.548 464.851 252.692C464.995 252.828 465.171 252.94 465.379 253.028C465.595 253.108 465.891 253.2 466.267 253.304C466.739 253.432 467.123 253.56 467.419 253.688C467.715 253.808 467.967 253.992 468.175 254.24C468.391 254.488 468.503 254.812 468.511 255.212C468.511 255.572 468.411 255.896 468.211 256.184C468.011 256.472 467.727 256.7 467.359 256.868C466.999 257.028 466.583 257.108 466.111 257.108Z" fill="white"/>
<path d="M415.072 277.636V278.524H412.792V286H411.7V278.524H409.408V277.636H415.072ZM417.508 280.492C417.7 280.116 417.972 279.824 418.324 279.616C418.684 279.408 419.12 279.304 419.632 279.304V280.432H419.344C418.12 280.432 417.508 281.096 417.508 282.424V286H416.416V279.424H417.508V280.492ZM420.485 282.688C420.485 282.016 420.621 281.428 420.893 280.924C421.165 280.412 421.537 280.016 422.009 279.736C422.489 279.456 423.021 279.316 423.605 279.316C424.181 279.316 424.681 279.44 425.105 279.688C425.529 279.936 425.845 280.248 426.053 280.624V279.424H427.157V286H426.053V284.776C425.837 285.16 425.513 285.48 425.081 285.736C424.657 285.984 424.161 286.108 423.593 286.108C423.009 286.108 422.481 285.964 422.009 285.676C421.537 285.388 421.165 284.984 420.893 284.464C420.621 283.944 420.485 283.352 420.485 282.688ZM426.053 282.7C426.053 282.204 425.953 281.772 425.753 281.404C425.553 281.036 425.281 280.756 424.937 280.564C424.601 280.364 424.229 280.264 423.821 280.264C423.413 280.264 423.041 280.36 422.705 280.552C422.369 280.744 422.101 281.024 421.901 281.392C421.701 281.76 421.601 282.192 421.601 282.688C421.601 283.192 421.701 283.632 421.901 284.008C422.101 284.376 422.369 284.66 422.705 284.86C423.041 285.052 423.413 285.148 423.821 285.148C424.229 285.148 424.601 285.052 424.937 284.86C425.281 284.66 425.553 284.376 425.753 284.008C425.953 283.632 426.053 283.196 426.053 282.7ZM431.678 280.324H430.298V286H429.206V280.324H428.354V279.424H429.206V278.956C429.206 278.22 429.394 277.684 429.77 277.348C430.154 277.004 430.766 276.832 431.606 276.832V277.744C431.126 277.744 430.786 277.84 430.586 278.032C430.394 278.216 430.298 278.524 430.298 278.956V279.424H431.678V280.324ZM433.515 278.356C433.307 278.356 433.131 278.284 432.987 278.14C432.843 277.996 432.771 277.82 432.771 277.612C432.771 277.404 432.843 277.228 432.987 277.084C433.131 276.94 433.307 276.868 433.515 276.868C433.715 276.868 433.883 276.94 434.019 277.084C434.163 277.228 434.235 277.404 434.235 277.612C434.235 277.82 434.163 277.996 434.019 278.14C433.883 278.284 433.715 278.356 433.515 278.356ZM434.043 279.424V286H432.951V279.424H434.043ZM435.496 282.7C435.496 282.02 435.632 281.428 435.904 280.924C436.176 280.412 436.552 280.016 437.032 279.736C437.52 279.456 438.076 279.316 438.7 279.316C439.508 279.316 440.172 279.512 440.692 279.904C441.22 280.296 441.568 280.84 441.736 281.536H440.56C440.448 281.136 440.228 280.82 439.9 280.588C439.58 280.356 439.18 280.24 438.7 280.24C438.076 280.24 437.572 280.456 437.188 280.888C436.804 281.312 436.612 281.916 436.612 282.7C436.612 283.492 436.804 284.104 437.188 284.536C437.572 284.968 438.076 285.184 438.7 285.184C439.18 285.184 439.58 285.072 439.9 284.848C440.22 284.624 440.44 284.304 440.56 283.888H441.736C441.56 284.56 441.208 285.1 440.68 285.508C440.152 285.908 439.492 286.108 438.7 286.108C438.076 286.108 437.52 285.968 437.032 285.688C436.552 285.408 436.176 285.012 435.904 284.5C435.632 283.988 435.496 283.388 435.496 282.7Z" fill="white"/>
<defs>
<filter id="filter0_d_69_308" x="0.158875" y="91.7092" width="167.528" height="167.611" filterUnits="userSpaceOnUse" color-interpolation-filters="sRGB">
<feFlood flood-opacity="0" result="BackgroundImageFix"/>
<feColorMatrix in="SourceAlpha" type="matrix" values="0 0 0 0 0 0 0 0 0 0 0 0 0 0 0 0 0 0 127 0" result="hardAlpha"/>
<feOffset/>
<feGaussianBlur stdDeviation="10"/>
<feColorMatrix type="matrix" values="0 0 0 0 0.160784 0 0 0 0 0.980392 0 0 0 0 0.858824 0 0 0 0.612 0"/>
<feBlend mode="normal" in2="BackgroundImageFix" result="effect1_dropShadow_69_308"/>
<feBlend mode="normal" in="SourceGraphic" in2="effect1_dropShadow_69_308" result="shape"/>
</filter>
<filter id="filter1_d_69_308" x="141.88" y="194.823" width="100.023" height="132.721" filterUnits="userSpaceOnUse" color-interpolation-filters="sRGB">
<feFlood flood-opacity="0" result="BackgroundImageFix"/>
<feColorMatrix in="SourceAlpha" type="matrix" values="0 0 0 0 0 0 0 0 0 0 0 0 0 0 0 0 0 0 127 0" result="hardAlpha"/>
<feOffset/>
<feGaussianBlur stdDeviation="10"/>
<feColorMatrix type="matrix" values="0 0 0 0 0.160784 0 0 0 0 0.980392 0 0 0 0 0.858824 0 0 0 0.612 0"/>
<feBlend mode="normal" in2="BackgroundImageFix" result="effect1_dropShadow_69_308"/>
<feBlend mode="normal" in="SourceGraphic" in2="effect1_dropShadow_69_308" result="shape"/>
</filter>
<linearGradient id="paint0_linear_69_308" x1="90.8321" y1="-13.3839" x2="208.019" y2="204.363" gradientUnits="userSpaceOnUse">
<stop stop-color="#141331"/>
<stop offset="0.31" stop-color="#151F3A"/>
<stop offset="0.562" stop-color="#24B6A9"/>
<stop offset="0.635" stop-color="#1F8887"/>
<stop offset="1" stop-color="#141331"/>
</linearGradient>
<linearGradient id="paint1_linear_69_308" x1="43.3006" y1="-139.511" x2="275.523" y2="291.987" gradientUnits="userSpaceOnUse">
<stop stop-color="#141331"/>
<stop offset="0.31" stop-color="#151F3A"/>
<stop offset="0.562" stop-color="#24B6A9"/>
<stop offset="0.635" stop-color="#1F8887"/>
<stop offset="1" stop-color="#141331"/>
</linearGradient>
<linearGradient id="paint2_linear_69_308" x1="-4.66515" y1="-261.032" x2="339.369" y2="378.224" gradientUnits="userSpaceOnUse">
<stop stop-color="#141331"/>
<stop offset="0.31" stop-color="#151F3A"/>
<stop offset="0.562" stop-color="#24B6A9"/>
<stop offset="0.635" stop-color="#1F8887"/>
<stop offset="1" stop-color="#141331"/>
</linearGradient>
<linearGradient id="paint3_linear_69_308" x1="89.5785" y1="281.747" x2="221.364" y2="173.166" gradientUnits="userSpaceOnUse">
<stop stop-color="#141331"/>
<stop offset="0.33" stop-color="#1A4D5B"/>
<stop offset="0.488" stop-color="#24B6A9"/>
<stop offset="0.65" stop-color="#1F8887"/>
<stop offset="1" stop-color="#141331"/>
</linearGradient>
<linearGradient id="paint4_linear_69_308" x1="40.8163" y1="331.648" x2="301.969" y2="116.478" gradientUnits="userSpaceOnUse">
<stop stop-color="#141331"/>
<stop offset="0.33" stop-color="#1A4D5B"/>
<stop offset="0.488" stop-color="#24B6A9"/>
<stop offset="0.65" stop-color="#1F8887"/>
<stop offset="1" stop-color="#141331"/>
</linearGradient>
<linearGradient id="paint5_linear_69_308" x1="-8.34552" y1="381.219" x2="378.547" y2="62.4488" gradientUnits="userSpaceOnUse">
<stop stop-color="#141331"/>
<stop offset="0.33" stop-color="#1A4D5B"/>
<stop offset="0.488" stop-color="#24B6A9"/>
<stop offset="0.65" stop-color="#1F8887"/>
<stop offset="1" stop-color="#141331"/>
</linearGradient>
<linearGradient id="paint6_linear_69_308" x1="194.104" y1="210.765" x2="291.182" y2="210.765" gradientUnits="userSpaceOnUse">
<stop stop-color="#141331"/>
<stop offset="0.57" stop-color="#24B6A9"/>
<stop offset="0.65" stop-color="#1F8887"/>
<stop offset="1" stop-color="#141331"/>
</linearGradient>
<linearGradient id="paint7_linear_69_308" x1="150.572" y1="248.89" x2="342.947" y2="248.89" gradientUnits="userSpaceOnUse">
<stop stop-color="#141331"/>
<stop offset="0.57" stop-color="#24B6A9"/>
<stop offset="0.65" stop-color="#1F8887"/>
<stop offset="1" stop-color="#141331"/>
</linearGradient>
<linearGradient id="paint8_linear_69_308" x1="106.494" y1="287.015" x2="391.493" y2="287.015" gradientUnits="userSpaceOnUse">
<stop stop-color="#141331"/>
<stop offset="0.57" stop-color="#24B6A9"/>
<stop offset="0.65" stop-color="#1F8887"/>
<stop offset="1" stop-color="#141331"/>
</linearGradient>
</defs>
</svg>
