<svg width="44" height="44" viewBox="0 0 44 44" fill="none" xmlns="http://www.w3.org/2000/svg">
<path d="M21.9996 43.9992C34.1497 43.9992 43.9992 34.1497 43.9992 21.9996C43.9992 9.84956 34.1497 0 21.9996 0C9.84956 0 0 9.84956 0 21.9996C0 34.1497 9.84956 43.9992 21.9996 43.9992Z" fill="#007AB9"/>
<path d="M35.145 23.7703V32.8402H29.8859V24.3779C29.8859 22.2532 29.1266 20.8017 27.2224 20.8017C26.6293 20.8051 26.0518 20.9916 25.5689 21.3359C25.086 21.6802 24.7213 22.1654 24.5249 22.7249C24.39 23.1381 24.3311 23.5723 24.351 24.0065V32.8394H19.0951C19.0951 32.8394 19.1654 18.5072 19.0951 17.0233H24.3542V19.2649C24.3439 19.2823 24.3289 19.2997 24.3194 19.3171H24.3542V19.2649C24.8301 18.4377 25.5237 17.7568 26.3595 17.2961C27.1953 16.8354 28.1414 16.6126 29.095 16.652C32.555 16.652 35.1482 18.9125 35.1482 23.7695L35.145 23.7703ZM13.591 9.40016C13.2157 9.36797 12.8378 9.41352 12.4809 9.53394C12.124 9.65435 11.7958 9.84706 11.5167 10.1C11.2376 10.353 11.0137 10.6608 10.8589 11.0042C10.7041 11.3476 10.6217 11.7192 10.617 12.0958C10.6122 12.4725 10.6852 12.8461 10.8313 13.1932C10.9774 13.5404 11.1936 13.8538 11.4662 14.1137C11.7388 14.3736 12.0621 14.5745 12.4159 14.7038C12.7697 14.8332 13.1463 14.8882 13.5223 14.8655H13.5563C13.9336 14.8986 14.3137 14.8532 14.6726 14.7321C15.0315 14.611 15.3615 14.4168 15.6416 14.1618C15.9217 13.9068 16.146 13.5966 16.3002 13.2506C16.4544 12.9046 16.5353 12.5305 16.5377 12.1517C16.5401 11.7729 16.464 11.3977 16.3142 11.0498C16.1644 10.7019 15.9441 10.3888 15.6672 10.1303C15.3904 9.87178 15.0629 9.67343 14.7056 9.54777C14.3483 9.4221 13.9688 9.37184 13.591 9.40016ZM10.9283 32.8402H16.185V17.0241H10.9283V32.8402Z" fill="#F1F2F2"/>
</svg>
