<svg width="191" height="161" viewBox="0 0 191 161" fill="none" xmlns="http://www.w3.org/2000/svg">
<path d="M24.1704 123.54C25.8637 122.18 27.1904 121.067 28.1504 120.2C29.1104 119.32 29.9171 118.407 30.5704 117.46C31.2371 116.5 31.5704 115.56 31.5704 114.64C31.5704 113.773 31.3571 113.093 30.9304 112.6C30.5171 112.093 29.8437 111.84 28.9104 111.84C28.0037 111.84 27.2971 112.127 26.7904 112.7C26.2971 113.26 26.0304 114.013 25.9904 114.96H24.2304C24.2837 113.467 24.7371 112.313 25.5904 111.5C26.4437 110.687 27.5437 110.28 28.8904 110.28C30.2637 110.28 31.3504 110.66 32.1504 111.42C32.9637 112.18 33.3704 113.227 33.3704 114.56C33.3704 115.667 33.0371 116.747 32.3704 117.8C31.7171 118.84 30.9704 119.76 30.1304 120.56C29.2904 121.347 28.2171 122.267 26.9104 123.32H33.7904V124.84H24.1704V123.54ZM35.8943 117.62C35.8943 115.327 36.2676 113.54 37.0143 112.26C37.761 110.967 39.0676 110.32 40.9343 110.32C42.7876 110.32 44.0876 110.967 44.8343 112.26C45.581 113.54 45.9543 115.327 45.9543 117.62C45.9543 119.953 45.581 121.767 44.8343 123.06C44.0876 124.353 42.7876 125 40.9343 125C39.0676 125 37.761 124.353 37.0143 123.06C36.2676 121.767 35.8943 119.953 35.8943 117.62ZM44.1543 117.62C44.1543 116.46 44.0743 115.48 43.9143 114.68C43.7676 113.867 43.4543 113.213 42.9743 112.72C42.5076 112.227 41.8276 111.98 40.9343 111.98C40.0276 111.98 39.3343 112.227 38.8543 112.72C38.3876 113.213 38.0743 113.867 37.9143 114.68C37.7676 115.48 37.6943 116.46 37.6943 117.62C37.6943 118.82 37.7676 119.827 37.9143 120.64C38.0743 121.453 38.3876 122.107 38.8543 122.6C39.3343 123.093 40.0276 123.34 40.9343 123.34C41.8276 123.34 42.5076 123.093 42.9743 122.6C43.4543 122.107 43.7676 121.453 43.9143 120.64C44.0743 119.827 44.1543 118.82 44.1543 117.62ZM48.0529 113.8C48.0529 112.893 48.3262 112.173 48.8729 111.64C49.4196 111.093 50.1196 110.82 50.9729 110.82C51.8262 110.82 52.5262 111.093 53.0729 111.64C53.6196 112.173 53.8929 112.893 53.8929 113.8C53.8929 114.72 53.6196 115.453 53.0729 116C52.5262 116.533 51.8262 116.8 50.9729 116.8C50.1196 116.8 49.4196 116.533 48.8729 116C48.3262 115.453 48.0529 114.72 48.0529 113.8ZM59.7329 111.04L51.6329 125H49.8329L57.9329 111.04H59.7329ZM50.9729 111.94C50.5196 111.94 50.1596 112.1 49.8929 112.42C49.6396 112.727 49.5129 113.187 49.5129 113.8C49.5129 114.413 49.6396 114.88 49.8929 115.2C50.1596 115.52 50.5196 115.68 50.9729 115.68C51.4262 115.68 51.7862 115.52 52.0529 115.2C52.3196 114.867 52.4529 114.4 52.4529 113.8C52.4529 113.187 52.3196 112.727 52.0529 112.42C51.7862 112.1 51.4262 111.94 50.9729 111.94ZM55.7129 122.24C55.7129 121.32 55.9862 120.593 56.5329 120.06C57.0796 119.513 57.7796 119.24 58.6329 119.24C59.4862 119.24 60.1796 119.513 60.7129 120.06C61.2596 120.593 61.5329 121.32 61.5329 122.24C61.5329 123.147 61.2596 123.873 60.7129 124.42C60.1796 124.967 59.4862 125.24 58.6329 125.24C57.7796 125.24 57.0796 124.973 56.5329 124.44C55.9862 123.893 55.7129 123.16 55.7129 122.24ZM58.6129 120.38C58.1596 120.38 57.7996 120.54 57.5329 120.86C57.2662 121.167 57.1329 121.627 57.1329 122.24C57.1329 122.84 57.2662 123.3 57.5329 123.62C57.7996 123.927 58.1596 124.08 58.6129 124.08C59.0662 124.08 59.4262 123.927 59.6929 123.62C59.9596 123.3 60.0929 122.84 60.0929 122.24C60.0929 121.627 59.9596 121.167 59.6929 120.86C59.4262 120.54 59.0662 120.38 58.6129 120.38ZM68.5807 119.48C68.5807 118.36 68.8074 117.38 69.2607 116.54C69.714 115.687 70.334 115.027 71.1207 114.56C71.9207 114.093 72.814 113.86 73.8007 113.86C74.654 113.86 75.4474 114.06 76.1807 114.46C76.914 114.847 77.474 115.36 77.8607 116V110.2H79.7007V125H77.8607V122.94C77.5007 123.593 76.9674 124.133 76.2607 124.56C75.554 124.973 74.7274 125.18 73.7807 125.18C72.8074 125.18 71.9207 124.94 71.1207 124.46C70.334 123.98 69.714 123.307 69.2607 122.44C68.8074 121.573 68.5807 120.587 68.5807 119.48ZM77.8607 119.5C77.8607 118.673 77.694 117.953 77.3607 117.34C77.0274 116.727 76.574 116.26 76.0007 115.94C75.4407 115.607 74.8207 115.44 74.1407 115.44C73.4607 115.44 72.8407 115.6 72.2807 115.92C71.7207 116.24 71.274 116.707 70.9407 117.32C70.6074 117.933 70.4407 118.653 70.4407 119.48C70.4407 120.32 70.6074 121.053 70.9407 121.68C71.274 122.293 71.7207 122.767 72.2807 123.1C72.8407 123.42 73.4607 123.58 74.1407 123.58C74.8207 123.58 75.4407 123.42 76.0007 123.1C76.574 122.767 77.0274 122.293 77.3607 121.68C77.694 121.053 77.8607 120.327 77.8607 119.5ZM83.0563 111.06H85.0763L83.1563 115.6H81.8763L83.0563 111.06ZM86.4713 119.48C86.4713 118.36 86.698 117.38 87.1513 116.54C87.6047 115.687 88.2247 115.027 89.0113 114.56C89.8113 114.093 90.698 113.86 91.6713 113.86C92.6313 113.86 93.4647 114.067 94.1713 114.48C94.878 114.893 95.4047 115.413 95.7513 116.04V114.04H97.5913V125H95.7513V122.96C95.3913 123.6 94.8513 124.133 94.1313 124.56C93.4247 124.973 92.598 125.18 91.6513 125.18C90.678 125.18 89.798 124.94 89.0113 124.46C88.2247 123.98 87.6047 123.307 87.1513 122.44C86.698 121.573 86.4713 120.587 86.4713 119.48ZM95.7513 119.5C95.7513 118.673 95.5847 117.953 95.2513 117.34C94.918 116.727 94.4647 116.26 93.8913 115.94C93.3313 115.607 92.7113 115.44 92.0313 115.44C91.3513 115.44 90.7313 115.6 90.1713 115.92C89.6113 116.24 89.1647 116.707 88.8313 117.32C88.498 117.933 88.3313 118.653 88.3313 119.48C88.3313 120.32 88.498 121.053 88.8313 121.68C89.1647 122.293 89.6113 122.767 90.1713 123.1C90.7313 123.42 91.3513 123.58 92.0313 123.58C92.7113 123.58 93.3313 123.42 93.8913 123.1C94.4647 122.767 94.918 122.293 95.2513 121.68C95.5847 121.053 95.7513 120.327 95.7513 119.5ZM99.987 119.5C99.987 118.367 100.214 117.38 100.667 116.54C101.12 115.687 101.747 115.027 102.547 114.56C103.36 114.093 104.287 113.86 105.327 113.86C106.674 113.86 107.78 114.187 108.647 114.84C109.527 115.493 110.107 116.4 110.387 117.56H108.427C108.24 116.893 107.874 116.367 107.327 115.98C106.794 115.593 106.127 115.4 105.327 115.4C104.287 115.4 103.447 115.76 102.807 116.48C102.167 117.187 101.847 118.193 101.847 119.5C101.847 120.82 102.167 121.84 102.807 122.56C103.447 123.28 104.287 123.64 105.327 123.64C106.127 123.64 106.794 123.453 107.327 123.08C107.86 122.707 108.227 122.173 108.427 121.48H110.387C110.094 122.6 109.507 123.5 108.627 124.18C107.747 124.847 106.647 125.18 105.327 125.18C104.287 125.18 103.36 124.947 102.547 124.48C101.747 124.013 101.12 123.353 100.667 122.5C100.214 121.647 99.987 120.647 99.987 119.5ZM115.035 115.54V122C115.035 122.533 115.149 122.913 115.375 123.14C115.602 123.353 115.995 123.46 116.555 123.46H117.895V125H116.255C115.242 125 114.482 124.767 113.975 124.3C113.469 123.833 113.215 123.067 113.215 122V115.54H111.795V114.04H113.215V111.28H115.035V114.04H117.895V115.54H115.035ZM121.041 112.26C120.694 112.26 120.401 112.14 120.161 111.9C119.921 111.66 119.801 111.367 119.801 111.02C119.801 110.673 119.921 110.38 120.161 110.14C120.401 109.9 120.694 109.78 121.041 109.78C121.374 109.78 121.654 109.9 121.881 110.14C122.121 110.38 122.241 110.673 122.241 111.02C122.241 111.367 122.121 111.66 121.881 111.9C121.654 112.14 121.374 112.26 121.041 112.26ZM121.921 114.04V125H120.101V114.04H121.921ZM129.802 125.18C128.776 125.18 127.842 124.947 127.002 124.48C126.176 124.013 125.522 123.353 125.042 122.5C124.576 121.633 124.342 120.633 124.342 119.5C124.342 118.38 124.582 117.393 125.062 116.54C125.556 115.673 126.222 115.013 127.062 114.56C127.902 114.093 128.842 113.86 129.882 113.86C130.922 113.86 131.862 114.093 132.702 114.56C133.542 115.013 134.202 115.667 134.682 116.52C135.176 117.373 135.422 118.367 135.422 119.5C135.422 120.633 135.169 121.633 134.662 122.5C134.169 123.353 133.496 124.013 132.642 124.48C131.789 124.947 130.842 125.18 129.802 125.18ZM129.802 123.58C130.456 123.58 131.069 123.427 131.642 123.12C132.216 122.813 132.676 122.353 133.022 121.74C133.382 121.127 133.562 120.38 133.562 119.5C133.562 118.62 133.389 117.873 133.042 117.26C132.696 116.647 132.242 116.193 131.682 115.9C131.122 115.593 130.516 115.44 129.862 115.44C129.196 115.44 128.582 115.593 128.022 115.9C127.476 116.193 127.036 116.647 126.702 117.26C126.369 117.873 126.202 118.62 126.202 119.5C126.202 120.393 126.362 121.147 126.682 121.76C127.016 122.373 127.456 122.833 128.002 123.14C128.549 123.433 129.149 123.58 129.802 123.58ZM143.155 113.84C144.489 113.84 145.569 114.247 146.395 115.06C147.222 115.86 147.635 117.02 147.635 118.54V125H145.835V118.8C145.835 117.707 145.562 116.873 145.015 116.3C144.469 115.713 143.722 115.42 142.775 115.42C141.815 115.42 141.049 115.72 140.475 116.32C139.915 116.92 139.635 117.793 139.635 118.94V125H137.815V114.04H139.635V115.6C139.995 115.04 140.482 114.607 141.095 114.3C141.722 113.993 142.409 113.84 143.155 113.84ZM154.488 125.18C153.648 125.18 152.895 125.04 152.228 124.76C151.562 124.467 151.035 124.067 150.648 123.56C150.262 123.04 150.048 122.447 150.008 121.78H151.888C151.942 122.327 152.195 122.773 152.648 123.12C153.115 123.467 153.722 123.64 154.468 123.64C155.162 123.64 155.708 123.487 156.108 123.18C156.508 122.873 156.708 122.487 156.708 122.02C156.708 121.54 156.495 121.187 156.068 120.96C155.642 120.72 154.982 120.487 154.088 120.26C153.275 120.047 152.608 119.833 152.088 119.62C151.582 119.393 151.142 119.067 150.768 118.64C150.408 118.2 150.228 117.627 150.228 116.92C150.228 116.36 150.395 115.847 150.728 115.38C151.062 114.913 151.535 114.547 152.148 114.28C152.762 114 153.462 113.86 154.248 113.86C155.462 113.86 156.442 114.167 157.188 114.78C157.935 115.393 158.335 116.233 158.388 117.3H156.568C156.528 116.727 156.295 116.267 155.868 115.92C155.455 115.573 154.895 115.4 154.188 115.4C153.535 115.4 153.015 115.54 152.628 115.82C152.242 116.1 152.048 116.467 152.048 116.92C152.048 117.28 152.162 117.58 152.388 117.82C152.628 118.047 152.922 118.233 153.268 118.38C153.628 118.513 154.122 118.667 154.748 118.84C155.535 119.053 156.175 119.267 156.668 119.48C157.162 119.68 157.582 119.987 157.928 120.4C158.288 120.813 158.475 121.353 158.488 122.02C158.488 122.62 158.322 123.16 157.988 123.64C157.655 124.12 157.182 124.5 156.568 124.78C155.968 125.047 155.275 125.18 154.488 125.18ZM3.62953 146.06C3.98953 145.433 4.52286 144.913 5.22953 144.5C5.94953 144.073 6.78286 143.86 7.72953 143.86C8.70286 143.86 9.58286 144.093 10.3695 144.56C11.1695 145.027 11.7962 145.687 12.2495 146.54C12.7029 147.38 12.9295 148.36 12.9295 149.48C12.9295 150.587 12.7029 151.573 12.2495 152.44C11.7962 153.307 11.1695 153.98 10.3695 154.46C9.58286 154.94 8.70286 155.18 7.72953 155.18C6.7962 155.18 5.96953 154.973 5.24953 154.56C4.54286 154.133 4.00286 153.607 3.62953 152.98V160.2H1.80953V144.04H3.62953V146.06ZM11.0695 149.48C11.0695 148.653 10.9029 147.933 10.5695 147.32C10.2362 146.707 9.78286 146.24 9.20953 145.92C8.64953 145.6 8.02953 145.44 7.34953 145.44C6.68286 145.44 6.06286 145.607 5.48953 145.94C4.92953 146.26 4.4762 146.733 4.12953 147.36C3.7962 147.973 3.62953 148.687 3.62953 149.5C3.62953 150.327 3.7962 151.053 4.12953 151.68C4.4762 152.293 4.92953 152.767 5.48953 153.1C6.06286 153.42 6.68286 153.58 7.34953 153.58C8.02953 153.58 8.64953 153.42 9.20953 153.1C9.78286 152.767 10.2362 152.293 10.5695 151.68C10.9029 151.053 11.0695 150.32 11.0695 149.48ZM20.1052 155.18C19.0785 155.18 18.1452 154.947 17.3052 154.48C16.4785 154.013 15.8252 153.353 15.3452 152.5C14.8785 151.633 14.6452 150.633 14.6452 149.5C14.6452 148.38 14.8852 147.393 15.3652 146.54C15.8585 145.673 16.5252 145.013 17.3652 144.56C18.2052 144.093 19.1452 143.86 20.1852 143.86C21.2252 143.86 22.1652 144.093 23.0052 144.56C23.8452 145.013 24.5052 145.667 24.9852 146.52C25.4785 147.373 25.7252 148.367 25.7252 149.5C25.7252 150.633 25.4718 151.633 24.9652 152.5C24.4718 153.353 23.7985 154.013 22.9452 154.48C22.0918 154.947 21.1452 155.18 20.1052 155.18ZM20.1052 153.58C20.7585 153.58 21.3718 153.427 21.9452 153.12C22.5185 152.813 22.9785 152.353 23.3252 151.74C23.6852 151.127 23.8652 150.38 23.8652 149.5C23.8652 148.62 23.6918 147.873 23.3452 147.26C22.9985 146.647 22.5452 146.193 21.9852 145.9C21.4252 145.593 20.8185 145.44 20.1652 145.44C19.4985 145.44 18.8852 145.593 18.3252 145.9C17.7785 146.193 17.3385 146.647 17.0052 147.26C16.6718 147.873 16.5052 148.62 16.5052 149.5C16.5052 150.393 16.6652 151.147 16.9852 151.76C17.3185 152.373 17.7585 152.833 18.3052 153.14C18.8518 153.433 19.4518 153.58 20.1052 153.58ZM37.8381 144.04V155H36.0181V153.38C35.6715 153.94 35.1848 154.38 34.5581 154.7C33.9448 155.007 33.2648 155.16 32.5181 155.16C31.6648 155.16 30.8981 154.987 30.2181 154.64C29.5381 154.28 28.9981 153.747 28.5981 153.04C28.2115 152.333 28.0181 151.473 28.0181 150.46V144.04H29.8181V150.22C29.8181 151.3 30.0915 152.133 30.6381 152.72C31.1848 153.293 31.9315 153.58 32.8781 153.58C33.8515 153.58 34.6181 153.28 35.1781 152.68C35.7381 152.08 36.0181 151.207 36.0181 150.06V144.04H37.8381ZM42.7311 145.82C43.0511 145.193 43.5044 144.707 44.0911 144.36C44.6911 144.013 45.4178 143.84 46.2711 143.84V145.72H45.7911C43.7511 145.72 42.7311 146.827 42.7311 149.04V155H40.9111V144.04H42.7311V145.82ZM56.0441 147.48C55.2974 147.187 54.7241 146.76 54.3241 146.2C53.9241 145.64 53.7241 144.96 53.7241 144.16C53.7241 143.44 53.9041 142.793 54.2641 142.22C54.6241 141.633 55.1574 141.173 55.8641 140.84C56.5841 140.493 57.4507 140.32 58.4641 140.32C59.4774 140.32 60.3374 140.493 61.0441 140.84C61.7641 141.173 62.3041 141.633 62.6641 142.22C63.0374 142.793 63.2241 143.44 63.2241 144.16C63.2241 144.933 63.0174 145.613 62.6041 146.2C62.1907 146.773 61.6241 147.2 60.9041 147.48C61.7307 147.733 62.3841 148.18 62.8641 148.82C63.3574 149.447 63.6041 150.207 63.6041 151.1C63.6041 151.967 63.3907 152.727 62.9641 153.38C62.5374 154.02 61.9307 154.52 61.1441 154.88C60.3707 155.227 59.4774 155.4 58.4641 155.4C57.4507 155.4 56.5574 155.227 55.7841 154.88C55.0241 154.52 54.4307 154.02 54.0041 153.38C53.5774 152.727 53.3641 151.967 53.3641 151.1C53.3641 150.207 53.6041 149.44 54.0841 148.8C54.5641 148.16 55.2174 147.72 56.0441 147.48ZM61.4641 144.38C61.4641 143.567 61.1974 142.94 60.6641 142.5C60.1307 142.06 59.3974 141.84 58.4641 141.84C57.5441 141.84 56.8174 142.06 56.2841 142.5C55.7507 142.94 55.4841 143.573 55.4841 144.4C55.4841 145.147 55.7574 145.747 56.3041 146.2C56.8641 146.653 57.5841 146.88 58.4641 146.88C59.3574 146.88 60.0774 146.653 60.6241 146.2C61.1841 145.733 61.4641 145.127 61.4641 144.38ZM58.4641 148.28C57.4774 148.28 56.6707 148.513 56.0441 148.98C55.4174 149.433 55.1041 150.12 55.1041 151.04C55.1041 151.893 55.4041 152.58 56.0041 153.1C56.6174 153.62 57.4374 153.88 58.4641 153.88C59.4907 153.88 60.3041 153.62 60.9041 153.1C61.5041 152.58 61.8041 151.893 61.8041 151.04C61.8041 150.147 61.4974 149.467 60.8841 149C60.2707 148.52 59.4641 148.28 58.4641 148.28ZM66.0213 147.62C66.0213 145.327 66.3946 143.54 67.1413 142.26C67.8879 140.967 69.1946 140.32 71.0613 140.32C72.9146 140.32 74.2146 140.967 74.9613 142.26C75.7079 143.54 76.0812 145.327 76.0812 147.62C76.0812 149.953 75.7079 151.767 74.9613 153.06C74.2146 154.353 72.9146 155 71.0613 155C69.1946 155 67.8879 154.353 67.1413 153.06C66.3946 151.767 66.0213 149.953 66.0213 147.62ZM74.2813 147.62C74.2813 146.46 74.2013 145.48 74.0413 144.68C73.8946 143.867 73.5813 143.213 73.1013 142.72C72.6346 142.227 71.9546 141.98 71.0613 141.98C70.1546 141.98 69.4613 142.227 68.9813 142.72C68.5146 143.213 68.2013 143.867 68.0413 144.68C67.8946 145.48 67.8213 146.46 67.8213 147.62C67.8213 148.82 67.8946 149.827 68.0413 150.64C68.2013 151.453 68.5146 152.107 68.9813 152.6C69.4613 153.093 70.1546 153.34 71.0613 153.34C71.9546 153.34 72.6346 153.093 73.1013 152.6C73.5813 152.107 73.8946 151.453 74.0413 150.64C74.2013 149.827 74.2813 148.82 74.2813 147.62ZM78.1798 143.8C78.1798 142.893 78.4532 142.173 78.9998 141.64C79.5465 141.093 80.2465 140.82 81.0998 140.82C81.9532 140.82 82.6532 141.093 83.1998 141.64C83.7465 142.173 84.0198 142.893 84.0198 143.8C84.0198 144.72 83.7465 145.453 83.1998 146C82.6532 146.533 81.9532 146.8 81.0998 146.8C80.2465 146.8 79.5465 146.533 78.9998 146C78.4532 145.453 78.1798 144.72 78.1798 143.8ZM89.8598 141.04L81.7598 155H79.9598L88.0598 141.04H89.8598ZM81.0998 141.94C80.6465 141.94 80.2865 142.1 80.0198 142.42C79.7665 142.727 79.6398 143.187 79.6398 143.8C79.6398 144.413 79.7665 144.88 80.0198 145.2C80.2865 145.52 80.6465 145.68 81.0998 145.68C81.5532 145.68 81.9132 145.52 82.1798 145.2C82.4465 144.867 82.5798 144.4 82.5798 143.8C82.5798 143.187 82.4465 142.727 82.1798 142.42C81.9132 142.1 81.5532 141.94 81.0998 141.94ZM85.8398 152.24C85.8398 151.32 86.1132 150.593 86.6598 150.06C87.2065 149.513 87.9065 149.24 88.7598 149.24C89.6132 149.24 90.3065 149.513 90.8398 150.06C91.3865 150.593 91.6598 151.32 91.6598 152.24C91.6598 153.147 91.3865 153.873 90.8398 154.42C90.3065 154.967 89.6132 155.24 88.7598 155.24C87.9065 155.24 87.2065 154.973 86.6598 154.44C86.1132 153.893 85.8398 153.16 85.8398 152.24ZM88.7398 150.38C88.2865 150.38 87.9265 150.54 87.6598 150.86C87.3932 151.167 87.2598 151.627 87.2598 152.24C87.2598 152.84 87.3932 153.3 87.6598 153.62C87.9265 153.927 88.2865 154.08 88.7398 154.08C89.1932 154.08 89.5532 153.927 89.8198 153.62C90.0865 153.3 90.2198 152.84 90.2198 152.24C90.2198 151.627 90.0865 151.167 89.8198 150.86C89.5532 150.54 89.1932 150.38 88.7398 150.38ZM98.7077 149.48C98.7077 148.36 98.9343 147.38 99.3877 146.54C99.841 145.687 100.461 145.027 101.248 144.56C102.048 144.093 102.941 143.86 103.928 143.86C104.781 143.86 105.574 144.06 106.308 144.46C107.041 144.847 107.601 145.36 107.988 146V140.2H109.828V155H107.988V152.94C107.628 153.593 107.094 154.133 106.388 154.56C105.681 154.973 104.854 155.18 103.908 155.18C102.934 155.18 102.048 154.94 101.248 154.46C100.461 153.98 99.841 153.307 99.3877 152.44C98.9343 151.573 98.7077 150.587 98.7077 149.48ZM107.988 149.5C107.988 148.673 107.821 147.953 107.488 147.34C107.154 146.727 106.701 146.26 106.128 145.94C105.568 145.607 104.948 145.44 104.268 145.44C103.588 145.44 102.968 145.6 102.408 145.92C101.848 146.24 101.401 146.707 101.068 147.32C100.734 147.933 100.568 148.653 100.568 149.48C100.568 150.32 100.734 151.053 101.068 151.68C101.401 152.293 101.848 152.767 102.408 153.1C102.968 153.42 103.588 153.58 104.268 153.58C104.948 153.58 105.568 153.42 106.128 153.1C106.701 152.767 107.154 152.293 107.488 151.68C107.821 151.053 107.988 150.327 107.988 149.5ZM113.183 141.06H115.203L113.283 145.6H112.003L113.183 141.06ZM118.218 142.26C117.872 142.26 117.578 142.14 117.338 141.9C117.098 141.66 116.978 141.367 116.978 141.02C116.978 140.673 117.098 140.38 117.338 140.14C117.578 139.9 117.872 139.78 118.218 139.78C118.552 139.78 118.832 139.9 119.058 140.14C119.298 140.38 119.418 140.673 119.418 141.02C119.418 141.367 119.298 141.66 119.058 141.9C118.832 142.14 118.552 142.26 118.218 142.26ZM119.098 144.04V155H117.278V144.04H119.098ZM135.38 143.84C136.233 143.84 136.993 144.02 137.66 144.38C138.327 144.727 138.853 145.253 139.24 145.96C139.627 146.667 139.82 147.527 139.82 148.54V155H138.02V148.8C138.02 147.707 137.747 146.873 137.2 146.3C136.667 145.713 135.94 145.42 135.02 145.42C134.073 145.42 133.32 145.727 132.76 146.34C132.2 146.94 131.92 147.813 131.92 148.96V155H130.12V148.8C130.12 147.707 129.847 146.873 129.3 146.3C128.767 145.713 128.04 145.42 127.12 145.42C126.173 145.42 125.42 145.727 124.86 146.34C124.3 146.94 124.02 147.813 124.02 148.96V155H122.2V144.04H124.02V145.62C124.38 145.047 124.86 144.607 125.46 144.3C126.073 143.993 126.747 143.84 127.48 143.84C128.4 143.84 129.213 144.047 129.92 144.46C130.627 144.873 131.153 145.48 131.5 146.28C131.807 145.507 132.313 144.907 133.02 144.48C133.727 144.053 134.513 143.84 135.38 143.84ZM144.626 146.06C144.986 145.433 145.519 144.913 146.226 144.5C146.946 144.073 147.779 143.86 148.726 143.86C149.699 143.86 150.579 144.093 151.366 144.56C152.166 145.027 152.792 145.687 153.246 146.54C153.699 147.38 153.926 148.36 153.926 149.48C153.926 150.587 153.699 151.573 153.246 152.44C152.792 153.307 152.166 153.98 151.366 154.46C150.579 154.94 149.699 155.18 148.726 155.18C147.792 155.18 146.966 154.973 146.246 154.56C145.539 154.133 144.999 153.607 144.626 152.98V160.2H142.806V144.04H144.626V146.06ZM152.066 149.48C152.066 148.653 151.899 147.933 151.566 147.32C151.232 146.707 150.779 146.24 150.206 145.92C149.646 145.6 149.026 145.44 148.346 145.44C147.679 145.44 147.059 145.607 146.486 145.94C145.926 146.26 145.472 146.733 145.126 147.36C144.792 147.973 144.626 148.687 144.626 149.5C144.626 150.327 144.792 151.053 145.126 151.68C145.472 152.293 145.926 152.767 146.486 153.1C147.059 153.42 147.679 153.58 148.346 153.58C149.026 153.58 149.646 153.42 150.206 153.1C150.779 152.767 151.232 152.293 151.566 151.68C151.899 151.053 152.066 150.32 152.066 149.48ZM155.641 149.48C155.641 148.36 155.868 147.38 156.321 146.54C156.775 145.687 157.395 145.027 158.181 144.56C158.981 144.093 159.868 143.86 160.841 143.86C161.801 143.86 162.635 144.067 163.341 144.48C164.048 144.893 164.575 145.413 164.921 146.04V144.04H166.761V155H164.921V152.96C164.561 153.6 164.021 154.133 163.301 154.56C162.595 154.973 161.768 155.18 160.821 155.18C159.848 155.18 158.968 154.94 158.181 154.46C157.395 153.98 156.775 153.307 156.321 152.44C155.868 151.573 155.641 150.587 155.641 149.48ZM164.921 149.5C164.921 148.673 164.755 147.953 164.421 147.34C164.088 146.727 163.635 146.26 163.061 145.94C162.501 145.607 161.881 145.44 161.201 145.44C160.521 145.44 159.901 145.6 159.341 145.92C158.781 146.24 158.335 146.707 158.001 147.32C157.668 147.933 157.501 148.653 157.501 149.48C157.501 150.32 157.668 151.053 158.001 151.68C158.335 152.293 158.781 152.767 159.341 153.1C159.901 153.42 160.521 153.58 161.201 153.58C161.881 153.58 162.501 153.42 163.061 153.1C163.635 152.767 164.088 152.293 164.421 151.68C164.755 151.053 164.921 150.327 164.921 149.5ZM169.157 149.5C169.157 148.367 169.384 147.38 169.837 146.54C170.29 145.687 170.917 145.027 171.717 144.56C172.53 144.093 173.457 143.86 174.497 143.86C175.844 143.86 176.95 144.187 177.817 144.84C178.697 145.493 179.277 146.4 179.557 147.56H177.597C177.41 146.893 177.044 146.367 176.497 145.98C175.964 145.593 175.297 145.4 174.497 145.4C173.457 145.4 172.617 145.76 171.977 146.48C171.337 147.187 171.017 148.193 171.017 149.5C171.017 150.82 171.337 151.84 171.977 152.56C172.617 153.28 173.457 153.64 174.497 153.64C175.297 153.64 175.964 153.453 176.497 153.08C177.03 152.707 177.397 152.173 177.597 151.48H179.557C179.264 152.6 178.677 153.5 177.797 154.18C176.917 154.847 175.817 155.18 174.497 155.18C173.457 155.18 172.53 154.947 171.717 154.48C170.917 154.013 170.29 153.353 169.837 152.5C169.384 151.647 169.157 150.647 169.157 149.5ZM184.205 145.54V152C184.205 152.533 184.319 152.913 184.545 153.14C184.772 153.353 185.165 153.46 185.725 153.46H187.065V155H185.425C184.412 155 183.652 154.767 183.145 154.3C182.639 153.833 182.385 153.067 182.385 152V145.54H180.965V144.04H182.385V141.28H184.205V144.04H187.065V145.54H184.205Z" fill="white"/>
<g clip-path="url(#clip0_80_176)">
<path d="M31.487 13.388H28.081L27.535 15H25.208L28.51 5.874H31.084L34.386 15H32.033L31.487 13.388ZM30.915 11.672L29.784 8.331L28.666 11.672H30.915ZM34.949 11.373C34.949 10.619 35.1006 9.96033 35.404 9.397C35.716 8.83367 36.145 8.40033 36.691 8.097C37.2456 7.79367 37.8783 7.642 38.589 7.642C39.499 7.642 40.2573 7.88033 40.864 8.357C41.4793 8.83367 41.8823 9.50533 42.073 10.372H39.707C39.5076 9.81733 39.122 9.54 38.55 9.54C38.1426 9.54 37.8176 9.70033 37.575 10.021C37.3323 10.333 37.211 10.7837 37.211 11.373C37.211 11.9623 37.3323 12.4173 37.575 12.738C37.8176 13.05 38.1426 13.206 38.55 13.206C39.122 13.206 39.5076 12.9287 39.707 12.374H42.073C41.8823 13.2233 41.4793 13.8907 40.864 14.376C40.2486 14.8613 39.4903 15.104 38.589 15.104C37.8783 15.104 37.2456 14.9523 36.691 14.649C36.145 14.3457 35.716 13.9123 35.404 13.349C35.1006 12.7857 34.949 12.127 34.949 11.373ZM47.3051 13.115V15H46.1741C45.3681 15 44.7397 14.805 44.2891 14.415C43.8384 14.0163 43.6131 13.3707 43.6131 12.478V9.592H42.7291V7.746H43.6131V5.978H45.8361V7.746H47.2921V9.592H45.8361V12.504C45.8361 12.7207 45.8881 12.8767 45.9921 12.972C46.0961 13.0673 46.2694 13.115 46.5121 13.115H47.3051ZM49.6613 6.992C49.2713 6.992 48.9506 6.87933 48.6993 6.654C48.4566 6.42 48.3353 6.134 48.3353 5.796C48.3353 5.44933 48.4566 5.16333 48.6993 4.938C48.9506 4.704 49.2713 4.587 49.6613 4.587C50.0426 4.587 50.3546 4.704 50.5973 4.938C50.8486 5.16333 50.9743 5.44933 50.9743 5.796C50.9743 6.134 50.8486 6.42 50.5973 6.654C50.3546 6.87933 50.0426 6.992 49.6613 6.992ZM50.7663 7.746V15H48.5433V7.746H50.7663ZM55.6793 15.104C54.9686 15.104 54.3273 14.9523 53.7553 14.649C53.192 14.3457 52.7456 13.9123 52.4163 13.349C52.0956 12.7857 51.9353 12.127 51.9353 11.373C51.9353 10.6277 52.1 9.97333 52.4293 9.41C52.7586 8.838 53.2093 8.40033 53.7813 8.097C54.3533 7.79367 54.9946 7.642 55.7053 7.642C56.416 7.642 57.0573 7.79367 57.6293 8.097C58.2013 8.40033 58.652 8.838 58.9813 9.41C59.3106 9.97333 59.4753 10.6277 59.4753 11.373C59.4753 12.1183 59.3063 12.777 58.9683 13.349C58.639 13.9123 58.184 14.3457 57.6033 14.649C57.0313 14.9523 56.39 15.104 55.6793 15.104ZM55.6793 13.18C56.104 13.18 56.4636 13.024 56.7583 12.712C57.0616 12.4 57.2133 11.9537 57.2133 11.373C57.2133 10.7923 57.066 10.346 56.7713 10.034C56.4853 9.722 56.13 9.566 55.7053 9.566C55.272 9.566 54.9123 9.722 54.6263 10.034C54.3403 10.3373 54.1973 10.7837 54.1973 11.373C54.1973 11.9537 54.336 12.4 54.6133 12.712C54.8993 13.024 55.2546 13.18 55.6793 13.18ZM65.0746 7.668C65.924 7.668 66.6 7.94533 67.1026 8.5C67.614 9.046 67.8696 9.8 67.8696 10.762V15H65.6596V11.061C65.6596 10.5757 65.534 10.1987 65.2826 9.93C65.0313 9.66133 64.6933 9.527 64.2686 9.527C63.844 9.527 63.506 9.66133 63.2546 9.93C63.0033 10.1987 62.8776 10.5757 62.8776 11.061V15H60.6546V7.746H62.8776V8.708C63.103 8.38733 63.4063 8.136 63.7876 7.954C64.169 7.76333 64.598 7.668 65.0746 7.668Z" fill="white"/>
<path d="M145.029 5.874V15H142.806V5.874H145.029ZM155.896 7.668C156.797 7.668 157.512 7.941 158.041 8.487C158.578 9.033 158.847 9.79133 158.847 10.762V15H156.637V11.061C156.637 10.593 156.511 10.2333 156.26 9.982C156.017 9.722 155.679 9.592 155.246 9.592C154.813 9.592 154.47 9.722 154.219 9.982C153.976 10.2333 153.855 10.593 153.855 11.061V15H151.645V11.061C151.645 10.593 151.519 10.2333 151.268 9.982C151.025 9.722 150.687 9.592 150.254 9.592C149.821 9.592 149.478 9.722 149.227 9.982C148.984 10.2333 148.863 10.593 148.863 11.061V15H146.64V7.746H148.863V8.656C149.088 8.35267 149.383 8.11433 149.747 7.941C150.111 7.759 150.523 7.668 150.982 7.668C151.528 7.668 152.013 7.785 152.438 8.019C152.871 8.253 153.209 8.58667 153.452 9.02C153.703 8.62133 154.046 8.29633 154.479 8.045C154.912 7.79367 155.385 7.668 155.896 7.668ZM162.625 8.773C162.841 8.435 163.14 8.162 163.522 7.954C163.903 7.746 164.349 7.642 164.861 7.642C165.459 7.642 166 7.79367 166.486 8.097C166.971 8.40033 167.352 8.83367 167.63 9.397C167.916 9.96033 168.059 10.6147 168.059 11.36C168.059 12.1053 167.916 12.764 167.63 13.336C167.352 13.8993 166.971 14.337 166.486 14.649C166 14.9523 165.459 15.104 164.861 15.104C164.358 15.104 163.912 15 163.522 14.792C163.14 14.584 162.841 14.3153 162.625 13.986V18.458H160.402V7.746H162.625V8.773ZM165.797 11.36C165.797 10.8053 165.641 10.372 165.329 10.06C165.025 9.73933 164.648 9.579 164.198 9.579C163.756 9.579 163.379 9.73933 163.067 10.06C162.763 10.3807 162.612 10.8183 162.612 11.373C162.612 11.9277 162.763 12.3653 163.067 12.686C163.379 13.0067 163.756 13.167 164.198 13.167C164.64 13.167 165.017 13.0067 165.329 12.686C165.641 12.3567 165.797 11.9147 165.797 11.36ZM168.783 11.36C168.783 10.6147 168.922 9.96033 169.199 9.397C169.485 8.83367 169.871 8.40033 170.356 8.097C170.841 7.79367 171.383 7.642 171.981 7.642C172.492 7.642 172.939 7.746 173.32 7.954C173.71 8.162 174.009 8.435 174.217 8.773V7.746H176.44V15H174.217V13.973C174 14.311 173.697 14.584 173.307 14.792C172.926 15 172.479 15.104 171.968 15.104C171.379 15.104 170.841 14.9523 170.356 14.649C169.871 14.337 169.485 13.8993 169.199 13.336C168.922 12.764 168.783 12.1053 168.783 11.36ZM174.217 11.373C174.217 10.8183 174.061 10.3807 173.749 10.06C173.446 9.73933 173.073 9.579 172.631 9.579C172.189 9.579 171.812 9.73933 171.5 10.06C171.197 10.372 171.045 10.8053 171.045 11.36C171.045 11.9147 171.197 12.3567 171.5 12.686C171.812 13.0067 172.189 13.167 172.631 13.167C173.073 13.167 173.446 13.0067 173.749 12.686C174.061 12.3653 174.217 11.9277 174.217 11.373ZM177.606 11.373C177.606 10.619 177.758 9.96033 178.061 9.397C178.373 8.83367 178.802 8.40033 179.348 8.097C179.903 7.79367 180.536 7.642 181.246 7.642C182.156 7.642 182.915 7.88033 183.521 8.357C184.137 8.83367 184.54 9.50533 184.73 10.372H182.364C182.165 9.81733 181.779 9.54 181.207 9.54C180.8 9.54 180.475 9.70033 180.232 10.021C179.99 10.333 179.868 10.7837 179.868 11.373C179.868 11.9623 179.99 12.4173 180.232 12.738C180.475 13.05 180.8 13.206 181.207 13.206C181.779 13.206 182.165 12.9287 182.364 12.374H184.73C184.54 13.2233 184.137 13.8907 183.521 14.376C182.906 14.8613 182.148 15.104 181.246 15.104C180.536 15.104 179.903 14.9523 179.348 14.649C178.802 14.3457 178.373 13.9123 178.061 13.349C177.758 12.7857 177.606 12.127 177.606 11.373ZM189.962 13.115V15H188.831C188.025 15 187.397 14.805 186.946 14.415C186.496 14.0163 186.27 13.3707 186.27 12.478V9.592H185.386V7.746H186.27V5.978H188.493V7.746H189.949V9.592H188.493V12.504C188.493 12.7207 188.545 12.8767 188.649 12.972C188.753 13.0673 188.927 13.115 189.169 13.115H189.962Z" fill="#12142B"/>
<path d="M109.891 85.6315C131.744 85.6315 149.523 68.2735 149.523 46.9385C149.523 25.6035 131.744 8.24745 109.891 8.24745C102.367 8.2145 94.9885 10.3179 88.6131 14.3132C82.2376 18.3084 77.1271 24.0313 73.8759 30.8165L76.0509 31.7615C79.1172 25.3996 83.9234 20.0369 89.9126 16.2947C95.9018 12.5525 102.829 10.584 109.891 10.6175C130.437 10.6175 147.153 26.9115 147.153 46.9385C147.153 66.9655 130.437 83.2615 109.891 83.2615C102.629 83.2991 95.5128 81.2184 89.4149 77.274C83.3169 73.3296 78.5014 67.6927 75.558 61.0535L73.3579 61.9255C76.4766 69.0057 81.5954 75.021 88.0854 79.2324C94.5755 83.4437 102.154 85.6678 109.891 85.6315Z" fill="#12142B" stroke="#153659"/>
<path d="M104.889 46.8885L74.695 58.8455C74.962 59.5905 75.244 60.3305 75.558 61.0535L111.067 46.9895L76.051 31.7615C75.7124 32.4748 75.3974 33.1998 75.106 33.9365L104.889 46.8885Z" fill="#12142B" stroke="#153659"/>
<path d="M74.695 58.8445L72.49 59.7175C72.758 60.4635 73.041 61.2015 73.358 61.9245L75.558 61.0525C75.244 60.3295 74.958 59.5895 74.695 58.8445Z" fill="#12142B" stroke="#153659"/>
<path d="M75.106 33.9354C75.398 33.1994 75.713 32.4747 76.051 31.7614L73.876 30.8164C73.5427 31.5297 73.2284 32.2547 72.933 32.9914L75.106 33.9354Z" fill="#12142B" stroke="#153659"/>
<path d="M41.291 33.2989L39.117 32.3529C37.0562 37.099 35.9952 42.2187 36 47.3929C35.9984 51.8326 36.7814 56.2377 38.313 60.4049L40.518 59.5319C39.0962 55.6427 38.3695 51.5338 38.371 47.3929C38.3672 42.5443 39.3611 37.7468 41.291 33.2989Z" fill="white" stroke="white"/>
<path d="M72.494 46.868L40.518 59.531C40.7893 60.275 41.084 61.0083 41.402 61.731L78.672 46.97L42.313 31.158C41.951 31.858 41.605 32.571 41.29 33.299L72.494 46.868Z" fill="white" stroke="white"/>
<path d="M40.518 59.5309L38.312 60.4049C38.5846 61.1482 38.879 61.8816 39.195 62.6049L41.402 61.7309C41.0833 61.0096 40.7886 60.2762 40.518 59.5309Z" fill="white" stroke="white"/>
<path d="M41.29 33.2979C41.605 32.5709 41.951 31.8609 42.313 31.1579L40.135 30.2109C39.777 30.9109 39.435 31.6259 39.117 32.3529L41.29 33.2979Z" fill="white" stroke="white"/>
</g>
<defs>
<clipPath id="clip0_80_176">
<rect width="166" height="87" fill="white" transform="translate(25)"/>
</clipPath>
</defs>
</svg>
