<svg width="267" height="204" viewBox="0 0 267 204" fill="none" xmlns="http://www.w3.org/2000/svg">
<g clip-path="url(#clip0_80_148)">
<path d="M115.029 8.655V10.501H118.006V12.217H115.029V14.219H118.396V16H112.806V6.874H118.396V8.655H115.029ZM124.259 8.668C125.109 8.668 125.785 8.94533 126.287 9.5C126.799 10.046 127.054 10.8 127.054 11.762V16H124.844V12.061C124.844 11.5757 124.719 11.1987 124.467 10.93C124.216 10.6613 123.878 10.527 123.453 10.527C123.029 10.527 122.691 10.6613 122.439 10.93C122.188 11.1987 122.062 11.5757 122.062 12.061V16H119.839V8.746H122.062V9.708C122.288 9.38733 122.591 9.136 122.972 8.954C123.354 8.76333 123.783 8.668 124.259 8.668ZM132.642 14.115V16H131.511C130.705 16 130.077 15.805 129.626 15.415C129.175 15.0163 128.95 14.3707 128.95 13.478V10.592H128.066V8.746H128.95V6.978H131.173V8.746H132.629V10.592H131.173V13.504C131.173 13.7207 131.225 13.8767 131.329 13.972C131.433 14.0673 131.606 14.115 131.849 14.115H132.642ZM136.103 9.955C136.363 9.55633 136.688 9.24433 137.078 9.019C137.468 8.785 137.902 8.668 138.378 8.668V11.021H137.767C137.213 11.021 136.797 11.1423 136.519 11.385C136.242 11.619 136.103 12.035 136.103 12.633V16H133.88V8.746H136.103V9.955ZM146.279 12.256C146.279 12.464 146.266 12.6807 146.24 12.906H141.209C141.243 13.3567 141.386 13.7033 141.638 13.946C141.898 14.18 142.214 14.297 142.587 14.297C143.141 14.297 143.527 14.063 143.744 13.595H146.11C145.988 14.0717 145.767 14.5007 145.447 14.882C145.135 15.2633 144.74 15.5623 144.264 15.779C143.787 15.9957 143.254 16.104 142.665 16.104C141.954 16.104 141.321 15.9523 140.767 15.649C140.212 15.3457 139.779 14.9123 139.467 14.349C139.155 13.7857 138.999 13.127 138.999 12.373C138.999 11.619 139.15 10.9603 139.454 10.397C139.766 9.83367 140.199 9.40033 140.754 9.097C141.308 8.79367 141.945 8.642 142.665 8.642C143.367 8.642 143.991 8.78933 144.537 9.084C145.083 9.37867 145.507 9.799 145.811 10.345C146.123 10.891 146.279 11.528 146.279 12.256ZM144.004 11.671C144.004 11.2897 143.874 10.9863 143.614 10.761C143.354 10.5357 143.029 10.423 142.639 10.423C142.266 10.423 141.95 10.5313 141.69 10.748C141.438 10.9647 141.282 11.2723 141.222 11.671H144.004ZM149.675 9.773C149.891 9.435 150.19 9.162 150.572 8.954C150.953 8.746 151.399 8.642 151.911 8.642C152.509 8.642 153.05 8.79367 153.536 9.097C154.021 9.40033 154.402 9.83367 154.68 10.397C154.966 10.9603 155.109 11.6147 155.109 12.36C155.109 13.1053 154.966 13.764 154.68 14.336C154.402 14.8993 154.021 15.337 153.536 15.649C153.05 15.9523 152.509 16.104 151.911 16.104C151.408 16.104 150.962 16 150.572 15.792C150.19 15.584 149.891 15.3153 149.675 14.986V19.458H147.452V8.746H149.675V9.773ZM152.847 12.36C152.847 11.8053 152.691 11.372 152.379 11.06C152.075 10.7393 151.698 10.579 151.248 10.579C150.806 10.579 150.429 10.7393 150.117 11.06C149.813 11.3807 149.662 11.8183 149.662 12.373C149.662 12.9277 149.813 13.3653 150.117 13.686C150.429 14.0067 150.806 14.167 151.248 14.167C151.69 14.167 152.067 14.0067 152.379 13.686C152.691 13.3567 152.847 12.9147 152.847 12.36ZM158.498 9.955C158.758 9.55633 159.083 9.24433 159.473 9.019C159.863 8.785 160.296 8.668 160.773 8.668V11.021H160.162C159.607 11.021 159.191 11.1423 158.914 11.385C158.636 11.619 158.498 12.035 158.498 12.633V16H156.275V8.746H158.498V9.955ZM162.953 7.992C162.563 7.992 162.243 7.87933 161.991 7.654C161.749 7.42 161.627 7.134 161.627 6.796C161.627 6.44933 161.749 6.16333 161.991 5.938C162.243 5.704 162.563 5.587 162.953 5.587C163.335 5.587 163.647 5.704 163.889 5.938C164.141 6.16333 164.266 6.44933 164.266 6.796C164.266 7.134 164.141 7.42 163.889 7.654C163.647 7.87933 163.335 7.992 162.953 7.992ZM164.058 8.746V16H161.835V8.746H164.058ZM168.62 16.104C167.988 16.104 167.424 15.9957 166.93 15.779C166.436 15.5623 166.046 15.2677 165.76 14.895C165.474 14.5137 165.314 14.089 165.279 13.621H167.476C167.502 13.8723 167.619 14.076 167.827 14.232C168.035 14.388 168.291 14.466 168.594 14.466C168.872 14.466 169.084 14.414 169.231 14.31C169.387 14.1973 169.465 14.0543 169.465 13.881C169.465 13.673 169.357 13.5213 169.14 13.426C168.924 13.322 168.573 13.2093 168.087 13.088C167.567 12.9667 167.134 12.841 166.787 12.711C166.441 12.5723 166.142 12.36 165.89 12.074C165.639 11.7793 165.513 11.385 165.513 10.891C165.513 10.475 165.626 10.098 165.851 9.76C166.085 9.41333 166.423 9.14033 166.865 8.941C167.316 8.74167 167.849 8.642 168.464 8.642C169.374 8.642 170.089 8.86733 170.609 9.318C171.138 9.76867 171.441 10.3667 171.519 11.112H169.465C169.431 10.8607 169.318 10.6613 169.127 10.514C168.945 10.3667 168.703 10.293 168.399 10.293C168.139 10.293 167.94 10.345 167.801 10.449C167.663 10.5443 167.593 10.6787 167.593 10.852C167.593 11.06 167.702 11.216 167.918 11.32C168.144 11.424 168.49 11.528 168.958 11.632C169.496 11.7707 169.933 11.9093 170.271 12.048C170.609 12.178 170.904 12.3947 171.155 12.698C171.415 12.9927 171.55 13.3913 171.558 13.894C171.558 14.3187 171.437 14.7 171.194 15.038C170.96 15.3673 170.618 15.6273 170.167 15.818C169.725 16.0087 169.21 16.104 168.62 16.104ZM179.756 12.256C179.756 12.464 179.743 12.6807 179.717 12.906H174.686C174.721 13.3567 174.864 13.7033 175.115 13.946C175.375 14.18 175.692 14.297 176.064 14.297C176.619 14.297 177.005 14.063 177.221 13.595H179.587C179.466 14.0717 179.245 14.5007 178.924 14.882C178.612 15.2633 178.218 15.5623 177.741 15.779C177.265 15.9957 176.732 16.104 176.142 16.104C175.432 16.104 174.799 15.9523 174.244 15.649C173.69 15.3457 173.256 14.9123 172.944 14.349C172.632 13.7857 172.476 13.127 172.476 12.373C172.476 11.619 172.628 10.9603 172.931 10.397C173.243 9.83367 173.677 9.40033 174.231 9.097C174.786 8.79367 175.423 8.642 176.142 8.642C176.844 8.642 177.468 8.78933 178.014 9.084C178.56 9.37867 178.985 9.799 179.288 10.345C179.6 10.891 179.756 11.528 179.756 12.256ZM177.481 11.671C177.481 11.2897 177.351 10.9863 177.091 10.761C176.831 10.5357 176.506 10.423 176.116 10.423C175.744 10.423 175.427 10.5313 175.167 10.748C174.916 10.9647 174.76 11.2723 174.699 11.671H177.481Z" fill="white"/>
<path d="M201.99 87.874V93.334C201.99 93.88 202.124 94.3003 202.393 94.595C202.662 94.8897 203.056 95.037 203.576 95.037C204.096 95.037 204.495 94.8897 204.772 94.595C205.049 94.3003 205.188 93.88 205.188 93.334V87.874H207.411V93.321C207.411 94.1357 207.238 94.8247 206.891 95.388C206.544 95.9513 206.076 96.376 205.487 96.662C204.906 96.948 204.256 97.091 203.537 97.091C202.818 97.091 202.172 96.9523 201.6 96.675C201.037 96.389 200.59 95.9643 200.261 95.401C199.932 94.829 199.767 94.1357 199.767 93.321V87.874H201.99ZM213.015 95.115V97H211.884C211.078 97 210.45 96.805 209.999 96.415C209.548 96.0163 209.323 95.3707 209.323 94.478V91.592H208.439V89.746H209.323V87.978H211.546V89.746H213.002V91.592H211.546V94.504C211.546 94.7207 211.598 94.8767 211.702 94.972C211.806 95.0673 211.979 95.115 212.222 95.115H213.015ZM215.371 88.992C214.981 88.992 214.661 88.8793 214.409 88.654C214.167 88.42 214.045 88.134 214.045 87.796C214.045 87.4493 214.167 87.1633 214.409 86.938C214.661 86.704 214.981 86.587 215.371 86.587C215.753 86.587 216.065 86.704 216.307 86.938C216.559 87.1633 216.684 87.4493 216.684 87.796C216.684 88.134 216.559 88.42 216.307 88.654C216.065 88.8793 215.753 88.992 215.371 88.992ZM216.476 89.746V97H214.253V89.746H216.476ZM220.31 87.38V97H218.087V87.38H220.31ZM223.039 88.992C222.649 88.992 222.329 88.8793 222.077 88.654C221.835 88.42 221.713 88.134 221.713 87.796C221.713 87.4493 221.835 87.1633 222.077 86.938C222.329 86.704 222.649 86.587 223.039 86.587C223.421 86.587 223.733 86.704 223.975 86.938C224.227 87.1633 224.352 87.4493 224.352 87.796C224.352 88.134 224.227 88.42 223.975 88.654C223.733 88.8793 223.421 88.992 223.039 88.992ZM224.144 89.746V97H221.921V89.746H224.144ZM228.706 97.104C228.074 97.104 227.51 96.9957 227.016 96.779C226.522 96.5623 226.132 96.2677 225.846 95.895C225.56 95.5137 225.4 95.089 225.365 94.621H227.562C227.588 94.8723 227.705 95.076 227.913 95.232C228.121 95.388 228.377 95.466 228.68 95.466C228.958 95.466 229.17 95.414 229.317 95.31C229.473 95.1973 229.551 95.0543 229.551 94.881C229.551 94.673 229.443 94.5213 229.226 94.426C229.01 94.322 228.659 94.2093 228.173 94.088C227.653 93.9667 227.22 93.841 226.873 93.711C226.527 93.5723 226.228 93.36 225.976 93.074C225.725 92.7793 225.599 92.385 225.599 91.891C225.599 91.475 225.712 91.098 225.937 90.76C226.171 90.4133 226.509 90.1403 226.951 89.941C227.402 89.7417 227.935 89.642 228.55 89.642C229.46 89.642 230.175 89.8673 230.695 90.318C231.224 90.7687 231.527 91.3667 231.605 92.112H229.551C229.517 91.8607 229.404 91.6613 229.213 91.514C229.031 91.3667 228.789 91.293 228.485 91.293C228.225 91.293 228.026 91.345 227.887 91.449C227.749 91.5443 227.679 91.6787 227.679 91.852C227.679 92.06 227.788 92.216 228.004 92.32C228.23 92.424 228.576 92.528 229.044 92.632C229.582 92.7707 230.019 92.9093 230.357 93.048C230.695 93.178 230.99 93.3947 231.241 93.698C231.501 93.9927 231.636 94.3913 231.644 94.894C231.644 95.3187 231.523 95.7 231.28 96.038C231.046 96.3673 230.704 96.6273 230.253 96.818C229.811 97.0087 229.296 97.104 228.706 97.104ZM232.562 93.36C232.562 92.6147 232.701 91.9603 232.978 91.397C233.264 90.8337 233.65 90.4003 234.135 90.097C234.621 89.7937 235.162 89.642 235.76 89.642C236.272 89.642 236.718 89.746 237.099 89.954C237.489 90.162 237.788 90.435 237.996 90.773V89.746H240.219V97H237.996V95.973C237.78 96.311 237.476 96.584 237.086 96.792C236.705 97 236.259 97.104 235.747 97.104C235.158 97.104 234.621 96.9523 234.135 96.649C233.65 96.337 233.264 95.8993 232.978 95.336C232.701 94.764 232.562 94.1053 232.562 93.36ZM237.996 93.373C237.996 92.8183 237.84 92.3807 237.528 92.06C237.225 91.7393 236.852 91.579 236.41 91.579C235.968 91.579 235.591 91.7393 235.279 92.06C234.976 92.372 234.824 92.8053 234.824 93.36C234.824 93.9147 234.976 94.3567 235.279 94.686C235.591 95.0067 235.968 95.167 236.41 95.167C236.852 95.167 237.225 95.0067 237.528 94.686C237.84 94.3653 237.996 93.9277 237.996 93.373ZM245.87 95.115V97H244.739C243.933 97 243.305 96.805 242.854 96.415C242.404 96.0163 242.178 95.3707 242.178 94.478V91.592H241.294V89.746H242.178V87.978H244.401V89.746H245.857V91.592H244.401V94.504C244.401 94.7207 244.453 94.8767 244.557 94.972C244.661 95.0673 244.835 95.115 245.077 95.115H245.87ZM253.947 93.256C253.947 93.464 253.934 93.6807 253.908 93.906H248.877C248.911 94.3567 249.054 94.7033 249.306 94.946C249.566 95.18 249.882 95.297 250.255 95.297C250.809 95.297 251.195 95.063 251.412 94.595H253.778C253.656 95.0717 253.435 95.5007 253.115 95.882C252.803 96.2633 252.408 96.5623 251.932 96.779C251.455 96.9957 250.922 97.104 250.333 97.104C249.622 97.104 248.989 96.9523 248.435 96.649C247.88 96.3457 247.447 95.9123 247.135 95.349C246.823 94.7857 246.667 94.127 246.667 93.373C246.667 92.619 246.818 91.9603 247.122 91.397C247.434 90.8337 247.867 90.4003 248.422 90.097C248.976 89.7937 249.613 89.642 250.333 89.642C251.035 89.642 251.659 89.7893 252.205 90.084C252.751 90.3787 253.175 90.799 253.479 91.345C253.791 91.891 253.947 92.528 253.947 93.256ZM251.672 92.671C251.672 92.2897 251.542 91.9863 251.282 91.761C251.022 91.5357 250.697 91.423 250.307 91.423C249.934 91.423 249.618 91.5313 249.358 91.748C249.106 91.9647 248.95 92.2723 248.89 92.671H251.672ZM262.282 89.746V97H260.059V96.012C259.834 96.3327 259.526 96.5927 259.136 96.792C258.755 96.9827 258.33 97.078 257.862 97.078C257.308 97.078 256.818 96.9567 256.393 96.714C255.969 96.4627 255.639 96.103 255.405 95.635C255.171 95.167 255.054 94.6167 255.054 93.984V89.746H257.264V93.685C257.264 94.1703 257.39 94.5473 257.641 94.816C257.893 95.0847 258.231 95.219 258.655 95.219C259.089 95.219 259.431 95.0847 259.682 94.816C259.934 94.5473 260.059 94.1703 260.059 93.685V89.746H262.282ZM266.102 90.955C266.362 90.5563 266.687 90.2443 267.077 90.019C267.467 89.785 267.901 89.668 268.377 89.668V92.021H267.766C267.212 92.021 266.796 92.1423 266.518 92.385C266.241 92.619 266.102 93.035 266.102 93.633V97H263.879V89.746H266.102V90.955Z" fill="white"/>
<path d="M7.371 87.874V89.655H4.953V97H2.73V89.655H0.312V87.874H7.371ZM15.3247 93.256C15.3247 93.464 15.3117 93.6807 15.2857 93.906H10.2547C10.2893 94.3567 10.4323 94.7033 10.6837 94.946C10.9437 95.18 11.26 95.297 11.6327 95.297C12.1873 95.297 12.573 95.063 12.7897 94.595H15.1557C15.0343 95.0717 14.8133 95.5007 14.4927 95.882C14.1807 96.2633 13.7863 96.5623 13.3097 96.779C12.833 96.9957 12.3 97.104 11.7107 97.104C11 97.104 10.3673 96.9523 9.81266 96.649C9.258 96.3457 8.82466 95.9123 8.51266 95.349C8.20066 94.7857 8.04466 94.127 8.04466 93.373C8.04466 92.619 8.19633 91.9603 8.49966 91.397C8.81166 90.8337 9.245 90.4003 9.79966 90.097C10.3543 89.7937 10.9913 89.642 11.7107 89.642C12.4127 89.642 13.0367 89.7893 13.5827 90.084C14.1287 90.3787 14.5533 90.799 14.8567 91.345C15.1687 91.891 15.3247 92.528 15.3247 93.256ZM13.0497 92.671C13.0497 92.2897 12.9197 91.9863 12.6597 91.761C12.3997 91.5357 12.0747 91.423 11.6847 91.423C11.312 91.423 10.9957 91.5313 10.7357 91.748C10.4843 91.9647 10.3283 92.2723 10.2677 92.671H13.0497ZM16.0554 93.373C16.0554 92.619 16.2071 91.9603 16.5104 91.397C16.8224 90.8337 17.2514 90.4003 17.7974 90.097C18.3521 89.7937 18.9847 89.642 19.6954 89.642C20.6054 89.642 21.3637 89.8803 21.9704 90.357C22.5857 90.8337 22.9887 91.5053 23.1794 92.372H20.8134C20.6141 91.8173 20.2284 91.54 19.6564 91.54C19.2491 91.54 18.9241 91.7003 18.6814 92.021C18.4387 92.333 18.3174 92.7837 18.3174 93.373C18.3174 93.9623 18.4387 94.4173 18.6814 94.738C18.9241 95.05 19.2491 95.206 19.6564 95.206C20.2284 95.206 20.6141 94.9287 20.8134 94.374H23.1794C22.9887 95.2233 22.5857 95.8907 21.9704 96.376C21.3551 96.8613 20.5967 97.104 19.6954 97.104C18.9847 97.104 18.3521 96.9523 17.7974 96.649C17.2514 96.3457 16.8224 95.9123 16.5104 95.349C16.2071 94.7857 16.0554 94.127 16.0554 93.373ZM28.8275 89.668C29.6595 89.668 30.3268 89.9453 30.8295 90.5C31.3322 91.046 31.5835 91.8 31.5835 92.762V97H29.3735V93.061C29.3735 92.5757 29.2478 92.1987 28.9965 91.93C28.7452 91.6613 28.4072 91.527 27.9825 91.527C27.5578 91.527 27.2198 91.6613 26.9685 91.93C26.7172 92.1987 26.5915 92.5757 26.5915 93.061V97H24.3685V87.38H26.5915V90.721C26.8168 90.4003 27.1245 90.1447 27.5145 89.954C27.9045 89.7633 28.3422 89.668 28.8275 89.668ZM37.5483 89.668C38.3976 89.668 39.0736 89.9453 39.5763 90.5C40.0876 91.046 40.3433 91.8 40.3433 92.762V97H38.1333V93.061C38.1333 92.5757 38.0076 92.1987 37.7563 91.93C37.5049 91.6613 37.1669 91.527 36.7423 91.527C36.3176 91.527 35.9796 91.6613 35.7283 91.93C35.4769 92.1987 35.3513 92.5757 35.3513 93.061V97H33.1283V89.746H35.3513V90.708C35.5766 90.3873 35.8799 90.136 36.2613 89.954C36.6426 89.7633 37.0716 89.668 37.5483 89.668ZM45.19 97.104C44.4794 97.104 43.838 96.9523 43.266 96.649C42.7027 96.3457 42.2564 95.9123 41.927 95.349C41.6064 94.7857 41.446 94.127 41.446 93.373C41.446 92.6277 41.6107 91.9733 41.94 91.41C42.2694 90.838 42.72 90.4003 43.292 90.097C43.864 89.7937 44.5054 89.642 45.216 89.642C45.9267 89.642 46.568 89.7937 47.14 90.097C47.712 90.4003 48.1627 90.838 48.492 91.41C48.8214 91.9733 48.986 92.6277 48.986 93.373C48.986 94.1183 48.817 94.777 48.479 95.349C48.1497 95.9123 47.6947 96.3457 47.114 96.649C46.542 96.9523 45.9007 97.104 45.19 97.104ZM45.19 95.18C45.6147 95.18 45.9744 95.024 46.269 94.712C46.5724 94.4 46.724 93.9537 46.724 93.373C46.724 92.7923 46.5767 92.346 46.282 92.034C45.996 91.722 45.6407 91.566 45.216 91.566C44.7827 91.566 44.423 91.722 44.137 92.034C43.851 92.3373 43.708 92.7837 43.708 93.373C43.708 93.9537 43.8467 94.4 44.124 94.712C44.41 95.024 44.7654 95.18 45.19 95.18ZM52.3884 87.38V97H50.1654V87.38H52.3884ZM57.3014 97.104C56.5907 97.104 55.9494 96.9523 55.3774 96.649C54.814 96.3457 54.3677 95.9123 54.0384 95.349C53.7177 94.7857 53.5574 94.127 53.5574 93.373C53.5574 92.6277 53.722 91.9733 54.0514 91.41C54.3807 90.838 54.8314 90.4003 55.4034 90.097C55.9754 89.7937 56.6167 89.642 57.3274 89.642C58.038 89.642 58.6794 89.7937 59.2514 90.097C59.8234 90.4003 60.274 90.838 60.6034 91.41C60.9327 91.9733 61.0974 92.6277 61.0974 93.373C61.0974 94.1183 60.9284 94.777 60.5904 95.349C60.261 95.9123 59.806 96.3457 59.2254 96.649C58.6534 96.9523 58.012 97.104 57.3014 97.104ZM57.3014 95.18C57.726 95.18 58.0857 95.024 58.3804 94.712C58.6837 94.4 58.8354 93.9537 58.8354 93.373C58.8354 92.7923 58.688 92.346 58.3934 92.034C58.1074 91.722 57.752 91.566 57.3274 91.566C56.894 91.566 56.5344 91.722 56.2484 92.034C55.9624 92.3373 55.8194 92.7837 55.8194 93.373C55.8194 93.9537 55.958 94.4 56.2354 94.712C56.5214 95.024 56.8767 95.18 57.3014 95.18ZM65.0327 89.642C65.544 89.642 65.9904 89.746 66.3717 89.954C66.7617 90.162 67.0607 90.435 67.2687 90.773V89.746H69.4917V96.987C69.4917 97.6543 69.3574 98.2567 69.0887 98.794C68.8287 99.34 68.4257 99.7733 67.8797 100.094C67.3424 100.415 66.6707 100.575 65.8647 100.575C64.79 100.575 63.919 100.319 63.2517 99.808C62.5844 99.3053 62.203 98.6207 62.1077 97.754H64.3047C64.374 98.0313 64.5387 98.248 64.7987 98.404C65.0587 98.5687 65.3794 98.651 65.7607 98.651C66.22 98.651 66.584 98.5167 66.8527 98.248C67.13 97.988 67.2687 97.5677 67.2687 96.987V95.96C67.052 96.298 66.753 96.5753 66.3717 96.792C65.9904 97 65.544 97.104 65.0327 97.104C64.4347 97.104 63.893 96.9523 63.4077 96.649C62.9224 96.337 62.5367 95.8993 62.2507 95.336C61.9734 94.764 61.8347 94.1053 61.8347 93.36C61.8347 92.6147 61.9734 91.9603 62.2507 91.397C62.5367 90.8337 62.9224 90.4003 63.4077 90.097C63.893 89.7937 64.4347 89.642 65.0327 89.642ZM67.2687 93.373C67.2687 92.8183 67.1127 92.3807 66.8007 92.06C66.4974 91.7393 66.1247 91.579 65.6827 91.579C65.2407 91.579 64.8637 91.7393 64.5517 92.06C64.2484 92.372 64.0967 92.8053 64.0967 93.36C64.0967 93.9147 64.2484 94.3567 64.5517 94.686C64.8637 95.0067 65.2407 95.167 65.6827 95.167C66.1247 95.167 66.4974 95.0067 66.8007 94.686C67.1127 94.3653 67.2687 93.9277 67.2687 93.373ZM72.2179 88.992C71.8279 88.992 71.5073 88.8793 71.2559 88.654C71.0133 88.42 70.8919 88.134 70.8919 87.796C70.8919 87.4493 71.0133 87.1633 71.2559 86.938C71.5073 86.704 71.8279 86.587 72.2179 86.587C72.5993 86.587 72.9113 86.704 73.1539 86.938C73.4053 87.1633 73.5309 87.4493 73.5309 87.796C73.5309 88.134 73.4053 88.42 73.1539 88.654C72.9113 88.8793 72.5993 88.992 72.2179 88.992ZM73.3229 89.746V97H71.0999V89.746H73.3229ZM81.7719 93.256C81.7719 93.464 81.7589 93.6807 81.7329 93.906H76.7019C76.7366 94.3567 76.8796 94.7033 77.1309 94.946C77.3909 95.18 77.7073 95.297 78.0799 95.297C78.6346 95.297 79.0203 95.063 79.2369 94.595H81.6029C81.4816 95.0717 81.2606 95.5007 80.9399 95.882C80.6279 96.2633 80.2336 96.5623 79.7569 96.779C79.2803 96.9957 78.7473 97.104 78.1579 97.104C77.4473 97.104 76.8146 96.9523 76.2599 96.649C75.7053 96.3457 75.2719 95.9123 74.9599 95.349C74.6479 94.7857 74.4919 94.127 74.4919 93.373C74.4919 92.619 74.6436 91.9603 74.9469 91.397C75.2589 90.8337 75.6923 90.4003 76.2469 90.097C76.8016 89.7937 77.4386 89.642 78.1579 89.642C78.8599 89.642 79.4839 89.7893 80.0299 90.084C80.5759 90.3787 81.0006 90.799 81.3039 91.345C81.6159 91.891 81.7719 92.528 81.7719 93.256ZM79.4969 92.671C79.4969 92.2897 79.3669 91.9863 79.1069 91.761C78.8469 91.5357 78.5219 91.423 78.1319 91.423C77.7593 91.423 77.4429 91.5313 77.1829 91.748C76.9316 91.9647 76.7756 92.2723 76.7149 92.671H79.4969ZM85.8957 97.104C85.263 97.104 84.6997 96.9957 84.2057 96.779C83.7117 96.5623 83.3217 96.2677 83.0357 95.895C82.7497 95.5137 82.5893 95.089 82.5547 94.621H84.7517C84.7777 94.8723 84.8947 95.076 85.1027 95.232C85.3107 95.388 85.5663 95.466 85.8697 95.466C86.147 95.466 86.3593 95.414 86.5067 95.31C86.6627 95.1973 86.7407 95.0543 86.7407 94.881C86.7407 94.673 86.6323 94.5213 86.4157 94.426C86.199 94.322 85.848 94.2093 85.3627 94.088C84.8427 93.9667 84.4093 93.841 84.0627 93.711C83.716 93.5723 83.417 93.36 83.1657 93.074C82.9143 92.7793 82.7887 92.385 82.7887 91.891C82.7887 91.475 82.9013 91.098 83.1267 90.76C83.3607 90.4133 83.6987 90.1403 84.1407 89.941C84.5913 89.7417 85.1243 89.642 85.7397 89.642C86.6497 89.642 87.3647 89.8673 87.8847 90.318C88.4133 90.7687 88.7167 91.3667 88.7947 92.112H86.7407C86.706 91.8607 86.5933 91.6613 86.4027 91.514C86.2207 91.3667 85.978 91.293 85.6747 91.293C85.4147 91.293 85.2153 91.345 85.0767 91.449C84.938 91.5443 84.8687 91.6787 84.8687 91.852C84.8687 92.06 84.977 92.216 85.1937 92.32C85.419 92.424 85.7657 92.528 86.2337 92.632C86.771 92.7707 87.2087 92.9093 87.5467 93.048C87.8847 93.178 88.1793 93.3947 88.4307 93.698C88.6907 93.9927 88.825 94.3913 88.8337 94.894C88.8337 95.3187 88.7123 95.7 88.4697 96.038C88.2357 96.3673 87.8933 96.6273 87.4427 96.818C87.0007 97.0087 86.485 97.104 85.8957 97.104Z" fill="white"/>
<path d="M131.891 89.4416C131.891 89.2556 131.901 89.0726 131.906 88.8866C130.782 88.4418 129.684 87.9323 128.619 87.3606C128.574 88.0496 128.543 88.7416 128.543 89.4406C128.544 94.3371 129.685 99.1662 131.876 103.545C134.067 107.924 137.247 111.732 141.166 114.669C142.261 114.122 143.319 113.505 144.333 112.821C140.503 110.24 137.366 106.759 135.197 102.683C133.027 98.6061 131.892 94.0593 131.891 89.4416Z" fill="#12142B"/>
<path d="M144.33 62.1236C145.426 62.757 146.484 63.4553 147.497 64.2146C151.406 62.2499 155.722 61.2279 160.097 61.2306C164.003 61.228 167.866 62.0417 171.439 63.6196C171.606 62.457 171.7 61.285 171.721 60.1106C168.023 58.6364 164.077 57.8799 160.096 57.8816C154.558 57.8789 149.119 59.3425 144.33 62.1236Z" fill="#12142B"/>
<path d="M175.014 61.6375C174.934 62.8449 174.786 64.0469 174.569 65.2374C178.756 67.7405 182.222 71.2859 184.63 75.5279C187.038 79.77 188.305 84.5637 188.308 89.4415C188.299 96.9203 185.324 104.09 180.036 109.379C174.748 114.667 167.578 117.642 160.099 117.65C155.724 117.653 151.409 116.632 147.499 114.667C146.486 115.427 145.429 116.125 144.332 116.757C149.122 119.54 154.564 121.003 160.104 120.998C168.471 120.989 176.492 117.661 182.409 111.745C188.325 105.829 191.653 97.8073 191.662 89.4405C191.657 83.7345 190.107 78.1363 187.176 73.2409C184.245 68.3454 180.042 64.3356 175.014 61.6375Z" fill="#12142B"/>
<path d="M141.162 64.2146C142.175 63.4552 143.233 62.757 144.329 62.1236C139.539 59.3419 134.097 57.8787 128.558 57.8826C123.997 57.8792 119.49 58.8713 115.352 60.7896C115.404 61.9758 115.531 63.1575 115.733 64.3276C119.701 62.2884 124.098 61.2256 128.559 61.2276C132.936 61.2253 137.252 62.2483 141.162 64.2146Z" fill="#12142B"/>
<path d="M128.559 117.65C121.08 117.642 113.91 114.667 108.621 109.379C103.333 104.091 100.358 96.9204 100.349 89.4414C100.35 84.8479 101.473 80.3241 103.62 76.2634C105.767 72.2027 108.874 68.728 112.67 66.1414C112.415 64.9436 112.23 63.7319 112.116 62.5125C107.5 65.3307 103.686 69.2876 101.039 74.0035C98.3924 78.7195 97.0015 84.0364 97 89.4444C97.0093 97.8115 100.337 105.833 106.254 111.749C112.17 117.666 120.192 120.993 128.559 121.002C134.098 121.007 139.54 119.544 144.33 116.761C143.233 116.129 142.176 115.431 141.163 114.671C137.252 116.635 132.935 117.655 128.559 117.65Z" fill="#12142B"/>
<path d="M160.117 89.4375C160.117 88.4375 160.065 87.4535 159.974 86.4785C158.93 87.1164 157.849 87.693 156.738 88.2055C156.756 88.6135 156.769 89.0245 156.769 89.4375C156.768 94.0547 155.633 98.6011 153.465 102.677C151.296 106.753 148.16 110.235 144.331 112.816C145.345 113.5 146.403 114.117 147.498 114.664C151.415 111.727 154.595 107.919 156.786 103.54C158.976 99.1618 160.117 94.3333 160.117 89.4375Z" fill="#12142B"/>
<path d="M144.329 112.82C143.315 113.504 142.257 114.121 141.162 114.668C142.175 115.427 143.232 116.125 144.329 116.758C145.426 116.125 146.483 115.427 147.496 114.668C146.401 114.121 145.343 113.504 144.329 112.82Z" fill="#153659"/>
<path d="M115.321 59.5555C115.33 52.0766 118.305 44.9064 123.593 39.6181C128.882 34.3297 136.052 31.355 143.531 31.3465C151.01 31.3545 158.181 34.3289 163.47 39.6173C168.759 44.9058 171.734 52.0762 171.743 59.5555C171.743 59.7415 171.733 59.9245 171.728 60.1105C172.852 60.5553 173.95 61.0648 175.015 61.6365C175.06 60.9475 175.091 60.2555 175.091 59.5565C175.082 51.1897 171.754 43.1682 165.838 37.2519C159.921 31.3356 151.9 28.0078 143.533 27.9985C135.166 28.0073 127.144 31.3347 121.227 37.2508C115.311 43.1669 111.983 51.1885 111.973 59.5555C111.973 60.5555 112.024 61.5395 112.116 62.5155C113.16 61.8774 114.241 61.3008 115.353 60.7885C115.335 60.3805 115.321 59.9715 115.321 59.5555Z" fill="#12142B"/>
<path d="M128.616 87.3615C128.696 86.154 128.844 84.952 129.061 83.7615C125.573 81.6717 122.577 78.8544 120.278 75.5017C117.978 72.1489 116.428 68.3396 115.734 64.3335C114.675 64.8741 113.652 65.4813 112.67 66.1515C113.636 70.6299 115.561 74.8454 118.314 78.5072C121.067 82.1691 124.582 85.19 128.616 87.3615Z" fill="#12142B"/>
<path d="M159.419 82.8526C159.675 84.051 159.86 85.2635 159.974 86.4836C163.762 84.1647 167.019 81.0741 169.534 77.4131C172.048 73.752 173.764 69.6025 174.569 65.2346C173.562 64.6323 172.519 64.0932 171.445 63.6206C170.879 67.4834 169.518 71.1868 167.448 74.497C165.378 77.8072 162.644 80.6523 159.419 82.8526Z" fill="#12142B"/>
<path d="M171.444 63.6206C172.518 64.0933 173.561 64.6323 174.568 65.2346C174.785 64.0441 174.933 62.8421 175.013 61.6346C173.948 61.0629 172.85 60.5534 171.726 60.1086C171.705 61.284 171.611 62.457 171.444 63.6206Z" fill="#12142B"/>
<path d="M115.733 64.3285C115.531 63.1585 115.404 61.9768 115.352 60.7905C114.24 61.3028 113.16 61.8794 112.115 62.5175C112.229 63.737 112.414 64.9487 112.669 66.1465C113.651 65.4764 114.674 64.8691 115.733 64.3285Z" fill="#12142B"/>
<path d="M147.497 64.2145C146.484 63.4552 145.426 62.757 144.33 62.1235C143.234 62.7569 142.176 63.4552 141.163 64.2145C142.258 64.7611 143.315 65.378 144.33 66.0615C145.345 65.378 146.403 64.7611 147.497 64.2145Z" fill="white"/>
<path d="M144.329 66.0616C143.314 65.3781 142.257 64.7611 141.162 64.2146C134.817 68.9805 130.498 75.9591 129.062 83.7636C130.069 84.3659 131.112 84.905 132.186 85.3776C132.756 81.4906 134.13 77.7651 136.221 74.4392C138.312 71.1133 141.073 68.26 144.329 66.0616Z" fill="white"/>
<path d="M147.497 64.2146C146.403 64.7611 145.345 65.3781 144.33 66.0616C147.485 68.1932 150.176 70.9403 152.243 74.1379C154.31 77.3355 155.709 80.9178 156.357 84.6696C157.415 84.1292 158.438 83.522 159.419 82.8516C157.82 75.406 153.586 68.7881 147.497 64.2146Z" fill="white"/>
<path d="M143.532 87.7667C139.626 87.7695 135.762 86.9558 132.188 85.3777C132.021 86.5403 131.927 87.7123 131.906 88.8867C135.605 90.3609 139.55 91.1174 143.532 91.1157C148.093 91.1186 152.599 90.1269 156.737 88.2097C156.685 87.0231 156.558 85.841 156.356 84.6707C152.389 86.7088 147.992 87.7703 143.532 87.7667Z" fill="white"/>
<path d="M129.064 83.7637C128.847 84.9542 128.698 86.1562 128.618 87.3637C129.683 87.9354 130.781 88.4449 131.905 88.8897C131.926 87.7153 132.02 86.5433 132.187 85.3807C131.113 84.9071 130.07 84.367 129.064 83.7637Z" fill="white"/>
<path d="M156.737 88.2086C157.848 87.6961 158.929 87.1194 159.973 86.4816C159.859 85.2614 159.674 84.049 159.418 82.8506C158.437 83.521 157.414 84.1282 156.356 84.6686C156.558 85.8393 156.685 87.0217 156.737 88.2086Z" fill="white"/>
</g>
<path d="M91.8879 166.384C91.8879 167.035 91.7386 167.632 91.4399 168.176C91.1413 168.709 90.6826 169.141 90.0639 169.472C89.4453 169.803 88.6773 169.968 87.7599 169.968H86.0639V174H83.3279V162.768H87.7599C88.6559 162.768 89.4133 162.923 90.0319 163.232C90.6506 163.541 91.1146 163.968 91.4239 164.512C91.7333 165.056 91.8879 165.68 91.8879 166.384ZM87.5519 167.792C88.0746 167.792 88.4639 167.669 88.7199 167.424C88.9759 167.179 89.1039 166.832 89.1039 166.384C89.1039 165.936 88.9759 165.589 88.7199 165.344C88.4639 165.099 88.0746 164.976 87.5519 164.976H86.0639V167.792H87.5519ZM97.3763 174.128C96.5016 174.128 95.7123 173.941 95.0083 173.568C94.315 173.195 93.7656 172.661 93.3603 171.968C92.9656 171.275 92.7683 170.464 92.7683 169.536C92.7683 168.619 92.971 167.813 93.3763 167.12C93.7816 166.416 94.3363 165.877 95.0403 165.504C95.7443 165.131 96.5336 164.944 97.4083 164.944C98.283 164.944 99.0723 165.131 99.7763 165.504C100.48 165.877 101.035 166.416 101.44 167.12C101.846 167.813 102.048 168.619 102.048 169.536C102.048 170.453 101.84 171.264 101.424 171.968C101.019 172.661 100.459 173.195 99.7443 173.568C99.0403 173.941 98.251 174.128 97.3763 174.128ZM97.3763 171.76C97.899 171.76 98.3416 171.568 98.7043 171.184C99.0776 170.8 99.2643 170.251 99.2643 169.536C99.2643 168.821 99.083 168.272 98.7203 167.888C98.3683 167.504 97.931 167.312 97.4083 167.312C96.875 167.312 96.4323 167.504 96.0803 167.888C95.7283 168.261 95.5523 168.811 95.5523 169.536C95.5523 170.251 95.723 170.8 96.0643 171.184C96.4163 171.568 96.8536 171.76 97.3763 171.76ZM104.876 164.144C104.396 164.144 104.001 164.005 103.692 163.728C103.393 163.44 103.244 163.088 103.244 162.672C103.244 162.245 103.393 161.893 103.692 161.616C104.001 161.328 104.396 161.184 104.876 161.184C105.345 161.184 105.729 161.328 106.028 161.616C106.337 161.893 106.492 162.245 106.492 162.672C106.492 163.088 106.337 163.44 106.028 163.728C105.729 164.005 105.345 164.144 104.876 164.144ZM106.236 165.072V174H103.5V165.072H106.236ZM113.659 164.976C114.704 164.976 115.536 165.317 116.155 166C116.784 166.672 117.099 167.6 117.099 168.784V174H114.379V169.152C114.379 168.555 114.224 168.091 113.915 167.76C113.605 167.429 113.189 167.264 112.667 167.264C112.144 167.264 111.728 167.429 111.419 167.76C111.109 168.091 110.955 168.555 110.955 169.152V174H108.219V165.072H110.955V166.256C111.232 165.861 111.605 165.552 112.075 165.328C112.544 165.093 113.072 164.976 113.659 164.976ZM123.976 171.68V174H122.584C121.592 174 120.818 173.76 120.264 173.28C119.709 172.789 119.432 171.995 119.432 170.896V167.344H118.344V165.072H119.432V162.896H122.168V165.072H123.96V167.344H122.168V170.928C122.168 171.195 122.232 171.387 122.36 171.504C122.488 171.621 122.701 171.68 123 171.68H123.976ZM128.346 169.52C128.346 168.603 128.517 167.797 128.858 167.104C129.21 166.411 129.685 165.877 130.282 165.504C130.88 165.131 131.546 164.944 132.282 164.944C132.869 164.944 133.402 165.067 133.882 165.312C134.373 165.557 134.757 165.888 135.034 166.304V162.16H137.77V174H135.034V172.72C134.778 173.147 134.41 173.488 133.93 173.744C133.461 174 132.912 174.128 132.282 174.128C131.546 174.128 130.88 173.941 130.282 173.568C129.685 173.184 129.21 172.645 128.858 171.952C128.517 171.248 128.346 170.437 128.346 169.52ZM135.034 169.536C135.034 168.853 134.842 168.315 134.458 167.92C134.085 167.525 133.626 167.328 133.082 167.328C132.538 167.328 132.074 167.525 131.69 167.92C131.317 168.304 131.13 168.837 131.13 169.52C131.13 170.203 131.317 170.747 131.69 171.152C132.074 171.547 132.538 171.744 133.082 171.744C133.626 171.744 134.085 171.547 134.458 171.152C134.842 170.757 135.034 170.219 135.034 169.536ZM148.166 169.392C148.166 169.648 148.15 169.915 148.118 170.192H141.926C141.968 170.747 142.144 171.173 142.454 171.472C142.774 171.76 143.163 171.904 143.622 171.904C144.304 171.904 144.779 171.616 145.046 171.04H147.958C147.808 171.627 147.536 172.155 147.142 172.624C146.758 173.093 146.272 173.461 145.686 173.728C145.099 173.995 144.443 174.128 143.718 174.128C142.843 174.128 142.064 173.941 141.382 173.568C140.699 173.195 140.166 172.661 139.782 171.968C139.398 171.275 139.206 170.464 139.206 169.536C139.206 168.608 139.392 167.797 139.766 167.104C140.15 166.411 140.683 165.877 141.366 165.504C142.048 165.131 142.832 164.944 143.718 164.944C144.582 164.944 145.35 165.125 146.022 165.488C146.694 165.851 147.216 166.368 147.59 167.04C147.974 167.712 148.166 168.496 148.166 169.392ZM145.366 168.672C145.366 168.203 145.206 167.829 144.886 167.552C144.566 167.275 144.166 167.136 143.686 167.136C143.227 167.136 142.838 167.269 142.518 167.536C142.208 167.803 142.016 168.181 141.942 168.672H145.366ZM157.016 171.44L158.952 165.072H161.864L158.696 174H155.32L152.152 165.072H155.08L157.016 171.44ZM171.831 165.072V174H169.095V172.784C168.818 173.179 168.439 173.499 167.959 173.744C167.49 173.979 166.967 174.096 166.391 174.096C165.709 174.096 165.106 173.947 164.583 173.648C164.061 173.339 163.655 172.896 163.367 172.32C163.079 171.744 162.935 171.067 162.935 170.288V165.072H165.655V169.92C165.655 170.517 165.81 170.981 166.119 171.312C166.429 171.643 166.845 171.808 167.367 171.808C167.901 171.808 168.322 171.643 168.631 171.312C168.941 170.981 169.095 170.517 169.095 169.92V165.072H171.831ZM182.213 169.392C182.213 169.648 182.197 169.915 182.165 170.192H175.973C176.015 170.747 176.191 171.173 176.501 171.472C176.821 171.76 177.21 171.904 177.669 171.904C178.351 171.904 178.826 171.616 179.093 171.04H182.005C181.855 171.627 181.583 172.155 181.189 172.624C180.805 173.093 180.319 173.461 179.733 173.728C179.146 173.995 178.49 174.128 177.765 174.128C176.89 174.128 176.111 173.941 175.429 173.568C174.746 173.195 174.213 172.661 173.829 171.968C173.445 171.275 173.253 170.464 173.253 169.536C173.253 168.608 173.439 167.797 173.813 167.104C174.197 166.411 174.73 165.877 175.413 165.504C176.095 165.131 176.879 164.944 177.765 164.944C178.629 164.944 179.397 165.125 180.069 165.488C180.741 165.851 181.263 166.368 181.637 167.04C182.021 167.712 182.213 168.496 182.213 169.392ZM179.413 168.672C179.413 168.203 179.253 167.829 178.933 167.552C178.613 167.275 178.213 167.136 177.733 167.136C177.274 167.136 176.885 167.269 176.565 167.536C176.255 167.803 176.063 168.181 175.989 168.672H179.413ZM79.6887 188.976C80.798 188.976 81.678 189.312 82.3287 189.984C82.99 190.656 83.3207 191.589 83.3207 192.784V198H80.6007V193.152C80.6007 192.576 80.446 192.133 80.1367 191.824C79.838 191.504 79.422 191.344 78.8887 191.344C78.3554 191.344 77.934 191.504 77.6247 191.824C77.326 192.133 77.1767 192.576 77.1767 193.152V198H74.4567V193.152C74.4567 192.576 74.302 192.133 73.9927 191.824C73.694 191.504 73.278 191.344 72.7447 191.344C72.2114 191.344 71.79 191.504 71.4807 191.824C71.182 192.133 71.0327 192.576 71.0327 193.152V198H68.2967V189.072H71.0327V190.192C71.31 189.819 71.6727 189.525 72.1207 189.312C72.5687 189.088 73.0754 188.976 73.6407 188.976C74.3127 188.976 74.91 189.12 75.4327 189.408C75.966 189.696 76.382 190.107 76.6807 190.64C76.99 190.149 77.4114 189.749 77.9447 189.44C78.478 189.131 79.0594 188.976 79.6887 188.976ZM84.6902 193.52C84.6902 192.603 84.8609 191.797 85.2022 191.104C85.5542 190.411 86.0289 189.877 86.6262 189.504C87.2235 189.131 87.8902 188.944 88.6262 188.944C89.2555 188.944 89.8049 189.072 90.2742 189.328C90.7542 189.584 91.1222 189.92 91.3782 190.336V189.072H94.1142V198H91.3782V196.736C91.1115 197.152 90.7382 197.488 90.2582 197.744C89.7889 198 89.2395 198.128 88.6102 198.128C87.8849 198.128 87.2235 197.941 86.6262 197.568C86.0289 197.184 85.5542 196.645 85.2022 195.952C84.8609 195.248 84.6902 194.437 84.6902 193.52ZM91.3782 193.536C91.3782 192.853 91.1862 192.315 90.8022 191.92C90.4289 191.525 89.9702 191.328 89.4262 191.328C88.8822 191.328 88.4182 191.525 88.0342 191.92C87.6609 192.304 87.4742 192.837 87.4742 193.52C87.4742 194.203 87.6609 194.747 88.0342 195.152C88.4182 195.547 88.8822 195.744 89.4262 195.744C89.9702 195.744 90.4289 195.547 90.8022 195.152C91.1862 194.757 91.3782 194.219 91.3782 193.536ZM95.5496 193.536C95.5496 192.608 95.7362 191.797 96.1096 191.104C96.4936 190.411 97.0216 189.877 97.6936 189.504C98.3762 189.131 99.1549 188.944 100.03 188.944C101.15 188.944 102.083 189.237 102.83 189.824C103.587 190.411 104.083 191.237 104.318 192.304H101.406C101.16 191.621 100.686 191.28 99.9816 191.28C99.4802 191.28 99.0802 191.477 98.7816 191.872C98.4829 192.256 98.3336 192.811 98.3336 193.536C98.3336 194.261 98.4829 194.821 98.7816 195.216C99.0802 195.6 99.4802 195.792 99.9816 195.792C100.686 195.792 101.16 195.451 101.406 194.768H104.318C104.083 195.813 103.587 196.635 102.83 197.232C102.072 197.829 101.139 198.128 100.03 198.128C99.1549 198.128 98.3762 197.941 97.6936 197.568C97.0216 197.195 96.4936 196.661 96.1096 195.968C95.7362 195.275 95.5496 194.464 95.5496 193.536ZM108.517 190.56C108.837 190.069 109.237 189.685 109.717 189.408C110.197 189.12 110.73 188.976 111.317 188.976V191.872H110.565C109.882 191.872 109.37 192.021 109.029 192.32C108.688 192.608 108.517 193.12 108.517 193.856V198H105.781V189.072H108.517V190.56ZM116.689 198.128C115.814 198.128 115.025 197.941 114.321 197.568C113.627 197.195 113.078 196.661 112.673 195.968C112.278 195.275 112.081 194.464 112.081 193.536C112.081 192.619 112.283 191.813 112.689 191.12C113.094 190.416 113.649 189.877 114.353 189.504C115.057 189.131 115.846 188.944 116.721 188.944C117.595 188.944 118.385 189.131 119.089 189.504C119.793 189.877 120.347 190.416 120.753 191.12C121.158 191.813 121.361 192.619 121.361 193.536C121.361 194.453 121.153 195.264 120.737 195.968C120.331 196.661 119.771 197.195 119.057 197.568C118.353 197.941 117.563 198.128 116.689 198.128ZM116.689 195.76C117.211 195.76 117.654 195.568 118.017 195.184C118.39 194.8 118.577 194.251 118.577 193.536C118.577 192.821 118.395 192.272 118.033 191.888C117.681 191.504 117.243 191.312 116.721 191.312C116.187 191.312 115.745 191.504 115.393 191.888C115.041 192.261 114.865 192.811 114.865 193.536C114.865 194.251 115.035 194.8 115.377 195.184C115.729 195.568 116.166 195.76 116.689 195.76ZM126.444 198.128C125.666 198.128 124.972 197.995 124.364 197.728C123.756 197.461 123.276 197.099 122.924 196.64C122.572 196.171 122.375 195.648 122.332 195.072H125.036C125.068 195.381 125.212 195.632 125.468 195.824C125.724 196.016 126.039 196.112 126.412 196.112C126.754 196.112 127.015 196.048 127.196 195.92C127.388 195.781 127.484 195.605 127.484 195.392C127.484 195.136 127.351 194.949 127.084 194.832C126.818 194.704 126.386 194.565 125.788 194.416C125.148 194.267 124.615 194.112 124.188 193.952C123.762 193.781 123.394 193.52 123.084 193.168C122.775 192.805 122.62 192.32 122.62 191.712C122.62 191.2 122.759 190.736 123.036 190.32C123.324 189.893 123.74 189.557 124.284 189.312C124.839 189.067 125.495 188.944 126.252 188.944C127.372 188.944 128.252 189.221 128.892 189.776C129.543 190.331 129.916 191.067 130.012 191.984H127.484C127.442 191.675 127.303 191.429 127.068 191.248C126.844 191.067 126.546 190.976 126.172 190.976C125.852 190.976 125.607 191.04 125.436 191.168C125.266 191.285 125.18 191.451 125.18 191.664C125.18 191.92 125.314 192.112 125.58 192.24C125.858 192.368 126.284 192.496 126.86 192.624C127.522 192.795 128.06 192.965 128.476 193.136C128.892 193.296 129.255 193.563 129.564 193.936C129.884 194.299 130.05 194.789 130.06 195.408C130.06 195.931 129.911 196.4 129.612 196.816C129.324 197.221 128.903 197.541 128.348 197.776C127.804 198.011 127.17 198.128 126.444 198.128ZM131.19 193.536C131.19 192.608 131.377 191.797 131.75 191.104C132.134 190.411 132.662 189.877 133.334 189.504C134.017 189.131 134.796 188.944 135.67 188.944C136.79 188.944 137.724 189.237 138.47 189.824C139.228 190.411 139.724 191.237 139.958 192.304H137.046C136.801 191.621 136.326 191.28 135.622 191.28C135.121 191.28 134.721 191.477 134.422 191.872C134.124 192.256 133.974 192.811 133.974 193.536C133.974 194.261 134.124 194.821 134.422 195.216C134.721 195.6 135.121 195.792 135.622 195.792C136.326 195.792 136.801 195.451 137.046 194.768H139.958C139.724 195.813 139.228 196.635 138.47 197.232C137.713 197.829 136.78 198.128 135.67 198.128C134.796 198.128 134.017 197.941 133.334 197.568C132.662 197.195 132.134 196.661 131.75 195.968C131.377 195.275 131.19 194.464 131.19 193.536ZM145.486 198.128C144.611 198.128 143.822 197.941 143.118 197.568C142.424 197.195 141.875 196.661 141.47 195.968C141.075 195.275 140.878 194.464 140.878 193.536C140.878 192.619 141.08 191.813 141.486 191.12C141.891 190.416 142.446 189.877 143.15 189.504C143.854 189.131 144.643 188.944 145.518 188.944C146.392 188.944 147.182 189.131 147.886 189.504C148.59 189.877 149.144 190.416 149.55 191.12C149.955 191.813 150.158 192.619 150.158 193.536C150.158 194.453 149.95 195.264 149.534 195.968C149.128 196.661 148.568 197.195 147.854 197.568C147.15 197.941 146.36 198.128 145.486 198.128ZM145.486 195.76C146.008 195.76 146.451 195.568 146.814 195.184C147.187 194.8 147.374 194.251 147.374 193.536C147.374 192.821 147.192 192.272 146.83 191.888C146.478 191.504 146.04 191.312 145.518 191.312C144.984 191.312 144.542 191.504 144.19 191.888C143.838 192.261 143.662 192.811 143.662 193.536C143.662 194.251 143.832 194.8 144.174 195.184C144.526 195.568 144.963 195.76 145.486 195.76ZM154.345 190.336C154.612 189.92 154.98 189.584 155.449 189.328C155.919 189.072 156.468 188.944 157.097 188.944C157.833 188.944 158.5 189.131 159.097 189.504C159.695 189.877 160.164 190.411 160.505 191.104C160.857 191.797 161.033 192.603 161.033 193.52C161.033 194.437 160.857 195.248 160.505 195.952C160.164 196.645 159.695 197.184 159.097 197.568C158.5 197.941 157.833 198.128 157.097 198.128C156.479 198.128 155.929 198 155.449 197.744C154.98 197.488 154.612 197.157 154.345 196.752V202.256H151.609V189.072H154.345V190.336ZM158.249 193.52C158.249 192.837 158.057 192.304 157.673 191.92C157.3 191.525 156.836 191.328 156.281 191.328C155.737 191.328 155.273 191.525 154.889 191.92C154.516 192.315 154.329 192.853 154.329 193.536C154.329 194.219 154.516 194.757 154.889 195.152C155.273 195.547 155.737 195.744 156.281 195.744C156.825 195.744 157.289 195.547 157.673 195.152C158.057 194.747 158.249 194.203 158.249 193.52ZM163.845 188.144C163.365 188.144 162.97 188.005 162.661 187.728C162.362 187.44 162.213 187.088 162.213 186.672C162.213 186.245 162.362 185.893 162.661 185.616C162.97 185.328 163.365 185.184 163.845 185.184C164.314 185.184 164.698 185.328 164.997 185.616C165.306 185.893 165.461 186.245 165.461 186.672C165.461 187.088 165.306 187.44 164.997 187.728C164.698 188.005 164.314 188.144 163.845 188.144ZM165.205 189.072V198H162.469V189.072H165.205ZM166.643 193.552C166.643 192.667 166.825 191.877 167.187 191.184C167.561 190.491 168.057 189.952 168.675 189.568C169.305 189.173 169.987 188.976 170.723 188.976C171.289 188.976 171.795 189.077 172.243 189.28C172.691 189.472 173.054 189.744 173.331 190.096V189.072H176.067V202.256H173.331V196.88C173.022 197.253 172.643 197.552 172.195 197.776C171.758 198 171.257 198.112 170.691 198.112C169.966 198.112 169.294 197.92 168.675 197.536C168.057 197.152 167.561 196.613 167.187 195.92C166.825 195.227 166.643 194.437 166.643 193.552ZM173.331 193.536C173.331 193.056 173.235 192.656 173.043 192.336C172.862 192.005 172.622 191.76 172.323 191.6C172.025 191.429 171.71 191.344 171.379 191.344C171.059 191.344 170.75 191.429 170.451 191.6C170.153 191.76 169.907 192.005 169.715 192.336C169.523 192.667 169.427 193.072 169.427 193.552C169.427 194.032 169.523 194.437 169.715 194.768C169.907 195.088 170.153 195.333 170.451 195.504C170.75 195.664 171.059 195.744 171.379 195.744C171.699 195.744 172.009 195.664 172.307 195.504C172.617 195.333 172.862 195.083 173.043 194.752C173.235 194.421 173.331 194.016 173.331 193.536ZM186.863 189.072V198H184.127V196.784C183.849 197.179 183.471 197.499 182.991 197.744C182.521 197.979 181.999 198.096 181.423 198.096C180.74 198.096 180.137 197.947 179.615 197.648C179.092 197.339 178.687 196.896 178.399 196.32C178.111 195.744 177.967 195.067 177.967 194.288V189.072H180.687V193.92C180.687 194.517 180.841 194.981 181.151 195.312C181.46 195.643 181.876 195.808 182.399 195.808C182.932 195.808 183.353 195.643 183.663 195.312C183.972 194.981 184.127 194.517 184.127 193.92V189.072H186.863ZM197.244 193.392C197.244 193.648 197.228 193.915 197.196 194.192H191.004C191.047 194.747 191.223 195.173 191.532 195.472C191.852 195.76 192.241 195.904 192.7 195.904C193.383 195.904 193.857 195.616 194.124 195.04H197.036C196.887 195.627 196.615 196.155 196.22 196.624C195.836 197.093 195.351 197.461 194.764 197.728C194.177 197.995 193.521 198.128 192.796 198.128C191.921 198.128 191.143 197.941 190.46 197.568C189.777 197.195 189.244 196.661 188.86 195.968C188.476 195.275 188.284 194.464 188.284 193.536C188.284 192.608 188.471 191.797 188.844 191.104C189.228 190.411 189.761 189.877 190.444 189.504C191.127 189.131 191.911 188.944 192.796 188.944C193.66 188.944 194.428 189.125 195.1 189.488C195.772 189.851 196.295 190.368 196.668 191.04C197.052 191.712 197.244 192.496 197.244 193.392ZM194.444 192.672C194.444 192.203 194.284 191.829 193.964 191.552C193.644 191.275 193.244 191.136 192.764 191.136C192.305 191.136 191.916 191.269 191.596 191.536C191.287 191.803 191.095 192.181 191.02 192.672H194.444Z" fill="white"/>
<defs>
<clipPath id="clip0_80_148">
<rect width="267" height="121" fill="white"/>
</clipPath>
</defs>
</svg>
