<svg width="191" height="183" viewBox="0 0 191 183" fill="none" xmlns="http://www.w3.org/2000/svg">
<path d="M18.7175 148.9H12.6375L11.5175 152H9.5975L14.6375 138.14H16.7375L21.7575 152H19.8375L18.7175 148.9ZM18.1975 147.42L15.6775 140.38L13.1575 147.42H18.1975ZM25.7741 143.06C26.1341 142.433 26.6674 141.913 27.3741 141.5C28.0941 141.073 28.9274 140.86 29.8741 140.86C30.8474 140.86 31.7274 141.093 32.5141 141.56C33.3141 142.027 33.9407 142.687 34.3941 143.54C34.8474 144.38 35.0741 145.36 35.0741 146.48C35.0741 147.587 34.8474 148.573 34.3941 149.44C33.9407 150.307 33.3141 150.98 32.5141 151.46C31.7274 151.94 30.8474 152.18 29.8741 152.18C28.9407 152.18 28.1141 151.973 27.3941 151.56C26.6874 151.133 26.1474 150.607 25.7741 149.98V157.2H23.9541V141.04H25.7741V143.06ZM33.2141 146.48C33.2141 145.653 33.0474 144.933 32.7141 144.32C32.3807 143.707 31.9274 143.24 31.3541 142.92C30.7941 142.6 30.1741 142.44 29.4941 142.44C28.8274 142.44 28.2074 142.607 27.6341 142.94C27.0741 143.26 26.6207 143.733 26.2741 144.36C25.9407 144.973 25.7741 145.687 25.7741 146.5C25.7741 147.327 25.9407 148.053 26.2741 148.68C26.6207 149.293 27.0741 149.767 27.6341 150.1C28.2074 150.42 28.8274 150.58 29.4941 150.58C30.1741 150.58 30.7941 150.42 31.3541 150.1C31.9274 149.767 32.3807 149.293 32.7141 148.68C33.0474 148.053 33.2141 147.32 33.2141 146.48ZM39.2897 143.06C39.6497 142.433 40.183 141.913 40.8897 141.5C41.6097 141.073 42.443 140.86 43.3897 140.86C44.363 140.86 45.243 141.093 46.0297 141.56C46.8297 142.027 47.4564 142.687 47.9097 143.54C48.363 144.38 48.5897 145.36 48.5897 146.48C48.5897 147.587 48.363 148.573 47.9097 149.44C47.4564 150.307 46.8297 150.98 46.0297 151.46C45.243 151.94 44.363 152.18 43.3897 152.18C42.4564 152.18 41.6297 151.973 40.9097 151.56C40.203 151.133 39.663 150.607 39.2897 149.98V157.2H37.4697V141.04H39.2897V143.06ZM46.7297 146.48C46.7297 145.653 46.563 144.933 46.2297 144.32C45.8964 143.707 45.443 143.24 44.8697 142.92C44.3097 142.6 43.6897 142.44 43.0097 142.44C42.343 142.44 41.723 142.607 41.1497 142.94C40.5897 143.26 40.1364 143.733 39.7897 144.36C39.4564 144.973 39.2897 145.687 39.2897 146.5C39.2897 147.327 39.4564 148.053 39.7897 148.68C40.1364 149.293 40.5897 149.767 41.1497 150.1C41.723 150.42 42.343 150.58 43.0097 150.58C43.6897 150.58 44.3097 150.42 44.8697 150.1C45.443 149.767 45.8964 149.293 46.2297 148.68C46.563 148.053 46.7297 147.32 46.7297 146.48ZM52.8053 142.82C53.1253 142.193 53.5786 141.707 54.1653 141.36C54.7653 141.013 55.492 140.84 56.3453 140.84V142.72H55.8653C53.8253 142.72 52.8053 143.827 52.8053 146.04V152H50.9853V141.04H52.8053V142.82ZM68.4463 146.1C68.4463 146.447 68.4263 146.813 68.3863 147.2H59.6263C59.6929 148.28 60.0596 149.127 60.7263 149.74C61.4063 150.34 62.2263 150.64 63.1863 150.64C63.9729 150.64 64.6263 150.46 65.1463 150.1C65.6796 149.727 66.0529 149.233 66.2663 148.62H68.2263C67.9329 149.673 67.3463 150.533 66.4663 151.2C65.5863 151.853 64.4929 152.18 63.1863 152.18C62.1463 152.18 61.2129 151.947 60.3863 151.48C59.5729 151.013 58.9329 150.353 58.4663 149.5C57.9996 148.633 57.7663 147.633 57.7663 146.5C57.7663 145.367 57.9929 144.373 58.4463 143.52C58.8996 142.667 59.5329 142.013 60.3463 141.56C61.1729 141.093 62.1196 140.86 63.1863 140.86C64.2263 140.86 65.1463 141.087 65.9463 141.54C66.7463 141.993 67.3596 142.62 67.7863 143.42C68.2263 144.207 68.4463 145.1 68.4463 146.1ZM66.5663 145.72C66.5663 145.027 66.4129 144.433 66.1063 143.94C65.7996 143.433 65.3796 143.053 64.8463 142.8C64.3263 142.533 63.7463 142.4 63.1063 142.4C62.1863 142.4 61.3996 142.693 60.7463 143.28C60.1063 143.867 59.7396 144.68 59.6463 145.72H66.5663ZM76.1886 140.84C77.5219 140.84 78.6019 141.247 79.4286 142.06C80.2553 142.86 80.6686 144.02 80.6686 145.54V152H78.8686V145.8C78.8686 144.707 78.5953 143.873 78.0486 143.3C77.5019 142.713 76.7553 142.42 75.8086 142.42C74.8486 142.42 74.0819 142.72 73.5086 143.32C72.9486 143.92 72.6686 144.793 72.6686 145.94V152H70.8486V141.04H72.6686V142.6C73.0286 142.04 73.5153 141.607 74.1286 141.3C74.7553 140.993 75.4419 140.84 76.1886 140.84ZM82.9616 146.48C82.9616 145.36 83.1882 144.38 83.6416 143.54C84.0949 142.687 84.7149 142.027 85.5016 141.56C86.3016 141.093 87.1949 140.86 88.1816 140.86C89.0349 140.86 89.8282 141.06 90.5616 141.46C91.2949 141.847 91.8549 142.36 92.2416 143V137.2H94.0816V152H92.2416V149.94C91.8816 150.593 91.3482 151.133 90.6416 151.56C89.9349 151.973 89.1082 152.18 88.1616 152.18C87.1882 152.18 86.3016 151.94 85.5016 151.46C84.7149 150.98 84.0949 150.307 83.6416 149.44C83.1882 148.573 82.9616 147.587 82.9616 146.48ZM92.2416 146.5C92.2416 145.673 92.0749 144.953 91.7416 144.34C91.4082 143.727 90.9549 143.26 90.3816 142.94C89.8216 142.607 89.2016 142.44 88.5216 142.44C87.8416 142.44 87.2216 142.6 86.6616 142.92C86.1016 143.24 85.6549 143.707 85.3216 144.32C84.9882 144.933 84.8216 145.653 84.8216 146.48C84.8216 147.32 84.9882 148.053 85.3216 148.68C85.6549 149.293 86.1016 149.767 86.6616 150.1C87.2216 150.42 87.8416 150.58 88.5216 150.58C89.2016 150.58 89.8216 150.42 90.3816 150.1C90.9549 149.767 91.4082 149.293 91.7416 148.68C92.0749 148.053 92.2416 147.327 92.2416 146.5ZM98.9772 142.82C99.2972 142.193 99.7505 141.707 100.337 141.36C100.937 141.013 101.664 140.84 102.517 140.84V142.72H102.037C99.9972 142.72 98.9772 143.827 98.9772 146.04V152H97.1572V141.04H98.9772V142.82ZM114.618 146.1C114.618 146.447 114.598 146.813 114.558 147.2H105.798C105.865 148.28 106.231 149.127 106.898 149.74C107.578 150.34 108.398 150.64 109.358 150.64C110.145 150.64 110.798 150.46 111.318 150.1C111.851 149.727 112.225 149.233 112.438 148.62H114.398C114.105 149.673 113.518 150.533 112.638 151.2C111.758 151.853 110.665 152.18 109.358 152.18C108.318 152.18 107.385 151.947 106.558 151.48C105.745 151.013 105.105 150.353 104.638 149.5C104.171 148.633 103.938 147.633 103.938 146.5C103.938 145.367 104.165 144.373 104.618 143.52C105.071 142.667 105.705 142.013 106.518 141.56C107.345 141.093 108.291 140.86 109.358 140.86C110.398 140.86 111.318 141.087 112.118 141.54C112.918 141.993 113.531 142.62 113.958 143.42C114.398 144.207 114.618 145.1 114.618 146.1ZM112.738 145.72C112.738 145.027 112.585 144.433 112.278 143.94C111.971 143.433 111.551 143.053 111.018 142.8C110.498 142.533 109.918 142.4 109.278 142.4C108.358 142.4 107.571 142.693 106.918 143.28C106.278 143.867 105.911 144.68 105.818 145.72H112.738ZM118.9 149.48L116.66 154.86H115.44L116.9 149.48H118.9ZM128.537 142.54V149C128.537 149.533 128.651 149.913 128.877 150.14C129.104 150.353 129.497 150.46 130.057 150.46H131.397V152H129.757C128.744 152 127.984 151.767 127.477 151.3C126.971 150.833 126.717 150.067 126.717 149V142.54H125.297V141.04H126.717V138.28H128.537V141.04H131.397V142.54H128.537ZM143.603 146.1C143.603 146.447 143.583 146.813 143.543 147.2H134.783C134.849 148.28 135.216 149.127 135.883 149.74C136.563 150.34 137.383 150.64 138.343 150.64C139.129 150.64 139.783 150.46 140.303 150.1C140.836 149.727 141.209 149.233 141.423 148.62H143.383C143.089 149.673 142.503 150.533 141.623 151.2C140.743 151.853 139.649 152.18 138.343 152.18C137.303 152.18 136.369 151.947 135.543 151.48C134.729 151.013 134.089 150.353 133.623 149.5C133.156 148.633 132.923 147.633 132.923 146.5C132.923 145.367 133.149 144.373 133.603 143.52C134.056 142.667 134.689 142.013 135.503 141.56C136.329 141.093 137.276 140.86 138.343 140.86C139.383 140.86 140.303 141.087 141.103 141.54C141.903 141.993 142.516 142.62 142.943 143.42C143.383 144.207 143.603 145.1 143.603 146.1ZM141.723 145.72C141.723 145.027 141.569 144.433 141.263 143.94C140.956 143.433 140.536 143.053 140.003 142.8C139.483 142.533 138.903 142.4 138.263 142.4C137.343 142.4 136.556 142.693 135.903 143.28C135.263 143.867 134.896 144.68 134.803 145.72H141.723ZM149.885 152.18C149.045 152.18 148.292 152.04 147.625 151.76C146.958 151.467 146.432 151.067 146.045 150.56C145.658 150.04 145.445 149.447 145.405 148.78H147.285C147.338 149.327 147.592 149.773 148.045 150.12C148.512 150.467 149.118 150.64 149.865 150.64C150.558 150.64 151.105 150.487 151.505 150.18C151.905 149.873 152.105 149.487 152.105 149.02C152.105 148.54 151.892 148.187 151.465 147.96C151.038 147.72 150.378 147.487 149.485 147.26C148.672 147.047 148.005 146.833 147.485 146.62C146.978 146.393 146.538 146.067 146.165 145.64C145.805 145.2 145.625 144.627 145.625 143.92C145.625 143.36 145.792 142.847 146.125 142.38C146.458 141.913 146.932 141.547 147.545 141.28C148.158 141 148.858 140.86 149.645 140.86C150.858 140.86 151.838 141.167 152.585 141.78C153.332 142.393 153.732 143.233 153.785 144.3H151.965C151.925 143.727 151.692 143.267 151.265 142.92C150.852 142.573 150.292 142.4 149.585 142.4C148.932 142.4 148.412 142.54 148.025 142.82C147.638 143.1 147.445 143.467 147.445 143.92C147.445 144.28 147.558 144.58 147.785 144.82C148.025 145.047 148.318 145.233 148.665 145.38C149.025 145.513 149.518 145.667 150.145 145.84C150.932 146.053 151.572 146.267 152.065 146.48C152.558 146.68 152.978 146.987 153.325 147.4C153.685 147.813 153.872 148.353 153.885 149.02C153.885 149.62 153.718 150.16 153.385 150.64C153.052 151.12 152.578 151.5 151.965 151.78C151.365 152.047 150.672 152.18 149.885 152.18ZM158.674 142.54V149C158.674 149.533 158.787 149.913 159.014 150.14C159.241 150.353 159.634 150.46 160.194 150.46H161.534V152H159.894C158.881 152 158.121 151.767 157.614 151.3C157.107 150.833 156.854 150.067 156.854 149V142.54H155.434V141.04H156.854V138.28H158.674V141.04H161.534V142.54H158.674ZM173.739 146.1C173.739 146.447 173.719 146.813 173.679 147.2H164.919C164.986 148.28 165.353 149.127 166.019 149.74C166.699 150.34 167.519 150.64 168.479 150.64C169.266 150.64 169.919 150.46 170.439 150.1C170.973 149.727 171.346 149.233 171.559 148.62H173.519C173.226 149.673 172.639 150.533 171.759 151.2C170.879 151.853 169.786 152.18 168.479 152.18C167.439 152.18 166.506 151.947 165.679 151.48C164.866 151.013 164.226 150.353 163.759 149.5C163.293 148.633 163.059 147.633 163.059 146.5C163.059 145.367 163.286 144.373 163.739 143.52C164.193 142.667 164.826 142.013 165.639 141.56C166.466 141.093 167.413 140.86 168.479 140.86C169.519 140.86 170.439 141.087 171.239 141.54C172.039 141.993 172.653 142.62 173.079 143.42C173.519 144.207 173.739 145.1 173.739 146.1ZM171.859 145.72C171.859 145.027 171.706 144.433 171.399 143.94C171.093 143.433 170.673 143.053 170.139 142.8C169.619 142.533 169.039 142.4 168.399 142.4C167.479 142.4 166.693 142.693 166.039 143.28C165.399 143.867 165.033 144.68 164.939 145.72H171.859ZM177.962 142.82C178.282 142.193 178.735 141.707 179.322 141.36C179.922 141.013 180.648 140.84 181.502 140.84V142.72H181.022C178.982 142.72 177.962 143.827 177.962 146.04V152H176.142V141.04H177.962V142.82ZM52.7431 176.1C52.7431 176.447 52.7231 176.813 52.6831 177.2H43.9231C43.9898 178.28 44.3565 179.127 45.0231 179.74C45.7031 180.34 46.5231 180.64 47.4831 180.64C48.2698 180.64 48.9231 180.46 49.4431 180.1C49.9765 179.727 50.3498 179.233 50.5631 178.62H52.5231C52.2298 179.673 51.6431 180.533 50.7631 181.2C49.8831 181.853 48.7898 182.18 47.4831 182.18C46.4431 182.18 45.5098 181.947 44.6831 181.48C43.8698 181.013 43.2298 180.353 42.7631 179.5C42.2965 178.633 42.0631 177.633 42.0631 176.5C42.0631 175.367 42.2898 174.373 42.7431 173.52C43.1965 172.667 43.8298 172.013 44.6431 171.56C45.4698 171.093 46.4165 170.86 47.4831 170.86C48.5231 170.86 49.4431 171.087 50.2431 171.54C51.0431 171.993 51.6565 172.62 52.0831 173.42C52.5231 174.207 52.7431 175.1 52.7431 176.1ZM50.8631 175.72C50.8631 175.027 50.7098 174.433 50.4031 173.94C50.0965 173.433 49.6765 173.053 49.1431 172.8C48.6231 172.533 48.0431 172.4 47.4031 172.4C46.4831 172.4 45.6965 172.693 45.0431 173.28C44.4031 173.867 44.0365 174.68 43.9431 175.72H50.8631ZM57.3655 172.54V179C57.3655 179.533 57.4788 179.913 57.7055 180.14C57.9321 180.353 58.3255 180.46 58.8855 180.46H60.2255V182H58.5855C57.5721 182 56.8121 181.767 56.3055 181.3C55.7988 180.833 55.5455 180.067 55.5455 179V172.54H54.1255V171.04H55.5455V168.28H57.3655V171.04H60.2255V172.54H57.3655ZM80.9427 170.84C81.796 170.84 82.556 171.02 83.2227 171.38C83.8893 171.727 84.416 172.253 84.8027 172.96C85.1893 173.667 85.3827 174.527 85.3827 175.54V182H83.5827V175.8C83.5827 174.707 83.3093 173.873 82.7627 173.3C82.2293 172.713 81.5027 172.42 80.5827 172.42C79.636 172.42 78.8827 172.727 78.3227 173.34C77.7627 173.94 77.4827 174.813 77.4827 175.96V182H75.6827V175.8C75.6827 174.707 75.4093 173.873 74.8627 173.3C74.3293 172.713 73.6027 172.42 72.6827 172.42C71.736 172.42 70.9827 172.727 70.4227 173.34C69.8627 173.94 69.5827 174.813 69.5827 175.96V182H67.7627V171.04H69.5827V172.62C69.9427 172.047 70.4227 171.607 71.0227 171.3C71.636 170.993 72.3093 170.84 73.0427 170.84C73.9627 170.84 74.776 171.047 75.4827 171.46C76.1893 171.873 76.716 172.48 77.0627 173.28C77.3693 172.507 77.876 171.907 78.5827 171.48C79.2893 171.053 80.076 170.84 80.9427 170.84ZM98.3681 176.1C98.3681 176.447 98.3481 176.813 98.3081 177.2H89.5481C89.6148 178.28 89.9815 179.127 90.6481 179.74C91.3281 180.34 92.1481 180.64 93.1081 180.64C93.8948 180.64 94.5481 180.46 95.0681 180.1C95.6015 179.727 95.9748 179.233 96.1881 178.62H98.1481C97.8548 179.673 97.2681 180.533 96.3881 181.2C95.5081 181.853 94.4148 182.18 93.1081 182.18C92.0681 182.18 91.1348 181.947 90.3081 181.48C89.4948 181.013 88.8548 180.353 88.3881 179.5C87.9215 178.633 87.6881 177.633 87.6881 176.5C87.6881 175.367 87.9148 174.373 88.3681 173.52C88.8215 172.667 89.4548 172.013 90.2681 171.56C91.0948 171.093 92.0415 170.86 93.1081 170.86C94.1481 170.86 95.0681 171.087 95.8681 171.54C96.6681 171.993 97.2815 172.62 97.7081 173.42C98.1481 174.207 98.3681 175.1 98.3681 176.1ZM96.4881 175.72C96.4881 175.027 96.3348 174.433 96.0281 173.94C95.7215 173.433 95.3015 173.053 94.7681 172.8C94.2481 172.533 93.6681 172.4 93.0281 172.4C92.1081 172.4 91.3215 172.693 90.6681 173.28C90.0281 173.867 89.6615 174.68 89.5681 175.72H96.4881ZM104.65 182.18C103.81 182.18 103.057 182.04 102.39 181.76C101.724 181.467 101.197 181.067 100.81 180.56C100.424 180.04 100.21 179.447 100.17 178.78H102.05C102.104 179.327 102.357 179.773 102.81 180.12C103.277 180.467 103.884 180.64 104.63 180.64C105.324 180.64 105.87 180.487 106.27 180.18C106.67 179.873 106.87 179.487 106.87 179.02C106.87 178.54 106.657 178.187 106.23 177.96C105.804 177.72 105.144 177.487 104.25 177.26C103.437 177.047 102.77 176.833 102.25 176.62C101.744 176.393 101.304 176.067 100.93 175.64C100.57 175.2 100.39 174.627 100.39 173.92C100.39 173.36 100.557 172.847 100.89 172.38C101.224 171.913 101.697 171.547 102.31 171.28C102.924 171 103.624 170.86 104.41 170.86C105.624 170.86 106.604 171.167 107.35 171.78C108.097 172.393 108.497 173.233 108.55 174.3H106.73C106.69 173.727 106.457 173.267 106.03 172.92C105.617 172.573 105.057 172.4 104.35 172.4C103.697 172.4 103.177 172.54 102.79 172.82C102.404 173.1 102.21 173.467 102.21 173.92C102.21 174.28 102.324 174.58 102.55 174.82C102.79 175.047 103.084 175.233 103.43 175.38C103.79 175.513 104.284 175.667 104.91 175.84C105.697 176.053 106.337 176.267 106.83 176.48C107.324 176.68 107.744 176.987 108.09 177.4C108.45 177.813 108.637 178.353 108.65 179.02C108.65 179.62 108.484 180.16 108.15 180.64C107.817 181.12 107.344 181.5 106.73 181.78C106.13 182.047 105.437 182.18 104.65 182.18ZM120.94 171.04V182H119.12V180.38C118.773 180.94 118.286 181.38 117.66 181.7C117.046 182.007 116.366 182.16 115.62 182.16C114.766 182.16 114 181.987 113.32 181.64C112.64 181.28 112.1 180.747 111.7 180.04C111.313 179.333 111.12 178.473 111.12 177.46V171.04H112.92V177.22C112.92 178.3 113.193 179.133 113.74 179.72C114.286 180.293 115.033 180.58 115.98 180.58C116.953 180.58 117.72 180.28 118.28 179.68C118.84 179.08 119.12 178.207 119.12 177.06V171.04H120.94ZM125.833 172.82C126.153 172.193 126.606 171.707 127.193 171.36C127.793 171.013 128.519 170.84 129.373 170.84V172.72H128.893C126.853 172.72 125.833 173.827 125.833 176.04V182H124.013V171.04H125.833V172.82ZM141.474 176.1C141.474 176.447 141.454 176.813 141.414 177.2H132.654C132.72 178.28 133.087 179.127 133.754 179.74C134.434 180.34 135.254 180.64 136.214 180.64C137 180.64 137.654 180.46 138.174 180.1C138.707 179.727 139.08 179.233 139.294 178.62H141.254C140.96 179.673 140.374 180.533 139.494 181.2C138.614 181.853 137.52 182.18 136.214 182.18C135.174 182.18 134.24 181.947 133.414 181.48C132.6 181.013 131.96 180.353 131.494 179.5C131.027 178.633 130.794 177.633 130.794 176.5C130.794 175.367 131.02 174.373 131.474 173.52C131.927 172.667 132.56 172.013 133.374 171.56C134.2 171.093 135.147 170.86 136.214 170.86C137.254 170.86 138.174 171.087 138.974 171.54C139.774 171.993 140.387 172.62 140.814 173.42C141.254 174.207 141.474 175.1 141.474 176.1ZM139.594 175.72C139.594 175.027 139.44 174.433 139.134 173.94C138.827 173.433 138.407 173.053 137.874 172.8C137.354 172.533 136.774 172.4 136.134 172.4C135.214 172.4 134.427 172.693 133.774 173.28C133.134 173.867 132.767 174.68 132.674 175.72H139.594ZM145.696 172.82C146.016 172.193 146.469 171.707 147.056 171.36C147.656 171.013 148.383 170.84 149.236 170.84V172.72H148.756C146.716 172.72 145.696 173.827 145.696 176.04V182H143.876V171.04H145.696V172.82Z" fill="white"/>
<g clip-path="url(#clip0_81_194)">
<path d="M122.494 23.8598C123.43 23.3323 124.405 22.8767 125.41 22.4968C125.732 22.3897 126.073 22.3481 126.412 22.3743C126.751 22.4006 127.081 22.4943 127.383 22.6498C127.601 22.8911 127.763 23.1776 127.856 23.4889C127.95 23.8001 127.974 24.1283 127.926 24.4498C127.565 26.9648 127.062 29.4608 126.609 31.9628C126.281 33.7738 125.403 34.2848 123.698 33.6258C121.138 32.6368 118.59 31.6178 116.029 30.6318C115.221 30.3198 114.564 29.8688 114.513 28.9418C114.462 28.0148 115.079 27.4948 115.859 27.1218C116.987 26.5838 118.103 26.0218 119.532 25.3218C117.82 22.9618 116.327 20.5588 114.499 18.4458C110.901 14.1653 106.48 10.6505 101.499 8.10947C96.5172 5.56848 91.0766 4.05299 85.4989 3.65278C76.9645 2.98831 68.4289 4.92343 61.0154 9.20341C53.6019 13.4834 47.658 19.9077 43.9659 27.6308C43.3049 29.0558 42.7369 30.5308 42.1729 31.9948C41.6429 33.3718 40.8509 33.9128 39.7509 33.5508C38.7509 33.2208 38.4059 32.2838 38.8839 30.9258C41.8403 22.2574 47.3543 14.6884 54.6989 9.21677C63.4626 2.43096 74.4624 -0.801304 85.5039 0.164802C101.552 1.4888 113.736 9.29578 122.036 23.1178C122.164 23.3208 122.291 23.5258 122.494 23.8598ZM123.504 29.9398C123.677 28.9328 123.831 28.0298 124.022 26.9188L120.406 28.7048L123.504 29.9398Z" fill="#12142B"/>
<path d="M42.043 67.921C40.9539 68.6129 39.8235 69.2374 38.658 69.791C38.3447 69.9233 38.0066 69.987 37.6666 69.9777C37.3266 69.9684 36.9926 69.8863 36.687 69.737C36.4413 69.4968 36.2538 69.2036 36.1387 68.8799C36.0236 68.5561 35.984 68.2104 36.023 67.869C36.543 64.969 37.203 62.1 37.856 59.228C37.8742 58.9411 37.9643 58.6635 38.1179 58.4206C38.2716 58.1776 38.4838 57.9772 38.7351 57.8378C38.9865 57.6984 39.2689 57.6244 39.5563 57.6227C39.8437 57.621 40.127 57.6916 40.38 57.828C42.8679 58.887 45.355 59.952 47.786 61.128C48.0954 61.2749 48.3681 61.489 48.5842 61.7547C48.8003 62.0205 48.9543 62.3311 49.035 62.664C48.9101 63.3798 48.5131 64.0195 47.927 64.449C47.0059 65.1144 46.0403 65.7158 45.037 66.249C45.437 66.968 45.779 67.683 46.208 68.341C53.719 79.867 64.24 86.641 77.969 88.085C87.5567 89.0958 97.2014 86.7927 105.298 81.5589C113.394 76.3251 119.454 68.4764 122.469 59.319C122.545 59.09 122.615 58.857 122.707 58.634C122.765 58.4085 122.868 58.1968 123.009 58.0113C123.15 57.8258 123.326 57.6701 123.527 57.5532C123.729 57.4364 123.952 57.3607 124.183 57.3307C124.414 57.3006 124.648 57.3167 124.873 57.378C125.104 57.4554 125.316 57.5803 125.496 57.7448C125.675 57.9093 125.819 58.1097 125.916 58.3329C126.013 58.5562 126.063 58.7974 126.061 59.041C126.059 59.2846 126.006 59.5251 125.906 59.747C123.638 67.0365 119.534 73.621 113.99 78.869C104.961 87.447 94.141 91.906 81.723 91.607C64.742 91.199 51.7229 83.483 42.7289 69.045C42.5179 68.715 42.313 68.37 42.043 67.921ZM40.812 61.803L40.147 65.003L43.647 62.995L40.812 61.803Z" fill="#12142B"/>
<path d="M75.4349 39.1112C75.4349 31.4358 75.4349 23.7602 75.4349 16.0842C75.4349 14.1532 75.9439 13.6392 77.8549 13.6392C81.9349 13.6392 86.0149 13.6412 90.0949 13.6452C91.8509 13.6452 92.4209 14.2082 92.4209 15.9452C92.4209 31.3772 92.4209 46.8105 92.4209 62.2452C92.4209 64.0062 91.8629 64.5702 90.1209 64.5712C85.9603 64.5758 81.7996 64.5758 77.6389 64.5712C76.0389 64.5712 75.4489 63.9782 75.4479 62.3832C75.4426 54.6272 75.4426 46.8708 75.4479 39.1142L75.4349 39.1112ZM78.9259 17.0942V61.1112H88.9509V17.0942H78.9259Z" fill="white"/>
<path d="M54.594 48.3219C54.594 43.7586 54.594 39.1949 54.594 34.6309C54.594 32.8709 55.1459 32.3199 56.9009 32.3179C61.0203 32.3139 65.1393 32.3139 69.258 32.3179C71.01 32.3179 71.567 32.8749 71.567 34.6309C71.567 43.8389 71.567 53.0466 71.567 62.2539C71.567 64.0109 71.01 64.5669 69.258 64.5689C65.0993 64.5743 60.9399 64.5743 56.7799 64.5689C55.1889 64.5689 54.597 63.969 54.594 62.376C54.5886 57.6913 54.5886 53.0066 54.594 48.3219ZM58.077 35.7729V61.0729H68.1119V35.7729H58.077Z" fill="white"/>
<path d="M113.751 49.2911C113.751 53.6124 113.751 57.9338 113.751 62.2551C113.751 64.0091 113.192 64.5671 111.441 64.5701C107.322 64.5761 103.202 64.5778 99.083 64.5751C97.334 64.5751 96.777 64.0141 96.777 62.2561C96.777 53.6134 96.777 44.9704 96.777 36.3271C96.777 34.5671 97.329 34.0171 99.085 34.0141C103.204 34.0088 107.324 34.0071 111.443 34.0091C113.19 34.0091 113.75 34.5721 113.751 36.3261C113.754 40.6481 113.754 44.9698 113.751 49.2911ZM100.225 61.0861H110.257V37.4801H100.225V61.0861Z" fill="white"/>
</g>
<defs>
<clipPath id="clip0_81_194">
<rect width="91.944" height="91.63" fill="white" transform="translate(36)"/>
</clipPath>
</defs>
</svg>
