<svg width="292" height="442" viewBox="0 0 292 442" fill="none" xmlns="http://www.w3.org/2000/svg">
<path opacity="0.3" d="M7.42373 117.867C10.3108 81.3841 24.7458 52.7193 50.7288 31.8721C77.1243 10.624 111.15 0 152.805 0C180.438 0 204.153 4.81089 223.949 14.4327C243.746 24.0544 258.593 37.2844 268.491 54.1225C278.803 70.5596 283.958 89.2018 283.958 110.049C283.958 135.306 276.328 157.155 261.068 175.597C245.808 194.039 224.155 205.465 196.11 209.875V212.882C225.392 218.494 248.695 230.922 266.017 250.166C283.339 269.008 292 293.865 292 324.735C292 359.212 280.04 387.476 256.119 409.527C232.61 431.176 198.379 442 153.424 442C110.531 442 75.2684 431.176 47.6356 409.527C20.0028 387.476 4.1243 356.407 0 316.316H42.0678C45.7797 343.177 57.3277 365.026 76.7119 381.864C96.096 398.301 121.667 406.52 153.424 406.52C184.769 406.52 208.689 398.502 225.186 382.465C242.096 366.429 250.551 345.982 250.551 321.127C250.551 260.189 205.39 229.72 115.068 229.72H101.458V194.239H115.686C199.822 194.239 241.89 167.579 241.89 114.259C241.89 91.0059 234.053 72.3637 218.381 58.332C202.709 43.8993 180.438 36.683 151.568 36.683C123.523 36.683 100.22 43.8993 81.661 58.332C63.5142 72.3637 52.7909 92.2086 49.4915 117.867H7.42373Z" fill="#43425A"/>
</svg>
