<svg width="291" height="442" viewBox="0 0 291 442" fill="none" xmlns="http://www.w3.org/2000/svg">
<path d="M0 411.14C74.8267 355.02 132.573 304.797 173.24 260.47C214.313 215.737 234.85 172.02 234.85 129.32C234.85 101.26 227.733 78.8933 213.5 62.22C199.673 45.14 176.9 36.6 145.18 36.6C114.273 36.6 90.28 46.36 73.2 65.88C56.5267 84.9933 47.1733 110.613 45.14 142.74H3.66C6.1 97.6 19.9267 62.6267 45.14 37.82C70.76 12.6066 104.107 0 145.18 0C184.627 0 216.55 11.1833 240.95 33.55C265.35 55.51 277.55 86.8233 277.55 127.49C277.55 176.697 257.013 224.48 215.94 270.84C175.273 316.793 125.05 361.73 65.27 405.65H290.97V441.64H0V411.14Z" fill="#43425A" fill-opacity="0.3"/>
</svg>
