<svg  viewBox="0 0 857 682" fill="none" xmlns="http://www.w3.org/2000/svg" style="z-index: 1">
    <g opacity="1">
        <path opacity="0.9" d="M83.7894 679.879C130.065 679.879 167.579 640.081 167.579 590.987C167.579 541.893 130.065 502.095 83.7894 502.095C37.5138 502.095 0 541.893 0 590.987C0 640.081 37.5138 679.879 83.7894 679.879Z" fill="#29FADB" fill-opacity="0.5"/>
        <path opacity="0.9" d="M299.896 303.419C346.171 303.419 383.685 263.621 383.685 214.527C383.685 165.433 346.171 125.635 299.896 125.635C253.62 125.635 216.106 165.433 216.106 214.527C216.106 263.621 253.62 303.419 299.896 303.419Z" fill="#29FADB" fill-opacity="0.5"/>
        <path opacity="0.9" d="M500.11 681.203C546.385 681.203 583.899 641.405 583.899 592.311C583.899 543.217 546.385 503.419 500.11 503.419C453.834 503.419 416.32 543.217 416.32 592.311C416.32 641.405 453.834 681.203 500.11 681.203Z" fill="#29FADB" fill-opacity="0.5"/>
        <g opacity="1">
            <path d="M275.09 198.165L55.8301 570.424L110.074 606.383L329.334 234.125L275.09 198.165Z" fill="#29FADB" fill-opacity="0.5"/>
            <path d="M797.638 25.1197L471.396 579.011L525.64 614.97L851.882 61.079L797.638 25.1197Z" fill="#29FADB" fill-opacity="0.5"/>
            <path d="M535.626 577.396L328.745 197.258L273.353 231.187L480.234 611.325L535.626 577.396Z" fill="#29FADB" fill-opacity="0.5"/>
            <path d="M745.561 44.4569L856.166 0V128.509L745.561 44.4569Z" fill="#29FADB" fill-opacity="0.4"/>
        </g>
        <path d="M500.003 644.392C519.887 644.392 536.007 627.291 536.007 606.196C536.007 585.101 519.887 568 500.003 568C480.119 568 464 585.101 464 606.196C464 627.291 480.119 644.392 500.003 644.392Z" fill="#29FADB" fill-opacity="0.2"/>
        <path d="M299.246 252.049C319.13 252.049 335.25 234.948 335.25 213.853C335.25 192.758 319.13 175.657 299.246 175.657C279.362 175.657 263.243 192.758 263.243 213.853C263.243 234.948 279.362 252.049 299.246 252.049Z" fill="#29FADB" fill-opacity="0.2"/>
        <path d="M85.6234 628.511C105.507 628.511 121.627 611.411 121.627 590.316C121.627 569.221 105.507 552.12 85.6234 552.12C65.7393 552.12 49.6201 569.221 49.6201 590.316C49.6201 611.411 65.7393 628.511 85.6234 628.511Z" fill="#29FADB" fill-opacity="0.2"/>
    </g>
</svg>
