<svg  viewBox="0 2 1600 1480" fill="none" xmlns="http://www.w3.org/2000/svg">
    <g opacity="0.6" clip-path="url(#clip0_1268_704)">
        <mask id="mask0_1268_704" style="mask-type:luminance" maskUnits="userSpaceOnUse" x="-1378" y="-1431" width="4917" height="4514">
            <path d="M690.182 -1430.38L-1377.58 160.939L870.879 3082.59L2938.64 1491.27L690.182 -1430.38Z" fill="white"/>
        </mask>
        <g mask="url(#mask0_1268_704)">
            <path d="M1179.3 783.762C1131.84 820.284 1063.79 811.456 1027.31 764.044C990.822 716.636 999.714 648.596 1047.17 612.074C1094.63 575.552 1162.68 584.38 1199.16 631.788C1235.65 679.2 1226.76 747.24 1179.3 783.762ZM1245.22 870.696C1149.97 944.001 1013.39 926.283 940.15 831.119C866.916 735.958 884.761 599.389 980.014 526.083C1075.26 452.78 1211.85 470.5 1285.09 565.66C1358.32 660.824 1340.47 797.393 1245.22 870.696ZM1311.97 955.617C1169.4 1065.34 964.963 1038.81 855.349 896.381C745.737 753.951 772.45 549.541 915.018 439.823C1057.58 330.108 1262.02 356.629 1371.63 499.059C1481.24 641.493 1454.53 845.902 1311.97 955.617ZM921.161 982.422C873.704 1018.94 805.656 1010.12 769.168 962.704C732.683 915.295 741.575 847.255 789.032 810.733C836.489 774.211 904.537 783.039 941.022 830.448C977.509 877.86 968.617 945.9 921.161 982.422ZM987.081 1069.36C891.831 1142.66 755.245 1124.94 682.008 1029.78C608.774 934.62 626.622 798.048 721.872 724.745C817.126 651.44 953.711 669.162 1026.95 764.322C1100.18 859.486 1082.33 996.052 987.081 1069.36ZM1053.82 1154.28C911.259 1263.99 706.825 1237.47 597.21 1095.04C487.598 952.61 514.312 748.201 656.876 638.485C799.444 528.767 1003.88 555.289 1113.49 697.719C1223.11 840.152 1196.39 1044.56 1053.82 1154.28ZM881.183 657.626C833.727 694.148 765.678 685.32 729.191 637.908C692.706 590.499 701.598 522.459 749.055 485.937C796.508 449.418 864.556 458.246 901.041 505.654C937.529 553.066 928.637 621.106 881.183 657.626ZM947.106 744.565C851.853 817.871 715.267 800.149 642.031 704.985C568.797 609.824 586.644 473.259 681.898 399.953C777.148 326.65 913.734 344.366 986.968 439.526C1060.2 534.69 1042.36 671.262 947.106 744.565ZM1013.85 829.483C871.279 939.201 666.848 912.677 557.233 770.244C447.621 627.814 474.331 423.407 616.899 313.689C759.467 203.971 963.898 230.495 1073.51 372.925C1183.12 515.359 1156.41 719.765 1013.85 829.483Z" stroke="url(#paint0_radial_1268_704)" stroke-width="0.437333" stroke-miterlimit="10"/>
        </g>
        <mask id="mask1_1268_704" style="mask-type:luminance" maskUnits="userSpaceOnUse" x="-1378" y="-1431" width="4317" height="4514">
            <path d="M690.182 -1430.38L-1377.58 160.938L870.879 3082.59L2938.64 1491.27L690.182 -1430.38Z" fill="white"/>
        </mask>
        <g mask="url(#mask1_1268_704)">
            <path d="M1068.71 913.248C1067.35 922.087 1066.27 930.844 1064.62 939.498C1059.9 964.205 1050.88 987.373 1038.1 1009.13C1037.32 1010.45 1036.5 1011.8 1035.46 1012.91C1033.15 1015.34 1030.31 1016.21 1027.02 1015.36C995.863 1007.4 966.505 995.23 939.025 978.698C937.444 977.743 935.917 976.564 934.7 975.191C932.132 972.299 932.181 968.957 934.599 965.875C947.066 949.942 955.071 932.134 957.505 912.092C960.426 888.095 957.194 865.087 944.995 844.133C929.722 817.898 907.123 800.693 877.642 792.62C867.263 789.778 856.642 788.856 845.854 789.046C842.841 789.099 839.661 788.596 836.849 787.572C832.047 785.825 830.366 781.139 832.37 776.42C832.645 775.778 833.266 775.205 833.846 774.759C863.857 751.624 893.913 728.549 923.884 705.362C932.454 698.733 941.198 698.05 950.683 702.929C974.505 715.175 995.346 731.218 1013.21 751.076C1017.42 755.749 1021.69 760.424 1025.37 765.511C1031.63 774.177 1039.93 780.424 1048.65 786.257C1068.03 799.21 1089.16 806.813 1112.92 806.133C1130.66 805.623 1147.2 800.471 1162.83 792.162C1191.22 777.067 1209.66 753.919 1217.81 723.063C1225.43 694.265 1222.21 666.467 1206.88 641.105C1182.97 601.561 1147.05 584.286 1100.75 587.523C1098.6 587.675 1096.24 587.429 1094.26 586.66C1089.58 584.849 1089 579.08 1092.98 575.978C1107.62 564.546 1122.22 553.051 1136.91 541.67C1153.93 528.484 1171.02 515.394 1188.09 502.263C1195.52 496.54 1202.94 490.796 1210.4 485.103C1212.25 483.702 1214.19 482.408 1216.15 481.172C1218.69 479.565 1221.94 479.908 1224.72 482.172C1226.16 483.343 1227.52 484.681 1228.65 486.143C1247.54 510.47 1266.46 534.776 1285.23 559.205C1300.3 578.83 1312.29 600.184 1320.21 623.741C1335.57 669.44 1335.99 715.484 1321.24 761.712C1310.45 795.531 1292.4 825.153 1267.22 850.404C1232.02 885.708 1189.8 907.121 1140.63 914.524C1116.56 918.147 1092.59 917.517 1068.71 913.248Z" fill="url(#paint1_linear_1268_704)"/>
        </g>
        <mask id="mask2_1268_704" style="mask-type:luminance" maskUnits="userSpaceOnUse" x="-1307" y="-1467" width="4318" height="4514">
            <path d="M761.76 -1466L-1306 125.317L942.457 3046.97L3010.22 1455.65L761.76 -1466Z" fill="white"/>
        </mask>
        <g mask="url(#mask2_1268_704)">
            <path d="M638.987 877.369C640.349 868.53 641.427 859.777 643.08 851.122C647.796 826.412 656.822 803.248 669.604 781.493C670.383 780.169 671.196 778.819 672.241 777.712C674.543 775.277 677.393 774.416 680.679 775.257C711.836 783.223 741.195 795.391 768.674 811.923C770.253 812.875 771.782 814.057 772.999 815.43C775.567 818.322 775.515 821.661 773.1 824.746C760.63 840.675 752.629 858.487 750.191 878.526C747.273 902.526 750.506 925.534 762.704 946.487C777.974 972.725 800.573 989.93 830.058 998C840.434 1000.84 851.058 1001.76 861.845 1001.57C864.855 1001.52 868.038 1002.02 870.851 1003.05C875.652 1004.8 877.333 1009.48 875.327 1014.2C875.051 1014.85 874.433 1015.42 873.853 1015.86C843.842 1039 813.786 1062.07 783.813 1085.25C775.242 1091.88 766.499 1092.57 757.016 1087.69C733.192 1075.44 712.35 1059.4 694.484 1039.55C690.275 1034.87 686.002 1030.19 682.327 1025.11C676.064 1016.45 667.762 1010.19 659.041 1004.37C639.668 991.41 618.535 983.808 594.783 984.488C577.037 984.994 560.499 990.146 544.869 998.455C516.481 1013.55 498.041 1036.7 489.884 1067.55C482.271 1096.36 485.49 1124.15 500.821 1149.52C524.724 1189.06 560.654 1206.34 606.951 1203.1C609.101 1202.95 611.459 1203.19 613.437 1203.96C618.124 1205.77 618.697 1211.54 614.724 1214.64C600.077 1226.08 585.478 1237.57 570.79 1248.95C553.768 1262.13 536.674 1275.22 519.611 1288.35C512.174 1294.08 504.753 1299.82 497.292 1305.51C495.449 1306.92 493.512 1308.21 491.551 1309.45C489.005 1311.05 485.762 1310.71 482.974 1308.45C481.537 1307.28 480.181 1305.94 479.045 1304.48C460.154 1280.15 441.233 1255.84 422.474 1231.42C407.399 1211.79 395.412 1190.44 387.493 1166.88C372.127 1121.18 371.712 1075.14 386.46 1028.91C397.251 995.087 415.303 965.468 440.479 940.213C475.679 904.913 517.899 883.5 567.071 876.099C591.135 872.477 615.113 873.104 638.987 877.369Z" fill="url(#paint2_linear_1268_704)"/>
        </g>
    </g>
    <defs>
        <radialGradient id="paint0_radial_1268_704" cx="0" cy="0" r="1" gradientUnits="userSpaceOnUse" gradientTransform="translate(898.496 685.396) rotate(52.4187) scale(488.404 511.71)">
            <stop stop-color="#29FADB"/>
            <stop offset="0.145833" stop-color="#29FADB"/>
            <stop offset="0.270833" stop-color="#29FADB"/>
            <stop offset="1" stop-color="#29FADB" stop-opacity="0.07"/>
        </radialGradient>
        <linearGradient id="paint1_linear_1268_704" x1="800.242" y1="800.517" x2="999.319" y2="1059.2" gradientUnits="userSpaceOnUse">
            <stop stop-color="#141331" stop-opacity="0"/>
            <stop offset="0.4375" stop-color="#29FADB" stop-opacity="0.54"/>
            <stop offset="0.583333" stop-color="#29FADB" stop-opacity="0.73"/>
            <stop offset="0.997012" stop-color="#29FADB"/>
        </linearGradient>
        <linearGradient id="paint2_linear_1268_704" x1="907.456" y1="990.103" x2="708.378" y2="731.421" gradientUnits="userSpaceOnUse">
            <stop stop-color="#111928" stop-opacity="0"/>
            <stop offset="0.354167" stop-color="#29FADB" stop-opacity="0.32"/>
            <stop offset="0.6875" stop-color="#29FADB" stop-opacity="0.72"/>
            <stop offset="1" stop-color="#29FADB"/>
        </linearGradient>
        <clipPath id="clip0_1268_704">
            <rect width="1291.29" height="999.46" fill="white" transform="translate(1632.89 792.061) rotate(142.419)"/>
        </clipPath>
    </defs>
</svg>