<svg width="232" height="88" viewBox="0 0 232 88" fill="none" xmlns="http://www.w3.org/2000/svg">
<path d="M54.8393 67.9321C49.4727 67.9321 45.0795 63.5928 45.0795 58.2339C45.0795 52.875 49.4727 48.5618 54.8393 48.5618C60.2059 48.5618 64.5991 52.9011 64.5991 58.26C64.5991 63.6189 60.2059 67.9321 54.8393 67.9321ZM54.8393 48.6663C49.5253 48.6663 45.211 52.9534 45.211 58.2339C45.211 63.5143 49.5253 67.8014 54.8393 67.8014C60.1533 67.8014 64.4676 63.5143 64.4676 58.2339C64.4676 52.9796 60.1533 48.6663 54.8393 48.6663Z" fill="url(#paint0_radial_1_13)"/>
<path d="M68.8082 72.8466C61.1003 80.5059 48.5783 80.5059 40.8704 72.8466C33.1625 65.1874 33.1625 52.7443 40.8704 45.085C48.5783 37.4258 61.1003 37.4258 68.8082 45.085C76.5161 52.7443 76.5161 65.2135 68.8082 72.8466ZM40.9493 45.1896C33.294 52.7966 33.294 65.1612 40.9493 72.7682C48.6046 80.3752 61.0477 80.3752 68.703 72.7682C76.3583 65.1612 76.3583 52.7966 68.703 45.1896C61.074 37.5826 48.6046 37.5826 40.9493 45.1896Z" fill="url(#paint1_linear_1_13)"/>
<path d="M54.8393 39.0989C49.4727 39.0989 45.0795 34.7595 45.0795 29.4007C45.0795 24.0418 49.4464 19.7024 54.8393 19.7024C60.2322 19.7024 64.5991 24.0418 64.5991 29.4007C64.5991 34.7595 60.2059 39.0989 54.8393 39.0989ZM54.8393 19.8331C49.5253 19.8331 45.211 24.1202 45.211 29.4007C45.211 34.6811 49.5253 38.9682 54.8393 38.9682C60.1533 38.9682 64.4676 34.6811 64.4676 29.4007C64.4676 24.1202 60.1533 19.8331 54.8393 19.8331Z" fill="url(#paint2_radial_1_13)"/>
<path d="M54.8393 48.6664C44.1587 48.6664 35.4775 40.0399 35.4775 29.4267C35.4775 18.8135 44.1587 10.187 54.8393 10.187C65.5198 10.187 74.2011 18.8135 74.2011 29.4267C74.2011 40.0399 65.5198 48.6664 54.8393 48.6664ZM54.8393 10.2916C44.2376 10.2916 35.5827 18.8658 35.5827 29.4267C35.5827 39.9876 44.2376 48.5618 54.8393 48.5618C65.4409 48.5618 74.0959 39.9876 74.0959 29.4267C74.0959 18.8658 65.4409 10.2916 54.8393 10.2916Z" fill="url(#paint3_radial_1_13)"/>
<path d="M54.8393 58.234C38.7921 58.234 25.744 45.2681 25.744 29.3222C25.744 13.3763 38.7921 0.4104 54.8393 0.4104C70.8864 0.4104 83.9346 13.3763 83.9346 29.3222C83.9346 45.2681 70.8864 58.234 54.8393 58.234ZM54.8393 0.541105C38.8711 0.541105 25.8755 13.4547 25.8755 29.3222C25.8755 45.1897 38.8711 58.1033 54.8393 58.1033C70.8075 58.1033 83.8031 45.1897 83.8031 29.3222C83.8031 13.4547 70.8075 0.541105 54.8393 0.541105Z" fill="url(#paint4_radial_1_13)"/>
<path d="M54.3921 29.5835C70.4393 29.3483 83.6979 42.105 83.9346 58.0509C84.1714 73.9968 71.3337 87.1718 55.2865 87.4071C39.2394 87.6424 25.9808 74.8856 25.744 58.9397C25.5072 42.9938 38.345 29.8188 54.3921 29.5835ZM55.2865 87.2764C71.2548 87.0411 84.0662 73.9184 83.8031 58.0509C83.5664 42.1834 70.3603 29.479 54.3921 29.7142C38.4239 29.9495 25.6125 43.0722 25.8755 58.9397C26.1123 74.8072 39.3183 87.5378 55.2865 87.2764Z" fill="url(#paint5_radial_1_13)"/>
<path d="M29.4269 53.9991C24.0603 53.9991 19.6671 49.6597 19.6671 44.3008C19.6671 38.9419 24.034 34.6025 29.4269 34.6025C34.8198 34.6025 39.1868 38.9419 39.1868 44.3008C39.1868 49.6597 34.8198 53.9991 29.4269 53.9991ZM29.4269 34.7332C24.113 34.7332 19.7986 39.0204 19.7986 44.3008C19.7986 49.5813 24.113 53.8684 29.4269 53.8684C34.7409 53.8684 39.0552 49.5813 39.0552 44.3008C39.0552 39.0204 34.7409 34.7332 29.4269 34.7332Z" fill="url(#paint6_radial_1_13)"/>
<path d="M29.1902 63.3315C18.2992 63.3315 9.43378 54.522 9.43378 43.6997C9.43378 32.8774 18.2992 24.0679 29.1902 24.0679C40.0812 24.0679 48.9466 32.8774 48.9466 43.6997C48.9466 54.522 40.0812 63.3315 29.1902 63.3315ZM29.1902 24.1986C18.3781 24.1986 9.56531 32.9558 9.56531 43.6997C9.56531 54.4436 18.3781 63.2008 29.1902 63.2008C40.0023 63.2008 48.8151 54.4436 48.8151 43.6997C48.8151 32.9558 40.0286 24.1986 29.1902 24.1986Z" fill="url(#paint7_radial_1_13)"/>
<path d="M29.1902 73.1083C13.143 73.1083 0.0948486 60.1424 0.0948486 44.1965C0.0948486 28.2505 13.143 15.2847 29.1902 15.2847C45.2373 15.2847 58.2855 28.2505 58.2855 44.1965C58.3118 60.1424 45.2373 73.1083 29.1902 73.1083ZM29.1902 15.4154C13.2219 15.4154 0.226383 28.329 0.226383 44.1965C0.226383 60.064 13.2219 72.9776 29.1902 72.9776C45.1584 72.9776 58.1803 60.064 58.1803 44.1965C58.1803 28.329 45.1847 15.4154 29.1902 15.4154Z" fill="url(#paint8_radial_1_13)"/>
<path d="M54.8393 67.8538C49.4727 67.8538 45.0795 63.5144 45.0795 58.1555C45.0795 52.7967 49.4464 48.4573 54.8393 48.4573C60.2059 48.4573 64.5991 52.7967 64.5991 58.1555C64.5991 63.5144 60.2059 67.8538 54.8393 67.8538ZM54.8393 48.588C49.5253 48.588 45.211 52.8751 45.211 58.1555C45.211 63.436 49.5253 67.7231 54.8393 67.7231C60.1533 67.7231 64.4676 63.436 64.4676 58.1555C64.4676 52.8751 60.1533 48.588 54.8393 48.588Z" fill="url(#paint9_radial_1_13)"/>
<path d="M68.8082 72.7683C61.1003 80.4275 48.5783 80.4275 40.8704 72.7683C33.1625 65.109 33.1625 52.6659 40.8704 45.0067C48.5783 37.3474 61.1003 37.3474 68.8082 45.0067C76.5161 52.6659 76.5161 65.109 68.8082 72.7683ZM40.9493 45.1112C33.294 52.7182 33.294 65.0828 40.9493 72.6898C48.6046 80.2968 61.0477 80.2968 68.703 72.6898C76.3583 65.0828 76.3583 52.7182 68.703 45.1112C61.074 37.5042 48.6046 37.5042 40.9493 45.1112Z" fill="url(#paint10_linear_1_13)"/>
<path d="M54.8393 38.9944C49.4727 38.9944 45.0795 34.655 45.0795 29.2962C45.0795 23.9373 49.4464 19.5979 54.8393 19.5979C60.2322 19.5979 64.5991 23.9373 64.5991 29.2962C64.5991 34.655 60.2059 38.9944 54.8393 38.9944ZM54.8393 19.7547C49.5253 19.7547 45.211 24.0419 45.211 29.3223C45.211 34.6028 49.5253 38.8899 54.8393 38.8899C60.1533 38.8899 64.4676 34.6028 64.4676 29.3223C64.4676 24.0419 60.1533 19.7547 54.8393 19.7547Z" fill="url(#paint11_radial_1_13)"/>
<path d="M54.8393 48.588C44.1587 48.588 35.4775 39.9615 35.4775 29.3483C35.4775 18.7351 44.1587 10.1086 54.8393 10.1086C65.5198 10.1086 74.2011 18.7351 74.2011 29.3483C74.2011 39.9615 65.5198 48.588 54.8393 48.588ZM54.8393 10.2132C44.2376 10.2132 35.5827 18.7874 35.5827 29.3483C35.5827 39.8831 44.2113 48.4834 54.8393 48.4834C65.4409 48.4834 74.0959 39.9092 74.0959 29.3483C74.0959 18.7874 65.4409 10.2132 54.8393 10.2132Z" fill="url(#paint12_radial_1_13)"/>
<path d="M54.8393 58.234C38.7921 58.234 25.744 45.2681 25.744 29.3222C25.744 13.3763 38.7921 0.4104 54.8393 0.4104C70.8864 0.4104 83.9346 13.3763 83.9346 29.3222C83.9346 45.2681 70.8864 58.234 54.8393 58.234ZM54.8393 0.51497C38.8711 0.51497 25.8755 13.4285 25.8755 29.2961C25.8755 45.1636 38.8711 58.1033 54.8393 58.1033C70.8075 58.1033 83.8031 45.1897 83.8031 29.3222C83.8031 13.4547 70.8075 0.51497 54.8393 0.51497Z" fill="url(#paint13_radial_1_13)"/>
<path d="M54.3921 29.5052C70.4393 29.2699 83.6979 42.0266 83.9346 57.9726C84.1714 73.9185 71.3337 87.0935 55.2865 87.3288C39.2394 87.564 25.9808 74.8073 25.744 58.8614C25.5072 42.9154 38.345 29.7404 54.3921 29.5052ZM55.2865 87.198C71.2548 86.9628 84.0662 73.8401 83.8031 57.9726C83.5664 42.1051 70.3603 29.3745 54.3921 29.6359C38.4239 29.8711 25.6125 42.9939 25.8755 58.8614C26.1123 74.7289 39.3183 87.4333 55.2865 87.198Z" fill="url(#paint14_radial_1_13)"/>
<path d="M29.4269 53.8946C24.0603 53.8946 19.6671 49.5552 19.6671 44.1963C19.6671 38.8374 24.034 34.498 29.4269 34.498C34.8198 34.498 39.1868 38.8374 39.1868 44.1963C39.1868 49.5552 34.8198 53.8946 29.4269 53.8946ZM29.4269 34.6549C24.113 34.6549 19.7986 38.942 19.7986 44.2225C19.7986 49.5029 24.113 53.79 29.4269 53.79C34.7409 53.79 39.0552 49.5029 39.0552 44.2225C39.0552 38.942 34.7409 34.6549 29.4269 34.6549Z" fill="url(#paint15_radial_1_13)"/>
<path d="M29.1902 63.2531C18.2992 63.2531 9.43378 54.4436 9.43378 43.6213C9.43378 32.799 18.2992 23.9895 29.1902 23.9895C40.0812 23.9895 48.9466 32.799 48.9466 43.6213C48.9466 54.4436 40.0812 63.2531 29.1902 63.2531ZM29.1902 24.1202C18.3781 24.1202 9.56531 32.8774 9.56531 43.6213C9.56531 54.3652 18.3781 63.1224 29.1902 63.1224C40.0023 63.1224 48.8151 54.3652 48.8151 43.6213C48.8151 32.8774 40.0286 24.1202 29.1902 24.1202Z" fill="url(#paint16_radial_1_13)"/>
<path d="M29.1902 73.0296C13.143 73.0296 0.0948486 60.0638 0.0948486 44.1178C0.0948486 28.1719 13.143 15.2061 29.1902 15.2061C45.2373 15.2061 58.3118 28.1719 58.3118 44.1178C58.3118 60.0638 45.2373 73.0296 29.1902 73.0296ZM29.1902 15.3106C13.2219 15.3106 0.226383 28.2242 0.226383 44.0917C0.226383 59.9592 13.2219 72.8728 29.1902 72.8728C45.1584 72.8728 58.1803 59.9853 58.1803 44.1178C58.1803 28.2242 45.1847 15.3106 29.1902 15.3106Z" fill="url(#paint17_radial_1_13)"/>
<path d="M231.095 51.7249C231.095 53.9207 229.306 55.7245 227.07 55.7245C224.86 55.7245 223.045 53.9469 223.045 51.7249C223.045 49.5291 224.834 47.7253 227.07 47.7253C229.28 47.7515 231.095 49.5291 231.095 51.7249Z" fill="#29FADB"/>
<path d="M99.5082 39.4386C99.1136 38.6544 98.3771 37.844 97.2459 36.9814C95.9042 36.0142 94.431 35.5437 92.8 35.5437C91.1427 35.5437 89.6695 36.0142 88.3542 36.9814C87.2756 37.8702 86.5127 38.6805 86.1181 39.4386H99.5082ZM92.8 30.2371C96.3777 30.2371 99.4293 31.4918 101.955 34.0275C104.507 36.5631 105.769 39.5955 105.769 43.1245L105.717 44.7714H85.3026C85.513 46.0261 86.2759 47.3332 87.5913 48.7186C89.0381 50.0518 90.7744 50.7315 92.7737 50.7315C94.1943 50.7315 95.5359 50.3394 96.7723 49.5552C97.9561 48.8493 98.9821 47.6207 99.9028 45.8693L104.849 47.9867C103.481 50.7315 101.744 52.7443 99.6924 54.0252C97.5878 55.3584 95.2992 56.0381 92.7737 56.0381C89.196 56.0381 86.1444 54.7833 83.6189 52.2477C81.0672 49.712 79.7781 46.6797 79.7781 43.1245C79.7781 39.5693 81.0672 36.537 83.6189 34.0275C86.1707 31.4918 89.2223 30.2371 92.8 30.2371Z" fill="white"/>
<path d="M122.606 35.5437C120.501 35.5437 118.712 36.3017 117.213 37.7918C115.74 39.2556 114.977 41.0594 114.977 43.1506C114.977 45.2419 115.713 47.0456 117.213 48.5095C118.686 49.9734 120.501 50.7315 122.606 50.7315C124.71 50.7315 126.525 49.9995 128.025 48.5095C129.498 47.0456 130.261 45.2419 130.261 43.1506C130.261 41.0594 129.524 39.2556 128.025 37.7918C126.525 36.3017 124.71 35.5437 122.606 35.5437ZM122.606 56.0381C119.028 56.0381 115.976 54.7833 113.451 52.2477C110.899 49.712 109.636 46.6797 109.636 43.1506C109.636 39.5955 110.899 36.537 113.451 34.0275C116.003 31.4918 119.054 30.2371 122.606 30.2371C126.21 30.2371 128.761 30.9951 130.261 32.4852V30.5246H135.601V55.7244H130.261V53.8161C128.761 55.3061 126.21 56.0381 122.606 56.0381Z" fill="white"/>
<path d="M165.617 48.0128C164.249 50.7576 162.513 52.7705 160.461 54.0514C158.357 55.3846 156.068 56.0642 153.542 56.0642C149.965 56.0642 146.913 54.8095 144.361 52.2738C141.81 49.7381 140.547 46.7058 140.547 43.1506C140.547 39.5955 141.81 36.5631 144.361 34.0536C146.913 31.5179 149.991 30.2632 153.542 30.2632C156.042 30.2632 158.357 30.9428 160.461 32.276C162.513 33.5569 164.223 35.5436 165.617 38.2884L160.672 40.4058C159.777 38.6805 158.725 37.4519 157.541 36.72C156.305 35.9619 154.989 35.5698 153.542 35.5698C151.438 35.5698 149.623 36.3017 148.149 37.7917C146.65 39.2818 145.887 41.0594 145.887 43.1506C145.887 45.2419 146.65 47.0456 148.149 48.5357C149.623 49.9995 151.438 50.7576 153.542 50.7576C154.963 50.7576 156.305 50.3655 157.541 49.5813C158.725 48.8755 159.751 47.6469 160.672 45.8954L165.617 48.0128Z" fill="white"/>
<path d="M170.773 26.3159H176.14V30.5246H180.27V35.8573H176.14V47.2025C176.14 48.0912 176.456 48.8493 177.061 49.4767C177.692 50.1041 178.771 50.4178 180.27 50.4178V55.7505C177.297 55.7505 174.982 54.914 173.299 53.241C171.641 51.568 170.8 49.5551 170.8 47.2025V26.3159H170.773Z" fill="white"/>
<path d="M184.69 30.5246H190.056V55.7244H184.69V30.5246ZM185.058 27.5445C184.427 26.9172 184.085 26.1329 184.085 25.2703C184.085 24.3815 184.4 23.5973 185.058 22.9699C185.689 22.3425 186.479 22.0027 187.347 22.0027C188.241 22.0027 189.03 22.3164 189.662 22.9699C190.293 23.5973 190.635 24.3815 190.635 25.2703C190.635 26.1591 190.319 26.9172 189.662 27.5445C189.03 28.1719 188.241 28.5118 187.347 28.5118C186.452 28.5118 185.689 28.1981 185.058 27.5445Z" fill="white"/>
<path d="M220.02 48.0128C218.652 50.7576 216.915 52.7705 214.864 54.0514C212.759 55.3846 210.47 56.0642 207.945 56.0642C204.367 56.0642 201.316 54.8095 198.764 52.2738C196.212 49.7381 194.949 46.7058 194.949 43.1506C194.949 39.5955 196.212 36.5631 198.764 34.0536C201.316 31.5179 204.393 30.2632 207.945 30.2632C210.444 30.2632 212.759 30.9428 214.864 32.276C216.915 33.5569 218.625 35.5436 220.02 38.2884L215.074 40.4058C214.18 38.6805 213.127 37.4519 211.944 36.72C210.707 35.9619 209.392 35.5698 207.945 35.5698C205.84 35.5698 204.025 36.3017 202.552 37.7917C201.052 39.2818 200.29 41.0594 200.29 43.1506C200.29 45.2419 201.026 47.0456 202.552 48.5357C204.025 49.9995 205.84 50.7576 207.945 50.7576C209.365 50.7576 210.707 50.3655 211.944 49.5813C213.127 48.8755 214.153 47.6469 215.074 45.8954L220.02 48.0128Z" fill="white"/>
<path d="M67.7822 43.8305C68.2294 44.301 68.6504 44.7454 69.0976 45.1898C70.5181 46.6798 71.623 48.4051 72.4911 50.2611C72.649 50.6009 72.7805 50.9146 72.9121 51.2806C73.0173 51.5943 72.9647 51.8818 72.6753 52.1171C71.3599 53.1627 69.992 54.0777 68.4925 54.8096C67.4929 55.3325 66.4406 55.7768 65.3883 56.2474C65.2831 56.2997 65.1515 56.3258 65.0463 56.3519C64.5728 56.4304 64.336 56.2735 64.2045 55.8291C63.994 55.2017 63.8099 54.5482 63.5205 53.947C62.1526 51.3067 60.048 49.5292 57.128 48.8495C54.2342 48.1698 51.5509 48.7972 49.157 50.5748C48.3678 51.1499 47.7101 51.8557 47.1314 52.6399C46.9209 52.9275 46.6842 53.1628 46.3159 53.2673C45.895 53.3719 45.4741 53.0582 45.4741 52.6138C45.4741 51.6989 45.4741 50.7578 45.4741 49.8429C45.4741 47.4902 45.4741 45.1375 45.4741 42.7848C45.4741 42.2882 45.5793 41.7915 45.9213 41.4255C46.1317 41.1902 46.3948 40.9811 46.6842 40.8504C48.2626 40.0923 49.9199 39.5695 51.6298 39.282C52.84 39.0728 54.0501 38.9683 55.2602 38.9944C56.2335 38.9944 57.1543 38.733 58.0487 38.3932C59.3904 37.9226 60.6005 37.243 61.6264 36.2496C62.9155 35.021 63.7047 33.531 64.1519 31.8318C64.4413 30.76 64.5465 29.636 64.4676 28.5381C64.3623 26.9173 63.8099 25.4534 62.9155 24.0941C61.7317 22.3688 60.2322 21.0618 58.2329 20.356C57.0227 19.9377 55.7337 19.7809 54.4447 19.8331C52.5769 19.8854 50.867 20.4605 49.3675 21.5584C48.3415 22.3165 47.4997 23.2576 46.7894 24.3032C46.6842 24.4601 46.5526 24.6169 46.3948 24.7215C46.0002 25.009 45.553 24.7476 45.5267 24.3294C45.5267 24.251 45.5004 24.1725 45.5004 24.0941C45.5004 19.8593 45.4741 15.6506 45.4741 11.4158C45.4741 11.2067 45.4741 10.9975 45.5004 10.8145C45.5267 10.4747 45.6845 10.2656 46.0265 10.1872C46.2107 10.1349 46.3948 10.1088 46.6053 10.1088C49.4464 10.0826 52.3138 10.0565 55.155 10.0826C57.128 10.1087 59.0484 10.4224 60.9425 11.0498C63.2838 11.834 65.4146 12.9581 67.3087 14.5527C70.3866 17.1668 72.5174 20.4083 73.596 24.3032C73.9117 25.4273 74.0959 26.5514 74.2011 27.7016C74.3063 28.8256 74.3063 29.9497 74.2274 31.0737C73.9117 34.7596 72.6227 38.0533 70.4392 41.0334C69.7026 42.0267 68.8871 42.9155 67.9664 43.752C67.8611 43.752 67.8348 43.7782 67.7822 43.8305Z" fill="url(#paint18_linear_1_13)"/>
<defs>
<radialGradient id="paint0_radial_1_13" cx="0" cy="0" r="1" gradientUnits="userSpaceOnUse" gradientTransform="translate(33.1004 40.8852) scale(69.6124 69.1733)">
<stop stop-color="#29FADB"/>
<stop offset="1" stop-color="#29FADB" stop-opacity="0"/>
</radialGradient>
<linearGradient id="paint1_linear_1_13" x1="40.8693" y1="72.8561" x2="68.6268" y2="44.9224" gradientUnits="userSpaceOnUse">
<stop stop-color="#29FADB" stop-opacity="0"/>
<stop offset="1" stop-color="#29FADB"/>
</linearGradient>
<radialGradient id="paint2_radial_1_13" cx="0" cy="0" r="1" gradientUnits="userSpaceOnUse" gradientTransform="translate(33.1002 41.2199) scale(69.6124 69.1733)">
<stop stop-color="#29FADB"/>
<stop offset="1" stop-color="#29FADB" stop-opacity="0"/>
</radialGradient>
<radialGradient id="paint3_radial_1_13" cx="0" cy="0" r="1" gradientUnits="userSpaceOnUse" gradientTransform="translate(33.5184 41.1376) scale(68.2732 67.8425)">
<stop stop-color="#29FADB"/>
<stop offset="1" stop-color="#29FADB" stop-opacity="0"/>
</radialGradient>
<radialGradient id="paint4_radial_1_13" cx="0" cy="0" r="1" gradientUnits="userSpaceOnUse" gradientTransform="translate(33.1002 41.4812) scale(69.6124 69.1733)">
<stop stop-color="#29FADB"/>
<stop offset="1" stop-color="#29FADB" stop-opacity="0"/>
</radialGradient>
<radialGradient id="paint5_radial_1_13" cx="0" cy="0" r="1" gradientUnits="userSpaceOnUse" gradientTransform="translate(76.8224 75.1845) rotate(179.13) scale(69.6135 69.1745)">
<stop offset="0.4828" stop-color="#29FADB" stop-opacity="0"/>
<stop offset="1" stop-color="#29FADB"/>
</radialGradient>
<radialGradient id="paint6_radial_1_13" cx="0" cy="0" r="1" gradientUnits="userSpaceOnUse" gradientTransform="translate(45.0405 23.5832) scale(69.6124 69.1733)">
<stop stop-color="#29FADB"/>
<stop offset="0.6715" stop-color="#29FADB" stop-opacity="0"/>
</radialGradient>
<radialGradient id="paint7_radial_1_13" cx="0" cy="0" r="1" gradientUnits="userSpaceOnUse" gradientTransform="translate(43.3448 25.1478) scale(69.6124 69.1733)">
<stop stop-color="#29FADB"/>
<stop offset="1" stop-color="#29FADB" stop-opacity="0"/>
</radialGradient>
<radialGradient id="paint8_radial_1_13" cx="0" cy="0" r="1" gradientUnits="userSpaceOnUse" gradientTransform="translate(33.1003 41.4814) scale(69.6124 69.1733)">
<stop stop-color="#29FADB"/>
<stop offset="1" stop-color="#29FADB" stop-opacity="0"/>
</radialGradient>
<radialGradient id="paint9_radial_1_13" cx="0" cy="0" r="1" gradientUnits="userSpaceOnUse" gradientTransform="translate(33.1004 40.7976) scale(69.6124 69.1733)">
<stop stop-color="#29FADB"/>
<stop offset="1" stop-color="#29FADB" stop-opacity="0"/>
</radialGradient>
<linearGradient id="paint10_linear_1_13" x1="40.8693" y1="72.7685" x2="68.6268" y2="44.8348" gradientUnits="userSpaceOnUse">
<stop stop-color="#29FADB" stop-opacity="0"/>
<stop offset="1" stop-color="#29FADB"/>
</linearGradient>
<radialGradient id="paint11_radial_1_13" cx="0" cy="0" r="1" gradientUnits="userSpaceOnUse" gradientTransform="translate(33.1002 41.1323) scale(69.6124 69.1733)">
<stop stop-color="#29FADB"/>
<stop offset="1" stop-color="#29FADB" stop-opacity="0"/>
</radialGradient>
<radialGradient id="paint12_radial_1_13" cx="0" cy="0" r="1" gradientUnits="userSpaceOnUse" gradientTransform="translate(33.5184 41.0499) scale(68.2732 67.8425)">
<stop stop-color="#29FADB"/>
<stop offset="1" stop-color="#29FADB" stop-opacity="0"/>
</radialGradient>
<radialGradient id="paint13_radial_1_13" cx="0" cy="0" r="1" gradientUnits="userSpaceOnUse" gradientTransform="translate(33.1002 41.4704) scale(69.6124 69.1733)">
<stop stop-color="#29FADB"/>
<stop offset="1" stop-color="#29FADB" stop-opacity="0"/>
</radialGradient>
<radialGradient id="paint14_radial_1_13" cx="0" cy="0" r="1" gradientUnits="userSpaceOnUse" gradientTransform="translate(76.8225 75.0968) rotate(179.13) scale(69.6135 69.1746)">
<stop offset="0.4828" stop-color="#29FADB" stop-opacity="0"/>
<stop offset="1" stop-color="#29FADB"/>
</radialGradient>
<radialGradient id="paint15_radial_1_13" cx="0" cy="0" r="1" gradientUnits="userSpaceOnUse" gradientTransform="translate(45.0405 23.4956) scale(69.6124 69.1733)">
<stop stop-color="#29FADB"/>
<stop offset="0.6715" stop-color="#29FADB" stop-opacity="0"/>
</radialGradient>
<radialGradient id="paint16_radial_1_13" cx="0" cy="0" r="1" gradientUnits="userSpaceOnUse" gradientTransform="translate(43.3448 25.0601) scale(69.6124 69.1733)">
<stop stop-color="#29FADB"/>
<stop offset="1" stop-color="#29FADB" stop-opacity="0"/>
</radialGradient>
<radialGradient id="paint17_radial_1_13" cx="0" cy="0" r="1" gradientUnits="userSpaceOnUse" gradientTransform="translate(33.1003 41.3935) scale(69.6124 69.1733)">
<stop stop-color="#29FADB"/>
<stop offset="1" stop-color="#29FADB" stop-opacity="0"/>
</radialGradient>
<linearGradient id="paint18_linear_1_13" x1="45.4425" y1="33.2316" x2="74.2267" y2="33.2316" gradientUnits="userSpaceOnUse">
<stop stop-color="#29FADB" stop-opacity="0"/>
<stop offset="1" stop-color="#29FADB"/>
</linearGradient>
</defs>
</svg>
